<svg width="370" height="367" viewBox="0 0 370 367" fill="none" xmlns="http://www.w3.org/2000/svg">
<path d="M196.578 366.054C305.144 366.054 393.155 320.998 393.155 265.418C393.155 209.839 305.144 164.782 196.578 164.782C88.0108 164.782 0 209.839 0 265.418C0 320.998 88.0108 366.054 196.578 366.054Z" fill="#FAFAFA"/>
<path d="M308.645 330.384C338.225 330.384 362.204 315.572 362.204 297.3C362.204 279.028 338.225 264.216 308.645 264.216C279.065 264.216 255.086 279.028 255.086 297.3C255.086 315.572 279.065 330.384 308.645 330.384Z" fill="#E0E0E0"/>
<path d="M181.506 237.935L147.186 218.127C146.616 217.835 145.985 217.683 145.345 217.683C144.705 217.683 144.074 217.835 143.505 218.127L29.7568 283.809C29.5339 283.884 29.34 284.026 29.2027 284.217C29.0653 284.408 28.9914 284.637 28.9914 284.872C28.9914 285.107 29.0653 285.336 29.2027 285.526C29.34 285.717 29.5339 285.86 29.7568 285.934L64.0681 305.75C64.6397 306.036 65.2699 306.184 65.9088 306.184C66.5478 306.184 67.178 306.036 67.7496 305.75L77.8881 299.894L171.359 246.072L181.514 240.101C181.743 240.027 181.943 239.881 182.085 239.686C182.227 239.491 182.303 239.256 182.302 239.015C182.301 238.773 182.223 238.539 182.08 238.345C181.937 238.15 181.736 238.007 181.506 237.935Z" fill="#E0E0E0"/>
<path d="M335.783 284.995L330.479 282.178C330.479 282.178 330.998 256.284 336.368 236.229C341.869 215.697 357.88 193.015 373.01 201.515C388.139 210.014 361.249 227.483 353.161 244.342C345.073 261.201 335.783 284.995 335.783 284.995Z" fill="#407BFF" fill-opacity="0.3"/>
<path opacity="0.15" d="M335.783 284.995L330.479 282.178C330.479 282.178 330.998 256.284 336.368 236.229C341.869 215.697 357.88 193.015 373.01 201.515C388.139 210.014 361.249 227.483 353.161 244.342C345.073 261.201 335.783 284.995 335.783 284.995Z" fill="black"/>
<path d="M335.083 278.851C335.013 278.849 334.943 278.833 334.879 278.804C334.815 278.775 334.757 278.734 334.709 278.682C334.661 278.631 334.623 278.571 334.598 278.505C334.574 278.439 334.562 278.369 334.564 278.299C335.701 238.115 353.268 213.58 367.969 204.784C368.092 204.711 368.238 204.689 368.376 204.724C368.515 204.759 368.633 204.847 368.707 204.97C368.78 205.092 368.801 205.238 368.767 205.376C368.732 205.515 368.644 205.633 368.521 205.707C354.05 214.363 336.763 238.577 335.635 278.324C335.634 278.395 335.618 278.465 335.59 278.53C335.562 278.595 335.521 278.654 335.469 278.703C335.418 278.752 335.357 278.79 335.291 278.816C335.225 278.841 335.154 278.853 335.083 278.851Z" fill="white"/>
<path d="M338.18 286.23L333.444 283.801C333.444 283.801 334.029 271.084 343.772 254.513C352.42 239.796 369.946 228.265 377.309 232.375C383.025 235.554 384.343 242.522 378.866 247.159C373.389 251.795 348.104 261.522 338.18 286.23Z" fill="#407BFF" fill-opacity="0.3"/>
<path d="M336.277 282.17C337.101 282.335 337.389 280.301 337.554 279.782C337.867 278.81 338.196 277.855 338.559 276.899C339.268 275.041 340.073 273.222 340.972 271.447C342.701 268.034 344.727 264.779 347.025 261.72C349.173 258.856 351.515 256.143 354.034 253.6C356.307 251.312 358.699 249.146 361.199 247.11C363.291 245.397 365.466 243.774 367.698 242.25C369.345 241.13 370.992 240.06 372.713 239.055C373.611 238.528 374.509 238.009 375.439 237.531L375.703 237.399C375.85 237.327 375.963 237.2 376.017 237.044C376.07 236.889 376.059 236.719 375.987 236.572C375.915 236.424 375.787 236.311 375.632 236.258C375.477 236.205 375.307 236.215 375.159 236.287C374.583 236.568 374.031 236.88 373.512 237.193C372.063 238.017 370.646 238.841 369.254 239.763C367.19 241.097 365.175 242.508 363.209 243.996C360.771 245.841 358.429 247.799 356.184 249.869C353.624 252.213 351.214 254.716 348.969 257.363C346.535 260.218 344.331 263.261 342.38 266.464C340.304 269.855 338.566 273.441 337.191 277.171C336.933 277.89 336.686 278.607 336.45 279.321C336.104 280.033 335.894 280.804 335.832 281.594C335.843 281.719 335.887 281.84 335.961 281.941C336.035 282.043 336.136 282.122 336.252 282.17H336.277Z" fill="white"/>
<path d="M67.5107 262.411C67.5107 262.411 67.6425 246.261 61.2925 232.894C54.9426 219.526 45.0099 210.483 34.9372 208.416C24.8646 206.349 15.5743 214.667 25.6223 222.417C35.6702 230.167 54.1272 239.136 60.0242 264.24L67.5107 262.411Z" fill="#407BFF" fill-opacity="0.3"/>
<path opacity="0.15" d="M67.5107 262.411C67.5107 262.411 67.6425 246.261 61.2925 232.894C54.9426 219.526 45.0099 210.483 34.9372 208.416C24.8646 206.349 15.5743 214.667 25.6223 222.417C35.6702 230.167 54.1272 239.136 60.0242 264.24L67.5107 262.411Z" fill="black"/>
<path d="M63.3104 259.62C63.2053 259.62 63.1042 259.58 63.0276 259.508C62.951 259.436 62.9049 259.338 62.8986 259.233C61.3502 233.38 40.0518 216.57 29.5262 213.704C29.4217 213.675 29.3328 213.606 29.2788 213.512C29.2248 213.418 29.2101 213.306 29.2379 213.201C29.2669 213.095 29.3368 213.004 29.4324 212.948C29.5279 212.893 29.6416 212.877 29.7486 212.905C40.4554 215.829 62.1491 232.919 63.7222 259.183C63.7248 259.291 63.6863 259.397 63.6145 259.478C63.5427 259.559 63.4428 259.609 63.3351 259.62H63.3104Z" fill="white"/>
<path d="M68.812 284.583C70.8524 282.009 72.2215 278.968 72.7965 275.733C73.3715 272.499 73.1344 269.172 72.1064 266.052C71.5086 264.168 70.5521 262.418 69.2897 260.897C68.2767 259.702 66.8189 259.085 65.6329 258.088C63.0797 255.971 60.1148 253.723 59.1923 250.363C58.4511 247.686 58.6076 245.149 57.1251 242.637C56.2516 241.064 54.8606 239.842 53.1883 239.178C51.0057 238.355 48.6008 238.898 46.2947 239.178C43.0003 239.549 40.5295 238.412 37.6798 236.897C34.5419 235.25 30.8769 233.948 27.4754 234.961C26.3691 235.289 25.3441 235.846 24.4667 236.595C23.5893 237.344 22.8791 238.269 22.3822 239.311C21.8852 240.352 21.6126 241.486 21.5819 242.639C21.5513 243.793 21.7633 244.94 22.2043 246.006C22.962 247.851 24.3622 249.35 25.3917 251.063C26.4212 252.776 26.9647 254.736 26.2153 256.606C25.6387 257.989 24.5681 259.076 24.1398 260.485C22.9209 264.191 23.6044 267.485 27.286 269.396C31.1322 271.365 37.1692 269.882 39.0964 274.717C39.8212 276.553 39.8459 278.588 40.2412 280.523C41.0527 284.418 43.3174 287.858 46.5747 290.143C50.9975 293.215 57.0016 292.465 61.589 290.324C64.4074 288.993 66.8796 287.029 68.812 284.583Z" fill="#407BFF" fill-opacity="0.3"/>
<path d="M34.1383 261.193C34.2283 261.208 34.3208 261.193 34.4019 261.151C37.6458 259.897 41.127 259.377 44.5958 259.628C48.0646 259.878 51.4349 260.894 54.4649 262.601C54.5687 262.656 54.6902 262.669 54.8029 262.635C54.9156 262.601 55.0103 262.523 55.0661 262.42C55.095 262.369 55.1135 262.313 55.1204 262.255C55.1274 262.197 55.1226 262.139 55.1065 262.083C55.0904 262.027 55.0632 261.974 55.0266 261.929C54.9899 261.884 54.9445 261.846 54.8931 261.819C51.7452 260.051 48.2446 259.002 44.6431 258.749C41.0417 258.495 37.4287 259.043 34.0642 260.353C33.9851 260.396 33.9211 260.462 33.8806 260.543C33.8401 260.624 33.8252 260.715 33.8377 260.804C33.8502 260.893 33.8896 260.977 33.9506 261.043C34.0117 261.11 34.0915 261.156 34.1795 261.176L34.1383 261.193Z" fill="white"/>
<path d="M62.8986 284.723C62.7907 284.725 62.6863 284.685 62.6078 284.611C62.5292 284.537 62.4828 284.435 62.4785 284.328C61.7126 265.714 43.025 246.03 30.498 240.677C30.4474 240.656 30.4015 240.625 30.3628 240.587C30.3242 240.548 30.2936 240.502 30.2729 240.451C30.2522 240.401 30.2418 240.347 30.2423 240.292C30.2427 240.237 30.2541 240.183 30.2757 240.133C30.3207 240.032 30.4041 239.952 30.5074 239.912C30.6108 239.872 30.7259 239.875 30.8275 239.919C43.5521 245.371 62.528 265.385 63.3104 284.311C63.3126 284.366 63.3039 284.421 63.2848 284.473C63.2657 284.525 63.2366 284.572 63.1991 284.613C63.1616 284.654 63.1165 284.686 63.0664 284.709C63.0162 284.733 62.962 284.745 62.9068 284.748L62.8986 284.723Z" fill="white"/>
<path d="M166.047 18.7574L72.8313 72.5552C71.9082 73.1577 71.1411 73.9705 70.5927 74.9268C70.0444 75.8831 69.7306 76.9558 69.6769 78.0568V297.572C69.6769 299.581 71.0935 300.397 72.8313 299.384L166.047 245.569C166.964 244.968 167.727 244.16 168.274 243.21C168.822 242.261 169.14 241.195 169.201 240.101V20.5529C169.201 18.5433 167.784 17.7197 166.047 18.7574ZM164.663 223.835C164.663 225.556 163.452 226.651 161.962 227.508L76.6034 276.809C75.1209 277.632 73.902 276.973 73.902 275.244V92.6923C73.9023 91.7483 74.1514 90.8212 74.6242 90.0042C75.0971 89.1873 75.7769 88.5094 76.5951 88.0389L161.953 38.7298C162.227 38.5707 162.538 38.4865 162.855 38.4858C163.172 38.485 163.483 38.5677 163.758 38.7254C164.032 38.8832 164.261 39.1106 164.42 39.3846C164.579 39.6586 164.662 39.9696 164.663 40.2864V223.835Z" fill="#455A64"/>
<path d="M164.663 223.834C164.663 225.556 163.452 226.651 161.962 227.507L76.6033 276.808C75.1208 277.632 73.9019 276.973 73.9019 275.243V92.6919C73.9022 91.748 74.1514 90.8208 74.6242 90.0038C75.097 89.1869 75.7768 88.509 76.5951 88.0385L161.953 38.7294C162.227 38.5703 162.538 38.4861 162.855 38.4854C163.172 38.4846 163.483 38.5673 163.758 38.7251C164.032 38.8828 164.261 39.1102 164.42 39.3842C164.578 39.6582 164.662 39.9692 164.663 40.286V223.834Z" fill="#263238"/>
<path d="M76.6033 276.809L161.962 227.525C162.561 227.201 163.115 226.799 163.609 226.33L73.9019 175.811V275.244C73.9019 276.974 75.1208 277.666 76.6033 276.809Z" fill="#37474F"/>
<path d="M157.753 220.631V41.1592L76.5951 88.0387C75.7768 88.5092 75.097 89.1871 74.6242 90.004C74.1514 90.821 73.9022 91.7481 73.9019 92.692V271.159L155.052 224.304C156.542 223.447 157.753 222.352 157.753 220.631Z" fill="#407BFF" fill-opacity="0.3"/>
<path d="M72.4359 299.606C71.4947 300.003 70.4785 300.191 69.4575 300.157C68.4365 300.123 67.4351 299.868 66.5225 299.409L62.9151 297.325C61.9945 296.729 61.2281 295.923 60.6784 294.974C60.1288 294.025 59.8115 292.96 59.7524 291.865V72.2919C59.7732 71.4782 59.9581 70.677 60.296 69.9364C60.4113 69.6811 60.5349 69.434 60.6749 69.1787L70.5581 74.9439C70.3504 75.3152 70.1688 75.7005 70.0145 76.097C69.7746 76.7206 69.6437 77.3809 69.6274 78.0489V297.572C69.6769 299.425 70.8793 300.265 72.4359 299.606Z" fill="#263238"/>
<path d="M122.223 255.379C124.241 255.379 124.455 257.644 124.455 258.616C124.334 260.563 123.763 262.456 122.787 264.145C121.811 265.834 120.456 267.274 118.829 268.351C118.177 268.765 117.428 269.004 116.655 269.043C114.637 269.043 114.423 266.778 114.423 265.806C114.545 263.859 115.115 261.966 116.089 260.276C117.064 258.585 118.416 257.143 120.04 256.063C120.698 255.654 121.449 255.419 122.223 255.379Z" fill="#407BFF" fill-opacity="0.3"/>
<path d="M119.373 49.1571C120.197 48.6629 120.913 49.0582 120.913 50.0466C120.883 50.5809 120.728 51.1007 120.461 51.5642C120.193 52.0277 119.821 52.4219 119.373 52.715C118.549 53.201 117.825 52.8056 117.825 51.8256C117.853 51.2899 118.008 50.7686 118.277 50.3047C118.546 49.8407 118.922 49.4474 119.373 49.1571Z" fill="#263238"/>
<path d="M109.424 62.1617C110.182 61.7252 110.791 62.0793 110.791 62.9853C110.766 63.4592 110.629 63.9205 110.391 64.3314C110.154 64.7422 109.822 65.0909 109.424 65.349C108.666 65.7856 108.057 65.4314 108.057 64.5254C108.083 64.0518 108.221 63.591 108.458 63.1804C108.696 62.7697 109.027 62.4208 109.424 62.1617Z" fill="#263238"/>
<path d="M113.995 59.4598L129.306 50.6225C130.129 50.1366 130.821 50.4825 130.821 51.3885C130.781 51.8973 130.623 52.3897 130.36 52.8271C130.097 53.2644 129.736 53.6347 129.306 53.9087L113.995 62.746C113.171 63.2319 112.479 62.886 112.479 61.98C112.52 61.4713 112.677 60.9788 112.94 60.5414C113.203 60.1041 113.564 59.7338 113.995 59.4598Z" fill="#263238"/>
<path d="M169.168 20.0505C168.938 18.4033 167.628 17.8185 166.055 18.7327L72.823 72.5552C71.8901 73.1343 71.1238 73.946 70.5993 74.9107L60.7161 69.1455C61.2488 68.1885 62.017 67.3834 62.948 66.8064L156.122 12.9922C157.1 12.4966 158.181 12.2383 159.277 12.2383C160.373 12.2383 161.453 12.4966 162.431 12.9922L166.055 15.0677C166.899 15.6279 167.614 16.3625 168.151 17.2219C168.688 18.0814 169.035 19.0459 169.168 20.0505Z" fill="#37474F"/>
<path d="M144.715 26.7133C144.232 26.9717 143.693 27.1116 143.145 27.1217C142.597 27.1317 142.054 27.0115 141.561 26.7709C141.396 26.7005 141.253 26.5868 141.147 26.4419C141.041 26.2969 140.976 26.126 140.96 25.9473C140.96 25.7167 140.96 24.8602 140.96 24.6213C140.986 24.4158 141.065 24.2206 141.189 24.0547C141.313 23.8887 141.478 23.7577 141.668 23.6742L151.658 17.909C152.144 17.6524 152.683 17.5135 153.233 17.5035C153.782 17.4935 154.326 17.6126 154.821 17.8513C154.983 17.925 155.123 18.0398 155.227 18.1842C155.331 18.3287 155.395 18.4979 155.414 18.6749C155.414 18.9138 155.414 19.8033 155.414 20.0339C155.388 20.2406 155.309 20.4372 155.185 20.6045C155.061 20.7719 154.896 20.9044 154.706 20.9892L144.715 26.7133Z" fill="#407BFF" fill-opacity="0.3"/>
<path opacity="0.25" d="M144.715 26.7133C144.232 26.9717 143.693 27.1116 143.145 27.1217C142.597 27.1317 142.054 27.0115 141.561 26.7709C141.396 26.7005 141.253 26.5868 141.147 26.4419C141.041 26.2969 140.976 26.126 140.96 25.9473C140.96 25.7167 140.96 24.8602 140.96 24.6213C140.986 24.4158 141.065 24.2206 141.189 24.0547C141.313 23.8887 141.478 23.7577 141.668 23.6742L151.658 17.909C152.144 17.6524 152.683 17.5135 153.233 17.5035C153.782 17.4935 154.326 17.6126 154.821 17.8513C154.983 17.925 155.123 18.0398 155.227 18.1842C155.331 18.3287 155.395 18.4979 155.414 18.6749C155.414 18.9138 155.414 19.8033 155.414 20.0339C155.388 20.2406 155.309 20.4372 155.185 20.6045C155.061 20.7719 154.896 20.9044 154.706 20.9892L144.715 26.7133Z" fill="black"/>
<path d="M144.715 25.4039L154.706 19.6387C155.612 19.1116 155.653 18.2962 154.813 17.8103C154.318 17.5716 153.774 17.4525 153.225 17.4625C152.675 17.4725 152.136 17.6114 151.65 17.868L141.66 23.6332C140.762 24.152 140.713 24.9674 141.561 25.4533C142.054 25.6932 142.596 25.8137 143.144 25.8051C143.692 25.7966 144.23 25.6591 144.715 25.4039Z" fill="#407BFF" fill-opacity="0.3"/>
<path opacity="0.3" d="M144.715 25.4039L154.706 19.6387C155.612 19.1116 155.653 18.2962 154.813 17.8103C154.318 17.5716 153.774 17.4525 153.225 17.4625C152.675 17.4725 152.136 17.6114 151.65 17.868L141.66 23.6332C140.762 24.152 140.713 24.9674 141.561 25.4533C142.054 25.6932 142.596 25.8137 143.144 25.8051C143.692 25.7966 144.23 25.6591 144.715 25.4039Z" fill="black"/>
<path d="M65.9954 105.376C65.9758 104.827 65.8269 104.292 65.5606 103.812C65.2944 103.333 64.9184 102.923 64.4635 102.616C64.3144 102.506 64.1378 102.44 63.9533 102.424C63.7687 102.408 63.5832 102.443 63.4175 102.526C63.2281 102.641 62.4703 103.061 62.2727 103.185C62.1073 103.31 61.9771 103.476 61.8949 103.667C61.8126 103.857 61.781 104.066 61.8032 104.272V128.749C61.8231 129.297 61.9714 129.831 62.2361 130.311C62.5008 130.79 62.8744 131.2 63.3269 131.508C63.4758 131.609 63.6479 131.669 63.8268 131.683C64.0056 131.698 64.1852 131.666 64.3482 131.591C64.5623 131.484 65.3283 131.039 65.5342 130.915C65.6996 130.79 65.8297 130.624 65.912 130.434C65.9942 130.243 66.0258 130.035 66.0036 129.828L65.9954 105.376Z" fill="#407BFF" fill-opacity="0.3"/>
<path opacity="0.3" d="M65.9954 105.376C65.9758 104.827 65.8269 104.292 65.5606 103.812C65.2944 103.333 64.9184 102.923 64.4635 102.616C64.3144 102.506 64.1378 102.44 63.9533 102.424C63.7687 102.408 63.5832 102.443 63.4175 102.526C63.2281 102.641 62.4703 103.061 62.2727 103.185C62.1073 103.31 61.9771 103.476 61.8949 103.667C61.8126 103.857 61.781 104.066 61.8032 104.272V128.749C61.8231 129.297 61.9714 129.831 62.2361 130.311C62.5008 130.79 62.8744 131.2 63.3269 131.508C63.4758 131.609 63.6479 131.669 63.8268 131.683C64.0056 131.698 64.1852 131.666 64.3482 131.591C64.5623 131.484 65.3283 131.039 65.5342 130.915C65.6996 130.79 65.8297 130.624 65.912 130.434C65.9942 130.243 66.0258 130.035 66.0036 129.828L65.9954 105.376Z" fill="black"/>
<path d="M64.8588 106.059V130.536C64.8588 131.574 64.1752 132.019 63.3269 131.533C62.8744 131.225 62.5007 130.814 62.2361 130.335C61.9714 129.856 61.8231 129.321 61.8032 128.774V104.272C61.8032 103.226 62.4868 102.781 63.3269 103.267C63.7853 103.578 64.1633 103.993 64.4296 104.478C64.696 104.964 64.8431 105.505 64.8588 106.059Z" fill="#407BFF" fill-opacity="0.3"/>
<path opacity="0.4" d="M64.8588 106.059V130.536C64.8588 131.574 64.1752 132.019 63.3269 131.533C62.8744 131.225 62.5007 130.814 62.2361 130.335C61.9714 129.856 61.8231 129.321 61.8032 128.774V104.272C61.8032 103.226 62.4868 102.781 63.3269 103.267C63.7853 103.578 64.1633 103.993 64.4296 104.478C64.696 104.964 64.8431 105.505 64.8588 106.059Z" fill="black"/>
<path d="M65.9954 138.179C65.9758 137.631 65.8269 137.095 65.5606 136.616C65.2944 136.136 64.9184 135.727 64.4635 135.42C64.3144 135.31 64.1378 135.243 63.9532 135.227C63.7687 135.211 63.5832 135.247 63.4175 135.33C63.2281 135.445 62.4703 135.865 62.2727 135.988C62.1073 136.114 61.9771 136.28 61.8949 136.47C61.8126 136.661 61.781 136.869 61.8032 137.076V148.606C61.8244 149.152 61.9733 149.685 62.2379 150.163C62.5025 150.64 62.8755 151.049 63.3269 151.357C63.4709 151.463 63.6407 151.529 63.8188 151.548C63.9969 151.567 64.1768 151.538 64.3399 151.464C64.5541 151.357 65.32 150.912 65.5259 150.789C65.6906 150.665 65.8205 150.5 65.9027 150.311C65.985 150.122 66.0169 149.915 65.9954 149.71V138.179Z" fill="#407BFF" fill-opacity="0.3"/>
<path opacity="0.3" d="M65.9954 138.179C65.9758 137.631 65.8269 137.095 65.5606 136.616C65.2944 136.136 64.9184 135.727 64.4635 135.42C64.3144 135.31 64.1378 135.243 63.9532 135.227C63.7687 135.211 63.5832 135.247 63.4175 135.33C63.2281 135.445 62.4703 135.865 62.2727 135.988C62.1073 136.114 61.9771 136.28 61.8949 136.47C61.8126 136.661 61.781 136.869 61.8032 137.076V148.606C61.8244 149.152 61.9733 149.685 62.2379 150.163C62.5025 150.64 62.8755 151.049 63.3269 151.357C63.4709 151.463 63.6407 151.529 63.8188 151.548C63.9969 151.567 64.1768 151.538 64.3399 151.464C64.5541 151.357 65.32 150.912 65.5259 150.789C65.6906 150.665 65.8205 150.5 65.9027 150.311C65.985 150.122 66.0169 149.915 65.9954 149.71V138.179Z" fill="black"/>
<path d="M64.8588 138.798V150.328C64.8588 151.366 64.1752 151.819 63.3269 151.325C62.8744 151.016 62.5007 150.606 62.2361 150.127C61.9714 149.647 61.8231 149.113 61.8032 148.565V137.035C61.8032 135.997 62.4868 135.544 63.3269 136.03C63.7811 136.339 64.1563 136.751 64.4224 137.231C64.6885 137.712 64.8379 138.249 64.8588 138.798Z" fill="#407BFF" fill-opacity="0.3"/>
<path opacity="0.4" d="M64.8588 138.798V150.328C64.8588 151.366 64.1752 151.819 63.3269 151.325C62.8744 151.016 62.5007 150.606 62.2361 150.127C61.9714 149.647 61.8231 149.113 61.8032 148.565V137.035C61.8032 135.997 62.4868 135.544 63.3269 136.03C63.7811 136.339 64.1563 136.751 64.4224 137.231C64.6885 137.712 64.8379 138.249 64.8588 138.798Z" fill="black"/>
<path d="M93.2896 117.746C93.3714 118.146 93.4815 118.539 93.619 118.923C94.1543 120.373 95.118 121.74 95.0356 123.289C94.945 125.035 93.5696 126.385 92.5154 127.777C91.1453 129.618 90.2322 131.757 89.8513 134.02C89.4704 136.282 89.6326 138.603 90.3246 140.79C91.3372 143.454 92.7418 145.953 94.492 148.203L98.47 153.844C99.6729 155.424 101.208 156.72 102.967 157.641C106.385 159.573 110.199 160.7 114.118 160.935C120.561 161.37 126.969 159.69 132.37 156.15C138.094 152.362 135.573 142.643 141.429 139.093C148.512 134.811 151.889 119.936 143.208 113.727C143.208 113.727 144.608 104.617 142.039 102.295C139.478 100.152 136.309 98.8673 132.979 98.6216C128.383 98.1439 123.779 99.0417 119.192 99.0252C114.469 99.01 109.751 99.3043 105.067 99.9064C103.42 100.129 101.097 100.73 100.208 102.336C99.9567 102.966 99.8882 103.654 100.01 104.321C99.9974 105.379 99.6192 106.401 98.9395 107.212C97.9182 108.447 96.4687 109.279 95.3815 110.44C94.4844 111.409 93.8276 112.574 93.4642 113.844C93.1008 115.113 93.041 116.449 93.2896 117.746Z" fill="#263238"/>
<path d="M139 130.891C146.412 131.097 147.376 132.678 154.014 139.25C159.532 144.711 177.816 161.586 177.816 161.586L199.724 167.417L194.552 180.785C194.552 180.785 189.61 180.579 179.727 180.57C173.657 180.57 171.548 179.211 165.437 175.135C162.324 173.051 144.757 161.553 144.757 161.553L139 130.891Z" fill="#E6E6E6"/>
<path d="M223.962 140.387L183.812 154.536L172.743 202.305L173.64 203.261L211.814 189.02L224.852 141.342L223.962 140.387Z" fill="#407BFF" fill-opacity="0.3"/>
<path opacity="0.35" d="M184.701 155.492L173.64 203.26L172.743 202.305L183.812 154.536L184.701 155.492Z" fill="black"/>
<path opacity="0.25" d="M224.852 141.342L184.701 155.491L173.64 203.26L211.814 189.02L224.852 141.342Z" fill="black"/>
<g opacity="0.2">
<path d="M205.843 179.302C206.214 180.241 209.294 182.308 213.75 181.937L214.499 179.187L205.843 179.302Z" fill="black"/>
</g>
<g opacity="0.1">
<path d="M212.761 151.126L213.091 149.52C213.272 148.639 210.917 149.1 207.828 150.558L200.58 152.749C197.492 154.206 194.576 155.294 194.387 156.175L194.057 157.773L212.761 151.126Z" fill="black"/>
</g>
<path d="M215.15 143.879C215.265 143.327 214.326 143.443 213.066 143.78L210.752 144.563C210.752 144.563 211.699 142.24 206.222 143.739C200.201 145.386 200.07 148.376 200.07 148.376C199.128 148.785 198.163 149.137 197.179 149.43C195.177 150.081 194.963 150.468 194.799 151.028L194.502 152.041L214.969 144.843C214.969 144.843 215.068 144.431 215.15 143.879Z" fill="#37474F"/>
<path d="M212.992 146.951C211.098 147.775 210.315 148.228 210.027 149.595C209.706 151.152 209.64 151.802 209.64 151.802L198.983 156.003C198.983 156.003 199.559 153.705 199.699 152.939C199.839 152.173 198.431 152.173 196.586 153.021L197.022 151.11L213.601 144.958L212.992 146.951Z" fill="#37474F"/>
<path d="M213.305 151.151C213.305 151.151 213.461 150.435 213.643 149.545C213.824 148.656 211.468 149.125 208.38 150.583L201.132 152.774C198.044 154.232 195.12 155.319 194.939 156.2L194.609 157.847L213.305 151.151Z" fill="#37474F"/>
<path d="M220.388 157.683C220.388 157.683 218.963 162.921 218.584 164.272C218.205 165.622 211.633 168.629 208.347 169.04C202.055 169.823 201.338 171.182 202.845 175.629C204.245 179.747 208.339 181.312 214.022 180.645C216.69 180.332 220.372 177.968 221.821 173.842C223.666 168.571 222.645 162.946 223.411 159.841C224.177 156.736 221.986 155.846 220.388 157.683Z" fill="#FFA8A7"/>
<path d="M158.173 229.715L153.915 232.185L152.128 233.215L128.704 246.73L125.509 248.542L120.114 251.655L121.762 234.846L124.908 202.297V201.959L125.056 200.501L129.174 157.946L130.978 139.324L131.612 132.645L131.826 130.487H131.941C133.849 129.956 135.865 129.956 137.772 130.487C138.198 130.616 138.611 130.781 139.008 130.981C141.479 132.208 143.126 134.597 144.493 137.109C144.829 137.72 145.131 138.35 145.399 138.995C146.414 141.436 147.198 143.967 147.738 146.555C148.817 151.332 150.209 156.216 150.761 163.917C150.847 165.899 150.743 167.885 150.448 169.847C150.076 175.038 150.013 180.247 150.258 185.446C150.95 197.223 153.915 202.56 158.173 229.715Z" fill="#E0E0E0"/>
<path d="M152.128 233.199L128.704 246.714L125.509 248.543L120.114 251.656L116.4 253.797L93.8496 266.81C94.0885 257.75 94.1955 247.925 93.9814 238.643C93.9155 235.538 93.8908 232.367 94.0226 229.122C94.4508 217.855 96.5922 205.773 104.268 193.056L104.622 192.414C105.528 197.792 113.764 201.284 121.177 202.108L122 202.182C122.931 202.273 123.895 202.314 124.891 202.314H125.517C131.785 202.256 139.205 200.782 147.754 197.891C148.578 202.668 149.402 208.936 150.283 216.266C150.678 219.56 151.079 223.071 151.485 226.799C151.65 228.883 151.905 231.016 152.128 233.199Z" fill="#FFA8A7"/>
<path d="M153.915 232.169L152.128 233.199L128.704 246.714L125.509 248.542L120.114 251.656L116.4 253.797L93.8496 266.81L91.3788 268.235C91.5023 258.483 91.5847 248.929 91.5764 242.934C91.5764 237.358 91.7 232.4 92.0047 228.002C92.606 219.321 93.8578 212.79 95.9498 207.848C98.4043 202.44 101.308 197.246 104.631 192.323C104.631 192.323 106.69 199.274 122.091 200.37H122.19C123.096 200.436 124.051 200.477 125.056 200.493H126.225C145.399 200.493 147.516 195.659 147.516 195.659C149.389 202.768 150.871 209.974 151.955 217.245C152.361 219.815 152.754 222.56 153.133 225.482C153.413 227.623 153.676 229.847 153.915 232.169Z" fill="#407BFF" fill-opacity="0.3"/>
<path opacity="0.4" d="M153.915 232.169L152.128 233.199L128.704 246.714L125.509 248.542L120.114 251.656L116.4 253.797L93.8496 266.81L91.3788 268.235C91.5023 258.483 91.5847 248.929 91.5764 242.934C91.5764 237.358 91.7 232.4 92.0047 228.002C92.606 219.321 93.8578 212.79 95.9498 207.848C98.4043 202.44 101.308 197.246 104.631 192.323C104.631 192.323 106.69 199.274 122.091 200.37H122.19C123.096 200.436 124.051 200.477 125.056 200.493H126.225C145.399 200.493 147.516 195.659 147.516 195.659C149.389 202.768 150.871 209.974 151.955 217.245C152.361 219.815 152.754 222.56 153.133 225.482C153.413 227.623 153.676 229.847 153.915 232.169Z" fill="black"/>
<path opacity="0.2" d="M142.92 221.24C142.92 221.24 140.779 228.043 131.768 231.856L131.34 233.94L128.704 246.714L125.509 248.543L127.42 234.451L128.243 228.323C133.812 227.746 139.003 225.24 142.92 221.24Z" fill="black"/>
<path d="M115.519 132.455L106.459 133.41C100.463 134.876 97.7535 137.528 97.1358 142.824C96.8475 145.295 95.3568 151.884 97.4488 160.12C99.3431 167.598 104.4 185.899 104.4 185.899C104.4 185.899 92.7625 201.086 90.6541 227.128C111.952 241.031 144.625 233.561 153.462 225.16C152.721 217.204 147.639 195.37 147.005 188.279C147.005 188.279 147.474 177.201 148.356 172.4C155.093 165.045 154.236 158.011 151.214 152.337C145.63 141.861 137.212 132.653 134.486 132.661L115.519 132.455Z" fill="#407BFF" fill-opacity="0.3"/>
<path opacity="0.7" d="M115.519 132.455L106.459 133.41C100.463 134.876 97.7535 137.528 97.1358 142.824C96.8475 145.295 95.3568 151.884 97.4488 160.12C99.3431 167.598 104.4 185.899 104.4 185.899C104.4 185.899 92.7625 201.086 90.6541 227.128C111.952 241.031 144.625 233.561 153.462 225.16C152.721 217.204 147.639 195.37 147.005 188.279C147.005 188.279 147.474 177.201 148.356 172.4C155.093 165.045 154.236 158.011 151.214 152.337C145.63 141.861 137.212 132.653 134.486 132.661L115.519 132.455Z" fill="white"/>
<path d="M123.368 189.161C123.368 189.325 123.368 189.474 123.368 189.597V189.811C123.373 189.88 123.373 189.949 123.368 190.017C123.055 193.312 122.684 196.812 122.289 200.378C122.289 200.378 122.289 200.378 122.289 200.428C122.231 201.004 122.165 201.581 122.099 202.165C120.888 212.913 119.447 224.403 118.335 234.862C118.064 237.399 117.816 239.87 117.594 242.275C117.248 245.874 116.878 249.819 116.499 253.805L93.9484 266.818L91.4776 268.243L85.1771 271.875C86.4454 259.398 89.4021 230.489 91.0494 217.443C91.2388 215.969 91.4859 214.495 91.7659 213.029L91.9883 211.958L92.0871 211.522C92.1942 211.027 92.3012 210.55 92.4165 210.064C92.5318 209.578 92.6389 209.166 92.746 208.73C93.0013 207.733 93.2731 206.753 93.5696 205.798C93.7096 205.336 93.8414 204.875 93.9896 204.422C94.1379 203.969 94.2614 203.516 94.4097 203.071C94.7062 202.182 94.9944 201.309 95.2991 200.461C95.2956 200.444 95.2956 200.427 95.2991 200.411C95.4392 200.008 95.5874 199.588 95.7357 199.209C95.9333 198.649 96.1392 198.105 96.3451 197.561L96.5922 196.911C96.7157 196.614 96.8228 196.326 96.9381 196.038C97.3417 195.025 97.7617 194.061 98.1323 193.163C98.2147 192.966 98.3053 192.768 98.3877 192.579C98.47 192.389 98.6018 192.109 98.7006 191.879C98.9477 191.302 99.1948 190.767 99.4336 190.231C99.5325 190.001 99.6395 189.778 99.7384 189.564C99.8372 189.35 99.9772 189.07 100.084 188.84L100.241 188.51L100.405 188.189C100.416 188.147 100.436 188.107 100.463 188.074C100.486 188.014 100.513 187.956 100.545 187.901C100.565 187.864 100.582 187.825 100.595 187.785C100.663 187.669 100.724 187.548 100.776 187.423L101.328 186.352C101.328 186.295 101.386 186.253 101.402 186.204L101.616 185.809L94.7638 157.394L91.3541 143.278V143.047C91.5106 141.795 92.5566 135.89 98.5853 134.095C101.989 133.216 105.475 132.697 108.987 132.546C110.338 132.464 111.557 132.431 112.554 132.406H114.127H115.074C115.076 132.425 115.076 132.445 115.074 132.464C115.123 132.587 115.263 132.958 115.477 133.535C115.501 133.631 115.534 133.725 115.576 133.815C115.577 133.828 115.577 133.842 115.576 133.856C117.059 137.924 121.218 149.768 123.285 160.055C123.648 161.834 123.944 163.571 124.158 165.219C124.776 170.366 124.323 178.981 123.368 189.161Z" fill="#FAFAFA"/>
<path d="M101.839 172.203C101.839 172.203 102.662 168.143 103.873 159.371C105.281 149.257 104.779 144.258 103.255 141.062L94.665 157.444L101.517 185.858C101.517 185.858 94.4755 198.756 91.6341 213.037C98.3712 194.004 105.742 188.329 105.742 188.329L101.839 172.203Z" fill="#E6E6E6"/>
<path d="M131.933 126.114C134.601 126.114 134.914 126.559 137.212 129.639C138.579 131.476 147.236 145.765 147.236 145.765C147.236 145.765 140.35 136.706 135.153 133.955C134.153 133.369 133.07 132.936 131.941 132.67L131.933 126.114Z" fill="#EBEBEB"/>
<path d="M112.199 156.48C112.199 155.656 112.117 153.877 111.977 151.637C111.294 140.65 110.964 130.767 114.67 129.943L114.992 131.459C112.29 132.044 113.18 146.185 113.517 151.505C113.666 153.795 113.781 155.623 113.74 156.513L112.199 156.48Z" fill="#407BFF" fill-opacity="0.3"/>
<path d="M99.8455 84.5464L105.611 89.2656C105.924 88.9069 106.161 88.488 106.307 88.0345C106.453 87.581 106.505 87.1026 106.459 86.6284C106.414 86.1542 106.272 85.6943 106.042 85.2768C105.813 84.8593 105.501 84.4931 105.125 84.2005C104.367 83.5737 103.398 83.2604 102.416 83.3247C101.435 83.389 100.515 83.8261 99.8455 84.5464Z" fill="#263238"/>
<path d="M114.901 126.814C114.901 123.198 106.475 117.754 102.127 110.152C97.7782 102.551 99.9525 90.0482 105.915 88.1292C105.965 88.1292 106.129 86.5232 106.154 86.4079C106.484 84.9573 107.04 83.5677 107.801 82.2899C110.231 78.106 115.379 74.8774 120.155 74.2021C139.041 71.4513 147.721 78.7896 151.189 86.8609C152.313 89.576 152.814 92.5085 152.655 95.4428C152.558 97.5979 151.758 99.662 150.378 101.32C148.998 102.978 147.113 104.139 145.012 104.626L114.901 126.814Z" fill="#263238"/>
<path d="M141.1 84.1592C144.798 85.8064 148.314 91.4316 148.257 107.261C148.207 120.686 144.089 124.079 142.014 125.076C139.938 126.072 135.878 125.562 131.933 124.96V132.669C131.933 132.669 134.89 135.577 133.852 137.405C132.814 139.234 128.984 140.782 123.03 138.912C116.285 136.796 114.744 132.323 114.744 132.323L114.588 115.407C114.588 115.407 112.323 117.787 108.329 114.295C105.034 111.404 103.848 106.454 106.327 103.736C108.806 101.018 111.985 100.804 114.851 103.843L116.91 102.756C120.584 102.328 125.97 101.71 129.94 99.7088C140.12 94.5283 141.174 88.9114 141.1 84.1592Z" fill="#FFA8A7"/>
<path d="M114.909 101.652L114.959 109.065C115.435 109.077 115.908 108.993 116.35 108.815C116.792 108.638 117.193 108.373 117.529 108.035C117.864 107.697 118.127 107.294 118.301 106.851C118.475 106.407 118.557 105.933 118.541 105.457C118.532 104.48 118.152 103.544 117.477 102.837C116.803 102.13 115.885 101.707 114.909 101.652Z" fill="#263238"/>
<path d="M141.446 102.707C141.449 103.055 141.555 103.395 141.749 103.684C141.944 103.973 142.219 104.198 142.541 104.332C142.862 104.466 143.216 104.502 143.558 104.437C143.9 104.371 144.216 104.207 144.465 103.964C144.715 103.721 144.888 103.411 144.962 103.07C145.037 102.73 145.01 102.375 144.885 102.05C144.76 101.725 144.542 101.444 144.259 101.242C143.975 101.039 143.639 100.925 143.29 100.912C143.051 100.906 142.813 100.948 142.59 101.036C142.366 101.124 142.163 101.255 141.991 101.422C141.82 101.589 141.683 101.789 141.589 102.01C141.495 102.23 141.447 102.467 141.446 102.707Z" fill="black"/>
<path d="M127.238 103.497C127.224 103.753 127.26 104.008 127.345 104.25C127.429 104.491 127.561 104.713 127.731 104.904C127.902 105.094 128.108 105.249 128.339 105.36C128.57 105.47 128.82 105.534 129.075 105.548C129.334 105.55 129.591 105.501 129.832 105.404C130.072 105.306 130.29 105.162 130.475 104.98C130.659 104.798 130.806 104.581 130.906 104.342C131.007 104.103 131.059 103.847 131.06 103.588C131.068 103.337 131.027 103.087 130.938 102.852C130.85 102.617 130.716 102.402 130.544 102.219C130.372 102.035 130.166 101.888 129.938 101.784C129.709 101.681 129.462 101.623 129.211 101.615C128.96 101.607 128.71 101.649 128.475 101.737C128.24 101.826 128.025 101.96 127.842 102.131C127.659 102.303 127.511 102.509 127.408 102.738C127.304 102.966 127.247 103.213 127.238 103.464V103.497Z" fill="black"/>
<path d="M146.157 99.3878L141.569 97.5676C141.675 97.259 141.844 96.9756 142.065 96.7351C142.285 96.4946 142.553 96.3023 142.852 96.1701C143.15 96.0379 143.472 95.9687 143.799 95.9668C144.125 95.965 144.448 96.0305 144.748 96.1593C145.353 96.4136 145.836 96.8907 146.098 97.4918C146.361 98.0929 146.381 98.7718 146.157 99.3878Z" fill="black"/>
<path d="M137.097 101.258L136.866 112.245L142.772 110.935L137.097 101.258Z" fill="#F28F8F"/>
<path d="M130.138 114.484L135.903 116.272C135.819 116.665 135.655 117.036 135.422 117.363C135.188 117.69 134.89 117.966 134.545 118.173C134.201 118.38 133.818 118.514 133.419 118.566C133.021 118.619 132.616 118.589 132.229 118.479C131.438 118.204 130.782 117.638 130.393 116.896C130.004 116.154 129.913 115.291 130.138 114.484Z" fill="#B16668"/>
<path d="M133.325 118.578C133.318 117.776 132.995 117.01 132.426 116.445C131.857 115.88 131.088 115.564 130.286 115.564C130.206 115.56 130.126 115.56 130.047 115.564C130.076 116.207 130.299 116.827 130.685 117.342C131.071 117.858 131.604 118.245 132.213 118.454C132.571 118.573 132.95 118.615 133.325 118.578Z" fill="#F28F8F"/>
<path d="M131.933 125.002C127.774 124.508 119.2 122.12 117.808 118.636C118.366 120.385 119.436 121.925 120.88 123.058C123.466 125.282 131.933 127.597 131.933 127.597V125.002Z" fill="#F28F8F"/>
<path d="M114.703 126.155C113.616 125.933 112.652 126.411 111.763 127.91C110.873 129.409 108.922 132.604 108.922 132.604C108.922 132.604 107.909 143.138 108.922 145.782C109.795 148.055 119.422 156.579 119.422 156.579C119.422 156.579 116.911 166.042 116.82 169.147C116.729 172.252 122.585 184.038 123.293 190.067C123.293 190.067 125.377 171.124 124.479 164.296C122.931 152.461 117.38 137.175 114.761 132.316L114.703 126.155Z" fill="#EBEBEB"/>
<path d="M120.592 165.358C119.949 163.829 119.192 162.351 118.327 160.936C116.96 158.671 115.271 156.496 113.748 155.936C113.517 155.845 113.272 155.794 113.023 155.788H112.941C112.69 155.802 112.444 155.864 112.216 155.969C111.013 156.505 109.745 158.144 108.716 160.03C107.661 161.924 106.792 163.915 106.121 165.976C105.726 167.253 105.899 169.962 106.368 173.059C107.291 179.071 109.342 186.583 110.486 188.065C111.325 189.101 112.317 190.003 113.427 190.742C112.747 191.191 112.014 191.554 111.244 191.821C110.809 191.98 110.349 192.06 109.885 192.06V193.138H110.017C110.507 193.131 110.992 193.05 111.458 192.9C112.538 192.549 113.557 192.035 114.481 191.376C115.456 191.957 116.514 192.384 117.619 192.644C118.139 192.769 118.677 192.802 119.208 192.743L119.077 191.672C118.615 191.711 118.151 191.675 117.701 191.565C116.909 191.359 116.145 191.054 115.428 190.659C116.473 189.827 117.389 188.845 118.146 187.744C118.788 186.764 119.579 183.387 120.172 179.508C120.534 177.194 120.831 174.706 120.996 172.441C121.177 169.279 121.094 166.569 120.592 165.358ZM117.191 187.151C116.418 188.266 115.469 189.247 114.382 190.058C113.227 189.345 112.197 188.446 111.335 187.398C110.264 186.006 108.287 178.676 107.398 172.894C106.945 169.971 106.78 167.442 107.143 166.305C107.814 164.22 108.703 162.21 109.795 160.31C110.931 158.349 112.142 156.908 112.982 156.875C113.978 156.875 115.593 158.679 117.1 160.993C117.405 161.446 117.693 161.94 117.973 162.435C118.587 163.499 119.137 164.599 119.62 165.729C120.073 166.849 120.123 169.378 119.917 172.318C119.801 173.965 119.62 175.686 119.39 177.399C118.764 181.872 117.882 186.064 117.191 187.126V187.151Z" fill="#455A64"/>
<path d="M120.683 192.109C120.695 192.423 120.615 192.734 120.451 193.003C120.286 193.271 120.046 193.485 119.761 193.617C119.475 193.749 119.157 193.793 118.846 193.744C118.535 193.694 118.246 193.554 118.015 193.34C117.784 193.127 117.622 192.849 117.548 192.543C117.475 192.237 117.494 191.917 117.604 191.621C117.713 191.326 117.907 191.07 118.162 190.886C118.417 190.701 118.721 190.597 119.035 190.585C119.456 190.569 119.865 190.721 120.174 191.007C120.482 191.292 120.665 191.689 120.683 192.109Z" fill="#263238"/>
<path d="M111.45 192.537C111.464 192.852 111.385 193.164 111.222 193.433C111.059 193.703 110.82 193.918 110.534 194.051C110.249 194.184 109.93 194.229 109.619 194.181C109.308 194.133 109.018 193.993 108.786 193.78C108.554 193.567 108.391 193.29 108.317 192.983C108.243 192.677 108.262 192.356 108.371 192.061C108.48 191.765 108.674 191.509 108.929 191.324C109.184 191.139 109.488 191.034 109.803 191.022C110.011 191.013 110.218 191.045 110.413 191.117C110.608 191.188 110.788 191.297 110.941 191.438C111.094 191.579 111.217 191.748 111.305 191.937C111.392 192.126 111.442 192.33 111.45 192.537Z" fill="#263238"/>
<path d="M120.864 172.425L119.95 172.359C119.856 172.351 119.77 172.307 119.709 172.236C119.647 172.166 119.616 172.074 119.62 171.98C119.81 168.958 119.711 166.734 119.34 165.845C117.742 161.941 114.399 157.048 112.99 157.106C111.582 157.164 108.666 162.328 107.398 166.347C107.11 167.269 107.2 169.493 107.637 172.491C107.651 172.583 107.629 172.676 107.575 172.752C107.521 172.827 107.44 172.878 107.348 172.895L106.443 173.035C106.348 173.046 106.252 173.02 106.176 172.961C106.101 172.903 106.051 172.817 106.039 172.722C105.537 169.361 105.479 167.055 105.858 165.861C106.533 163.703 109.72 155.624 112.924 155.492C116.128 155.36 119.991 163.135 120.847 165.235C121.317 166.388 121.457 168.694 121.243 172.079C121.236 172.175 121.193 172.264 121.123 172.328C121.052 172.393 120.959 172.428 120.864 172.425Z" fill="#407BFF" fill-opacity="0.3"/>
<path d="M101.114 133.988C95.085 133.889 92.3012 135.923 88.4797 141.038C85.4489 145.098 73.6549 167.039 69.7427 173.447L48.4444 162.064C44.1369 159.091 42.745 154.397 40.0189 151.654C37.2928 148.911 34.4678 148.36 31.4699 146.095C28.472 143.83 27.2531 142.067 26.3883 144.184C25.5235 146.301 28.8591 149.727 29.4933 150.575C30.1274 151.423 33.4713 153.31 29.1309 153.375C24.7905 153.441 16.2003 148.944 14.1083 148.146C12.0164 147.347 12.1399 149.842 13.1694 151.44C14.1989 153.038 14.1495 157.551 15.8873 160.162C17.724 162.929 18.7288 164.132 22.8221 165.927C26.6271 167.574 34.6161 168.233 38.66 170.762C42.7038 173.29 52.7271 182.202 58.8218 187.547C66.5719 194.341 71.917 195.585 76.2327 191.508C80.4249 187.118 84.6747 181.971 86.7501 179.36C92.3424 172.318 101.188 156.299 101.188 156.299C101.188 156.299 105.018 148.063 101.114 133.988Z" fill="#FFA8A7"/>
<path d="M101.946 133.386C93.0672 133.386 90.4152 136.598 85.8689 144.018C81.3226 151.439 69.6604 172.68 69.6604 172.68L52.8671 163.884C52.8671 163.884 49.8445 170.538 46.6324 177.399C46.6324 177.399 56.1368 185.635 60.6337 189.531C65.1306 193.426 71.0935 196.482 76.6198 191.713C82.5251 186.623 101.674 160.178 101.674 160.178C106.22 151.925 105.207 139.415 101.946 133.386Z" fill="#F0F0F0"/>
<path d="M69.6604 172.681C72.403 175.909 75.7221 179.541 75.5739 182.399C75.5739 182.399 77.4517 179.863 70.8546 170.515L69.6604 172.681Z" fill="#E0E0E0"/>
<path d="M37.894 93.4739L31.0252 97.4107L31.0499 89.5206L25.9106 86.5557L13.9272 93.4739V107.31L1.94373 114.229V128.065L7.08301 131.03L13.9272 127.077V134.992L19.0664 137.957L31.0499 131.03V117.194L43.0333 110.275V96.4389L37.894 93.4739Z" fill="#407BFF" fill-opacity="0.3"/>
<path d="M7.08301 117.194V131.03L19.0664 124.112V137.957L31.0499 131.03V117.194L43.0333 110.275V96.4388L31.0087 103.382L31.0499 89.5205L19.0664 96.4388V110.275L7.08301 117.194Z" fill="#407BFF" fill-opacity="0.3"/>
<g opacity="0.2">
<path d="M7.08301 131.03L1.94373 128.065V114.229L7.08301 117.193V131.03Z" fill="black"/>
<path d="M19.0664 96.4386L13.9271 93.4736V107.31L19.0664 110.275V96.4386Z" fill="black"/>
<path d="M19.0664 137.956L13.9271 134.991V127.076L19.0664 124.111V137.956Z" fill="black"/>
</g>
<g opacity="0.5">
<path d="M19.0664 110.276L13.9272 107.311L1.94373 114.229L7.08301 117.194L19.0664 110.276Z" fill="white"/>
<path d="M31.0498 89.5206L25.9106 86.5557L13.9271 93.4739L19.0664 96.4389L31.0498 89.5206Z" fill="white"/>
<path d="M43.0333 96.4386L37.894 93.4736L31.0251 97.4105L31.0087 103.382L43.0333 96.4386Z" fill="white"/>
</g>
<path d="M234.999 65.702C234.781 65.5135 234.547 65.3453 234.299 65.1996C233.426 64.6807 229.472 62.4075 229.266 62.284C227.174 60.9498 223.864 61.2463 220.915 62.737C216.69 64.8701 213.173 69.3752 210.488 76.8783C210.488 76.8783 207.77 74.9263 206.889 74.4074C204.707 73.2132 202.153 73.7897 199.279 75.6593C196.042 77.7677 193.835 80.5021 191.817 84.6366V84.7107C190.069 88.2214 189.113 92.0733 189.017 95.9941C189.017 104.667 192.567 108.801 197.187 111.906C198.505 112.796 201.989 114.665 202.335 114.896C205.123 116.737 208.207 118.085 211.452 118.882L216.006 119.944L220.561 113.627C223.877 108.97 226.921 104.124 229.678 99.1155C234.299 90.6736 237.914 82.4046 237.848 73.765C237.782 70.0671 236.72 67.3492 234.999 65.702Z" fill="#407BFF" fill-opacity="0.3"/>
<path opacity="0.3" d="M234.999 65.702C234.781 65.5135 234.547 65.3453 234.299 65.1996C233.426 64.6807 229.472 62.4075 229.266 62.284C227.174 60.9498 223.864 61.2463 220.915 62.737C216.69 64.8701 213.173 69.3752 210.488 76.8783C210.488 76.8783 207.77 74.9263 206.889 74.4074C204.707 73.2132 202.153 73.7897 199.279 75.6593C196.042 77.7677 193.835 80.5021 191.817 84.6366V84.7107C190.069 88.2214 189.113 92.0733 189.017 95.9941C189.017 104.667 192.567 108.801 197.187 111.906C198.505 112.796 201.989 114.665 202.335 114.896C205.123 116.737 208.207 118.085 211.452 118.882L216.006 119.944L220.561 113.627C223.877 108.97 226.921 104.124 229.678 99.1155C234.299 90.6736 237.914 82.4046 237.848 73.765C237.782 70.0671 236.72 67.3492 234.999 65.702Z" fill="black"/>
<path d="M234.999 65.702C234.781 65.5135 234.547 65.3453 234.299 65.1996C233.426 64.6807 229.472 62.4075 229.266 62.284C227.174 60.9498 223.864 61.2463 220.915 62.737C216.69 64.8701 213.173 69.3752 210.488 76.8783C210.488 76.8783 207.77 74.9263 206.889 74.4074C204.707 73.2132 202.153 73.7897 199.279 75.6593C196.042 77.7677 193.835 80.5021 191.817 84.6366V84.7107C191.727 84.8919 191.652 85.0731 191.57 85.2543L226.161 105.202C227.389 103.209 228.583 101.191 229.719 99.1155C234.34 90.6736 237.955 82.4046 237.89 73.765C237.782 70.0671 236.72 67.3492 234.999 65.702Z" fill="#407BFF" fill-opacity="0.3"/>
<path opacity="0.15" d="M234.999 65.702C234.781 65.5135 234.547 65.3453 234.299 65.1996C233.426 64.6807 229.472 62.4075 229.266 62.284C227.174 60.9498 223.864 61.2463 220.915 62.737C216.69 64.8701 213.173 69.3752 210.488 76.8783C210.488 76.8783 207.77 74.9263 206.889 74.4074C204.707 73.2132 202.153 73.7897 199.279 75.6593C196.042 77.7677 193.835 80.5021 191.817 84.6366V84.7107C191.727 84.8919 191.652 85.0731 191.57 85.2543L226.161 105.202C227.389 103.209 228.583 101.191 229.719 99.1155C234.34 90.6736 237.955 82.4046 237.89 73.765C237.782 70.0671 236.72 67.3492 234.999 65.702Z" fill="black"/>
<path d="M210.464 76.8451L215.092 82.8821L222.554 74.053L214.12 69.1855C212.618 71.5937 211.392 74.163 210.464 76.8451Z" fill="#407BFF" fill-opacity="0.3"/>
<path opacity="0.3" d="M210.464 76.8451L215.092 82.8821L222.554 74.053L214.12 69.1855C212.618 71.5937 211.392 74.163 210.464 76.8451Z" fill="black"/>
<path d="M234.999 65.702C232.981 63.8983 229.308 64.0548 226.063 65.702C221.64 67.9422 217.983 72.7767 215.249 80.9633C212.514 75.9394 208.858 75.7829 204.435 78.6573C201.19 80.7657 198.983 83.5 196.973 87.6345L196.932 87.7087C195.189 91.2241 194.237 95.0779 194.14 99.0002C194.14 107.673 197.698 111.807 202.31 114.912C205.098 116.753 208.182 118.102 211.427 118.899L215.982 119.961L220.536 113.644C223.852 108.986 226.896 104.141 229.653 99.132C234.274 90.6901 237.89 82.4211 237.824 73.7815C237.782 70.0671 236.72 67.3492 234.999 65.702Z" fill="#407BFF" fill-opacity="0.3"/>
<g opacity="0.07">
<path d="M231.111 64.8779C232.381 64.8198 233.629 65.2203 234.628 66.0063C234.645 66.0418 234.671 66.0728 234.702 66.0969C236.399 67.6452 237.346 70.3961 237.354 73.8222C237.354 82.8407 233.236 91.5956 229.242 98.9586C226.505 103.951 223.48 108.78 220.182 113.421L215.809 119.508L211.551 118.511C208.354 117.726 205.315 116.4 202.565 114.591C198.447 111.79 194.56 108.002 194.593 99.041C194.68 95.1875 195.605 91.3993 197.302 87.9388V87.8647C199.328 83.7055 201.511 81.0782 204.608 79.0686C206.046 78.0017 207.762 77.3726 209.549 77.2567C211.641 77.2567 213.363 78.5497 214.812 81.21C214.848 81.2812 214.904 81.3407 214.972 81.3816C215.041 81.4224 215.12 81.4429 215.199 81.4406H215.24C215.325 81.4327 215.406 81.4005 215.473 81.348C215.541 81.2954 215.591 81.2246 215.619 81.1441C218.23 73.3281 221.698 68.4194 226.211 66.138C227.718 65.3487 229.386 64.9175 231.087 64.8779M231.087 64.4414C229.318 64.4779 227.581 64.9233 226.013 65.7427C221.59 67.9829 217.934 72.8175 215.199 81.0041C213.618 78.0885 211.724 76.8119 209.549 76.8119C207.683 76.9346 205.891 77.5891 204.385 78.698C201.14 80.8064 198.933 83.5408 196.924 87.6752L196.882 87.7494C195.14 91.2648 194.187 95.1186 194.09 99.041C194.09 107.714 197.648 111.848 202.26 114.953C205.049 116.794 208.133 118.142 211.378 118.939L215.932 120.002L220.487 113.685C223.803 109.027 226.847 104.181 229.604 99.1727C234.225 90.7308 237.84 82.4618 237.774 73.8222C237.774 70.1078 236.695 67.3487 234.974 65.7674C233.887 64.8819 232.512 64.4275 231.111 64.4908L231.087 64.4414Z" fill="black"/>
</g>
<path d="M234.496 89.051L225.634 94.1738L222.34 82.1904C222.293 82.0092 222.186 81.8493 222.037 81.737C221.887 81.6247 221.703 81.5668 221.516 81.5727C221.324 81.5688 221.136 81.6326 220.985 81.753C220.835 81.8734 220.731 82.0427 220.693 82.2316L215.562 105.671L211.246 93.8608C211.237 93.6424 211.142 93.4364 210.981 93.2881C210.821 93.1398 210.608 93.0614 210.389 93.0702C210.171 93.0789 209.965 93.1741 209.817 93.3347C209.668 93.4953 209.59 93.7083 209.599 93.9267L206.683 104.279L196.932 109.913C197.253 110.379 197.599 110.827 197.97 111.255L207.853 105.564C208.044 105.453 208.185 105.274 208.248 105.062L210.546 96.8917L214.969 108.966C215.027 109.135 215.14 109.28 215.288 109.379C215.437 109.479 215.614 109.527 215.792 109.518C215.975 109.508 216.149 109.439 216.288 109.319C216.427 109.2 216.522 109.038 216.558 108.859L221.582 85.946L224.234 95.6728C224.266 95.7979 224.326 95.9139 224.411 96.0114C224.495 96.1088 224.601 96.1851 224.721 96.234C224.84 96.2829 224.97 96.303 225.098 96.2928C225.227 96.2826 225.351 96.2423 225.461 96.1752L233.335 91.6371C233.788 90.7723 234.15 89.9158 234.496 89.051Z" fill="white"/>
<path d="M271.69 309.316C271.353 310.433 271.324 311.62 271.608 312.751C271.937 313.443 273.996 315.716 278.197 316.539C282.397 317.363 288.17 316.539 290.658 316.391C293.145 316.243 300.953 317.215 303.432 317.528C307.336 318.055 310.334 317.198 311.791 315.79C312.027 315.507 312.202 315.177 312.302 314.822C312.403 314.468 312.428 314.096 312.376 313.731C312.368 312.791 312.229 311.857 311.964 310.955L271.69 309.316Z" fill="#263238"/>
<path d="M311.322 306.87C311.396 307.191 311.47 307.521 311.536 307.85C311.916 309.507 312.036 311.213 311.89 312.907C311.388 314.143 310.012 314.826 308.901 315.172C305.96 316.111 303.728 315.996 300.475 315.345C297.203 314.868 293.898 314.665 290.592 314.736C288.03 314.909 284.505 315.403 281.944 315.164C279.766 315.073 277.617 314.634 275.578 313.863C273.873 313.138 272.127 312.215 271.707 310.436C271.204 306.73 272.761 305.1 274.515 304.062C276.269 303.024 278.765 303.106 281.433 302.933C283.847 302.769 285.609 302.769 287.759 302.604C289.617 302.514 291.464 302.257 293.277 301.838C294.924 301.327 296.571 299.26 297.247 299.186C297.247 299.186 307.995 299.104 309.016 299.186C310.202 299.285 310.564 302.958 310.713 303.757C310.828 304.383 310.853 305.058 311.017 305.66C311.124 306.063 311.223 306.467 311.322 306.87Z" fill="#37474F"/>
<path d="M278.205 314.669C277.867 312.001 277.381 306.219 282.323 302.875H282.941C280.721 302.233 278.365 302.233 276.146 302.875C272.217 303.921 270.471 307.1 271.451 310.461C271.468 310.428 272.341 313.681 278.205 314.669Z" fill="#FAFAFA"/>
<path d="M292.544 302.027C290.954 303.436 290.402 306.639 290.402 306.639C290.197 307.842 288.022 308.023 288.228 306.862C288.56 305.265 289.201 303.749 290.114 302.398C290.859 302.005 291.715 301.874 292.544 302.027Z" fill="#FAFAFA"/>
<path d="M288.088 302.579C286.889 303.753 286.106 305.285 285.856 306.944C285.634 308.097 283.822 308.081 283.954 306.944C283.954 306.944 284.16 304.103 285.856 302.777C286.185 302.566 286.559 302.438 286.948 302.404C287.337 302.37 287.728 302.43 288.088 302.579Z" fill="#FAFAFA"/>
<path d="M309.345 291.37C309.345 291.37 309.057 298.28 308.678 300.545C308.448 301.896 306.677 303.312 302.271 303.164C299.174 303.057 296.736 303.312 296.86 300.891L297.131 293.833L309.345 291.37Z" fill="#FFA8A7"/>
<path d="M316.255 275.046C316.099 276.932 315.844 278.637 316.618 280.712C317.721 283.694 320.06 285.061 321.436 286.23C322.883 287.664 324.218 289.206 325.43 290.843C326.781 292.49 327.135 293.47 329.161 295.265C330.171 296.043 331.365 296.545 332.627 296.722C333.888 296.9 335.175 296.747 336.359 296.278C338.114 295.529 338.723 294.936 338.616 292.243C338.509 289.55 329.927 288.635 329.927 288.635L316.255 275.046Z" fill="#263238"/>
<path d="M337.504 284.221C338.237 284.485 338.419 285.811 338.534 288.447C338.616 290.44 339.497 293.388 336.607 294.615C334.276 295.628 330.553 294.953 328.98 293.075C327.02 290.728 325.686 288.661 322.885 285.803C320.415 283.332 317.944 282.508 316.848 277.526C316.148 274.33 316.7 273.012 318.957 272.098C322.062 270.838 326.929 274.948 329.367 275.598C331.459 276.15 336.771 283.958 337.504 284.221Z" fill="#37474F"/>
<path d="M329.367 275.598L328.955 275.458C327.567 275.51 326.216 275.924 325.037 276.659C323.858 277.395 322.892 278.426 322.235 279.65C321.823 280.515 323.058 281.19 323.882 280.515C325.611 277.221 329.169 276.512 330.594 276.356C330.244 276.019 329.825 275.761 329.367 275.598Z" fill="#FAFAFA"/>
<path d="M331.368 277.097C330.065 277.219 328.812 277.663 327.722 278.389C326.633 279.115 325.74 280.1 325.126 281.256C324.714 282.079 325.99 282.796 326.773 282.079C327.361 281.049 328.166 280.159 329.134 279.472C330.101 278.785 331.207 278.317 332.373 278.101C332.019 277.772 331.69 277.418 331.368 277.097Z" fill="#FAFAFA"/>
<path d="M337.924 279.461L337.504 285.02C337.504 285.02 333.971 287.598 328.906 285.234C328.758 284.93 328.329 279.955 328.329 279.955L337.924 279.461Z" fill="#FFA8A7"/>
<path d="M318.273 281.19C318.273 281.19 318.512 275.285 326.905 274.47L327.39 274.725C326.436 273.244 324.97 272.166 323.272 271.694C320.489 270.977 318.281 271.694 316.815 273.457C315.349 275.219 316.824 280.045 318.273 281.19Z" fill="#FAFAFA"/>
<path d="M340.37 242.432C339.168 232.705 338.723 227.286 338.723 227.286C338.723 227.286 338.484 213.589 339.316 200.93C339.679 195.379 339.868 189.235 339.983 183.635C340.137 177.467 339.646 171.301 338.517 165.235C338.517 165.235 295.451 156.67 294.916 172.467C294.265 191.41 294.347 223.785 293.614 236.148C293.211 243.091 293.911 248.848 294.348 262.338C294.702 273.523 294.595 301.048 294.595 301.048C299.339 307.562 310.54 302.596 310.54 302.596C310.54 302.596 313.999 263.944 314.509 255.955C315.053 247.365 314.147 243.016 314.147 243.016L318.586 202.998C318.586 202.998 318.924 215.838 319.303 222.764C319.682 229.691 320.695 233.949 322.498 246.871C324.063 258.088 327.39 286.717 327.39 286.717C333.156 290.127 338.723 286.717 338.723 286.717C338.723 286.717 341.573 252.158 340.37 242.432Z" fill="#455A64"/>
<path d="M334.49 187.159C334.49 187.159 329.095 194.045 322.136 197.001C322.136 197.001 319.121 221.207 319.146 220.729L318.364 196.367C318.364 196.367 328.725 191.788 334.49 187.159Z" fill="#37474F"/>
<path d="M334.342 109.353C338.979 108.315 344.225 111.626 347.717 119.014C351.094 126.081 360.318 143.928 360.54 148.927C360.779 154.108 337.735 169.822 338.303 169.517C338.484 169.427 334.325 157.633 334.325 157.633L345.518 148.367L339.432 135.832L334.342 109.353Z" fill="#FFA8A7"/>
<path d="M331.904 108.242C335.808 107.764 342.882 109.238 345.584 113.933C349.504 120.728 353.079 128.585 357.633 138.74C357.633 138.74 354.256 146.053 344.538 146.745L338.715 136.533L331.904 108.242Z" fill="#37474F"/>
<path d="M312.253 102.122L312.928 116.535L327.209 115.769L326.773 99.0254L312.253 102.122Z" fill="#FFA8A7"/>
<path d="M341.235 115.498C340.033 111.569 335.882 108.332 330.635 108.176C329.466 108.176 327.012 108.176 327.012 108.176C326.419 110.605 318.981 111.47 312.623 110.012C310.704 110.523 302.74 112.483 301.093 112.977C296.522 114.493 295.113 119.154 294.405 134.062C294.405 134.062 294.545 163.448 294.405 177.474C302.444 181.715 314.863 181.188 323.701 180.29C337.587 178.89 339.654 173.858 339.654 173.858C339.069 165.68 339.423 162.599 339.654 154.528C339.827 148.458 341.573 142.042 342.125 135.165C342.94 124.944 342.051 118.199 341.235 115.498Z" fill="#407BFF" fill-opacity="0.3"/>
<path d="M310.021 104.857C306.726 104.626 302.608 107.253 301.546 112.879L304.231 112.162L310.021 104.857Z" fill="#407BFF" fill-opacity="0.3"/>
<path opacity="0.3" d="M310.021 104.857C306.726 104.626 302.608 107.253 301.546 112.879L304.231 112.162L310.021 104.857Z" fill="black"/>
<path d="M312.434 106.059C314.905 106.883 322.111 106.767 324.524 106.059C326.937 105.351 326.913 104.28 326.913 104.28V103.069C328.305 103.065 329.664 103.488 330.808 104.28C332.349 105.532 335.001 110.045 334.926 112.211C334.852 114.377 330.224 120.093 321.296 119.953C312.368 119.813 307.352 116.511 305.812 114.336L304.264 112.154C304.264 112.154 306.38 107.805 308.464 105.977C309.533 104.941 310.903 104.272 312.376 104.066L312.434 106.059Z" fill="#407BFF" fill-opacity="0.3"/>
<path opacity="0.2" d="M312.434 106.059C314.905 106.883 322.111 106.767 324.524 106.059C326.937 105.351 326.913 104.28 326.913 104.28V103.069C328.305 103.065 329.664 103.488 330.808 104.28C332.349 105.532 335.001 110.045 334.926 112.211C334.852 114.377 330.224 120.093 321.296 119.953C312.368 119.813 307.352 116.511 305.812 114.336L304.264 112.154C304.264 112.154 306.38 107.805 308.464 105.977C309.533 104.941 310.903 104.272 312.376 104.066L312.434 106.059Z" fill="black"/>
<path d="M302.641 84.4482C302.641 84.4482 299.24 89.6122 299.627 90.1146C300.014 90.617 302.518 91.0865 302.518 91.0865L302.641 84.4482Z" fill="#F28F8F"/>
<path d="M312.096 70.1496C305.211 71.6074 302.46 73.6252 302.032 85.3945C301.62 96.8426 303.061 100.615 304.56 102.155C305.573 103.193 311.215 103.382 314.056 102.591C317.614 101.611 325.661 98.7616 329.425 93.0129C333.856 86.2428 335.017 77.0679 330.248 73.304C323.602 68.0083 314.905 69.5566 312.096 70.1496Z" fill="#FFA8A7"/>
<path d="M304.56 102.147C305.384 102.971 309.329 103.284 312.294 102.922L312.253 101.217C309.796 102.123 307.162 102.442 304.56 102.147Z" fill="#F28F8F"/>
<path d="M301.118 74.5728C302.833 75.8026 304.961 76.3139 307.047 75.9977C307.006 76.9205 307.254 77.8331 307.756 78.6085C308.455 79.6658 309.514 80.4327 310.737 80.7663C309.983 82.2438 309.583 83.8763 309.568 85.535C309.521 86.0556 309.633 86.5781 309.889 87.034C309.968 87.1996 310.092 87.3395 310.247 87.4374C310.403 87.5354 310.582 87.5873 310.766 87.5873C310.95 87.5873 311.129 87.5354 311.285 87.4374C311.44 87.3395 311.564 87.1996 311.643 87.034C312.031 86.1578 312.517 85.3288 313.093 84.5632C313.839 83.6698 314.889 83.0832 316.041 82.9159C320.365 82.4465 320.909 88.1046 319.179 90.4519C316.346 94.2899 313.941 91.6873 313.941 91.6873C313.831 93.4864 314.104 95.2885 314.743 96.9739C315.382 98.6594 316.372 100.19 317.647 101.463C320.721 102.369 323.978 102.451 327.094 101.702C330.932 96.423 333.345 93.8534 335.396 89.2989C339.728 79.6545 337.636 73.601 334.284 71.0478C333.625 66.6086 330.125 64.6155 326.13 63.7013C320.167 62.3259 314.6 65.8674 308.686 64.5249C307.716 64.3217 306.757 64.0688 305.812 63.7672C305.448 63.5966 305.033 63.5701 304.651 63.693C304.439 63.8339 304.273 64.0338 304.173 64.268C304.074 64.5022 304.045 64.7605 304.091 65.0108C304.165 66.1474 305.318 67.4075 305.903 68.017C304.611 68.1351 303.309 68.0602 302.04 67.7946C301.599 67.712 301.147 67.712 300.706 67.7946C300.222 67.9917 299.813 68.3369 299.538 68.7809C299.263 69.2248 299.135 69.7445 299.174 70.2654C299.179 71.0794 299.354 71.8832 299.689 72.6252C300.024 73.3671 300.51 74.0306 301.118 74.5728Z" fill="#263238"/>
<path d="M334.391 72.4813L338.509 70.0105C338.181 69.4644 337.65 69.0709 337.032 68.9164C336.415 68.762 335.761 68.8593 335.215 69.1869C334.669 69.5146 334.275 70.0457 334.121 70.6636C333.966 71.2814 334.063 71.9353 334.391 72.4813Z" fill="#263238"/>
<path d="M280.725 137.356C279.792 133.688 278.891 130.015 278.024 126.336C277.2 122.951 275.932 119.031 277.093 115.572C277.753 114.061 278.582 112.63 279.564 111.305C280.413 109.909 281.13 108.437 281.705 106.907C281.993 106.166 282.257 105.408 282.529 104.659C282.801 103.909 283.188 103.481 283.006 102.765C282.405 100.417 279.374 103.498 278.757 104.461C278.483 104.967 278.163 105.447 277.801 105.894C277.406 106.314 276.442 106.841 275.981 106.224C275.827 105.976 275.742 105.692 275.734 105.4C275.421 101.784 276.722 98.5477 277.801 95.1709C277.972 94.7276 278.074 94.2612 278.106 93.7873C278.126 93.5506 278.094 93.3126 278.013 93.0894C277.932 92.8662 277.803 92.6632 277.637 92.4942C277.368 92.2882 277.05 92.1569 276.714 92.1135C276.379 92.0701 276.038 92.1162 275.726 92.2471C275.116 92.453 274.589 92.8401 273.98 93.0296C273.37 93.219 272.917 93.219 272.382 93.359C271.112 93.6421 269.889 94.1052 268.75 94.7344C266.773 95.8957 265.9 97.5923 265.381 99.7502C264.758 102.401 264.547 105.131 264.755 107.846C264.895 109.65 265.217 111.429 265.439 113.208L266.18 119.162C266.683 123.132 266.831 142.965 267.515 146.91C268.198 150.855 269.516 153.498 272.637 154.808C277.167 156.653 284.489 148.318 288.648 144.002L280.725 137.356Z" fill="#FFA8A7"/>
<path d="M279.07 135.108C276.154 137.291 272.522 140.923 271.789 144.563C271.789 144.563 271.064 138.015 279.07 132.209V135.108Z" fill="#F28F8F"/>
<path d="M300.862 113.068C298.062 113.332 293.45 113.431 288.755 118.479C283.311 124.376 274.919 136.006 274.919 136.006C274.919 136.006 276.014 145.263 284.926 148.582C284.926 148.582 297.881 136.228 300.665 130.908C303.448 125.587 304.074 116.766 300.862 113.068Z" fill="#37474F"/>
<path d="M297.131 93.4991L293.59 91.5965L295.624 89.8587L288.269 86.4161L291.481 84.5547L283.558 80.3379L288.269 84.4971L284.44 86.4161L293.079 90.1552L290.946 92.2884L297.131 93.4991Z" fill="#407BFF" fill-opacity="0.3"/>
<path d="M298.935 88.8291L296.629 86.6219L297.889 85.6912L295.863 83.2863L297.807 82.6274L297.131 79.5801L298.498 82.8662L297.131 83.4592L299.322 85.8642L297.84 86.9184L298.935 88.8291Z" fill="#407BFF" fill-opacity="0.3"/>
<path d="M297.593 96.9827L293.244 100.376L291.638 98.0122L287.833 100.079L286.276 97.1556L280.387 98.6628L287.199 95.4014L289.151 98.0946L292.313 96.3979L293.631 98.6628L297.593 96.9827Z" fill="#407BFF" fill-opacity="0.3"/>
<path d="M267.358 157.708C267.49 157.598 267.661 157.545 267.832 157.56C268.003 157.576 268.162 157.658 268.272 157.79C269.114 158.736 270.208 159.422 271.426 159.769C272.644 160.117 273.935 160.11 275.149 159.75C275.232 159.721 275.32 159.709 275.408 159.715C275.495 159.72 275.581 159.744 275.659 159.783C275.738 159.823 275.807 159.878 275.864 159.945C275.92 160.012 275.963 160.09 275.988 160.174C276.014 160.258 276.022 160.347 276.013 160.434C276.003 160.521 275.976 160.606 275.933 160.682C275.89 160.759 275.832 160.826 275.763 160.88C275.693 160.933 275.613 160.972 275.528 160.994C274.072 161.425 272.523 161.431 271.064 161.01C269.605 160.59 268.296 159.761 267.292 158.622C267.236 158.558 267.193 158.483 267.165 158.402C267.138 158.322 267.127 158.236 267.133 158.151C267.139 158.066 267.163 157.983 267.201 157.907C267.24 157.831 267.293 157.763 267.358 157.708Z" fill="#E0E0E0"/>
<path d="M268.017 162.064C268.132 161.968 268.278 161.915 268.429 161.915C268.579 161.915 268.725 161.968 268.841 162.064C269.511 162.549 270.279 162.881 271.092 163.038C271.904 163.194 272.741 163.171 273.543 162.97C273.714 162.939 273.889 162.976 274.033 163.073C274.176 163.17 274.275 163.319 274.309 163.489C274.326 163.573 274.326 163.658 274.309 163.742C274.293 163.825 274.26 163.904 274.212 163.975C274.165 164.045 274.104 164.106 274.033 164.152C273.962 164.199 273.882 164.231 273.799 164.247C272.806 164.477 271.776 164.487 270.779 164.275C269.783 164.063 268.846 163.634 268.033 163.02C267.968 162.965 267.915 162.897 267.876 162.821C267.838 162.745 267.815 162.662 267.809 162.576C267.803 162.491 267.813 162.406 267.841 162.325C267.868 162.244 267.911 162.17 267.967 162.106C267.982 162.09 267.999 162.076 268.017 162.064Z" fill="#E0E0E0"/>
<path d="M348.887 112.145C348.81 112.185 348.727 112.208 348.642 112.215C348.557 112.222 348.471 112.212 348.389 112.185C348.308 112.158 348.233 112.115 348.168 112.059C348.104 112.003 348.051 111.934 348.013 111.857C347.412 110.742 346.508 109.821 345.404 109.2C344.3 108.579 343.043 108.284 341.779 108.348C341.693 108.353 341.608 108.341 341.527 108.313C341.446 108.285 341.372 108.241 341.308 108.184C341.179 108.069 341.101 107.907 341.091 107.735C341.081 107.562 341.14 107.393 341.255 107.264C341.371 107.135 341.532 107.057 341.705 107.047C343.223 106.968 344.732 107.323 346.055 108.071C347.378 108.82 348.461 109.93 349.175 111.272C349.25 111.427 349.262 111.604 349.208 111.767C349.154 111.93 349.039 112.066 348.887 112.145Z" fill="#E0E0E0"/>
<path d="M349.249 107.781C349.111 107.853 348.951 107.873 348.8 107.837C348.648 107.8 348.515 107.71 348.425 107.583C347.894 106.962 347.234 106.462 346.493 106.118C345.751 105.774 344.944 105.594 344.126 105.59C344.041 105.587 343.957 105.567 343.879 105.531C343.801 105.495 343.731 105.445 343.673 105.382C343.615 105.319 343.57 105.246 343.54 105.165C343.51 105.085 343.497 105 343.5 104.914C343.503 104.829 343.523 104.745 343.559 104.667C343.595 104.59 343.645 104.52 343.708 104.462C343.771 104.404 343.844 104.358 343.925 104.329C344.005 104.299 344.09 104.285 344.175 104.289C345.191 104.299 346.192 104.531 347.109 104.969C348.025 105.408 348.834 106.041 349.48 106.825C349.572 106.965 349.607 107.135 349.576 107.299C349.545 107.464 349.452 107.61 349.315 107.707L349.249 107.781Z" fill="#E0E0E0"/>
<path d="M360.763 155.253C360.68 155.103 360.661 154.925 360.709 154.76C360.757 154.595 360.868 154.456 361.018 154.372C362.103 153.72 362.98 152.773 363.547 151.641C364.114 150.51 364.348 149.24 364.222 147.981C364.212 147.896 364.219 147.81 364.242 147.727C364.266 147.645 364.306 147.568 364.359 147.501C364.413 147.434 364.48 147.379 364.555 147.338C364.63 147.298 364.713 147.273 364.799 147.264C364.97 147.246 365.142 147.296 365.276 147.404C365.41 147.513 365.496 147.67 365.515 147.841C365.662 149.347 365.379 150.864 364.698 152.215C364.017 153.567 362.967 154.697 361.669 155.476C361.595 155.522 361.513 155.553 361.427 155.567C361.341 155.58 361.253 155.577 361.169 155.556C361.084 155.535 361.005 155.498 360.935 155.446C360.865 155.394 360.807 155.328 360.763 155.253Z" fill="#E0E0E0"/>
<path d="M365.136 155.41C365.063 155.276 365.038 155.12 365.067 154.97C365.095 154.82 365.175 154.684 365.293 154.586C365.89 154.027 366.36 153.345 366.668 152.588C366.977 151.83 367.117 151.014 367.08 150.197C367.08 150.024 367.148 149.858 367.27 149.736C367.393 149.614 367.558 149.546 367.731 149.546C367.903 149.546 368.069 149.614 368.191 149.736C368.313 149.858 368.381 150.024 368.381 150.197C368.417 151.21 368.232 152.22 367.839 153.156C367.447 154.091 366.856 154.931 366.108 155.616C366.041 155.669 365.964 155.708 365.882 155.731C365.8 155.755 365.714 155.762 365.629 155.752C365.544 155.742 365.462 155.715 365.387 155.674C365.313 155.632 365.247 155.576 365.194 155.509L365.136 155.41Z" fill="#E0E0E0"/>
<path d="M289.373 233.717C289.527 233.795 289.644 233.93 289.699 234.093C289.755 234.256 289.744 234.435 289.669 234.59C289.148 235.743 288.965 237.021 289.143 238.274C289.321 239.527 289.852 240.703 290.674 241.665C290.786 241.798 290.84 241.969 290.826 242.141C290.813 242.314 290.731 242.474 290.6 242.587C290.47 242.699 290.301 242.755 290.129 242.743C289.958 242.73 289.799 242.651 289.686 242.522C288.698 241.364 288.062 239.948 287.852 238.441C287.642 236.933 287.867 235.398 288.5 234.014C288.578 233.86 288.713 233.743 288.876 233.687C289.039 233.632 289.218 233.643 289.373 233.717Z" fill="#E0E0E0"/>
<path d="M285.683 236.065C285.824 236.132 285.936 236.246 286 236.388C286.063 236.53 286.074 236.69 286.029 236.84C285.856 237.64 285.859 238.468 286.036 239.267C286.214 240.066 286.563 240.817 287.059 241.468C287.156 241.61 287.194 241.784 287.165 241.953C287.135 242.122 287.041 242.273 286.902 242.374C286.761 242.473 286.587 242.513 286.417 242.483C286.247 242.454 286.096 242.358 285.996 242.218C285.386 241.403 284.96 240.466 284.75 239.47C284.539 238.474 284.549 237.444 284.777 236.452C284.803 236.37 284.844 236.293 284.899 236.227C284.955 236.16 285.023 236.105 285.099 236.066C285.176 236.026 285.26 236.002 285.346 235.994C285.432 235.987 285.519 235.997 285.601 236.024L285.683 236.065Z" fill="#E0E0E0"/>
<path d="M240.97 7.59736C240.929 6.82937 240.707 6.0819 240.322 5.41621C239.937 4.75052 239.4 4.18555 238.754 3.7676L236.959 2.72163C236.272 2.37808 235.515 2.19922 234.747 2.19922C233.98 2.19922 233.223 2.37808 232.536 2.72163L190.821 26.8285C190.176 27.2474 189.639 27.8126 189.254 28.4781C188.869 29.1436 188.647 29.8906 188.605 30.6582V52.2284C188.648 52.9959 188.87 53.7427 189.255 54.408C189.64 55.0734 190.176 55.6388 190.821 56.0582L192.624 57.0959C193.309 57.4451 194.067 57.6272 194.836 57.6272C195.604 57.6272 196.362 57.4451 197.047 57.0959L238.754 32.9973C239.4 32.5793 239.937 32.0144 240.322 31.3487C240.707 30.683 240.929 29.9355 240.97 29.1675V7.59736Z" fill="#407BFF" fill-opacity="0.3"/>
<path opacity="0.5" d="M240.97 7.59736C240.929 6.82937 240.707 6.0819 240.322 5.41621C239.937 4.75052 239.4 4.18555 238.754 3.7676L236.959 2.72163C236.272 2.37808 235.515 2.19922 234.747 2.19922C233.98 2.19922 233.223 2.37808 232.536 2.72163L190.821 26.8285C190.176 27.2474 189.639 27.8126 189.254 28.4781C188.869 29.1436 188.647 29.8906 188.605 30.6582V52.2284C188.648 52.9959 188.87 53.7427 189.255 54.408C189.64 55.0734 190.176 55.6388 190.821 56.0582L192.624 57.0959C193.309 57.4451 194.067 57.6272 194.836 57.6272C195.604 57.6272 196.362 57.4451 197.047 57.0959L238.754 32.9973C239.4 32.5793 239.937 32.0144 240.322 31.3487C240.707 30.683 240.929 29.9355 240.97 29.1675V7.59736Z" fill="white"/>
<path opacity="0.2" d="M188.605 52.2283C188.648 52.9958 188.87 53.7426 189.255 54.4079C189.64 55.0733 190.176 55.6386 190.821 56.0581L192.624 57.0958C193.247 57.4098 193.93 57.5882 194.627 57.6195C195.324 57.6507 196.02 57.534 196.668 57.277C195.622 57.6723 194.832 57.0876 194.832 55.8192V34.249C194.858 33.4779 195.082 32.7264 195.482 32.0665L189.256 28.4756C188.855 29.1351 188.631 29.8868 188.605 30.6581V52.2283Z" fill="black"/>
<path opacity="0.3" d="M240.896 6.97113C240.64 6.03222 239.784 5.72749 238.763 6.32048L197.047 30.4191C196.39 30.8219 195.851 31.3899 195.482 32.0663L189.264 28.4754C189.632 27.8011 190.168 27.2336 190.821 26.8282L232.528 2.72957C233.213 2.38032 233.971 2.19824 234.739 2.19824C235.508 2.19824 236.266 2.38032 236.951 2.72957L238.763 3.76731C239.316 4.12936 239.791 4.59995 240.157 5.15063C240.524 5.7013 240.775 6.32062 240.896 6.97113Z" fill="white"/>
<path d="M194.84 41.2247L188.622 37.6338L181.127 44.8486C181.014 44.962 180.929 45.0997 180.877 45.251C180.825 45.4024 180.809 45.5636 180.829 45.7223C180.848 45.881 180.904 46.0331 180.991 46.1671C181.079 46.3012 181.195 46.4135 181.333 46.4958L187.452 50.0537C187.705 50.1863 187.99 50.2462 188.276 50.2267L194.864 48.9666V41.2247H194.84Z" fill="#407BFF" fill-opacity="0.3"/>
<path opacity="0.5" d="M194.84 41.2247L188.622 37.6338L181.127 44.8486C181.014 44.962 180.929 45.0997 180.877 45.251C180.825 45.4024 180.809 45.5636 180.829 45.7223C180.848 45.881 180.904 46.0331 180.991 46.1671C181.079 46.3012 181.195 46.4135 181.333 46.4958L187.452 50.0537C187.705 50.1863 187.99 50.2462 188.276 50.2267L194.864 48.9666V41.2247H194.84Z" fill="white"/>
<path opacity="0.3" d="M187.452 50.0541L184.158 48.1681L183.771 47.9128L182.008 46.8915L181.794 46.7597L181.324 46.4879C181.187 46.4057 181.071 46.2933 180.983 46.1593C180.896 46.0253 180.84 45.8732 180.82 45.7145C180.801 45.5558 180.817 45.3946 180.869 45.2432C180.92 45.0919 181.006 44.9542 181.119 44.8407L188.613 37.626L194.84 41.2251L187.345 48.4069C187.226 48.5127 187.133 48.6442 187.072 48.7915C187.012 48.9387 186.986 49.0978 186.996 49.2567C187.006 49.4156 187.053 49.57 187.132 49.7082C187.211 49.8464 187.32 49.9647 187.452 50.0541Z" fill="white"/>
<path d="M207.021 34.5946C206.16 35.1543 205.444 35.9092 204.93 36.7979C204.417 37.6867 204.12 38.6841 204.064 39.7091C204.064 41.587 205.39 42.3529 207.021 41.414C207.88 40.8539 208.595 40.0986 209.108 39.2099C209.62 38.3211 209.915 37.3239 209.969 36.2994C209.969 34.4051 208.652 33.6557 207.021 34.5946Z" fill="white"/>
<path d="M217.901 28.3028C217.041 28.8629 216.326 29.6181 215.814 30.5069C215.301 31.3957 215.006 32.3929 214.952 33.4173C214.952 35.2951 216.27 36.0611 217.901 35.114C218.759 34.5546 219.473 33.8007 219.986 32.9135C220.498 32.0262 220.794 31.0307 220.849 30.0076C220.833 28.1216 219.531 27.3556 217.901 28.3028Z" fill="white"/>
<path d="M228.78 22.002C227.922 22.5636 227.208 23.3191 226.696 24.2076C226.184 25.0961 225.888 26.0925 225.832 27.1165C225.832 29.0026 227.15 29.7603 228.78 28.8214C229.642 28.2609 230.359 27.5046 230.873 26.6144C231.387 25.7241 231.683 24.725 231.737 23.6986C231.737 21.829 230.411 21.0631 228.78 22.002Z" fill="white"/>
<path d="M321.263 49.881L318.273 44.2888L320.678 37.3458V33.0713L313.315 37.3211V41.5709L316.478 47.0561C316.53 47.138 316.604 47.2037 316.692 47.2455L321.263 49.881Z" fill="#407BFF" fill-opacity="0.3"/>
<path opacity="0.2" d="M321.263 49.881L318.273 44.2888L320.678 37.3458V33.0713L313.315 37.3211V41.5709L316.478 47.0561C316.53 47.138 316.604 47.2037 316.692 47.2455L321.263 49.881Z" fill="black"/>
<path d="M343.624 5.39832C343.583 4.63249 343.362 3.88714 342.978 3.22304C342.594 2.55893 342.059 1.99486 341.416 1.5768L339.621 0.539062C338.938 0.189881 338.181 0.0078125 337.414 0.0078125C336.646 0.0078125 335.89 0.189881 335.206 0.539062L293.59 24.58C292.95 25.0032 292.417 25.5696 292.034 26.2344C291.651 26.8991 291.428 27.6439 291.383 28.4098V49.9305C291.423 50.6964 291.645 51.4417 292.028 52.1058C292.412 52.7699 292.947 53.334 293.59 53.7521L295.385 54.7898C296.071 55.132 296.826 55.3102 297.593 55.3102C298.359 55.3102 299.114 55.132 299.8 54.7898L317.919 44.2477L321.082 49.7164C321.127 49.7895 321.192 49.8485 321.27 49.8865C321.347 49.9245 321.433 49.9402 321.519 49.9316C321.605 49.923 321.686 49.8906 321.755 49.838C321.823 49.7854 321.875 49.7148 321.905 49.634L325.249 40.0061L341.375 30.7406C342.018 30.3225 342.553 29.7585 342.937 29.0944C343.32 28.4302 343.542 27.6849 343.583 26.9191L343.624 5.39832Z" fill="#407BFF" fill-opacity="0.3"/>
<path d="M303.852 32.5775L337.125 13.3629C338.114 12.7946 338.913 13.1982 338.913 14.2689C338.868 14.8674 338.683 15.447 338.372 15.9607C338.062 16.4744 337.635 16.9077 337.125 17.2256L303.852 36.4402C302.872 37.0085 302.073 36.605 302.073 35.5343C302.117 34.9366 302.302 34.3577 302.611 33.8442C302.92 33.3307 303.345 32.8968 303.852 32.5775Z" fill="white"/>
<path d="M303.852 41.134L337.125 21.9276C338.114 21.3593 338.913 21.7629 338.913 22.8253C338.869 23.4253 338.685 24.0066 338.374 24.5218C338.064 25.037 337.636 25.4716 337.125 25.7903L303.852 44.9967C302.872 45.5732 302.073 45.1614 302.073 44.099C302.116 43.4999 302.3 42.9194 302.609 42.4043C302.918 41.8892 303.344 41.4541 303.852 41.134Z" fill="white"/>
<path opacity="0.2" d="M291.383 49.9308C291.423 50.6967 291.645 51.442 292.028 52.1061C292.412 52.7702 292.947 53.3343 293.59 53.7524L295.385 54.7901C296.007 55.1029 296.688 55.2807 297.384 55.3119C298.079 55.3431 298.773 55.2271 299.421 54.9713C298.383 55.3584 297.593 54.7736 297.593 53.5135V31.9928C297.619 31.2253 297.84 30.477 298.235 29.8184L292.025 26.2275C291.63 26.8891 291.409 27.64 291.383 28.4101V49.9308Z" fill="black"/>
<path opacity="0.2" d="M343.55 4.75573C343.294 3.81682 342.438 3.52032 341.416 4.10508L299.8 28.1543C299.145 28.5564 298.608 29.1247 298.243 29.8015L292.033 26.2188C292.403 25.5456 292.939 24.9785 293.59 24.5716L335.198 0.522409C335.885 0.178864 336.642 0 337.41 0C338.177 0 338.934 0.178864 339.621 0.522409L341.416 1.56015C341.971 1.91946 342.446 2.38825 342.813 2.93775C343.18 3.48725 343.43 4.10589 343.55 4.75573Z" fill="white"/>
</svg>
