<svg width="177" height="249" viewBox="0 0 177 249" fill="none" xmlns="http://www.w3.org/2000/svg">
<path d="M21.0599 -11C5.20528 -10.7327 -9.11503 -1.26807 -15.5933 13.3668L61.9751 36.8178C65.3846 16.461 53.1669 -3.27589 33.5049 -9.2652C29.9817 -10.3345 26.288 -10.9204 22.5942 -11H21.0599ZM-18.5482 23.1727C-22.0147 43.5864 -9.79694 63.3801 9.92189 69.3524C29.6975 75.3246 50.7802 65.5415 59.0769 46.601L-18.5482 23.1727ZM132.326 48.3642C117.949 48.4211 102.663 55.3603 91.1271 71.6844L55.6673 121.994L20.2075 172.303C1.17059 199.263 9.46728 227.475 28.2201 240.784C47.0297 254.151 76.2954 252.615 95.3323 225.655L166.195 125.093C185.232 98.0761 176.935 69.9212 158.183 56.5547C151.136 51.5494 142.669 48.6486 133.747 48.3642H132.326ZM131.304 58.2042C132.042 58.2042 132.781 58.2042 133.463 58.2611C140.339 58.5455 146.817 60.9912 152.273 64.9159C166.877 75.2678 174.208 95.9147 157.785 119.178L121.132 171.222C100.788 165.762 74.6474 147.162 62.7706 129.701L99.5374 77.5998C109.141 64.0058 120.563 58.4317 131.304 58.2042ZM-50.6269 101.546C-56.0936 101.603 -61.4864 102.74 -66.4985 104.958C-85.3138 113.206 -95.105 134.251 -89.3656 154.045L-15.0818 121.567C-22.5261 108.997 -36.0508 101.375 -50.6269 101.546ZM-11.0471 130.895L-85.3195 163.43C-74.835 181.289 -52.7579 188.456 -33.8346 180.209C-14.9682 171.905 -5.19399 150.746 -11.0471 130.895Z" fill="#3369FF" fill-opacity="0.7"/>
</svg>
