<svg width="217" height="187" viewBox="0 0 217 187" fill="none" xmlns="http://www.w3.org/2000/svg">
<path d="M58.0987 66.5451L57.5947 65.9251C59.664 64.2269 61.8568 62.6872 64.1547 61.3191L64.5627 62.0197C62.2988 63.3636 60.1381 64.8763 58.0987 66.5451Z" fill="#407BFF"/>
<path d="M41.6664 89.5586L40.9224 89.2768C43.6698 81.9188 47.9434 75.2345 53.4584 69.6692L54.0264 70.2409C48.5919 75.725 44.3787 82.31 41.6664 89.5586Z" fill="#407BFF"/>
<path d="M196.658 125.046C196.598 118.056 194.842 111.186 191.543 105.035C188.243 98.8838 183.501 93.6372 177.727 89.7518C171.954 85.8663 165.325 83.4597 158.417 82.7412C151.509 82.0227 144.531 83.0141 138.09 85.6292C133.406 75.9684 125.854 68.0121 116.48 62.8618C107.105 57.7116 96.3718 55.622 85.7655 56.8824C75.1591 58.1428 65.2044 62.6908 57.2792 69.8969C49.354 77.103 43.8504 86.6107 41.5302 97.1039C30.0318 97.8338 19.2678 103.042 11.5196 111.625C3.77134 120.207 -0.351973 131.489 0.0235761 143.08C0.399125 154.67 5.24402 165.658 13.5313 173.714C21.8187 181.77 32.897 186.262 44.4182 186.236H185.474C192.828 186.246 199.952 183.659 205.607 178.927C211.261 174.194 215.087 167.616 216.42 160.336C217.752 153.057 216.505 145.538 212.898 139.088C209.29 132.638 203.549 127.666 196.674 125.038L196.658 125.046Z" fill="#407BFF"/>
<path d="M164.93 110.632H52.0504C51.1316 110.628 50.2518 110.258 49.6028 109.603C48.9539 108.948 48.5885 108.062 48.5864 107.137C48.5885 106.213 48.9542 105.327 49.6033 104.674C50.2525 104.021 51.1324 103.653 52.0504 103.65H164.93C165.848 103.653 166.728 104.021 167.377 104.674C168.027 105.327 168.392 106.213 168.394 107.137C168.392 108.062 168.027 108.948 167.378 109.603C166.729 110.258 165.849 110.628 164.93 110.632Z" fill="#263238"/>
<path d="M147.906 157.819H69.0743C65.985 157.819 63.0223 156.584 60.8379 154.385C58.6535 152.186 57.4263 149.204 57.4263 146.095C57.4263 142.985 58.6535 140.003 60.8379 137.804C63.0223 135.606 65.985 134.37 69.0743 134.37H147.906C150.996 134.37 153.958 135.606 156.143 137.804C158.327 140.003 159.554 142.985 159.554 146.095C159.554 149.204 158.327 152.186 156.143 154.385C153.958 156.584 150.996 157.819 147.906 157.819ZM69.0743 135.176C66.1972 135.176 63.438 136.326 61.4036 138.374C59.3692 140.421 58.2263 143.199 58.2263 146.095C58.2263 148.991 59.3692 151.768 61.4036 153.816C63.438 155.863 66.1972 157.014 69.0743 157.014H147.906C150.783 157.014 153.543 155.863 155.577 153.816C157.611 151.768 158.754 148.991 158.754 146.095C158.754 143.199 157.611 140.421 155.577 138.374C153.543 136.326 150.783 135.176 147.906 135.176H69.0743Z" fill="white"/>
<path d="M87.4901 155.001H69.0901C66.7392 155.003 64.4833 154.066 62.8172 152.397C61.151 150.727 60.2106 148.461 60.2021 146.095C60.2085 143.734 61.1424 141.471 62.8002 139.801C64.4579 138.131 66.7047 137.189 69.0501 137.181H87.4501C89.7956 137.189 92.0424 138.131 93.7001 139.801C95.3578 141.471 96.2918 143.734 96.2981 146.095C96.2898 148.447 95.3604 150.701 93.7115 152.369C92.0626 154.036 89.8272 154.982 87.4901 155.001Z" fill="white"/>
<path d="M168.155 42.9434L153.187 107.137H63.8906L88.8666 0L150.699 14.599L168.155 42.9434Z" fill="#407BFF"/>
<path opacity="0.8" d="M168.155 42.9434L153.187 107.137H63.8906L88.8666 0L150.699 14.599L168.155 42.9434Z" fill="#FAFAFA"/>
<path d="M156.507 54.8771L88.6829 38.8528C88.451 38.7988 88.232 38.6992 88.0385 38.5598C87.8449 38.4203 87.6806 38.2438 87.555 38.0403C87.4294 37.8368 87.3449 37.6103 87.3065 37.3739C87.268 37.1375 87.2763 36.8958 87.3309 36.6626C87.4395 36.1908 87.7296 35.7817 88.1376 35.525C88.5455 35.2684 89.038 35.1852 89.5069 35.2937L157.339 51.2938C157.807 51.4067 158.211 51.701 158.465 52.1128C158.718 52.5245 158.799 53.0202 158.691 53.4921C158.582 53.9663 158.292 54.378 157.882 54.6375C157.473 54.8969 156.979 54.9831 156.507 54.8771Z" fill="#407BFF"/>
<path d="M153.914 65.9894L86.0903 49.9651C85.8581 49.9102 85.6389 49.8097 85.4453 49.6695C85.2517 49.5292 85.0874 49.352 84.9619 49.1479C84.8363 48.9437 84.7519 48.7167 84.7136 48.4797C84.6752 48.2427 84.6836 48.0005 84.7383 47.7668C84.8504 47.2959 85.1429 46.8887 85.5519 46.6338C85.961 46.3789 86.4535 46.297 86.9223 46.4059L154.746 62.4302C155.213 62.5413 155.618 62.834 155.871 63.2445C156.125 63.6549 156.206 64.1496 156.098 64.6205C155.988 65.0928 155.696 65.502 155.287 65.7585C154.878 66.015 154.384 66.098 153.914 65.9894Z" fill="#407BFF"/>
<path d="M151.322 77.0614L83.4984 61.0452C83.0305 60.9323 82.626 60.6379 82.3727 60.2262C82.1195 59.8145 82.0381 59.3187 82.1464 58.8469C82.2604 58.3771 82.5532 57.9712 82.9617 57.7167C83.3702 57.4621 83.8618 57.3793 84.3304 57.486L152.154 73.5022C152.387 73.5572 152.606 73.6577 152.799 73.7979C152.993 73.9381 153.157 74.1153 153.283 74.3195C153.408 74.5236 153.493 74.7507 153.531 74.9876C153.569 75.2246 153.561 75.4668 153.506 75.7005C153.452 75.9343 153.352 76.1549 153.213 76.3498C153.073 76.5446 152.897 76.71 152.694 76.8364C152.492 76.9627 152.266 77.0476 152.031 77.0863C151.795 77.1249 151.555 77.1164 151.322 77.0614Z" fill="#407BFF"/>
<path d="M148.738 88.2059L80.9065 72.23C80.4397 72.1152 80.0365 71.8205 79.7836 71.4093C79.5307 70.9981 79.4484 70.5034 79.5545 70.0317C79.6666 69.5608 79.9591 69.1536 80.3681 68.8987C80.7772 68.6438 81.2697 68.5619 81.7385 68.6708L149.562 84.687C150.031 84.8001 150.436 85.0941 150.69 85.5055C150.945 85.9168 151.028 86.4125 150.922 86.8853C150.803 87.3499 150.508 87.7488 150.099 87.9958C149.691 88.2429 149.202 88.3184 148.738 88.2059Z" fill="#407BFF"/>
<path d="M119.178 92.9487L78.3222 83.2859C77.8592 83.1678 77.461 82.8709 77.214 82.4594C76.9669 82.048 76.8908 81.5551 77.0022 81.0876C77.0559 80.8542 77.1549 80.6337 77.2934 80.4389C77.4319 80.2441 77.6073 80.0787 77.8095 79.9523C78.0116 79.8259 78.2366 79.7408 78.4715 79.7021C78.7064 79.6634 78.9466 79.6718 79.1782 79.7267L120.042 89.3896C120.274 89.4445 120.494 89.545 120.687 89.6852C120.881 89.8254 121.045 90.0027 121.171 90.2068C121.296 90.411 121.381 90.638 121.419 90.875C121.457 91.1119 121.449 91.3542 121.394 91.5879C121.34 91.825 121.239 92.0489 121.098 92.2463C120.956 92.4436 120.777 92.6106 120.571 92.7374C120.364 92.8641 120.135 92.9481 119.896 92.9844C119.656 93.0207 119.413 93.0086 119.178 92.9487Z" fill="#407BFF"/>
<path d="M168.155 42.9434L145.347 37.5564L150.699 14.599L168.155 42.9434Z" fill="#407BFF"/>
</svg>
