<svg width="210" height="352" viewBox="0 0 210 352" fill="none" xmlns="http://www.w3.org/2000/svg">
<g opacity="0.4">
<path d="M82.2833 81.0477H-17.7358C-25.2053 81.0477 -31.2606 87.1029 -31.2606 94.5724V227.834C-31.2606 235.303 -25.2053 241.358 -17.7358 241.358H82.2833C89.7528 241.358 95.808 235.303 95.808 227.834V94.5724C95.808 87.1029 89.7528 81.0477 82.2833 81.0477Z" fill="#BFBFBF" stroke="#263238" stroke-miterlimit="10"/>
<path d="M73.3425 87.4076H-16.353C-21.3002 87.4076 -25.3108 91.4181 -25.3108 96.3654V214.208C-25.3108 219.155 -21.3002 223.166 -16.353 223.166H73.3425C78.2898 223.166 82.3003 219.155 82.3003 214.208V96.3654C82.3003 91.4181 78.2898 87.4076 73.3425 87.4076Z" fill="#263238"/>
<path opacity="0.1" d="M73.3425 87.4076H-16.353C-21.3002 87.4076 -25.3108 91.4181 -25.3108 96.3654V214.208C-25.3108 219.155 -21.3002 223.166 -16.353 223.166H73.3425C78.2898 223.166 82.3003 219.155 82.3003 214.208V96.3654C82.3003 91.4181 78.2898 87.4076 73.3425 87.4076Z" fill="white"/>
<path d="M2.17414 107.493C1.96084 107.437 1.73383 107.467 1.54243 107.577C1.35102 107.686 1.21067 107.867 1.15183 108.08L0.724474 110.15L-5.77812 109.111C-5.98284 109.083 -6.19074 109.129 -6.36539 109.239C-6.54005 109.349 -6.67032 109.517 -6.7334 109.714L-7.57136 112.756C-7.60744 112.852 -7.62262 112.956 -7.61592 113.058C-7.60922 113.161 -7.58078 113.262 -7.53248 113.353C-7.48417 113.444 -7.41709 113.524 -7.33568 113.587C-7.25427 113.65 -7.16039 113.695 -7.0602 113.72C-6.84693 113.773 -6.62109 113.741 -6.4314 113.63C-6.24171 113.518 -6.10338 113.337 -6.04626 113.125L-5.41779 110.812L-4.01002 111.03L-5.14965 115.136L-7.16075 122.258C-7.19226 122.356 -7.20269 122.46 -7.19132 122.562C-7.17996 122.664 -7.14708 122.763 -7.09484 122.852C-7.0426 122.94 -6.97217 123.017 -6.88821 123.076C-6.80425 123.136 -6.70865 123.177 -6.60769 123.197C-6.4525 123.227 -6.29193 123.209 -6.14683 123.147C-6.01924 123.097 -5.90506 123.018 -5.81341 122.916C-5.72176 122.814 -5.65516 122.692 -5.61891 122.56L-3.87594 116.409L-3.82567 116.233C-3.78135 116.031 -3.66341 115.852 -3.49468 115.731C-3.32595 115.61 -3.11844 115.556 -2.91229 115.58L-1.59668 115.831L-3.75863 118.529C-3.82784 118.608 -3.88032 118.7 -3.91287 118.799C-3.94542 118.899 -3.95735 119.004 -3.94794 119.108C-3.93853 119.213 -3.90798 119.314 -3.85814 119.406C-3.80831 119.498 -3.74024 119.579 -3.65808 119.644C-3.48038 119.762 -3.26446 119.807 -3.05428 119.772C-2.84411 119.736 -2.65548 119.621 -2.52682 119.451L0.422807 115.722C0.507672 115.617 0.565714 115.492 0.591982 115.36C0.61825 115.227 0.611957 115.09 0.573634 114.96C0.535297 114.836 0.463332 114.724 0.365716 114.639C0.2681 114.553 0.148642 114.496 0.0205755 114.474L-1.16094 114.247L-0.507332 111.599L1.05128 111.843C1.19833 111.868 1.3497 111.851 1.48701 111.792C1.61101 111.747 1.7227 111.674 1.81297 111.578C1.90324 111.482 1.96957 111.366 2.00655 111.239L2.66854 108.457C2.70482 108.362 2.72064 108.26 2.71499 108.158C2.70934 108.056 2.68234 107.956 2.63573 107.865C2.58912 107.774 2.52395 107.694 2.44443 107.63C2.36492 107.566 2.27283 107.52 2.17414 107.493Z" fill="#92E3A9"/>
<path d="M-1.11062 109.22C-0.709656 109.073 -0.379735 108.779 -0.188192 108.398C0.00334954 108.016 0.0420682 107.576 -0.079931 107.167C-0.147526 106.975 -0.254294 106.8 -0.393412 106.653C-0.53253 106.505 -0.700938 106.388 -0.887858 106.309C-1.07478 106.23 -1.27609 106.191 -1.47894 106.195C-1.68179 106.198 -1.88171 106.244 -2.0659 106.329C-2.46532 106.477 -2.79332 106.772 -2.98322 107.153C-3.17312 107.534 -3.21066 107.974 -3.08821 108.382C-3.02156 108.573 -2.91567 108.748 -2.77735 108.895C-2.63903 109.043 -2.47134 109.16 -2.28508 109.239C-2.09881 109.318 -1.89809 109.357 -1.69582 109.354C-1.49355 109.35 -1.29421 109.305 -1.11062 109.22Z" fill="#92E3A9"/>
<path d="M-2.92892 127.169C4.12406 127.169 9.84162 121.451 9.84162 114.398C9.84162 107.345 4.12406 101.628 -2.92892 101.628C-9.98189 101.628 -15.6995 107.345 -15.6995 114.398C-15.6995 121.451 -9.98189 127.169 -2.92892 127.169Z" stroke="#999999" stroke-width="2" stroke-miterlimit="10"/>
<path d="M-2.92069 127.177C-5.44848 127.179 -7.91998 126.431 -10.0226 125.028C-12.1252 123.625 -13.7644 121.629 -14.7329 119.295C-15.7013 116.96 -15.9556 114.39 -15.4635 111.911C-14.9713 109.431 -13.7549 107.153 -11.9681 105.365C-10.1813 103.577 -7.90429 102.359 -5.4252 101.866C-2.9461 101.372 -0.376262 101.624 1.95927 102.591C4.2948 103.558 6.2911 105.196 7.69563 107.298C9.10017 109.4 9.84985 111.871 9.84985 114.398" stroke="#92E3A9" stroke-width="2" stroke-linecap="round" stroke-linejoin="round"/>
<path d="M51.7649 145.244C51.7222 145.244 51.68 145.235 51.641 145.218C51.602 145.2 51.5671 145.175 51.5386 145.143L49.3516 142.705C49.3246 142.675 49.3037 142.64 49.2902 142.602C49.2767 142.565 49.2707 142.525 49.2726 142.484C49.2746 142.444 49.2844 142.405 49.3015 142.369C49.3187 142.333 49.3428 142.3 49.3725 142.273C49.4022 142.246 49.4369 142.225 49.4747 142.212C49.5125 142.198 49.5525 142.192 49.5926 142.194C49.6327 142.196 49.672 142.206 49.7083 142.223C49.7445 142.24 49.7771 142.264 49.8041 142.294L51.9911 144.732C52.0193 144.76 52.0416 144.794 52.0568 144.83C52.072 144.867 52.0799 144.906 52.0799 144.946C52.0799 144.986 52.072 145.025 52.0568 145.062C52.0416 145.098 52.0193 145.132 51.9911 145.16C51.9622 145.19 51.9268 145.213 51.8876 145.228C51.8485 145.242 51.8065 145.248 51.7649 145.244Z" fill="#92E3A9"/>
<path d="M50.0388 137.886V137.501H48.7903V137.945C47.5929 138.189 46.5253 138.86 45.787 139.834C45.0486 140.807 44.6901 142.016 44.7784 143.235C44.8667 144.454 45.3958 145.599 46.2668 146.456C47.1377 147.313 48.291 147.823 49.5109 147.892C50.7393 147.812 51.8957 147.284 52.7609 146.408C53.6261 145.532 54.1399 144.37 54.2049 143.14C54.27 141.911 53.8818 140.701 53.114 139.738C52.3461 138.776 51.2519 138.129 50.0388 137.92V137.886ZM49.5109 147.246C48.6421 147.248 47.7924 146.992 47.0692 146.51C46.346 146.029 45.7819 145.344 45.4483 144.542C45.1146 143.739 45.0265 142.856 45.195 142.004C45.3634 141.152 45.781 140.369 46.3947 139.754C47.0085 139.139 47.7909 138.72 48.6428 138.55C49.4948 138.379 50.3781 138.466 51.1809 138.798C51.9838 139.13 52.67 139.693 53.1529 140.415C53.6357 141.137 53.8934 141.987 53.8934 142.855C53.8912 144.018 53.4291 145.132 52.6079 145.955C51.7867 146.778 50.6733 147.242 49.5109 147.246Z" fill="#92E3A9"/>
<path d="M50.2483 136.487H48.5891V137.333H50.2483V136.487Z" fill="#92E3A9"/>
<g opacity="0.6">
<path d="M51.765 145.244C51.7224 145.244 51.6801 145.235 51.6411 145.217C51.6021 145.2 51.5672 145.175 51.5388 145.143L49.3517 142.704C49.3247 142.675 49.3039 142.64 49.2904 142.602C49.2768 142.564 49.2708 142.524 49.2728 142.484C49.2747 142.444 49.2846 142.405 49.3017 142.369C49.3188 142.332 49.3429 142.3 49.3727 142.273C49.4024 142.246 49.4371 142.225 49.4749 142.212C49.5126 142.198 49.5527 142.192 49.5928 142.194C49.6328 142.196 49.6721 142.206 49.7084 142.223C49.7447 142.24 49.7773 142.264 49.8042 142.294L51.9913 144.732C52.0194 144.76 52.0417 144.794 52.057 144.83C52.0722 144.867 52.08 144.906 52.08 144.946C52.08 144.986 52.0722 145.025 52.057 145.062C52.0417 145.098 52.0194 145.132 51.9913 145.16C51.9624 145.19 51.927 145.213 51.8878 145.228C51.8486 145.242 51.8066 145.248 51.765 145.244Z" fill="#92E3A9"/>
<path d="M50.0388 137.886V137.501H48.7902V137.945C47.5929 138.189 46.5252 138.86 45.7869 139.834C45.0486 140.807 44.6901 142.016 44.7783 143.235C44.8666 144.454 45.3957 145.599 46.2667 146.455C47.1377 147.312 48.2909 147.823 49.5109 147.892C50.7393 147.812 51.8957 147.284 52.7608 146.408C53.626 145.532 54.1398 144.369 54.2049 143.14C54.27 141.911 53.8818 140.7 53.1139 139.738C52.346 138.776 51.2519 138.129 50.0388 137.92V137.886ZM49.5109 147.246C48.6421 147.248 47.7923 146.992 47.0691 146.51C46.3459 146.029 45.7818 145.344 45.4482 144.542C45.1146 143.739 45.0264 142.856 45.1949 142.004C45.3634 141.152 45.7809 140.368 46.3947 139.753C47.0084 139.139 47.7908 138.72 48.6428 138.549C49.4948 138.379 50.3781 138.466 51.1809 138.798C51.9837 139.13 52.67 139.693 53.1528 140.415C53.6357 141.137 53.8934 141.987 53.8934 142.855C53.8912 144.018 53.429 145.132 52.6079 145.955C51.7867 146.778 50.6733 147.242 49.5109 147.246Z" fill="#92E3A9"/>
<path d="M50.2482 136.487H48.5891V137.333H50.2482V136.487Z" fill="#92E3A9"/>
</g>
<path d="M3.12943 204.521V205.954C3.12943 207.052 3.60707 207.445 4.378 207.445C5.14892 207.445 5.63494 207.052 5.63494 205.954V202.56C5.63494 201.462 5.14892 201.043 4.378 201.043C3.60707 201.043 3.12943 201.462 3.12943 202.56V203.029H0.841797L1.26915 194.088H7.64604V196.284H3.45623L3.25512 199.963C3.47136 199.601 3.78237 199.305 4.15454 199.107C4.52672 198.909 4.9459 198.817 5.36679 198.84C7.15165 198.84 8.04826 200.088 8.04826 202.359V205.82C8.04826 208.283 6.81646 209.691 4.44502 209.691C2.07359 209.691 0.841797 208.283 0.841797 205.82V204.546L3.12943 204.521Z" fill="white"/>
<path d="M13.4701 200.792H12.4059L12.2215 199.577H10.9227L10.7467 200.792H9.77466L10.8472 194.088H12.3891L13.4701 200.792ZM11.0567 198.664H12.0791L11.5679 195.27L11.0567 198.664Z" fill="#92E3A9"/>
<path d="M17.0145 198.321V199.209C17.0145 200.281 16.4782 200.885 15.4392 200.885C14.4001 200.885 13.8722 200.265 13.8722 199.209V195.715C13.8722 194.642 14.4085 194.039 15.4392 194.039C15.6596 194.02 15.8815 194.051 16.0881 194.13C16.2948 194.209 16.4808 194.334 16.6324 194.495C16.7839 194.657 16.897 194.85 16.9632 195.061C17.0294 195.272 17.0469 195.496 17.0145 195.715V196.368H16.0174V195.647C16.0174 195.17 15.8079 194.994 15.4727 194.994C15.1375 194.994 14.9196 195.17 14.9196 195.647V199.276C14.9196 199.753 15.1375 199.929 15.4727 199.929C15.8079 199.929 16.0174 199.753 16.0174 199.276V198.321H17.0145Z" fill="#92E3A9"/>
<path d="M17.3497 194.088H20.6094V195.052H19.5033V200.792H18.4475V195.044H17.3497V194.088Z" fill="#92E3A9"/>
<path d="M21.0619 194.088H22.1177V200.792H21.0619V194.088Z" fill="#92E3A9"/>
<path d="M24.4808 199.586L25.3187 194.105H26.2824L25.2517 200.809H23.6428L22.6121 194.105H23.6763L24.4808 199.586Z" fill="#92E3A9"/>
<path d="M27.7906 196.937H29.2403V197.893H27.7906V199.862H29.6174V200.792H26.7432V194.088H29.6174V195.052H27.7906V196.937Z" fill="#92E3A9"/>
<path d="M13.1097 207.102V207.99C13.1097 209.071 12.5734 209.666 11.5427 209.666C10.512 209.666 9.96736 209.054 9.96736 207.99V204.504C9.93495 204.285 9.95248 204.062 10.0187 203.851C10.0848 203.64 10.1979 203.446 10.3495 203.285C10.501 203.124 10.6871 202.999 10.8938 202.92C11.1004 202.841 11.3223 202.809 11.5427 202.828C12.5734 202.828 13.1097 203.44 13.1097 204.504V205.158H12.1125V204.437C12.1125 203.96 11.903 203.775 11.5679 203.775C11.2327 203.775 11.0232 203.96 11.0232 204.437V208.057C11.0232 208.543 11.2327 208.711 11.5679 208.711C11.903 208.711 12.1125 208.543 12.1125 208.057V207.102H13.1097Z" fill="#92E3A9"/>
<path d="M17.1904 209.608H16.1011L15.9167 208.384H14.6262L14.4419 209.608H13.4782L14.5508 202.904H16.0927L17.1904 209.608ZM14.7603 207.496H15.7742L15.2715 204.102L14.7603 207.496Z" fill="#92E3A9"/>
<path d="M17.6514 202.896H18.7072V208.644H20.4418V209.608H17.6514V202.896Z" fill="#92E3A9"/>
<path d="M41.2148 162.464L42.2287 162.405C41.1118 163.485 39.9127 164.477 38.6423 165.372L37.7121 165.975L36.8071 165.313C35.7916 164.464 34.8523 163.527 33.9999 162.514L35.3072 162.59L36.0781 160.688L37.2177 164.71L38.2819 162.439L38.9523 163.704L39.7316 161.492L40.402 163.654L41.2148 162.464Z" fill="#92E3A9"/>
<path d="M42.7233 161.467H41.1396L40.6452 162.187L39.6899 159.816L38.852 162.129L38.2235 160.93L37.3855 162.564L36.0699 158.416L35.0811 161.408H33.313C32.2321 160.176 31.8634 158.961 33.2627 157.888C35.0225 156.539 37.0503 157.796 38.081 158.609C39.162 157.855 41.5418 156.305 43.3686 158.316C44.2819 159.363 43.7289 160.461 42.7233 161.467Z" fill="#92E3A9"/>
<path d="M2.73581 154.243C1.97326 154.243 1.48724 154.612 1.48724 155.584V157.034H-0.800393V155.718C-0.800393 153.548 0.431414 152.316 2.80285 152.316C5.17428 152.316 6.41446 153.548 6.41446 155.718C6.41446 159.967 1.59618 161.584 1.59618 163.779C1.5838 163.874 1.5838 163.97 1.59618 164.064H6.17146V166H-0.825531V164.324C-0.825531 160.335 3.96761 159.682 3.96761 155.777C3.99275 154.579 3.50673 154.243 2.73581 154.243Z" fill="white"/>
<path d="M14.5927 157.646V158.056C14.6492 158.508 14.5571 158.965 14.3303 159.36C14.1036 159.755 13.7544 160.065 13.3358 160.243C13.8081 160.404 14.2104 160.722 14.4746 161.145C14.7388 161.568 14.8487 162.07 14.7855 162.564V163.402C14.7855 165.078 13.7799 165.983 11.8358 165.983H8.81079V155.09H11.7437C13.7296 155.157 14.5927 155.978 14.5927 157.646ZM10.7297 156.707V159.573H11.4839C12.2129 159.573 12.6487 159.296 12.6487 158.425V157.822C12.6487 157.042 12.347 156.707 11.6599 156.707H10.7297ZM10.7297 161.123V164.475H11.8358C12.4894 164.475 12.8414 164.207 12.8414 163.402V162.455C12.8414 161.45 12.4727 161.14 11.5928 161.14L10.7297 161.123Z" fill="#92E3A9"/>
<path d="M21.6987 157.838V159.246C21.6987 160.981 20.7434 161.928 18.7994 161.928H17.886V166.008H15.9503V155.115H18.7994C20.7434 155.157 21.6987 156.104 21.6987 157.838ZM17.886 156.707V160.377H18.7994C19.4194 160.377 19.7546 160.126 19.7546 159.355V157.729C19.7546 156.95 19.4194 156.707 18.7994 156.707H17.886Z" fill="#92E3A9"/>
<path d="M26.7936 162.858L28.1092 155.157H30.8074V166.05H28.9723V158.224L27.6316 166.008H25.8048L24.3551 158.333V166.008H22.6792V155.115H25.3774L26.7936 162.858Z" fill="#92E3A9"/>
<path d="M2.1073 175.226C2.71371 175.305 3.32722 175.148 3.82143 174.788C4.31563 174.428 4.65287 173.892 4.76364 173.29H6.38929V188.692H3.97595V176.961H2.1073V175.226Z" fill="white"/>
<path d="M9.54822 173.14H12.8079V174.095H11.7102V179.852H10.6543V174.095H9.54822V173.14Z" fill="#92E3A9"/>
<path d="M13.1849 174.815C13.1849 174.391 13.3536 173.984 13.6537 173.684C13.9539 173.383 14.361 173.215 14.7854 173.215C15.2099 173.215 15.617 173.383 15.9172 173.684C16.2173 173.984 16.3859 174.391 16.3859 174.815V178.31C16.3859 178.734 16.2173 179.141 15.9172 179.441C15.617 179.742 15.2099 179.91 14.7854 179.91C14.361 179.91 13.9539 179.742 13.6537 179.441C13.3536 179.141 13.1849 178.734 13.1849 178.31V174.815ZM14.2324 178.377C14.2324 178.854 14.4503 179.039 14.7854 179.039C15.1206 179.039 15.3301 178.854 15.3301 178.377V174.748C15.3301 174.271 15.1206 174.086 14.7854 174.086C14.4503 174.086 14.2324 174.271 14.2324 174.748V178.377Z" fill="#92E3A9"/>
<path d="M16.755 173.14H20.0147V174.095H18.9169V179.852H17.8611V174.095H16.755V173.14Z" fill="#92E3A9"/>
<path d="M23.5255 179.885H22.4613L22.277 178.67H20.9865L20.8021 179.885H19.8301L20.9027 173.182H22.4529L23.5255 179.885ZM21.1206 177.757H22.1345L21.6233 174.405L21.1206 177.757Z" fill="#92E3A9"/>
<path d="M24.0116 173.14H25.0674V178.896H26.802V179.852H24.0116V173.14Z" fill="#92E3A9"/>
<path d="M12.9168 186.17V187.058C12.9168 188.131 12.3806 188.734 11.3415 188.734C10.3024 188.734 9.76611 188.114 9.76611 187.058V183.572C9.76611 182.5 10.3024 181.896 11.3415 181.896C12.3806 181.896 12.9168 182.517 12.9168 183.572V184.218H11.9197V183.505C11.9197 183.019 11.7102 182.843 11.3666 182.843C11.0231 182.843 10.8219 183.019 10.8219 183.505V187.125C10.8219 187.603 11.0314 187.779 11.3666 187.779C11.7018 187.779 11.9197 187.603 11.9197 187.125V186.17H12.9168Z" fill="#92E3A9"/>
<path d="M16.9642 188.675H15.9L15.7241 187.452H14.4252L14.2409 188.675H13.2772L14.3498 181.972H15.8917L16.9642 188.675ZM14.5593 186.547H15.5816L15.0705 183.153L14.5593 186.547Z" fill="#92E3A9"/>
<path d="M17.4587 181.955H18.5145V187.711H20.2491V188.675H17.4587V181.955Z" fill="#92E3A9"/>
<path d="M2.8949 145.428V147.758H0.565369V145.428H2.8949Z" fill="white"/>
<path d="M4.45352 136.06C4.45352 133.596 5.75235 132.189 8.12379 132.189C10.4952 132.189 11.8025 133.596 11.8025 136.06V144.062C11.8025 146.526 10.5036 147.934 8.12379 147.934C5.74397 147.934 4.45352 146.526 4.45352 144.062V136.06ZM6.87523 144.222C6.87523 145.319 7.36124 145.738 8.12379 145.738C8.88633 145.738 9.38073 145.319 9.38073 144.222V135.909C9.38073 134.803 8.89471 134.392 8.12379 134.392C7.35286 134.392 6.87523 134.803 6.87523 135.909V144.222Z" fill="white"/>
<path d="M20.4669 132.365V134.476L16.8971 147.758H14.4838L18.0284 134.594H13.2185V132.39L20.4669 132.365Z" fill="white"/>
<path d="M24.3969 145.428V147.758H22.0674V145.428H24.3969Z" fill="white"/>
<path d="M27.6483 134.3C28.2557 134.379 28.8703 134.223 29.3658 133.863C29.8614 133.503 30.2003 132.967 30.313 132.365H31.9387V147.758H29.5253V136.026H27.6483V134.3Z" fill="white"/>
<path d="M38.3408 147.934C35.894 147.934 34.5532 146.526 34.5532 144.062V142.856C34.5532 141.381 34.9973 140.241 36.0532 139.646C35.0392 139.093 34.5532 138.063 34.5532 136.546V136.06C34.5532 133.596 35.894 132.189 38.3408 132.189C40.7877 132.189 42.12 133.596 42.12 136.06V136.546C42.12 138.063 41.6172 139.06 40.6284 139.646C41.6843 140.241 42.12 141.381 42.12 142.856V144.062C42.12 146.526 40.7793 147.934 38.3408 147.934ZM36.9749 137.04C36.9749 138.272 37.5448 138.666 38.3408 138.666C39.1369 138.666 39.7067 138.272 39.7067 137.04V136.202C39.7067 134.82 39.1117 134.451 38.3408 134.451C37.5699 134.451 36.9749 134.82 36.9749 136.202V137.04ZM38.3408 145.772C39.1117 145.772 39.6815 145.395 39.7067 144.029V142.604C39.7067 141.398 39.1955 140.87 38.3408 140.87C37.4861 140.87 36.9749 141.398 36.9749 142.604V144.029C36.9749 145.361 37.5699 145.738 38.3408 145.738V145.772Z" fill="white"/>
<path d="M60.664 109.907C60.3639 109.937 60.061 109.899 59.7775 109.796C59.4941 109.693 59.2375 109.527 59.0267 109.312C58.8158 109.096 58.6562 108.836 58.5596 108.55C58.463 108.264 58.4319 107.961 58.4686 107.661V106.941C58.4234 106.582 58.4777 106.218 58.6255 105.889C58.7733 105.559 59.0089 105.277 59.3065 105.072C59.0086 104.884 58.7712 104.614 58.6226 104.294C58.474 103.975 58.4206 103.619 58.4686 103.27V102.994C58.4686 102.412 58.6999 101.853 59.1116 101.441C59.5233 101.03 60.0818 100.798 60.664 100.798C61.2463 100.798 61.8047 101.03 62.2164 101.441C62.6282 101.853 62.8595 102.412 62.8595 102.994V103.27C62.9024 103.619 62.8466 103.973 62.6984 104.291C62.5503 104.61 62.3158 104.88 62.0215 105.072C62.3185 105.277 62.5535 105.56 62.7012 105.889C62.849 106.219 62.9037 106.582 62.8595 106.941V107.644C62.8989 107.945 62.8699 108.251 62.7745 108.539C62.6791 108.826 62.5199 109.089 62.3087 109.307C62.0976 109.524 61.84 109.691 61.5552 109.795C61.2703 109.899 60.9657 109.937 60.664 109.907ZM59.8763 103.555C59.8763 104.276 60.2031 104.502 60.664 104.502C61.1249 104.502 61.4601 104.276 61.4601 103.555V103.061C61.4601 102.223 61.1165 102.039 60.664 102.039C60.2115 102.039 59.8763 102.256 59.8763 103.061V103.555ZM60.664 108.633C61.1165 108.633 61.4433 108.415 61.4601 107.619V106.781C61.4601 106.078 61.1668 105.776 60.664 105.776C60.1612 105.776 59.8763 106.078 59.8763 106.781V107.619C59.8763 108.415 60.2199 108.617 60.664 108.617V108.633Z" fill="white"/>
<path d="M65.0634 103.589V104.946H63.7059V103.589H65.0634ZM65.0634 108.457V109.815H63.7059V108.449L65.0634 108.457Z" fill="white"/>
<path d="M68.1385 102.039C67.6944 102.039 67.4095 102.282 67.4095 102.877V103.84H66.0855V103.002C66.0855 101.569 66.7978 100.756 68.1804 100.756C69.5631 100.756 70.2753 101.594 70.2753 103.002C70.2753 105.809 67.4766 106.857 67.4766 108.332C67.4724 108.393 67.4724 108.455 67.4766 108.516H70.1413V109.798H66.0771V108.7C66.0771 106.069 68.8592 105.633 68.8592 103.052C68.8676 102.256 68.591 102.039 68.1385 102.039Z" fill="white"/>
<path d="M73.8535 103.061C73.8535 102.223 73.5686 102.039 73.1245 102.039C72.6803 102.039 72.3954 102.282 72.3954 102.877V103.455H71.0714V102.969C71.0714 101.536 71.7837 100.723 73.1663 100.723C74.549 100.723 75.2613 101.561 75.2613 102.969V103.195C75.3181 103.568 75.2525 103.949 75.0742 104.282C74.8959 104.614 74.6146 104.88 74.2725 105.039C74.6176 105.21 74.8993 105.487 75.077 105.829C75.2547 106.17 75.3192 106.56 75.2613 106.941V107.645C75.2613 109.069 74.5406 109.89 73.1663 109.89C71.7921 109.89 71.0714 109.052 71.0714 107.645V106.941H72.3954V107.779C72.3954 108.424 72.6803 108.667 73.1245 108.667C73.5686 108.667 73.8535 108.449 73.8535 107.653V106.941C73.8535 106.103 73.5686 105.81 72.9317 105.81H72.496V104.527H73.0407C73.5686 104.527 73.8786 104.301 73.8786 103.581L73.8535 103.061Z" fill="white"/>
<path d="M60.5383 112.211C61.9042 112.211 62.6081 112.798 62.6081 113.837V114.038H61.2757V113.77C61.2757 113.309 61.0243 113.133 60.5718 113.133C60.1193 113.133 59.8764 113.309 59.8764 113.77C59.8764 115.111 62.6165 115.354 62.6165 117.206C62.6165 118.245 61.9042 118.84 60.5216 118.84C59.1389 118.84 58.4267 118.245 58.4267 117.206V116.812H59.759V117.273C59.759 117.734 60.0356 117.901 60.4881 117.901C60.9406 117.901 61.2171 117.734 61.2171 117.273C61.2171 115.94 58.4686 115.689 58.4686 113.837C58.4686 112.806 59.1725 112.211 60.5383 112.211Z" fill="#92E3A9"/>
<path d="M64.77 112.287V117.314C64.77 117.775 65.0465 117.943 65.499 117.943C65.9515 117.943 66.2197 117.775 66.2197 117.314V112.287H67.552V117.214C67.552 118.253 66.8398 118.89 65.4571 118.89C64.0745 118.89 63.3622 118.295 63.3622 117.214V112.287H64.77Z" fill="#92E3A9"/>
<path d="M69.7643 114.071V118.764H68.499V112.287H70.2587L71.7084 116.158V112.287H72.9569V118.764H71.5156L69.7643 114.071Z" fill="#92E3A9"/>
<path d="M25.6541 217.308C25.6557 217.576 25.578 217.837 25.4308 218.06C25.2835 218.283 25.0734 218.457 24.8271 218.561C24.5807 218.664 24.3092 218.692 24.0469 218.641C23.7847 218.59 23.5435 218.462 23.354 218.274C23.1645 218.085 23.0351 217.845 22.9824 217.583C22.9296 217.321 22.9559 217.049 23.0577 216.802C23.1596 216.555 23.3325 216.344 23.5545 216.196C23.7766 216.047 24.0377 215.968 24.3049 215.968C24.6613 215.968 25.0032 216.109 25.256 216.36C25.5087 216.611 25.6518 216.952 25.6541 217.308Z" fill="white"/>
<path d="M33.6147 217.308C33.6147 217.574 33.536 217.833 33.3887 218.053C33.2414 218.274 33.032 218.446 32.787 218.547C32.542 218.649 32.2724 218.675 32.0123 218.623C31.7523 218.572 31.5134 218.444 31.3259 218.256C31.1384 218.069 31.0107 217.83 30.9589 217.57C30.9072 217.31 30.9337 217.04 31.0352 216.795C31.1367 216.55 31.3085 216.341 31.529 216.194C31.7495 216.046 32.0087 215.968 32.2739 215.968C32.45 215.968 32.6243 216.002 32.787 216.07C32.9497 216.137 33.0975 216.236 33.222 216.36C33.3465 216.485 33.4452 216.633 33.5126 216.795C33.58 216.958 33.6147 217.132 33.6147 217.308Z" fill="white"/>
<path d="M41.5837 217.308C41.5854 217.576 41.5077 217.837 41.3604 218.06C41.2132 218.283 41.0031 218.457 40.7567 218.561C40.5103 218.664 40.2388 218.692 39.9766 218.641C39.7143 218.59 39.4731 218.462 39.2836 218.274C39.0941 218.085 38.9648 217.845 38.912 217.583C38.8593 217.321 38.8855 217.049 38.9874 216.802C39.0893 216.555 39.2621 216.344 39.4842 216.196C39.7062 216.047 39.9674 215.968 40.2346 215.968C40.591 215.968 40.9328 216.109 41.1856 216.36C41.4384 216.611 41.5815 216.952 41.5837 217.308Z" fill="white"/>
<path d="M109.173 78.7348H158.178C158.572 78.7379 158.959 78.6234 159.288 78.4059C159.617 78.1884 159.874 77.8778 160.026 77.5137C160.178 77.1496 160.218 76.7485 160.141 76.3615C160.064 75.9746 159.873 75.6193 159.594 75.3411C158.752 74.6208 157.729 74.1455 156.636 73.9668C156.255 73.8799 155.908 73.6811 155.641 73.3959C155.374 73.1107 155.198 72.7522 155.136 72.3663C154.566 69.0144 152.312 60.5427 143.865 60.3667C141.286 60.2389 138.725 60.863 136.493 62.1631C134.262 63.4632 132.456 65.3835 131.296 67.6905C131.074 68.1208 130.704 68.4564 130.254 68.6351C129.805 68.8138 129.305 68.8235 128.849 68.6625C127.265 68.0927 124.827 67.967 122.841 71.1764C122.612 71.5559 122.265 71.8496 121.853 72.0117C121.441 72.1738 120.987 72.1954 120.561 72.073C119.342 71.6298 118.012 71.5866 116.766 71.9497C115.52 72.3129 114.422 73.0634 113.631 74.0925C113.432 74.3615 113.165 74.5734 112.857 74.7072C112.55 74.841 112.213 74.8919 111.88 74.8551C110.947 74.7336 110.005 74.6916 109.065 74.7294C106.475 74.8634 106.609 78.7348 109.173 78.7348Z" stroke="#263238" stroke-linecap="round" stroke-linejoin="round"/>
<path d="M161.89 328.531C142.893 346.128 43.3349 351.072 30.757 351.072C17.4502 351.072 -71.7592 348.081 -97.5517 328.489L-97.6858 328.372L-8.86181 303.233H72.3032L161.89 328.531Z" fill="#BFBFBF"/>
<path d="M118.24 332.336L55.9211 303.258" stroke="#263238" stroke-linecap="round" stroke-linejoin="round"/>
<path d="M136.24 340.732L121.182 333.71" stroke="#263238" stroke-linecap="round" stroke-linejoin="round"/>
<path d="M47.9688 314.194L40.159 303.267" stroke="#263238" stroke-linecap="round" stroke-linejoin="round"/>
<path d="M66.9319 340.732L49.7872 316.733" stroke="#263238" stroke-linecap="round" stroke-linejoin="round"/>
<path d="M4.67148 330.861L24.3887 303.267" stroke="#263238" stroke-linecap="round" stroke-linejoin="round"/>
<path d="M-2.38428 340.732L2.14071 334.405" stroke="#263238" stroke-linecap="round" stroke-linejoin="round"/>
<path d="M-16.3531 314.914L8.61818 303.267" stroke="#263238" stroke-linecap="round" stroke-linejoin="round"/>
<path d="M205.548 303.267H182.252H181.917H147.033H142.868H72.32H72.1943H71.6999H55.9378H40.159H24.3886H8.61812H-7.14394H-8.84502H-117.261H-117.344H-141" stroke="#263238" stroke-linecap="round" stroke-linejoin="round"/>
<path d="M72.3201 303.267L161.89 328.531L209 341.813" stroke="#263238" stroke-linecap="round" stroke-linejoin="round"/>
<path d="M176.068 287.396C176.068 287.396 190.85 286.332 198.224 272.313C206.185 257.154 186.769 221.197 176.848 218.532C165.954 215.599 148.759 244.325 152.278 266.656C154.692 281.874 169.239 287.002 176.068 287.396Z" fill="#92E3A9"/>
<path opacity="0.3" d="M176.068 287.396C176.068 287.396 190.85 286.332 198.224 272.313C206.185 257.154 186.769 221.197 176.848 218.532C165.954 215.599 148.759 244.325 152.278 266.656C154.692 281.874 169.239 287.002 176.068 287.396Z" fill="white"/>
<path d="M186.392 261.612L176.931 271.969C176.931 272.33 176.931 272.682 176.931 273.042C176.998 277.667 177.09 282.452 177.166 287.287C177.166 287.597 177.166 287.916 177.166 288.226C177.216 291.988 177.392 300.016 177.451 303.845C177.455 304.124 177.404 304.4 177.301 304.659C177.198 304.917 177.044 305.153 176.85 305.351C176.655 305.55 176.422 305.708 176.166 305.817C175.91 305.925 175.634 305.981 175.356 305.982C175.072 305.986 174.791 305.932 174.529 305.824C174.267 305.716 174.03 305.557 173.831 305.355C173.632 305.153 173.476 304.913 173.373 304.649C173.269 304.385 173.219 304.104 173.227 303.82L173.596 288.201V287.136L173.646 285.393L173.705 282.787L161.58 269.598C162.552 269.598 160.809 267.771 160.633 267.595L173.889 277.936L174.417 255.361L166.465 246.705C167.152 246.705 165.912 245.414 165.786 245.28L174.493 252.135V251.707L174.97 232.082L176.278 233.515C176.278 233.515 176.537 248.867 176.864 268.098L187.154 259.911C187.012 260.07 185.621 261.62 186.392 261.612Z" fill="white" stroke="#263238" stroke-linecap="round" stroke-linejoin="round"/>
<path d="M32.2737 291.837C-34.3862 291.837 -88.6191 237.604 -88.6191 170.944C-88.6191 104.284 -34.3862 50.0432 32.2737 50.0432C98.9336 50.0432 153.166 104.276 153.166 170.944C153.166 237.613 98.9336 291.837 32.2737 291.837ZM32.2737 57.5849C-30.2299 57.5849 -81.0774 108.441 -81.0774 170.944C-81.0774 233.448 -30.2299 284.296 32.2737 284.296C94.7773 284.296 145.625 233.473 145.625 170.944C145.625 108.416 94.7773 57.5849 32.2737 57.5849Z" fill="white"/>
<path d="M32.2737 291.837C-34.3862 291.837 -88.6191 237.604 -88.6191 170.944C-88.6191 104.284 -34.3862 50.0432 32.2737 50.0432C98.9336 50.0432 153.166 104.276 153.166 170.944C153.166 171.944 152.769 172.904 152.062 173.611C151.355 174.318 150.396 174.715 149.396 174.715C148.396 174.715 147.436 174.318 146.729 173.611C146.022 172.904 145.625 171.944 145.625 170.944C145.625 108.441 94.7773 57.5849 32.2737 57.5849C-30.2299 57.5849 -81.0774 108.441 -81.0774 170.944C-81.0774 233.448 -30.2299 284.296 32.2737 284.296C33.2738 284.296 34.2329 284.693 34.9401 285.4C35.6472 286.107 36.0445 287.066 36.0445 288.066C36.0445 289.066 35.6472 290.026 34.9401 290.733C34.2329 291.44 33.2738 291.837 32.2737 291.837Z" fill="#92E3A9"/>
<path d="M28.922 11.0442C26.3632 11.0442 23.9091 12.0601 22.099 13.8686C20.2889 15.6772 19.2709 18.1304 19.2687 20.6891C19.2687 24.041 23.182 31.0044 26.0226 35.5797C27.6148 38.2277 28.922 40.0544 28.922 40.0544C28.922 40.0544 30.1957 38.1942 31.8046 35.5797C34.6537 31.0044 38.5586 24.0745 38.5586 20.6891C38.5564 18.1333 37.5406 15.6826 35.7341 13.8745C33.9277 12.0665 31.4779 11.0486 28.922 11.0442ZM28.922 25.4404C28.0536 25.4404 27.2046 25.1829 26.4825 24.7004C25.7605 24.2179 25.1977 23.5321 24.8653 22.7298C24.533 21.9275 24.446 21.0446 24.6155 20.1928C24.7849 19.3411 25.2031 18.5587 25.8171 17.9446C26.4312 17.3305 27.2136 16.9123 28.0654 16.7429C28.9171 16.5735 29.8 16.6604 30.6023 16.9928C31.4047 17.3251 32.0904 17.8879 32.5729 18.61C33.0554 19.3321 33.3129 20.181 33.3129 21.0495C33.314 21.6264 33.2012 22.1979 32.9809 22.7311C32.7607 23.2643 32.4373 23.7488 32.0293 24.1568C31.6214 24.5647 31.1369 24.8881 30.6036 25.1084C30.0704 25.3287 29.4989 25.4415 28.922 25.4404Z" fill="#92E3A9"/>
<path d="M11.2744 17.2789C9.27421 17.2789 7.35596 18.0734 5.94162 19.4878C4.52729 20.9021 3.73273 22.8203 3.73273 24.8205C3.73273 27.4852 6.79967 32.9236 9.03703 36.552C10.3107 38.6134 11.3079 40.0714 11.3079 40.0714C11.3079 40.0714 12.3135 38.6134 13.5788 36.552C15.8078 32.9571 18.8831 27.5188 18.8831 24.8205C18.8831 23.8245 18.6859 22.8383 18.3027 21.9189C17.9195 20.9995 17.358 20.1651 16.6505 19.4639C15.9431 18.7627 15.1038 18.2086 14.181 17.8336C13.2583 17.4585 12.2704 17.27 11.2744 17.2789ZM11.2744 28.583C10.5916 28.583 9.92407 28.3805 9.35633 28.0011C8.78858 27.6218 8.34609 27.0826 8.08478 26.4517C7.82348 25.8209 7.75511 25.1267 7.88832 24.457C8.02153 23.7873 8.35034 23.1722 8.83316 22.6893C9.31599 22.2065 9.93115 21.8777 10.6009 21.7445C11.2706 21.6113 11.9647 21.6797 12.5956 21.941C13.2264 22.2023 13.7656 22.6448 14.145 23.2125C14.5243 23.7803 14.7268 24.4477 14.7268 25.1306C14.7312 25.5864 14.6451 26.0385 14.4735 26.4608C14.3019 26.8831 14.0482 27.2671 13.727 27.5905C13.4059 27.914 13.0237 28.1705 12.6027 28.3452C12.1817 28.5199 11.7302 28.6092 11.2744 28.6081V28.583Z" fill="#263238"/>
<path d="M28.8548 40.7417H24.9332C24.8013 40.7352 24.6772 40.677 24.5879 40.5798C24.4985 40.4826 24.451 40.3541 24.4555 40.2221C24.4644 40.0937 24.5177 39.9723 24.6065 39.879C24.6952 39.7857 24.8137 39.7263 24.9415 39.711H28.8632C28.9886 39.727 29.1038 39.7882 29.1873 39.883C29.2708 39.9779 29.3169 40.0999 29.3169 40.2263C29.3169 40.3527 29.2708 40.4748 29.1873 40.5696C29.1038 40.6645 28.9886 40.7257 28.8632 40.7417H28.8548ZM21.9919 40.6914H18.0702C18.0053 40.6892 17.9414 40.6743 17.8823 40.6474C17.8231 40.6206 17.7698 40.5823 17.7255 40.5348C17.6811 40.4873 17.6465 40.4316 17.6237 40.3708C17.601 40.3099 17.5904 40.2452 17.5926 40.1802C17.5892 40.1146 17.599 40.049 17.6213 39.9872C17.6435 39.9254 17.6779 39.8686 17.7224 39.8202C17.7669 39.7719 17.8205 39.7328 17.8803 39.7055C17.94 39.6781 18.0046 39.6628 18.0702 39.6607H21.9919C22.1238 39.6672 22.2478 39.7254 22.3372 39.8226C22.4266 39.9198 22.4741 40.0483 22.4695 40.1802C22.4633 40.3041 22.4107 40.4211 22.3223 40.508C22.2338 40.595 22.1159 40.6455 21.9919 40.6495V40.6914Z" fill="#263238"/>
<path d="M15.2129 40.6495H11.3248C11.2591 40.6485 11.1944 40.6343 11.1342 40.6079C11.0741 40.5815 11.0198 40.5435 10.9746 40.4959C10.9293 40.4483 10.894 40.3922 10.8707 40.3308C10.8474 40.2694 10.8365 40.204 10.8388 40.1384C10.8365 40.0723 10.8473 40.0065 10.8705 39.9446C10.8938 39.8828 10.929 39.8261 10.9741 39.7779C11.0192 39.7296 11.0734 39.6907 11.1336 39.6634C11.1938 39.6362 11.2587 39.621 11.3248 39.6188H15.2464C15.3783 39.6254 15.5024 39.6835 15.5917 39.7807C15.6811 39.8779 15.7286 40.0064 15.7241 40.1384C15.7264 40.2061 15.7148 40.2736 15.6899 40.3367C15.6651 40.3998 15.6275 40.4571 15.5796 40.505C15.5316 40.553 15.4743 40.5905 15.4113 40.6154C15.3482 40.6402 15.2807 40.6519 15.2129 40.6495Z" fill="#263238"/>
<path d="M46.2425 13.8598C45.4045 13.8598 44.8347 14.329 44.8347 15.5357V17.396H42.2621V15.7201C42.2621 12.9548 43.6448 11.371 46.3179 11.371C48.991 11.371 50.3652 12.9548 50.3652 15.7201C50.3652 21.1584 44.952 23.1863 44.952 26.027C44.9395 26.1496 44.9395 26.2731 44.952 26.3957H50.0971V28.8677H42.237V26.7644C42.237 21.6696 47.6251 20.8316 47.6251 15.8709C47.6502 14.2788 47.1056 13.8598 46.2425 13.8598Z" fill="#263238"/>
<path d="M57.2868 15.8373C57.2868 14.2787 56.7422 13.8597 55.8791 13.8597C55.016 13.8597 54.4713 14.3289 54.4713 15.5356V16.6501H51.8987V15.7367C51.8987 12.9714 53.2814 11.3877 55.9545 11.3877C58.6276 11.3877 60.0102 12.9714 60.0102 15.7367V16.1808C60.0102 18.0327 59.4152 19.1975 58.108 19.7422C59.4655 20.3371 60.0102 21.6192 60.0102 23.3705V24.7364C60.0102 27.5017 58.6192 29.0855 55.9545 29.0855C53.2898 29.0855 51.8987 27.5017 51.8987 24.7364V23.3035H54.4713V24.904C54.4713 26.1442 55.016 26.5799 55.8791 26.5799C56.7422 26.5799 57.2868 26.161 57.2868 24.6275V23.3035C57.2868 21.6946 56.7422 21.0997 55.5104 21.0997H54.597V18.5858H55.6612C56.6667 18.5858 57.2868 18.1417 57.2868 16.759V15.8373Z" fill="#263238"/>
<path d="M44.4829 37.6998L45.2287 32.7474H46.7538V39.7277H45.7231V34.6999L44.9606 39.7277H43.9215L43.0835 34.7921V39.7277H42.1283V32.7474H43.6533L44.4829 37.6998Z" fill="#263238"/>
<path d="M47.5581 32.7474H48.6559V39.7277H47.5581V32.7474Z" fill="#263238"/>
<path d="M49.4521 32.7474H50.5498V38.7305H52.385V39.7277H49.4521V32.7474Z" fill="#263238"/>
<path d="M53.9349 35.7138H55.4349V36.711H53.9349V38.7305H55.8287V39.7277H52.8372V32.7474H55.8287V33.7446H53.9349V35.7138Z" fill="#263238"/>
<path d="M57.9824 32.6637C59.0466 32.6637 59.5996 33.3089 59.5996 34.4234V34.6413H58.5606V34.348C58.5606 33.8536 58.3595 33.6609 58.0159 33.6609C57.6723 33.6609 57.4628 33.8536 57.4628 34.348C57.4628 35.7893 59.608 36.0239 59.608 38.0518C59.643 38.2797 59.6259 38.5125 59.5579 38.7328C59.49 38.9531 59.373 39.1551 59.2157 39.3237C59.0584 39.4923 58.865 39.623 58.6499 39.706C58.4348 39.7891 58.2038 39.8223 57.974 39.8031C56.893 39.8031 56.34 39.1663 56.34 38.0518V37.6244H57.4126V38.1188C57.4126 38.6216 57.6304 38.7976 57.974 38.7976C58.3176 38.7976 58.5438 38.6216 58.5438 38.1188C58.5438 36.6859 56.3986 36.4429 56.3986 34.4234C56.3651 33.3089 56.9182 32.6637 57.9824 32.6637Z" fill="#263238"/>
<path d="M41.047 318.618C40.1444 318.938 39.3785 319.557 38.8768 320.373C38.3752 321.189 38.1682 322.151 38.2901 323.101C38.4996 326.688 34.6115 336.551 38.5248 338.729C42.966 341.201 50.5579 341.017 51.1445 338.888C51.731 336.76 49.3345 333.408 49.5523 330.777C49.7702 328.146 51.7646 319.506 48.5719 318.719C45.3793 317.931 41.047 318.618 41.047 318.618Z" fill="white" stroke="#263238" stroke-linecap="round" stroke-linejoin="round"/>
<path d="M40.2344 320.839C40.7067 321.278 41.0044 321.873 41.0723 322.515C41.3237 324.492 41.9103 319.825 45.2621 320.303C48.614 320.78 47.4157 323.37 47.9771 323.587C48.2788 323.705 48.3458 322.749 48.547 321.794C48.614 317.177 48.857 308.387 49.7201 304.641C50.91 299.387 52.3513 289.994 51.639 286.784C51.639 286.784 57.5802 280.231 58.217 257.497L41.2734 257.288L40.9885 280.248C40.9885 280.248 36.2038 286.214 37.9383 298.097C39.1701 306.644 39.9159 316.188 40.2344 320.839Z" fill="#999999" stroke="#263238" stroke-linecap="round" stroke-linejoin="round"/>
<path d="M51.0189 336.693C51.0189 336.693 47.7508 333.743 44.6755 333.844" stroke="#263238" stroke-linecap="round" stroke-linejoin="round"/>
<path d="M63.6805 291.234C62.045 294.434 61.7437 298.152 62.8426 301.574C64.6526 307.624 61.7448 314.554 65.6665 317.051C69.5882 319.549 80.3309 318.359 77.2471 309.284C74.1634 300.208 75.3198 294.393 71.6998 292.273C68.0798 290.153 63.6805 291.234 63.6805 291.234Z" fill="white" stroke="#263238" stroke-linecap="round" stroke-linejoin="round"/>
<path d="M82.3671 235.744L69.1441 236.724L61.2002 242.816C61.2002 242.816 60.6556 253.626 64.1415 260.782L66.1191 267.729C65.0976 270.432 64.6994 273.33 64.9543 276.209C65.2643 281.295 66.538 285.267 64.9543 289.574C64.3502 291.242 64.099 293.017 64.2169 294.786C64.4322 295.083 64.5938 295.415 64.6945 295.767C65.3733 297.962 66.5548 293.521 69.4458 293.848C72.3367 294.175 70.9206 296.42 71.5742 296.454C73.2501 291.468 81.2192 267.293 77.926 260.983C77.926 260.983 83.2889 255.159 84.7134 248.045C85.5601 243.795 84.7185 239.383 82.3671 235.744Z" fill="#999999" stroke="#263238" stroke-linecap="round" stroke-linejoin="round"/>
<path d="M77.3057 148.001C77.3057 148.001 82.2413 142.001 77.8588 138.297C77.8588 138.297 75.3449 127.11 67.6189 129.75C59.8928 132.39 60.8146 134.334 60.8146 134.334C60.8146 134.334 52.1668 134.627 52.8791 139.303C53.5914 143.979 55.217 143.593 55.217 143.593C55.217 143.593 52.8707 144.674 53.7338 148.235C54.5969 151.797 58.4599 151.504 58.4599 151.504L77.3057 148.001Z" fill="#263238"/>
<path d="M90.6042 179.374C92.7402 180.591 94.7999 181.937 96.7716 183.405C96.7716 183.405 96.4532 186.22 101.045 191.223C105.637 196.226 107.749 205.703 107.749 205.703C105.411 209.809 105.889 210.295 105.704 213.395C105.52 216.496 104.623 218.373 105.26 220.501C105.897 222.63 107.975 221.381 107.975 221.381C110.799 221.381 112.475 216.085 112.475 216.085C112.475 216.085 113.933 208.041 111.528 197.139C110.123 190.678 107.925 184.416 104.984 178.494C104.984 178.494 100.04 172.629 98.1626 170.852C95.8917 168.749 88.3249 163.31 88.3249 163.31L86.1714 178.167C87.6725 178.478 89.1529 178.881 90.6042 179.374Z" fill="#999999" stroke="#263238" stroke-linecap="round" stroke-linejoin="round"/>
<path d="M89.2551 179.843L89.0289 181.058C90.3019 178.691 91.2919 176.182 91.9785 173.584C92.7423 170.705 92.5512 167.655 91.4338 164.894C90.9143 163.738 89.4478 162.003 88.3836 163.436C89.285 167.016 89.7188 170.697 89.6741 174.388C89.6474 176.213 89.5074 178.035 89.2551 179.843Z" fill="white" stroke="#263238" stroke-linecap="round" stroke-linejoin="round"/>
<path d="M88.6601 181.729L89.0204 181.025L89.255 179.843C89.5073 178.035 89.6472 176.214 89.674 174.388C89.7332 170.685 89.3107 166.989 88.417 163.394C88.4162 163.411 88.4162 163.428 88.417 163.444C87.7132 164.458 88.9785 167.5 89.1293 168.556C89.403 170.78 89.4703 173.024 89.3304 175.26C89.1712 176.969 89.4477 180.187 88.6601 181.729Z" fill="white" stroke="#263238" stroke-linecap="round" stroke-linejoin="round"/>
<path d="M98.7409 183.421C98.7409 183.421 101.841 184.352 103.299 180.464" stroke="#263238" stroke-linecap="round" stroke-linejoin="round"/>
<path d="M109.5 210.136C108.936 211.291 108.541 212.521 108.327 213.789C108.017 215.758 107.447 217.828 105.62 216.303" stroke="#263238" stroke-linecap="round" stroke-linejoin="round"/>
<path d="M43.8294 231.872C43.8294 231.872 39.5809 240.252 39.5306 259.299C39.5306 259.299 45.8991 262.014 51.9492 259.458C57.9993 256.902 60.0439 259.751 60.0439 259.751L61.0662 253.358C61.0662 253.358 60.488 239.23 72.7139 240.327C84.9398 241.425 83.289 252.511 83.289 252.511C83.289 252.511 89.1547 236.959 84.6968 230.314C80.2388 223.669 43.8294 231.872 43.8294 231.872Z" fill="#263238" stroke="#263238" stroke-linecap="round" stroke-linejoin="round"/>
<path d="M60.4796 240.403C59.6416 242.598 59.0885 245.975 59.5913 251.078" stroke="#7F7F7F" stroke-linecap="round" stroke-linejoin="round"/>
<path d="M63.0855 236.649C62.6059 236.961 62.1906 237.362 61.8621 237.83" stroke="#7F7F7F" stroke-linecap="round" stroke-linejoin="round"/>
<path d="M88.4171 163.394C88.4137 163.377 88.4137 163.36 88.4171 163.344C67.51 154.738 49.9295 165.187 44.2817 169.209C46.6028 169.695 48.9575 171.723 50.3485 174.882C53.2646 181.527 51.4211 185.7 49.7535 190.804C50.3299 186.047 49.2081 181.239 46.586 177.229C45.681 175.871 44.3906 174.514 42.8571 174.246L45.4716 194.591L41.6002 233.515C41.6002 233.515 43.2091 239.933 61.9208 233.766C80.6325 227.599 86.3892 234.076 86.3892 234.076L84.353 215.968C83.9283 212.212 84.0581 208.415 84.7385 204.697L89.0707 181L89.2551 179.843C89.5074 178.035 89.6473 176.213 89.6741 174.388C89.7333 170.684 89.3108 166.989 88.4171 163.394Z" fill="white" stroke="#263238" stroke-linecap="round" stroke-linejoin="round"/>
<path opacity="0.7" d="M62.566 229.216C63.647 226.275 66.3033 224.138 69.2027 222.948C72.1741 221.898 75.2756 221.261 78.4203 221.054C74.1485 219.096 69.4842 218.144 64.7866 218.272C63.6218 218.272 62.2727 218.347 61.4767 217.518C61.1089 217.057 60.8969 216.492 60.8713 215.903C60.8457 215.314 61.0078 214.732 61.3342 214.241C62.0072 213.279 62.861 212.456 63.8481 211.82C70.9278 206.458 76.4804 199.337 79.9537 191.164C75.3001 198.358 69.012 204.35 61.6023 208.652C63.1833 204.636 64.7698 200.616 66.362 196.594L53.4657 208.451C53.3392 208.603 53.1819 208.726 53.0043 208.813C52.8266 208.9 52.6326 208.948 52.435 208.954C51.8149 208.87 51.5971 208.066 51.5971 207.437C51.4629 201.807 52.419 196.204 54.4126 190.938C54.8378 190.049 55.0501 189.074 55.0327 188.089C55.0101 187.597 54.804 187.131 54.4549 186.784C54.1059 186.436 53.6394 186.232 53.1473 186.212C54.299 184.329 54.9294 182.175 54.9741 179.969L52.2507 181.854C52.2507 184.628 51.4127 187.091 50.4994 189.756C50.3653 190.153 50.2312 190.555 50.0971 190.963C50.0644 191.061 49.9967 191.143 49.907 191.194C49.8173 191.245 49.712 191.261 49.6111 191.239C49.5673 191.228 49.5251 191.211 49.4854 191.189C49.4854 191.407 49.4435 191.625 49.4184 191.843C48.8653 196.183 47.533 200.373 46.385 204.596C45.3068 208.591 44.3934 212.624 43.6448 216.697L41.9689 233.339C42.0347 233.539 42.1131 233.735 42.2035 233.925C42.2538 234.009 42.3125 234.068 42.3627 234.151C42.7059 234.531 43.1146 234.846 43.5694 235.082C45.8403 236.288 50.8262 236.984 61.7197 233.406C68.1301 231.286 73.0405 230.64 76.7359 230.707L77.0041 230.649C72.2746 229.543 67.4206 229.061 62.566 229.216Z" fill="#92E3A9"/>
<path d="M80.3141 190.586C77.2003 197.872 72.5325 204.389 66.6372 209.682C60.7419 214.975 53.7614 218.917 46.1839 221.231" stroke="#263238" stroke-linecap="round" stroke-linejoin="round"/>
<path d="M78.6297 220.3C68.0534 217.615 56.8597 218.897 47.1642 223.903" stroke="#263238" stroke-linecap="round" stroke-linejoin="round"/>
<path d="M55.5522 175.654C55.8203 178.104 55.5539 180.584 54.7713 182.922C53.9886 185.259 52.7084 187.4 51.0188 189.195" stroke="#263238" stroke-linecap="round" stroke-linejoin="round"/>
<path d="M82.1157 169.972C84.8067 173.914 86.1769 178.609 86.029 183.379" stroke="#263238" stroke-linecap="round" stroke-linejoin="round"/>
<path d="M60.0437 158.609C60.0437 158.609 59.3817 169.503 66.1692 169.595C74.8253 169.704 74.465 159.816 74.465 159.816L60.0437 158.609Z" fill="#999999" stroke="#263238" stroke-linecap="round" stroke-linejoin="round"/>
<path d="M59.1303 147.339C59.1303 147.339 58.6778 156.975 60.1945 159.514C61.7112 162.054 65.9513 165.749 69.278 165.791C72.6047 165.833 76.8197 161.283 77.0543 159.464C77.2889 157.646 77.2303 145.571 77.2303 145.571C77.2303 145.571 76.8616 136.102 69.6886 136.01C62.5156 135.917 59.1386 141.607 59.1303 147.339Z" fill="#999999" stroke="#263238" stroke-linecap="round" stroke-linejoin="round"/>
<path d="M77.2471 148.294C77.4593 148.153 77.6999 148.06 77.9519 148.023C78.2039 147.985 78.4611 148.003 78.7052 148.076C79.8197 148.453 80.2722 150.079 79.7107 151.696C79.5648 152.285 79.2485 152.818 78.8013 153.228C78.3542 153.637 77.7961 153.906 77.1968 154.001C77.2471 152.031 77.2471 149.911 77.2471 148.294Z" fill="#999999" stroke="#263238" stroke-linecap="round" stroke-linejoin="round"/>
<path d="M65.9094 148.269C65.9094 148.847 65.5994 149.316 65.2223 149.308C64.8452 149.3 64.5603 148.83 64.5687 148.252C64.5771 147.674 64.8787 147.196 65.2558 147.205C65.6329 147.213 65.9178 147.682 65.9094 148.269Z" fill="#263238"/>
<path d="M71.9428 157.487C71.9959 158.633 71.9087 159.781 71.683 160.906C71.683 160.973 71.683 161.04 71.6328 161.115C71.5309 161.46 71.363 161.781 71.1384 162.062C70.9256 162.344 70.6402 162.564 70.3126 162.696C69.9849 162.829 69.6274 162.871 69.2781 162.816C68.9719 162.732 68.6901 162.576 68.4556 162.362C68.2211 162.148 68.0406 161.882 67.929 161.584C67.7422 161.171 67.6288 160.729 67.5938 160.277C67.5857 160.182 67.5857 160.087 67.5938 159.992C67.5442 159.253 67.6587 158.512 67.929 157.822L71.9428 157.487Z" fill="#263238" stroke="#263238" stroke-linecap="round" stroke-linejoin="round"/>
<path d="M67.8619 157.822L71.44 157.931C71.44 157.931 71.9009 157.78 71.8674 157.394C71.8528 157.305 71.8216 157.22 71.7752 157.143V157.093C71.5571 156.81 71.268 156.59 70.9373 156.456C70.4604 156.34 69.9692 156.295 69.4792 156.322C69.3582 156.352 69.2403 156.394 69.1273 156.447C68.5446 156.726 68.0915 157.218 67.8619 157.822Z" fill="white" stroke="#263238" stroke-linecap="round" stroke-linejoin="round"/>
<path d="M67.552 160.185C67.552 160.185 67.5519 160.017 67.6693 160.059C67.7866 160.101 69.1022 161.282 69.7809 161.333C71.6664 161.333 71.4569 160.243 71.4569 160.268C71.6016 160.423 71.6824 160.627 71.6831 160.838C71.6746 161.06 71.622 161.278 71.5285 161.48C71.435 161.681 71.3024 161.862 71.1384 162.011C70.9274 162.225 70.6731 162.391 70.3926 162.497C70.0771 162.591 69.7442 162.61 69.4199 162.554C69.0957 162.497 68.789 162.366 68.524 162.171C68.2831 161.99 68.0784 161.765 67.9207 161.509C67.779 161.336 67.6734 161.136 67.6101 160.922C67.5468 160.707 67.527 160.482 67.552 160.26V160.185Z" fill="white" stroke="#263238" stroke-linecap="round" stroke-linejoin="round"/>
<path d="M73.5181 148.193C73.5181 148.78 73.1997 149.249 72.831 149.241C72.4623 149.232 72.169 148.763 72.169 148.176C72.169 147.59 72.4874 147.129 72.8561 147.129C73.2248 147.129 73.5265 147.615 73.5181 148.193Z" fill="#263238"/>
<path d="M71.0964 145.973C71.0964 145.973 73.3338 144.046 75.0516 144.984" stroke="#263238" stroke-linecap="round" stroke-linejoin="round"/>
<path d="M67.3926 145.931C67.3926 145.931 65.2139 143.936 63.4626 144.833" stroke="#263238" stroke-linecap="round" stroke-linejoin="round"/>
<path d="M50.9938 185.508C49.4771 191.432 47.709 200.29 47.709 200.29L54.5552 194.424C54.5552 194.424 57.2785 187.134 59.7086 184.972C60.6388 184.134 61.5186 179.408 62.784 179.986C64.0493 180.564 63.2281 183.505 63.2281 183.505C64.1173 183.696 64.9848 183.977 65.8174 184.343C66.6553 184.771 68.7 192.664 67.7028 193.36C66.7056 194.055 65.6079 191.357 65.0045 194.457C64.4012 197.558 58.9964 200.323 58.9964 200.323C58.9964 200.323 49.7788 212.893 45.8236 214.979C41.8684 217.066 37.5948 218.121 36.4636 207.094C35.8502 199.957 36.3706 192.767 38.0054 185.793C38.0054 185.793 35.6424 173.718 42.3377 170.71C49.033 167.701 52.6614 179.005 50.9938 185.508Z" fill="#999999" stroke="#263238" stroke-linecap="round" stroke-linejoin="round"/>
<path d="M43.4185 204.194L48.1279 199.82" stroke="#263238" stroke-linecap="round" stroke-linejoin="round"/>
<path d="M59.3901 185.432L63.4291 183.53" stroke="#263238" stroke-linecap="round" stroke-linejoin="round"/>
<path d="M40.4355 186.715C40.4355 186.715 41.9103 189.161 44.3404 189.497" stroke="#263238" stroke-linecap="round" stroke-linejoin="round"/>
<path d="M58.5858 200.667C58.9294 200.893 58.7702 201.404 58.5355 201.731C58.1045 202.343 57.6402 202.93 57.1445 203.491C56.6166 204.077 56.3485 204.329 55.8541 204.27C55.3597 204.212 54.0022 203.315 51.9575 200.382C51.3039 199.444 50.6503 196.796 51.6056 195.815C52.5609 194.835 55.4183 193 54.6726 193.779C53.2229 195.312 54.0608 197.776 58.5858 200.667Z" fill="#263238" stroke="#263238" stroke-linecap="round" stroke-linejoin="round"/>
<path d="M52.2757 200.859C51.4284 199.948 50.7376 198.903 50.2311 197.767C49.7535 196.929 50.2814 196.418 50.8093 195.873L51.8903 194.893C52.7282 194.197 53.2478 194.172 53.5159 194.893L53.717 195.345C54.1346 196.207 54.7021 196.987 55.393 197.65L55.7198 198.002C55.805 198.105 55.8683 198.224 55.9057 198.352C55.9431 198.481 55.9539 198.615 55.9375 198.748C55.921 198.88 55.8776 199.008 55.8099 199.124C55.7422 199.239 55.6516 199.339 55.5438 199.418L53.65 201.22C53.5377 201.292 53.4116 201.34 53.2796 201.361C53.1477 201.382 53.0129 201.376 52.8836 201.342C52.7544 201.308 52.6336 201.247 52.529 201.164C52.4243 201.081 52.3381 200.977 52.2757 200.859Z" fill="white" stroke="#263238" stroke-linecap="round" stroke-linejoin="round"/>
<path d="M51.4631 199.954L50.9017 200.181L50.181 199.108L50.6419 198.656C50.6419 198.656 51.0525 199.309 51.4631 199.954Z" fill="white" stroke="#263238" stroke-linecap="round" stroke-linejoin="round"/>
<path d="M70.82 146.098C70.82 146.098 70.6943 150.799 71.7669 152.702C72.3786 153.774 71.0462 154.637 70.4345 154.813C69.8228 154.989 67.5352 154.084 67.7614 152.911" stroke="#263238" stroke-width="0.75" stroke-linecap="round" stroke-linejoin="round"/>
<path d="M77.2302 145.571L74.247 139.37L70.8198 139.931L64.7026 138.842L62.0714 141.448L60.7139 142.077L59.0967 148.177L57.4459 143.451L58.1582 138.255L64.7613 134.275L70.3673 132.624L75.9313 136.747L77.8251 141.339L78.6379 143.476L77.2302 145.571Z" fill="#263238"/>
<path d="M59.5075 155.4C59.7653 153.98 60.5053 152.692 61.6024 151.755C60.9032 150.863 60.5651 149.742 60.6555 148.612C60.7505 147.496 60.7365 146.374 60.6136 145.261C60.5855 144.988 60.4641 144.733 60.27 144.54C59.8259 144.171 59.1053 144.54 58.9042 145.076C58.5438 146.048 59.0215 148.353 59.0047 149.434C58.9711 151.434 59.1396 153.433 59.5075 155.4Z" fill="#263238"/>
<path d="M62.5327 153.758C62.6416 155.366 62.9684 155.685 64.3427 156.523C65.0368 156.938 65.819 157.182 66.6257 157.238C67.4324 157.293 68.2408 157.157 68.985 156.841C69.3906 156.607 69.8424 156.464 70.309 156.422C70.838 156.54 71.3504 156.723 71.8341 156.967C72.3779 157.077 72.9425 157.009 73.4449 156.774C73.9473 156.538 74.3608 156.148 74.6245 155.66C75.1293 154.92 75.3927 154.042 75.3787 153.146C74.7837 154.545 72.7642 154.361 71.5743 153.414C72.1357 153.858 69.7392 154.528 69.5129 154.512C68.675 154.453 68.1722 154.042 67.2756 154.076C65.2142 154.168 64.0075 155.635 62.5327 153.758Z" fill="#263238"/>
<path d="M57.069 147.473C57.4398 147.389 57.8268 147.411 58.1856 147.537C58.5443 147.663 58.8602 147.888 59.0969 148.185C59.0969 149.258 59.0382 151.244 59.0969 153.288C59.0399 153.327 58.9778 153.358 58.9125 153.381C57.7896 153.733 56.4657 152.702 55.9545 151.068C55.4433 149.434 55.9545 147.825 57.069 147.473Z" fill="#999999" stroke="#263238" stroke-linecap="round" stroke-linejoin="round"/>
<path d="M60.1947 159.515C61.703 162.028 65.9515 165.749 69.2782 165.791C70.8033 165.791 72.5043 164.861 73.9372 163.654C73.4987 165.374 72.5351 166.915 71.1803 168.062C70.5679 168.324 69.9107 168.466 69.2446 168.481C65.9598 168.439 61.7868 164.836 60.2282 162.305C60.0852 161.261 60.018 160.208 60.0271 159.154C60.0762 159.277 60.1322 159.398 60.1947 159.515Z" fill="#263238"/>
<path d="M22.7041 317.52C21.2125 317.638 20.2656 319.381 20.4919 320.872C20.846 322.344 21.6878 323.652 22.8801 324.584C23.55 325.284 24.3994 325.785 25.3353 326.034C25.806 326.14 26.2987 326.079 26.7295 325.862C27.1603 325.645 27.5027 325.285 27.6983 324.844C28.1688 325.227 28.7473 325.454 29.3528 325.491C29.9583 325.529 30.5604 325.377 31.075 325.055C31.5895 324.734 31.9905 324.26 32.222 323.699C32.4535 323.138 32.5038 322.519 32.3658 321.928C32.8492 321.719 33.2765 321.399 33.613 320.993C33.9495 320.588 34.1858 320.109 34.3027 319.596C34.4195 319.082 34.4137 318.548 34.2856 318.037C34.1576 317.526 33.9109 317.053 33.5656 316.655C33.2203 316.257 32.7861 315.946 32.2982 315.748C31.8103 315.549 31.2825 315.468 30.7575 315.512C30.2326 315.555 29.7253 315.722 29.2767 315.998C28.8282 316.274 28.4511 316.652 28.176 317.101C29.9106 314.286 22.084 313.574 22.7041 317.52Z" stroke="#263238" stroke-linecap="round" stroke-linejoin="round"/>
<path d="M94.0398 145.898C92.8667 144.741 90.3947 144.968 89.0121 145.856C88.3256 146.319 87.8097 146.994 87.5434 147.778C87.277 148.562 87.2749 149.411 87.5373 150.196C87.2346 150.148 86.9243 150.198 86.6526 150.34C86.3808 150.482 86.1621 150.708 86.0289 150.984C85.9029 151.272 85.8774 151.594 85.9564 151.898C86.0355 152.202 86.2145 152.47 86.4647 152.66C85.97 152.791 85.5229 153.06 85.1754 153.436C84.8279 153.812 84.5944 154.278 84.5022 154.782C84.4099 155.285 84.4628 155.804 84.6544 156.279C84.8461 156.753 85.1688 157.164 85.5848 157.462L83.4648 158.207C83.7872 158.531 84.2006 158.748 84.6497 158.83C85.0989 158.913 85.5624 158.856 85.9786 158.668C85.9782 158.916 86.0526 159.159 86.1921 159.364C86.3317 159.569 86.5298 159.727 86.7607 159.817C86.9916 159.908 87.2445 159.927 87.4862 159.871C87.7279 159.816 87.9472 159.688 88.1155 159.506C88.2607 159.65 88.4433 159.75 88.6425 159.796C88.8417 159.841 89.0496 159.831 89.243 159.764C89.4363 159.698 89.6073 159.579 89.7368 159.421C89.8662 159.263 89.949 159.072 89.9757 158.869C90.4135 159.533 91.077 160.015 91.8431 160.226C92.6092 160.438 93.426 160.364 94.1421 160.02C94.8582 159.675 95.425 159.082 95.7375 158.351C96.05 157.621 96.0869 156.801 95.8414 156.045C97.1068 155.45 97.7939 154.914 97.6934 153.012C97.5928 151.11 95.2214 150.054 95.2549 149.979C95.8079 148.722 95.1627 146.987 94.0398 145.898Z" fill="white" stroke="#263238" stroke-linecap="round" stroke-linejoin="round"/>
<path d="M61.7113 186.681C63.1526 185.541 64.9207 184.921 66.8312 186.681" stroke="#263238" stroke-linecap="round" stroke-linejoin="round"/>
<path d="M62.4404 189.111C63.7309 187.997 65.5157 187.435 67.309 189.203" stroke="#263238" stroke-linecap="round" stroke-linejoin="round"/>
<path d="M63.228 191.491C64.4096 190.527 66.8145 190 67.8117 191.592" stroke="#263238" stroke-linecap="round" stroke-linejoin="round"/>
<path d="M109.307 212.976L108.218 213.873" stroke="#263238" stroke-linecap="round" stroke-linejoin="round"/>
<path d="M105.327 219.345C106.919 219.261 108.78 218.691 109.517 217.275C109.927 216.655 110.262 215.988 110.514 215.289" stroke="#263238" stroke-linecap="round" stroke-linejoin="round"/>
<path d="M105.436 220.845C108.042 220.509 110.296 219.336 111.218 216.881" stroke="#263238" stroke-linecap="round" stroke-linejoin="round"/>
<path d="M66.0352 255.872C66.4723 256.213 66.8346 256.641 67.0998 257.128C67.365 257.615 67.5274 258.151 67.5771 258.704C67.6663 259.811 67.8685 260.906 68.1804 261.972C68.3468 262.501 68.6696 262.968 69.1064 263.311C69.5431 263.653 70.0734 263.855 70.6273 263.891" stroke="#263238" stroke-linecap="round" stroke-linejoin="round"/>
<path d="M43.0581 280.725C42.6739 281.24 42.4275 281.844 42.3421 282.48C42.2567 283.117 42.3352 283.764 42.5701 284.362C42.8051 284.959 43.1888 285.487 43.6848 285.895C44.1808 286.302 44.7727 286.577 45.4044 286.692" stroke="#263238" stroke-linecap="round" stroke-linejoin="round"/>
<path d="M42.857 287.681C42.7145 288.126 42.6851 288.6 42.7714 289.059C42.8577 289.518 43.057 289.949 43.3514 290.312" stroke="#263238" stroke-linecap="round" stroke-linejoin="round"/>
<path d="M77.9761 260.204C77.9761 260.204 76.5767 263.765 74.4232 264.302" stroke="#263238" stroke-linecap="round" stroke-linejoin="round"/>
<path d="M51.0943 283.164C51.0943 283.164 50.4491 289.558 46.8542 291.024" stroke="#263238" stroke-linecap="round" stroke-linejoin="round"/>
</g>
</svg>
