<svg width="20" height="25" viewBox="0 0 20 25" fill="none" xmlns="http://www.w3.org/2000/svg">
<path d="M6.08695 11.5385C4.93384 11.5385 3.82795 11.0319 3.01258 10.1303C2.1972 9.2287 1.73913 8.00585 1.73913 6.73077V2.88462C1.73913 2.6296 1.83074 2.38503 1.99382 2.20471C2.15689 2.02438 2.37807 1.92308 2.60869 1.92308H3.47826C3.70888 1.92308 3.93006 1.82177 4.09313 1.64145C4.25621 1.46113 4.34782 1.21655 4.34782 0.961538C4.34782 0.706523 4.25621 0.461951 4.09313 0.281628C3.93006 0.101305 3.70888 0 3.47826 0H2.60869C1.91683 0 1.25329 0.303914 0.764069 0.844884C0.274844 1.38585 0 2.11957 0 2.88462V6.73077C0.00111776 7.81705 0.240671 8.88681 0.698086 9.84815C1.1555 10.8095 1.81711 11.6337 2.62609 12.25C3.40333 13.0077 4.03366 13.9317 4.47903 14.9663C4.9244 16.0008 5.17557 17.1244 5.21739 18.2692C5.21739 20.0543 5.85869 21.7663 7.00022 23.0286C8.14174 24.2909 9.68998 25 11.3043 25C12.9187 25 14.4669 24.2909 15.6085 23.0286C16.75 21.7663 17.3913 20.0543 17.3913 18.2692V17.1731C18.211 16.939 18.9254 16.3825 19.4005 15.6077C19.8757 14.8329 20.0789 13.8931 19.9723 12.9644C19.8656 12.0358 19.4563 11.182 18.8211 10.5632C18.1858 9.94432 17.3683 9.6029 16.5217 9.6029C15.6751 9.6029 14.8576 9.94432 14.2224 10.5632C13.5872 11.182 13.1779 12.0358 13.0712 12.9644C12.9645 13.8931 13.1678 14.8329 13.6429 15.6077C14.1181 16.3825 14.8325 16.939 15.6522 17.1731V18.2692C15.6522 19.5443 15.1941 20.7672 14.3787 21.6688C13.5633 22.5704 12.4575 23.0769 11.3043 23.0769C10.1512 23.0769 9.04534 22.5704 8.22997 21.6688C7.41459 20.7672 6.95652 19.5443 6.95652 18.2692C7.00054 17.123 7.25442 15.9985 7.70282 14.9639C8.15122 13.9293 8.7848 13.006 9.56521 12.25C10.371 11.6316 11.0292 10.8064 11.4835 9.84521C11.9378 8.884 12.1747 7.81535 12.1739 6.73077V2.88462C12.1739 2.11957 11.8991 1.38585 11.4098 0.844884C10.9206 0.303914 10.2571 0 9.56521 0H8.69565C8.46502 0 8.24385 0.101305 8.08077 0.281628C7.9177 0.461951 7.82608 0.706523 7.82608 0.961538C7.82608 1.21655 7.9177 1.46113 8.08077 1.64145C8.24385 1.82177 8.46502 1.92308 8.69565 1.92308H9.56521C9.79584 1.92308 10.017 2.02438 10.1801 2.20471C10.3432 2.38503 10.4348 2.6296 10.4348 2.88462V6.73077C10.4348 7.36212 10.3223 7.9873 10.1038 8.57059C9.88532 9.15389 9.56506 9.68389 9.16133 10.1303C8.7576 10.5768 8.2783 10.9309 7.75079 11.1725C7.22329 11.4141 6.65792 11.5385 6.08695 11.5385ZM16.5217 15.3846C16.0605 15.3846 15.6181 15.182 15.292 14.8214C14.9658 14.4607 14.7826 13.9716 14.7826 13.4615C14.7826 12.9515 14.9658 12.4624 15.292 12.1017C15.6181 11.7411 16.0605 11.5385 16.5217 11.5385C16.983 11.5385 17.4253 11.7411 17.7515 12.1017C18.0776 12.4624 18.2609 12.9515 18.2609 13.4615C18.2609 13.9716 18.0776 14.4607 17.7515 14.8214C17.4253 15.182 16.983 15.3846 16.5217 15.3846Z" fill="black"/>
</svg>
