<svg width="247" height="284" viewBox="0 0 247 284" fill="none" xmlns="http://www.w3.org/2000/svg">
<g opacity="0.4">
<path d="M286 249.445H0V249.636H286V249.445Z" fill="#EBEBEB"/>
<path d="M257.343 261.703H238.398V261.894H257.343V261.703Z" fill="#EBEBEB"/>
<path d="M189.458 263.776H184.487V263.967H189.458V263.776Z" fill="#EBEBEB"/>
<path d="M237.826 254.634H210.559V254.825H237.826V254.634Z" fill="#EBEBEB"/>
<path d="M43.5523 255.913H30.0073V256.104H43.5523V255.913Z" fill="#EBEBEB"/>
<path d="M63.4288 255.913H48.6426V256.104H63.4288V255.913Z" fill="#EBEBEB"/>
<path d="M112.175 259.128H75.201V259.319H112.175V259.128Z" fill="#EBEBEB"/>
<path d="M135.564 215.464H25.1165C24.2512 215.462 23.422 215.003 22.8107 214.187C22.1994 213.371 21.8561 212.266 21.8561 211.113V4.31233C21.8636 3.16645 22.2103 2.07081 22.8207 1.26339C23.4312 0.455962 24.2562 0.00196294 25.1165 0H135.564C136.43 0 137.261 0.458347 137.873 1.27421C138.486 2.09007 138.83 3.19662 138.83 4.35042V211.113C138.83 212.267 138.486 213.374 137.873 214.19C137.261 215.006 136.43 215.464 135.564 215.464ZM25.1165 0.15238C24.2892 0.154398 23.4963 0.593566 22.9118 1.37349C22.3273 2.15341 21.9991 3.21036 21.9991 4.31233V211.113C21.9991 212.215 22.3273 213.272 22.9118 214.052C23.4963 214.832 24.2892 215.271 25.1165 215.273H135.564C136.392 215.271 137.185 214.832 137.771 214.053C138.356 213.273 138.686 212.216 138.687 211.113V4.31233C138.686 3.20966 138.356 2.15273 137.771 1.37302C137.185 0.593318 136.392 0.154394 135.564 0.15238H25.1165Z" fill="#EBEBEB"/>
<path d="M259.293 215.464H148.84C147.974 215.462 147.144 215.003 146.532 214.187C145.92 213.372 145.575 212.267 145.574 211.113V4.31233C145.583 3.16576 145.931 2.07013 146.542 1.26291C147.154 0.455696 147.979 0.00194153 148.84 0H259.293C260.152 0.00396528 260.976 0.458851 261.585 1.26606C262.194 2.07327 262.54 3.16777 262.548 4.31233V211.113C262.548 212.265 262.205 213.369 261.595 214.184C260.985 215 260.157 215.46 259.293 215.464ZM148.84 0.15238C148.012 0.154394 147.219 0.593318 146.633 1.37302C146.048 2.15273 145.718 3.20966 145.717 4.31233V211.113C145.718 212.216 146.048 213.273 146.633 214.053C147.219 214.832 148.012 215.271 148.84 215.273H259.293C260.121 215.271 260.914 214.832 261.5 214.053C262.085 213.273 262.415 212.216 262.416 211.113V4.31233C262.415 3.20966 262.085 2.15273 261.5 1.37302C260.914 0.593318 260.121 0.154394 259.293 0.15238H148.84Z" fill="#EBEBEB"/>
<path d="M252.487 19.8101H162.128V249.445H252.487V19.8101Z" fill="#EBEBEB"/>
<path d="M245.766 27.2993H168.849V249.445H245.766V27.2993Z" fill="#F5F5F5"/>
<path d="M218.127 45.7212H196.499V53.683H218.127V45.7212Z" fill="white"/>
<path d="M227.867 124.813H239.599C240.085 124.813 240.55 125.07 240.893 125.528C241.237 125.985 241.429 126.605 241.429 127.252C241.429 127.898 241.237 128.518 240.893 128.976C240.55 129.433 240.085 129.69 239.599 129.69H227.867C227.382 129.69 226.916 129.433 226.573 128.976C226.23 128.518 226.037 127.898 226.037 127.252C226.037 126.605 226.23 125.985 226.573 125.528C226.916 125.07 227.382 124.813 227.867 124.813Z" fill="white"/>
<path d="M100.351 44.2437H40.2571V108.753H100.351V44.2437Z" fill="#EBEBEB"/>
<path d="M97.12 104.456V48.54L43.4778 48.54V104.456H97.12Z" fill="#FAFAFA"/>
<path d="M90.8681 77.2333V74.5591H49.7356V77.2333H90.8681Z" fill="#E0E0E0"/>
<path d="M90.8681 83.3212V80.647H49.7356V83.3212H90.8681Z" fill="#E0E0E0"/>
<path d="M90.8681 89.4013V86.7271H49.7356V89.4013H90.8681Z" fill="#E0E0E0"/>
<path d="M80.5551 95.4882V92.814H60.0489V95.4882H80.5551Z" fill="#E0E0E0"/>
<path d="M49.7639 48.5407C49.7639 49.6388 49.6009 50.7261 49.2842 51.7399C48.9675 52.7537 48.5034 53.6741 47.9186 54.4481C47.3338 55.2221 46.6398 55.8344 45.8767 56.2497C45.1135 56.6651 44.2963 56.8753 43.4719 56.8683C42.3344 56.872 41.2182 56.4581 40.2458 55.6721V44.2437H48.8258C49.427 45.5352 49.7514 47.0212 49.7639 48.5407Z" fill="#EBEBEB"/>
<path d="M100.352 44.2437V55.6721C99.1562 56.6302 97.7541 57.0278 96.369 56.8018C94.9839 56.5757 93.6954 55.7388 92.7086 54.4245C91.7219 53.1102 91.0936 51.3939 90.9239 49.549C90.7542 47.704 91.0527 45.8365 91.772 44.2437H100.352Z" fill="#EBEBEB"/>
<path d="M49.7642 104.463C49.7662 105.975 49.4576 107.458 48.8719 108.753H40.2919V97.3245C41.2409 96.5677 42.3235 96.1594 43.4296 96.1413C44.5356 96.1231 45.6255 96.4958 46.5882 97.2214C47.5508 97.9469 48.352 98.9994 48.9099 100.272C49.4678 101.544 49.7626 102.99 49.7642 104.463Z" fill="#EBEBEB"/>
<path d="M100.352 97.3174V108.746H91.7717C91.1815 107.453 90.8707 105.969 90.8736 104.456C90.8748 102.981 91.1697 101.533 91.7282 100.258C92.2867 98.9845 93.0889 97.9305 94.0529 97.2041C95.0169 96.4776 96.1083 96.1047 97.2159 96.1232C98.3234 96.1418 99.4074 96.5512 100.357 97.3098L100.352 97.3174Z" fill="#EBEBEB"/>
<path d="M75.5604 63.3012C76.0317 59.4343 74.0602 55.7908 71.1572 55.1631C68.2541 54.5354 65.5186 57.1613 65.0474 61.0282C64.5761 64.8951 66.5475 68.5386 69.4506 69.1663C72.3537 69.794 75.0892 67.1681 75.5604 63.3012Z" fill="#E0E0E0"/>
<path d="M148.915 157.827H30.0073V163.526H148.915V157.827Z" fill="#EBEBEB"/>
<path d="M147.885 163.526H109.252V249.445H147.885V163.526Z" fill="#F5F5F5"/>
<path d="M70.1098 163.526H31.4769V249.445H70.1098V163.526Z" fill="#F5F5F5"/>
<path d="M32.7982 163.526H31.4769V249.445H32.7982V163.526Z" fill="#EBEBEB"/>
<path d="M110.573 163.526H109.252V249.445H110.573V163.526Z" fill="#EBEBEB"/>
<path d="M51.7661 144.09H44.6618L45.2338 157.827H51.1941L51.7661 144.09Z" fill="#F0F0F0"/>
<path d="M113.445 151.869H76.3278V157.827H113.445V151.869Z" fill="#F0F0F0"/>
<path d="M113.45 152.569H96.3362V157.133H113.45V152.569Z" fill="#FAFAFA"/>
<path d="M143 283.851C204.251 283.851 253.905 279.99 253.905 275.227C253.905 270.463 204.251 266.602 143 266.602C81.7485 266.602 32.0946 270.463 32.0946 275.227C32.0946 279.99 81.7485 283.851 143 283.851Z" fill="#F5F5F5"/>
<path d="M194.886 221.879C204.894 221.879 213.007 211.073 213.007 197.742C213.007 184.412 204.894 173.605 194.886 173.605C184.878 173.605 176.765 184.412 176.765 197.742C176.765 211.073 184.878 221.879 194.886 221.879Z" fill="white"/>
<path d="M194.886 222.176C191.258 222.178 187.711 220.746 184.693 218.062C181.676 215.378 179.324 211.562 177.935 207.098C176.545 202.633 176.181 197.72 176.888 192.98C177.596 188.24 179.342 183.885 181.907 180.467C184.473 177.049 187.741 174.722 191.3 173.778C194.858 172.835 198.547 173.318 201.899 175.167C205.252 177.016 208.117 180.148 210.133 184.167C212.149 188.185 213.225 192.909 213.225 197.742C213.22 204.219 211.287 210.429 207.849 215.01C204.411 219.591 199.749 222.168 194.886 222.176ZM194.886 173.91C191.346 173.91 187.886 175.308 184.942 177.928C181.999 180.548 179.705 184.272 178.35 188.628C176.996 192.985 176.642 197.779 177.333 202.403C178.024 207.028 179.729 211.276 182.233 214.61C184.736 217.943 187.926 220.213 191.398 221.132C194.87 222.051 198.469 221.578 201.74 219.773C205.01 217.967 207.805 214.91 209.771 210.989C211.737 207.067 212.785 202.457 212.784 197.742C212.78 191.422 210.892 185.363 207.537 180.894C204.181 176.426 199.631 173.914 194.886 173.91Z" fill="#407BFF"/>
<path d="M197.803 184.059H191.969V211.426H197.803V184.059Z" fill="#407BFF"/>
<path d="M205.159 201.636V193.864H184.613V201.636H205.159Z" fill="#407BFF"/>
<path d="M72.1352 15.2915L71.7462 14.7353C74.3941 11.4013 77.7539 9.24485 81.3616 8.56396L81.4416 9.32586C77.9503 9.98171 74.6982 12.0664 72.1352 15.2915Z" fill="#407BFF"/>
<path d="M67.9022 23.619L67.3702 23.3447C67.9476 21.4038 68.7171 19.5743 69.6582 17.9048L70.1158 18.3619C69.2083 19.9776 68.464 21.7451 67.9022 23.619Z" fill="#407BFF"/>
<path d="M83.861 52.8074C92.5295 52.8074 99.5567 43.4473 99.5567 31.901C99.5567 20.3547 92.5295 10.9946 83.861 10.9946C75.1925 10.9946 68.1653 20.3547 68.1653 31.901C68.1653 43.4473 75.1925 52.8074 83.861 52.8074Z" fill="#407BFF"/>
<path d="M93.2363 22.484C92.6318 21.6481 91.9082 20.9811 91.1079 20.522C90.3076 20.063 89.4466 19.8211 88.5753 19.8104C87.704 19.7998 86.8398 20.0206 86.0334 20.4601C85.2269 20.8995 84.4943 21.5487 83.8783 22.3697C83.2629 21.5489 82.5308 20.8999 81.7248 20.4605C80.9188 20.0212 80.0551 19.8004 79.1842 19.811C78.3134 19.8217 77.4529 20.0636 76.653 20.5225C75.8532 20.9815 75.1301 21.6483 74.5261 22.484C73.3424 24.1894 72.7047 26.4425 72.7485 28.7644C72.7923 31.0863 73.5142 33.2939 74.7607 34.9181L82.1967 44.8227C82.4197 45.1199 82.6846 45.3556 82.9761 45.5165C83.2676 45.6773 83.58 45.7601 83.8955 45.7601C84.211 45.7601 84.5234 45.6773 84.8149 45.5165C85.1064 45.3556 85.3713 45.1199 85.5943 44.8227L93.0303 34.9181C94.2729 33.2889 94.9895 31.0785 95.028 28.7567C95.0664 26.4348 94.4237 24.1845 93.2363 22.484Z" fill="white"/>
<path d="M83.861 41.0355C83.7458 41.0303 83.6344 40.9787 83.5415 40.8876C83.4486 40.7965 83.3785 40.6702 83.3405 40.5251L80.0287 27.6262L78.6444 33.0204C78.6051 33.1703 78.5315 33.3001 78.4341 33.3916C78.3367 33.4832 78.2202 33.5318 78.101 33.5309H72.5583C72.4066 33.5309 72.2611 33.4506 72.1539 33.3077C72.0466 33.1648 71.9863 32.9711 71.9863 32.769C71.9863 32.5669 72.0466 32.3731 72.1539 32.2302C72.2611 32.0874 72.4066 32.0071 72.5583 32.0071H77.7063L79.5024 25.0205C79.5413 24.8708 79.6143 24.741 79.7112 24.6491C79.808 24.5572 79.924 24.5078 80.0429 24.5078C80.1619 24.5078 80.2779 24.5572 80.3747 24.6491C80.4716 24.741 80.5446 24.8708 80.5835 25.0205L83.9526 38.148L87.2244 27.8852C87.2658 27.7544 87.3337 27.6416 87.4206 27.5595C87.5076 27.4774 87.61 27.4292 87.7163 27.4205C87.8234 27.4123 87.9301 27.4444 88.0242 27.5131C88.1182 27.5818 88.1959 27.6844 88.2483 27.8091L89.9757 31.9995H95.1867C95.3384 31.9995 95.4838 32.0797 95.5911 32.2226C95.6984 32.3655 95.7587 32.5593 95.7587 32.7614C95.7587 32.9634 95.6984 33.1572 95.5911 33.3001C95.4838 33.443 95.3384 33.5233 95.1867 33.5233H89.644C89.5416 33.5244 89.441 33.4889 89.3524 33.4206C89.2639 33.3522 89.1907 33.2535 89.1406 33.1347L87.785 29.9043L84.3873 40.5708C84.3435 40.7085 84.2703 40.826 84.1767 40.9086C84.0831 40.9913 83.9733 41.0354 83.861 41.0355Z" fill="#407BFF"/>
<path d="M170.948 248.529H111.249C110.276 248.544 109.311 248.288 108.417 247.779C107.522 247.271 106.717 246.519 106.052 245.574C105.387 244.628 104.877 243.508 104.554 242.285C104.232 241.063 104.104 239.764 104.179 238.472L113.828 47.9986C113.997 45.2783 114.919 42.7387 116.414 40.8731C117.91 39.0074 119.873 37.949 121.922 37.9034H181.633C182.609 37.8886 183.575 38.1449 184.472 38.6561C185.369 39.1673 186.176 39.922 186.841 40.8721C187.507 41.8222 188.016 42.9467 188.336 44.1738C188.657 45.4009 188.782 46.7035 188.703 47.9986L179.036 238.472C178.862 241.185 177.939 243.715 176.445 245.573C174.951 247.431 172.992 248.484 170.948 248.529Z" fill="#263238"/>
<path d="M184.184 115.473H182.68C182.407 115.477 182.137 115.406 181.887 115.263C181.636 115.12 181.411 114.909 181.225 114.644C181.039 114.379 180.897 114.065 180.808 113.722C180.719 113.379 180.684 113.015 180.706 112.654L182.554 76.2426C182.597 75.4811 182.853 74.7688 183.271 74.2468C183.69 73.7247 184.24 73.4309 184.813 73.4235H186.318C186.59 73.4191 186.86 73.4906 187.11 73.6332C187.361 73.7759 187.586 73.9867 187.772 74.252C187.958 74.5174 188.1 74.8315 188.189 75.1743C188.279 75.5171 188.313 75.8809 188.291 76.2426L186.443 112.654C186.4 113.415 186.144 114.127 185.726 114.649C185.308 115.171 184.757 115.465 184.184 115.473Z" fill="#263238"/>
<path d="M112.959 91.1831H111.46C111.238 91.1871 111.018 91.1296 110.814 91.0144C110.61 90.8992 110.426 90.7288 110.274 90.5139C110.122 90.299 110.005 90.0444 109.93 89.7661C109.856 89.4879 109.825 89.1921 109.841 88.8974L110.51 75.7471C110.553 75.1298 110.765 74.555 111.106 74.1331C111.447 73.7112 111.893 73.4721 112.358 73.4615H113.862C114.083 73.4597 114.302 73.5188 114.505 73.6348C114.709 73.7509 114.892 73.9215 115.043 74.136C115.194 74.3505 115.311 74.6043 115.385 74.8815C115.46 75.1587 115.49 75.4534 115.475 75.7471L114.806 88.8974C114.765 89.5154 114.554 90.0912 114.212 90.5134C113.871 90.9356 113.424 91.1742 112.959 91.1831Z" fill="#407BFF"/>
<path d="M111.769 114.665H110.264C110.043 114.668 109.824 114.61 109.62 114.494C109.417 114.378 109.233 114.208 109.082 113.993C108.93 113.778 108.814 113.524 108.74 113.246C108.665 112.969 108.635 112.673 108.651 112.379L109.32 99.2291C109.363 98.6117 109.575 98.0369 109.916 97.6151C110.257 97.1932 110.703 96.954 111.168 96.9434H112.684C112.905 96.9417 113.124 97.0007 113.327 97.1167C113.53 97.2328 113.713 97.4034 113.864 97.6179C114.016 97.8324 114.132 98.0862 114.207 98.3635C114.281 98.6407 114.312 98.9354 114.297 99.2291L113.628 112.379C113.586 113 113.373 113.578 113.029 114C112.686 114.423 112.236 114.66 111.769 114.665Z" fill="#407BFF"/>
<path d="M169.684 248.529H109.984C109.011 248.543 108.047 248.288 107.152 247.779C106.258 247.27 105.452 246.519 104.787 245.573C104.123 244.627 103.613 243.508 103.29 242.285C102.968 241.063 102.84 239.764 102.914 238.472L112.57 47.9983C112.744 45.2771 113.672 42.7396 115.174 40.8794C116.675 39.0191 118.642 37.9692 120.692 37.9337H180.369C181.342 37.9192 182.307 38.1748 183.202 38.6841C184.097 39.1934 184.903 39.9454 185.568 40.8921C186.233 41.8388 186.743 42.9595 187.065 44.1829C187.387 45.4064 187.514 46.7057 187.439 47.9983L177.778 238.472C177.604 241.186 176.679 243.717 175.184 245.576C173.689 247.434 171.729 248.486 169.684 248.529Z" fill="#407BFF"/>
<path opacity="0.3" d="M103.544 236.339L112.97 50.4673H186.792L177.366 236.339H103.544Z" fill="white"/>
<path opacity="0.1" d="M132.687 236.339L159.033 50.4673H175.57L149.224 236.339H132.687Z" fill="white"/>
<path opacity="0.1" d="M120.195 236.339L146.541 50.4673H154.921L128.574 236.339H120.195Z" fill="white"/>
<path d="M143.08 42.6047H157.478C157.598 42.6019 157.717 42.6328 157.828 42.6954C157.938 42.758 158.038 42.8508 158.12 42.9679C158.202 43.085 158.264 43.2237 158.303 43.3751C158.343 43.5264 158.357 43.6871 158.347 43.8466C158.327 44.1822 158.214 44.4961 158.03 44.727C157.846 44.958 157.605 45.0895 157.352 45.0961H142.955C142.834 45.0977 142.715 45.0658 142.604 45.0024C142.493 44.9389 142.394 44.8454 142.312 44.7277C142.23 44.61 142.168 44.4709 142.129 44.3191C142.09 44.1674 142.075 44.0064 142.085 43.8466C142.105 43.5116 142.218 43.1986 142.402 42.9689C142.586 42.7392 142.828 42.6093 143.08 42.6047Z" fill="white"/>
<path d="M140.083 266.853L135.038 267.493L133.219 251.989L138.264 251.341L140.083 266.853Z" fill="#FFB573"/>
<path d="M134.46 264.21L139.745 262.024C139.837 261.981 139.936 261.988 140.024 262.042C140.111 262.096 140.18 262.193 140.214 262.313L141.93 267.898C141.973 268.047 141.992 268.207 141.986 268.367C141.98 268.527 141.949 268.684 141.895 268.827C141.842 268.97 141.766 269.097 141.674 269.199C141.581 269.301 141.474 269.377 141.358 269.422C139.448 270.183 137.629 270.359 135.324 271.707C132.63 273.231 131.503 275.273 128.603 275.273C126.527 275.273 126.057 272.736 126.938 272.385C130.942 270.77 130.416 269.444 133.322 265.277C133.624 264.794 134.017 264.426 134.46 264.21Z" fill="#263238"/>
<path opacity="0.2" d="M133.219 251.989L134.157 259.989L139.208 259.341L138.27 251.341L133.219 251.989Z" fill="black"/>
<path d="M136.869 56.0748C130.251 55.0386 123.667 55.7319 117.06 57.4386C115.959 57.7232 114.955 58.4674 114.193 59.5633C113.431 60.6592 112.951 62.0499 112.822 63.5337C112.107 71.9603 111.289 90.8477 114.481 119.023L141.525 115.975C141.576 110.863 138.848 87.5715 141.101 63.4042C141.194 62.5511 141.157 61.682 140.993 60.8482C140.828 60.0145 140.541 59.2329 140.146 58.5498C139.752 57.8666 139.258 57.2956 138.695 56.8705C138.132 56.4454 137.511 56.1749 136.869 56.0748Z" fill="white"/>
<path d="M121.121 63.2976L122.087 65.8728C122.132 66.0027 122.204 66.1131 122.294 66.1913C122.384 66.2694 122.489 66.3122 122.596 66.3147L123.643 66.3909C123.83 66.4017 124.014 66.3264 124.164 66.1776L125.965 64.3871L123.74 62.231L121.121 63.2976Z" fill="#263238"/>
<path d="M123.678 65.652C123.296 65.4166 122.864 65.3706 122.459 65.5225C121.607 69.5224 120.675 81.0042 120.577 86.0937C123.163 96.1278 124.009 97.1411 124.009 97.1411L125.319 85.0651C125.319 85.0651 123.849 72.7148 123.678 65.652Z" fill="#263238"/>
<path d="M131.142 38.7041C130.525 43.6717 129.998 52.7458 132.675 55.9534C130.713 58.6962 128.145 61.8733 123.741 62.2314C119.336 62.5895 120.017 58.5286 121.132 56.3572C125.245 54.8944 125.045 50.8106 124.238 46.9935L131.142 38.7041Z" fill="#FFB573"/>
<path d="M133.796 55.519C133.485 55.3398 133.161 55.1995 132.83 55.1C132.749 55.0714 132.663 55.0791 132.585 55.1217C132.508 55.1644 132.443 55.2397 132.401 55.3362C131.978 56.2962 130.685 60.5856 123.741 62.2313C124.885 63.1304 126.401 65.9189 127.053 67.2598C129.135 65.8198 134.552 61.5151 134.037 55.9457C134.026 55.8537 133.999 55.7666 133.957 55.6921C133.915 55.6177 133.86 55.5582 133.796 55.519Z" fill="#F5F5F5"/>
<path d="M121.173 56.5859C121.187 56.4992 121.185 56.409 121.167 56.3235C121.149 56.238 121.115 56.1599 121.069 56.0963C121.022 56.0327 120.964 55.9857 120.9 55.9594C120.837 55.9331 120.769 55.9285 120.704 55.9459C120.463 56.008 120.226 56.092 119.994 56.1973C119.941 56.2252 119.891 56.2637 119.846 56.3116C119.314 56.9668 116.414 62.5439 119.131 67.0543C119.703 65.8276 121.676 63.0467 123.741 62.2315C121.785 61.0582 120.824 58.8716 121.173 56.5859Z" fill="#F5F5F5"/>
<path opacity="0.2" d="M128.328 42.0869L124.244 46.9935C124.441 47.8797 124.579 48.7874 124.656 49.7059C126.235 49.3478 128.357 46.963 128.471 44.7535C128.549 43.8606 128.5 42.9562 128.328 42.0869Z" fill="black"/>
<path d="M122.872 23.6869C119.348 25.5231 119.119 29.3783 119.44 33.5916C119.76 37.8049 123.203 35.0163 123.97 32.3802C124.736 29.744 127.751 21.1422 122.872 23.6869Z" fill="#263238"/>
<path d="M134.112 32.0908C133.133 38.7269 132.807 42.6659 129.959 45.7211C125.663 50.2925 119.846 46.3458 119.331 39.504C118.868 33.3403 120.544 23.5042 125.675 21.5843C126.793 21.1454 127.979 21.1031 129.114 21.4614C130.249 21.8197 131.294 22.5663 132.146 23.6274C132.998 24.6884 133.628 26.0273 133.972 27.5116C134.317 28.9958 134.365 30.5742 134.112 32.0908Z" fill="#FFB573"/>
<path d="M133.905 37.5839C129.713 37.881 130.599 34.7115 131.36 32.8906C132.121 31.0697 130.571 28.0602 131.583 26.4983C129.775 27.4583 127.871 26.6659 125.451 24.426C123.575 22.6812 121.224 29.6526 118.936 26.1555C116.774 22.8565 118.782 17.8813 123.975 17.0813C129.169 16.2813 130.113 21.1727 133.522 20.7384C136.931 20.3041 135.747 24.045 135.078 24.8069C137.938 25.0583 139.499 28.7002 133.905 37.5839Z" fill="#263238"/>
<path d="M134.42 25.2713C135.076 24.7921 135.624 24.0881 136.007 23.2321C136.39 22.3762 136.595 21.3994 136.599 20.4028C137.732 23.0466 137.612 26.0485 134.42 25.2713Z" fill="#263238"/>
<path d="M123.552 39.1759C124.008 39.281 124.475 39.2623 124.925 39.1209C125.375 38.9795 125.799 38.7183 126.172 38.3531C126.183 38.3389 126.192 38.3217 126.198 38.3027C126.204 38.2837 126.207 38.2633 126.207 38.2426C126.207 38.222 126.204 38.2015 126.198 38.1825C126.192 38.1635 126.183 38.1464 126.172 38.1322C126.149 38.1037 126.12 38.0879 126.089 38.0879C126.058 38.0879 126.028 38.1037 126.006 38.1322C125.589 38.526 125.109 38.7854 124.603 38.8899C124.098 38.9943 123.582 38.941 123.094 38.734C123.063 38.7237 123.031 38.7289 123.002 38.7485C122.974 38.7682 122.952 38.8009 122.94 38.8407C122.931 38.8811 122.934 38.9246 122.949 38.9617C122.964 38.9988 122.99 39.0265 123.02 39.0388C123.194 39.1056 123.372 39.1515 123.552 39.1759Z" fill="#263238"/>
<path d="M135.124 39.6183C134.34 40.9627 133.192 41.8436 131.926 42.0716C130.262 42.3611 129.707 40.2964 130.405 38.3688C131.04 36.6316 132.693 34.3917 134.226 34.9936C135.759 35.5955 136.085 37.9421 135.124 39.6183Z" fill="#FFB573"/>
<path d="M133.471 183.898C133.671 164.005 135.581 116.623 135.581 116.623L114.497 118.993C114.497 118.993 118.69 167.822 121.218 188.119C123.85 209.216 131.921 258.64 131.921 258.64L140.501 257.665C140.501 257.665 137.366 199.281 133.471 183.898Z" fill="#263238"/>
<path d="M131.405 258.953L141.581 257.802L141.181 253.429L130.576 254.374L131.405 258.953Z" fill="#407BFF"/>
<path d="M126.595 32.4868C126.544 33.0278 126.281 33.4392 126.023 33.4011C125.766 33.363 125.588 32.8906 125.646 32.3421C125.703 31.7935 125.96 31.3897 126.218 31.4278C126.475 31.4659 126.652 31.9459 126.595 32.4868Z" fill="#263238"/>
<path d="M121.928 31.9992C121.876 32.5477 121.613 32.9515 121.356 32.9134C121.098 32.8753 120.921 32.403 120.978 31.862C121.035 31.3211 121.293 30.9097 121.55 30.9478C121.808 30.9859 121.985 31.4278 121.928 31.9992Z" fill="#263238"/>
<path d="M123.243 32.6392C122.554 34.0491 121.727 35.3302 120.784 36.4486C121.39 37.2943 122.643 37.0658 122.643 37.0658L123.243 32.6392Z" fill="#ED893E"/>
<path opacity="0.4" d="M118.976 32.1362C118.89 33.0048 119.548 33.7286 120.458 33.881C121.367 34.0333 122.208 33.3705 122.288 32.5019" fill="#407BFF"/>
<path opacity="0.4" d="M124.381 32.9443C124.256 33.8053 124.891 34.5824 125.783 34.811C126.675 35.0396 127.55 34.43 127.67 33.5767" fill="#407BFF"/>
<path d="M126.138 35.0463C126.035 35.0539 125.932 35.0539 125.829 35.0463C125.389 34.9763 124.976 34.7291 124.645 34.3377C124.5 34.1732 124.387 33.9648 124.316 33.7302C124.244 33.4955 124.216 33.2414 124.233 32.9892C123.943 32.8208 123.633 32.7178 123.318 32.6844C123 32.5789 122.668 32.5789 122.351 32.6844C122.271 33.6139 121.401 34.2539 120.429 34.0939C119.989 34.0299 119.575 33.7849 119.245 33.393C119.101 33.2276 118.989 33.0192 118.917 32.7847C118.846 32.5503 118.817 32.2966 118.833 32.0444L119.108 32.0902C119.096 32.285 119.12 32.4806 119.176 32.6609C119.233 32.8411 119.321 33.0007 119.434 33.1263C119.722 33.4641 120.082 33.6744 120.463 33.7282C121.287 33.873 122.019 33.3625 122.094 32.6006C122.134 32.174 122.797 32.2044 123.346 32.2959C123.895 32.3873 124.547 32.593 124.49 33.012C124.478 33.2069 124.502 33.4028 124.558 33.5831C124.615 33.7635 124.704 33.923 124.816 34.0482C125.108 34.3815 125.467 34.5938 125.848 34.6588C126.229 34.7237 126.616 34.6386 126.961 34.4139C127.095 34.3313 127.211 34.2072 127.301 34.052C127.39 33.8969 127.45 33.7152 127.476 33.5225V33.3397L134.535 34.5511L134.5 34.9168L127.705 33.7511C127.656 33.9632 127.574 34.1596 127.466 34.3286C127.358 34.4976 127.225 34.6355 127.076 34.7339C126.787 34.9377 126.465 35.0449 126.138 35.0463Z" fill="#263238"/>
<path d="M128.391 30.0943C128.432 30.0945 128.472 30.0786 128.506 30.0486C128.561 30.0055 128.602 29.9351 128.619 29.8525C128.636 29.7699 128.628 29.6817 128.597 29.6067C128.42 29.1636 128.163 28.7857 127.85 28.5065C127.537 28.2274 127.176 28.0557 126.801 28.0067C126.737 28.0025 126.674 28.0321 126.626 28.0891C126.578 28.1461 126.548 28.2259 126.544 28.3115C126.541 28.3951 126.562 28.4771 126.604 28.5398C126.646 28.6025 126.704 28.6409 126.767 28.6467C127.064 28.6931 127.347 28.8354 127.594 29.0611C127.84 29.2868 128.041 29.5892 128.18 29.942C128.201 29.9904 128.232 30.0302 128.27 30.057C128.307 30.0839 128.349 30.0968 128.391 30.0943Z" fill="#263238"/>
<path d="M120.417 29.2334C120.457 29.2385 120.497 29.2308 120.534 29.2109C120.571 29.191 120.603 29.1595 120.629 29.1191C120.814 28.7965 121.053 28.5361 121.327 28.3588C121.601 28.1815 121.903 28.0922 122.208 28.0981C122.239 28.1023 122.271 28.0982 122.302 28.0859C122.332 28.0736 122.36 28.0534 122.385 28.0264C122.409 27.9995 122.429 27.9664 122.444 27.929C122.459 27.8916 122.468 27.8507 122.471 27.8086C122.475 27.7676 122.473 27.7258 122.464 27.6859C122.456 27.646 122.442 27.6086 122.423 27.576C122.404 27.5434 122.38 27.5162 122.353 27.4959C122.326 27.4757 122.296 27.4629 122.265 27.4582C121.881 27.4448 121.499 27.5515 121.152 27.7698C120.804 27.9881 120.5 28.3119 120.263 28.7153C120.222 28.78 120.202 28.8637 120.208 28.9479C120.213 29.0321 120.243 29.1101 120.292 29.1648C120.329 29.2005 120.372 29.224 120.417 29.2334Z" fill="#263238"/>
<path d="M151.037 180.69C146.661 150.733 145.677 127.304 141.524 115.929L121.098 118.977C121.098 118.977 133.265 163.616 139.208 182.671C145.38 202.48 157.563 236.324 157.563 236.324H167.768C167.768 236.324 158.244 194.336 151.037 180.69Z" fill="#263238"/>
<path d="M86.2919 67.2828L84.084 65.4238C83.7256 65.1163 83.2982 64.9839 82.8747 65.0492C82.4513 65.1145 82.0579 65.3734 81.7617 65.7819L80.2631 67.8847C80.1017 68.1117 79.9769 68.3803 79.8966 68.674C79.8162 68.9678 79.7819 69.2803 79.7959 69.5924C79.8098 69.9045 79.8717 70.2094 79.9776 70.4884C80.0835 70.7673 80.2313 71.0144 80.4118 71.2142L81.4814 72.4333C82.4118 73.4834 83.4972 74.2621 84.6675 74.7189L87.8993 75.9913L90.0214 72.9437C90.6678 69.7666 86.2919 67.2828 86.2919 67.2828Z" fill="#FFB573"/>
<path d="M118.976 65.8584C118.175 68.4641 117.392 70.8869 116.539 73.3631C115.687 75.8392 114.823 78.2849 113.868 80.7154C112.913 83.1458 111.895 85.561 110.739 87.9838C110.167 89.1876 109.532 90.3914 108.812 91.6028C108.037 92.9386 107.154 94.1573 106.18 95.2371C105.537 95.9372 104.827 96.5213 104.07 96.9742C103.829 97.0961 103.606 97.218 103.343 97.3247L102.943 97.4694C102.741 97.5353 102.537 97.5837 102.331 97.6142C101.633 97.7188 100.928 97.6517 100.249 97.4161C99.3997 97.0996 98.5931 96.6086 97.8577 95.9609C97.307 95.5031 96.7814 94.9939 96.2847 94.4371C94.6339 92.5174 93.1124 90.409 91.7373 88.1362C90.4046 86.0029 89.1462 83.862 87.9392 81.6753C86.7323 79.4887 85.5712 77.3402 84.3814 75.0469L90.7077 69.6069C92.7042 73.8996 94.9132 78.0102 97.32 81.9115C98.4265 83.7186 99.6453 85.3982 100.964 86.9324C101.219 87.2108 101.489 87.4653 101.77 87.6943C101.982 87.8848 102.193 87.961 102.045 87.8924C101.844 87.8187 101.633 87.8032 101.427 87.8467C101.344 87.8569 101.261 87.8773 101.181 87.9077H101.135C101.107 87.9077 101.107 87.9077 101.101 87.9077C101.231 87.7945 101.355 87.6697 101.473 87.5343C101.995 86.9031 102.468 86.2037 102.886 85.4467C103.372 84.5782 103.858 83.6029 104.321 82.5896C105.268 80.4828 106.131 78.3109 106.907 76.083C107.708 73.7974 108.48 71.5117 109.195 69.1346C109.91 66.7574 110.59 64.3422 111.168 62.0337L118.976 65.8584Z" fill="#407BFF"/>
<g opacity="0.6">
<path d="M118.976 65.8584C118.175 68.4641 117.392 70.8869 116.539 73.3631C115.687 75.8392 114.823 78.2849 113.868 80.7154C112.913 83.1458 111.895 85.561 110.739 87.9838C110.167 89.1876 109.532 90.3914 108.812 91.6028C108.037 92.9386 107.154 94.1573 106.18 95.2371C105.537 95.9372 104.827 96.5213 104.07 96.9742C103.829 97.0961 103.606 97.218 103.343 97.3247L102.943 97.4694C102.741 97.5353 102.537 97.5837 102.331 97.6142C101.633 97.7188 100.928 97.6517 100.249 97.4161C99.3997 97.0996 98.5931 96.6086 97.8577 95.9609C97.307 95.5031 96.7814 94.9939 96.2847 94.4371C94.6339 92.5174 93.1124 90.409 91.7373 88.1362C90.4046 86.0029 89.1462 83.862 87.9392 81.6753C86.7323 79.4887 85.5712 77.3402 84.3814 75.0469L90.7077 69.6069C92.7042 73.8996 94.9132 78.0102 97.32 81.9115C98.4265 83.7186 99.6453 85.3982 100.964 86.9324C101.219 87.2108 101.489 87.4653 101.77 87.6943C101.982 87.8848 102.193 87.961 102.045 87.8924C101.844 87.8187 101.633 87.8032 101.427 87.8467C101.344 87.8569 101.261 87.8773 101.181 87.9077H101.135C101.107 87.9077 101.107 87.9077 101.101 87.9077C101.231 87.7945 101.355 87.6697 101.473 87.5343C101.995 86.9031 102.468 86.2037 102.886 85.4467C103.372 84.5782 103.858 83.6029 104.321 82.5896C105.268 80.4828 106.131 78.3109 106.907 76.083C107.708 73.7974 108.48 71.5117 109.195 69.1346C109.91 66.7574 110.59 64.3422 111.168 62.0337L118.976 65.8584Z" fill="white"/>
</g>
<path d="M133.951 54.163C131.806 59.4963 124.17 79.816 123.243 92.3568C119.863 80.9284 120.601 55.6487 120.601 55.6487C118.192 55.9615 115.828 56.7312 113.582 57.9344C112.859 58.3305 112.231 58.9858 111.77 59.8276C111.308 60.6694 111.031 61.665 110.968 62.7039C110.31 75.7843 110.62 88.9193 111.895 101.919C114.269 126.528 116.471 164.798 116.471 164.798C116.471 164.798 135.376 163.746 149.962 159.647C148.183 140.836 142.097 109.309 142.039 100.867C141.971 90.0026 142.159 68.7609 142.417 59.8925C142.46 58.6404 142.165 57.409 141.586 56.4211C141.007 55.4331 140.182 54.7538 139.259 54.5059C137.51 54.074 135.724 53.9587 133.951 54.163Z" fill="#407BFF"/>
<path opacity="0.7" d="M133.951 54.1625C131.806 59.4958 124.17 79.8155 123.243 92.3563C119.863 80.9279 120.601 55.6482 120.601 55.6482C118.192 55.961 115.828 56.7307 113.582 57.9339C112.859 58.33 112.231 58.9853 111.77 59.8271C111.308 60.6689 111.031 61.6644 110.968 62.7033C110.31 75.7838 110.62 88.9187 111.895 101.918C114.269 126.527 116.471 164.797 116.471 164.797C116.471 164.797 135.376 163.746 149.962 159.647C148.183 140.836 142.097 109.308 142.039 100.867C141.971 90.002 142.159 68.7528 142.417 59.8843C142.471 58.6703 142.202 57.4698 141.657 56.4942C141.111 55.5187 140.325 54.8305 139.437 54.5511C137.631 54.0796 135.784 53.9488 133.951 54.1625Z" fill="white"/>
<path d="M129.495 160.714C126.212 136.585 123.609 101.179 123.397 96.9204H123.689C123.901 101.179 126.509 136.539 129.787 160.668L129.495 160.714Z" fill="white"/>
<path d="M127.859 117.789H110.425C110.072 117.768 109.735 117.595 109.463 117.297C109.191 116.999 108.998 116.591 108.914 116.135L103.086 80.0444C103.043 79.8474 103.036 79.6397 103.065 79.4384C103.095 79.2371 103.16 79.048 103.255 78.8866C103.35 78.7252 103.472 78.5961 103.612 78.51C103.751 78.4238 103.904 78.3831 104.058 78.3911H121.487C121.84 78.4107 122.179 78.5825 122.452 78.8807C122.726 79.1788 122.919 79.5873 123.003 80.0444L128.831 116.135C128.874 116.332 128.881 116.54 128.852 116.741C128.822 116.943 128.758 117.132 128.663 117.293C128.568 117.455 128.445 117.584 128.306 117.67C128.166 117.756 128.013 117.797 127.859 117.789Z" fill="white"/>
<path d="M127.316 118.093H109.584C109.225 118.071 108.882 117.895 108.604 117.592C108.327 117.288 108.131 116.874 108.045 116.41L102.113 79.7091C102.071 79.508 102.065 79.2964 102.095 79.0915C102.126 78.8865 102.192 78.6942 102.289 78.53C102.387 78.3659 102.511 78.2346 102.654 78.1469C102.796 78.0592 102.952 78.0175 103.109 78.0253H120.841C121.199 78.0476 121.543 78.2235 121.82 78.5269C122.097 78.8304 122.293 79.245 122.379 79.7091L128.305 116.41C128.349 116.61 128.356 116.822 128.326 117.027C128.297 117.232 128.231 117.424 128.134 117.589C128.037 117.753 127.913 117.885 127.77 117.972C127.628 118.06 127.472 118.102 127.316 118.093Z" fill="#407BFF"/>
<path d="M129.346 97.3851L124.936 97.1641C124.406 97.1398 123.878 97.2644 123.386 97.5298L121.098 98.7489C120.884 98.8621 120.688 99.0319 120.524 99.248C120.36 99.4642 120.23 99.7223 120.142 100.007C120.055 100.291 120.011 100.597 120.014 100.904C120.017 101.212 120.067 101.515 120.16 101.796L121.075 104.433C121.26 104.944 121.571 105.355 121.957 105.596C122.342 105.838 122.778 105.895 123.192 105.758L125.714 104.92C125.714 104.92 130.45 104.417 130.622 101.111L129.346 97.3851Z" fill="#FFB573"/>
<path d="M141.524 57.4316C142.617 59.7173 143.618 61.8049 144.602 64.0449C145.586 66.2849 146.552 68.502 147.462 70.8181C148.371 73.1343 149.235 75.5266 150.019 78.0866C150.425 79.4272 150.773 80.7985 151.06 82.1932C151.428 83.8931 151.598 85.6586 151.563 87.4274V87.7246C151.565 87.7753 151.565 87.8262 151.563 87.877C151.563 88.1512 151.506 88.4255 151.466 88.6998C151.426 88.9741 151.374 89.1874 151.317 89.4617C151.26 89.736 151.197 89.8807 151.134 90.0941C150.915 90.7533 150.635 91.3728 150.299 91.9379C149.831 92.7157 149.3 93.421 148.714 94.0407C147.815 94.9846 146.858 95.8281 145.854 96.5626C144.089 97.8486 142.271 99.0034 140.409 100.022C138.607 101.043 136.811 101.972 135.004 102.848C133.196 103.724 131.417 104.57 129.535 105.408L127.356 95.8083C129.072 95.1835 130.822 94.414 132.532 93.6369C134.243 92.8597 135.964 91.9912 137.589 91.0845C139.183 90.2073 140.738 89.2075 142.245 88.0903C142.881 87.6207 143.488 87.083 144.058 86.4827C144.208 86.3312 144.343 86.1545 144.459 85.957C144.409 86.0309 144.371 86.1161 144.344 86.2084C144.344 86.277 144.316 86.3227 144.287 86.4065C144.265 86.496 144.247 86.5877 144.236 86.6808C144.212 86.7979 144.196 86.9178 144.19 87.0389C144.19 87.0846 144.19 87.0922 144.19 87.077V87.0236C144.15 86.3007 144.044 85.587 143.875 84.8979C143.646 83.9004 143.375 82.9211 143.063 81.9647C142.364 79.8558 141.573 77.8028 140.695 75.8162C139.803 73.7743 138.853 71.7324 137.835 69.721C136.817 67.7096 135.776 65.7058 134.729 63.8773L141.524 57.4316Z" fill="#407BFF"/>
<g opacity="0.7">
<path d="M141.524 57.4316C142.617 59.7173 143.618 61.8049 144.602 64.0449C145.586 66.2849 146.552 68.502 147.462 70.8181C148.371 73.1343 149.235 75.5266 150.019 78.0866C150.425 79.4272 150.773 80.7985 151.06 82.1932C151.428 83.8931 151.598 85.6586 151.563 87.4274V87.7246C151.565 87.7753 151.565 87.8262 151.563 87.877C151.563 88.1512 151.506 88.4255 151.466 88.6998C151.426 88.9741 151.374 89.1874 151.317 89.4617C151.26 89.736 151.197 89.8807 151.134 90.0941C150.915 90.7533 150.635 91.3728 150.299 91.9379C149.831 92.7157 149.3 93.421 148.714 94.0407C147.815 94.9846 146.858 95.8281 145.854 96.5626C144.089 97.8486 142.271 99.0034 140.409 100.022C138.607 101.043 136.811 101.972 135.004 102.848C133.196 103.724 131.417 104.57 129.535 105.408L127.356 95.8083C129.072 95.1835 130.822 94.414 132.532 93.6369C134.243 92.8597 135.964 91.9912 137.589 91.0845C139.183 90.2073 140.738 89.2075 142.245 88.0903C142.881 87.6207 143.488 87.083 144.058 86.4827C144.208 86.3312 144.343 86.1545 144.459 85.957C144.409 86.0309 144.371 86.1161 144.344 86.2084C144.344 86.277 144.316 86.3227 144.287 86.4065C144.265 86.496 144.247 86.5877 144.236 86.6808C144.212 86.7979 144.196 86.9178 144.19 87.0389C144.19 87.0846 144.19 87.0922 144.19 87.077V87.0236C144.15 86.3007 144.044 85.587 143.875 84.8979C143.646 83.9004 143.375 82.9211 143.063 81.9647C142.364 79.8558 141.573 77.8028 140.695 75.8162C139.803 73.7743 138.853 71.7324 137.835 69.721C136.817 67.7096 135.776 65.7058 134.729 63.8773L141.524 57.4316Z" fill="white"/>
</g>
<path d="M135.735 83.8692C135.697 83.8686 135.66 83.8549 135.627 83.8296C135.594 83.8042 135.566 83.768 135.547 83.7244C135.53 83.6912 135.518 83.6537 135.513 83.6144C135.507 83.575 135.508 83.5346 135.514 83.4954C135.52 83.4563 135.533 83.4193 135.55 83.3866C135.567 83.3539 135.59 83.3263 135.615 83.3054L136.508 82.5435C137.341 81.8438 137.994 80.8238 138.382 79.6184C138.771 78.4131 138.875 77.0791 138.681 75.7931L136.885 63.679C136.754 62.7732 136.397 61.953 135.872 61.351C135.347 60.7489 134.685 60.4004 133.993 60.3616C133.301 60.3228 132.62 60.5961 132.059 61.1373C131.498 61.6785 131.09 62.4559 130.902 63.3437L128.357 75.2217C128.079 76.4773 128.094 77.8158 128.4 79.0595C128.707 80.3033 129.29 81.3935 130.073 82.1854L130.919 83.0387C130.967 83.0884 130.998 83.1611 131.005 83.2411C131.013 83.321 130.996 83.4017 130.959 83.4654C130.941 83.4966 130.919 83.5227 130.893 83.5423C130.868 83.5619 130.84 83.5745 130.81 83.5795C130.781 83.5844 130.751 83.5816 130.723 83.5712C130.694 83.5608 130.668 83.5429 130.645 83.5187L129.844 82.673C128.984 81.8103 128.341 80.6195 128.001 79.2587C127.66 77.8979 127.639 76.4315 127.939 75.0541L130.49 63.1761C130.709 62.1619 131.178 61.275 131.82 60.6579C132.463 60.0408 133.243 59.7292 134.035 59.7731C134.826 59.8171 135.584 60.214 136.186 60.9002C136.788 61.5864 137.199 62.5221 137.354 63.5571L139.15 75.6788C139.362 77.0837 139.249 78.5413 138.825 79.8584C138.401 81.1755 137.687 82.2899 136.777 83.054L135.878 83.8159C135.859 83.8372 135.836 83.8529 135.811 83.862C135.786 83.8712 135.761 83.8736 135.735 83.8692Z" fill="#263238"/>
<path d="M137.109 63.9305L130.685 63.5724C130.655 63.5705 130.625 63.5606 130.598 63.5435C130.571 63.5263 130.547 63.5022 130.526 63.4725C130.506 63.4428 130.491 63.408 130.481 63.3703C130.47 63.3325 130.466 63.2925 130.468 63.2524C130.473 63.1729 130.501 63.0992 130.546 63.0456C130.59 62.992 130.648 62.9625 130.708 62.9629L137.126 63.321C137.156 63.3229 137.185 63.3328 137.212 63.3499C137.24 63.3671 137.264 63.3912 137.284 63.4209C137.304 63.4506 137.32 63.4854 137.33 63.5231C137.34 63.5609 137.345 63.6009 137.343 63.641C137.342 63.6807 137.336 63.7198 137.323 63.756C137.311 63.7921 137.294 63.8247 137.272 63.8517C137.25 63.8787 137.224 63.8996 137.196 63.9131C137.168 63.9266 137.138 63.9326 137.109 63.9305Z" fill="#263238"/>
<path d="M133.985 60.3796C133.926 60.3778 133.869 60.3461 133.827 60.291C133.785 60.2358 133.759 60.1613 133.756 60.0825C133.756 58.5587 133.402 55.9149 132.332 55.3359C132.303 55.3226 132.275 55.3015 132.252 55.2737C132.229 55.2459 132.21 55.212 132.197 55.1742C132.184 55.1364 132.177 55.0955 132.176 55.0539C132.176 55.0123 132.181 54.971 132.193 54.9325C132.205 54.8939 132.222 54.859 132.244 54.8298C132.267 54.8006 132.293 54.7778 132.322 54.7628C132.351 54.7477 132.383 54.7408 132.414 54.7424C132.445 54.744 132.476 54.7541 132.504 54.7721C134.088 55.6406 134.22 59.6177 134.22 60.1053C134.22 60.1856 134.197 60.2628 134.155 60.321C134.114 60.3792 134.057 60.4138 133.997 60.4177L133.985 60.3796Z" fill="#263238"/>
<path d="M114.337 70.734H114.291C114.232 70.7175 114.181 70.6706 114.147 70.6036C114.114 70.5365 114.102 70.4547 114.114 70.3759C114.869 65.3703 117.992 57.4695 120.744 55.1381C120.769 55.1173 120.797 55.1033 120.826 55.0971C120.855 55.0908 120.885 55.0923 120.914 55.1015C120.942 55.1107 120.969 55.1275 120.993 55.1507C121.017 55.174 121.037 55.2034 121.052 55.2371C121.069 55.2698 121.081 55.3066 121.086 55.3454C121.092 55.3841 121.091 55.424 121.085 55.4625C121.078 55.5011 121.066 55.5375 121.049 55.5694C121.031 55.6014 121.009 55.6283 120.984 55.6485C118.324 57.8885 115.292 65.5532 114.56 70.4826C114.551 70.5526 114.524 70.616 114.483 70.6619C114.442 70.7079 114.391 70.7334 114.337 70.734Z" fill="#263238"/>
<path d="M116.214 71.5188C115.859 72.7302 115.07 73.4617 114.498 73.1493C113.926 72.8369 113.703 71.6255 114.057 70.3836C114.412 69.1417 115.201 68.4408 115.773 68.7608C116.345 69.0808 116.574 70.3074 116.214 71.5188Z" fill="white"/>
<path d="M131.314 83.3201C131.314 83.8839 131.051 84.3334 130.771 84.3182C130.491 84.303 130.273 83.8306 130.291 83.2592C130.308 82.6877 130.554 82.2382 130.834 82.2611C131.114 82.2839 131.332 82.7487 131.314 83.3201Z" fill="white"/>
<path d="M136.244 83.5951C136.244 84.1589 135.987 84.6084 135.701 84.5931C135.415 84.5779 135.209 84.1055 135.226 83.5341C135.243 82.9627 135.483 82.5208 135.798 82.536C136.113 82.5513 136.261 83.0465 136.244 83.5951Z" fill="white"/>
<path d="M233.245 73.0276L232.673 72.9819C232.768 71.3598 232.609 69.729 232.206 68.1931C231.803 66.6572 231.164 65.2497 230.331 64.0597C229.498 62.8698 228.488 61.9236 227.366 61.2809C226.244 60.6383 225.034 60.3134 223.812 60.3268V59.5649C225.112 59.5502 226.4 59.8955 227.594 60.5788C228.789 61.2622 229.863 62.2687 230.75 63.5345C231.637 64.8003 232.317 66.2978 232.746 67.932C233.176 69.5662 233.345 71.3014 233.245 73.0276Z" fill="#407BFF"/>
<path d="M233.546 76.2228L233.215 82.5312L233.787 82.5846L234.118 76.2761L233.546 76.2228Z" fill="#407BFF"/>
<path d="M223.812 62.232H184.344C182.189 62.2791 180.123 63.3926 178.55 65.3556C176.977 67.3187 176.008 69.991 175.833 72.8528L175.472 79.9308C175.39 81.2927 175.522 82.6624 175.86 83.9526C176.197 85.2428 176.733 86.4252 177.433 87.4244C178.132 88.4236 178.98 89.2178 179.923 89.7562C180.866 90.2946 181.883 90.5655 182.908 90.5516H222.376L230.03 96.8372L231.242 72.8528C231.325 71.4912 231.194 70.1217 230.857 68.8315C230.52 67.5413 229.985 66.3588 229.286 65.3595C228.587 64.3601 227.739 63.5659 226.796 63.0274C225.854 62.4889 224.837 62.218 223.812 62.232Z" fill="#407BFF"/>
<path d="M221.81 72.3726H185.254V74.1401H221.81V72.3726Z" fill="white"/>
<path d="M221.49 78.6431H194.348V80.4107H221.49V78.6431Z" fill="white"/>
<path d="M164.438 100.098H204.776C205.825 100.083 206.864 100.359 207.828 100.909C208.792 101.459 209.66 102.271 210.375 103.293C211.09 104.314 211.638 105.523 211.983 106.843C212.328 108.162 212.462 109.562 212.378 110.955L212.012 118.193C211.83 121.117 210.84 123.848 209.232 125.854C207.624 127.86 205.514 128.999 203.312 129.05H162.968L154.491 135.488L155.738 110.955C155.918 108.03 156.909 105.298 158.517 103.292C160.125 101.285 162.235 100.147 164.438 100.098Z" fill="white"/>
<path opacity="0.15" d="M164.438 100.098H204.776C205.825 100.083 206.864 100.359 207.828 100.909C208.792 101.459 209.66 102.271 210.375 103.293C211.09 104.314 211.638 105.523 211.983 106.843C212.328 108.162 212.462 109.562 212.378 110.955L212.012 118.193C211.83 121.117 210.84 123.848 209.232 125.854C207.624 127.86 205.514 128.999 203.312 129.05H162.968L154.491 135.488L155.738 110.955C155.918 108.03 156.909 105.298 158.517 103.292C160.125 101.285 162.235 100.147 164.438 100.098Z" fill="#407BFF"/>
<path opacity="0.5" d="M202.728 110.467H165.342V112.281H202.728V110.467Z" fill="#407BFF"/>
<path opacity="0.5" d="M179.791 116.875H165.016V118.688H179.791V116.875Z" fill="#407BFF"/>
<path opacity="0.5" d="M192.85 116.875H183.412V118.688H192.85V116.875Z" fill="#407BFF"/>
</g>
</svg>
