<svg width="321" height="352" viewBox="0 0 321 352" fill="none" xmlns="http://www.w3.org/2000/svg">
<g opacity="0.8">
<path d="M471.162 308.518H0V308.753H471.162V308.518Z" fill="#EBEBEB"/>
<path d="M312.117 326.242H303.928V326.478H312.117V326.242Z" fill="#EBEBEB"/>
<path d="M90.1333 316.518H49.4343V316.753H90.1333V316.518Z" fill="#EBEBEB"/>
<path d="M104.494 316.518H98.5295V316.753H104.494V316.518Z" fill="#EBEBEB"/>
<path d="M212.164 320.494H123.887V320.73H212.164V320.494Z" fill="#EBEBEB"/>
<path d="M223.331 266.489H41.3775C39.9521 266.487 38.5859 265.919 37.5789 264.91C36.5718 263.901 36.0062 262.534 36.0062 261.109V5.33356C36.0186 3.91633 36.5897 2.56122 37.5954 1.56258C38.6011 0.563942 39.9602 0.00242779 41.3775 0H223.331C224.758 0 226.127 0.566891 227.136 1.57596C228.145 2.58504 228.712 3.95363 228.712 5.38067V261.109C228.712 262.536 228.145 263.904 227.136 264.914C226.127 265.923 224.758 266.489 223.331 266.489ZM41.3775 0.188466C40.0145 0.190962 38.7083 0.734132 37.7454 1.69875C36.7826 2.66338 36.2418 3.97063 36.2418 5.33356V261.109C36.2418 262.472 36.7826 263.779 37.7454 264.744C38.7083 265.708 40.0145 266.251 41.3775 266.254H223.331C224.695 266.251 226.002 265.709 226.966 264.744C227.931 263.78 228.474 262.473 228.476 261.109V5.33356C228.474 3.96976 227.931 2.66253 226.966 1.69818C226.002 0.733826 224.695 0.190957 223.331 0.188466H41.3775Z" fill="#EBEBEB"/>
<path d="M427.165 266.489H245.202C243.776 266.487 242.409 265.919 241.4 264.911C240.392 263.902 239.824 262.535 239.822 261.109V5.33356C239.837 3.91547 240.41 2.56037 241.417 1.56199C242.424 0.563613 243.784 0.00240132 245.202 0H427.165C428.581 0.00490433 429.938 0.567514 430.941 1.56589C431.945 2.56426 432.515 3.91795 432.527 5.33356V261.109C432.527 262.533 431.963 263.898 430.958 264.907C429.953 265.915 428.589 266.484 427.165 266.489ZM245.202 0.188466C243.839 0.190957 242.531 0.733826 241.567 1.69818C240.603 2.66253 240.06 3.96976 240.057 5.33356V261.109C240.06 262.473 240.603 263.78 241.567 264.744C242.531 265.709 243.839 266.251 245.202 266.254H427.165C428.529 266.251 429.836 265.709 430.801 264.744C431.765 263.78 432.308 262.473 432.31 261.109V5.33356C432.308 3.96976 431.765 2.66253 430.801 1.69818C429.836 0.733826 428.529 0.190957 427.165 0.188466H245.202Z" fill="#EBEBEB"/>
<path d="M119.308 52.9873H63.098V136.779H119.308V52.9873Z" fill="#E6E6E6"/>
<path d="M119.308 136.788H120.194L120.194 52.9966H119.308L119.308 136.788Z" fill="#E0E0E0"/>
<path d="M116.132 133.603V56.1719H66.2831V133.603H116.132Z" fill="#FAFAFA"/>
<path d="M100.633 88.5312C105.836 83.3277 105.836 74.8911 100.633 69.6875C95.4291 64.484 86.9925 64.484 81.789 69.6875C76.5855 74.8911 76.5855 83.3277 81.789 88.5312C86.9925 93.7347 95.4291 93.7347 100.633 88.5312Z" fill="#F0F0F0"/>
<path d="M107.642 100.141H74.764V103.505H107.642V100.141Z" fill="#EBEBEB"/>
<path d="M107.642 109.093H74.764V112.457H107.642V109.093Z" fill="#EBEBEB"/>
<path d="M107.642 118.035H74.764V121.399H107.642V118.035Z" fill="#EBEBEB"/>
<path d="M189.944 65.0586H133.735V148.85H189.944V65.0586Z" fill="#E6E6E6"/>
<path d="M189.944 148.84H190.83V65.0483H189.944V148.84Z" fill="#E0E0E0"/>
<path d="M186.769 145.674V68.2432H136.92V145.674H186.769Z" fill="#FAFAFA"/>
<path d="M174.798 94.2227C176.489 87.0606 172.053 79.8842 164.891 78.1938C157.729 76.5034 150.552 80.9391 148.862 88.1012C147.171 95.2633 151.607 102.44 158.769 104.13C165.931 105.821 173.108 101.385 174.798 94.2227Z" fill="#F0F0F0"/>
<path d="M178.278 112.212H145.401V115.576H178.278V112.212Z" fill="#EBEBEB"/>
<path d="M178.278 121.154H145.401V124.518H178.278V121.154Z" fill="#EBEBEB"/>
<path d="M178.278 130.098H145.401V133.462H178.278V130.098Z" fill="#EBEBEB"/>
<path d="M388.172 183.753H142.517V186.373H388.172V183.753Z" fill="#EBEBEB"/>
<path d="M388.162 186.373H145.881V308.517H388.162V186.373Z" fill="#F5F5F5"/>
<path d="M200.225 186.373H198.868V308.517H200.225V186.373Z" fill="#E6E6E6"/>
<path d="M264.303 211.213H262.946V308.517H264.303V211.213Z" fill="#E6E6E6"/>
<path d="M199.547 284.356V282.999H145.891V284.356H199.547Z" fill="#E6E6E6"/>
<path d="M199.547 260.195V258.838H145.891V260.195H199.547Z" fill="#E6E6E6"/>
<path d="M199.547 236.034V234.677H145.891V236.034H199.547Z" fill="#E6E6E6"/>
<path d="M388.172 211.891V210.534L145.891 210.534V211.891L388.172 211.891Z" fill="#E6E6E6"/>
<path d="M392.262 20.458H306.51V142.564H392.262V20.458Z" fill="#FAFAFA"/>
<path d="M393.204 21.9277H305.568C305.375 21.9277 305.184 21.8896 305.007 21.8156C304.829 21.7417 304.667 21.6332 304.532 21.4966C304.396 21.36 304.288 21.1978 304.216 21.0195C304.143 20.8412 304.106 20.6503 304.107 20.4577C304.106 20.2655 304.143 20.075 304.216 19.8973C304.289 19.7195 304.396 19.558 304.532 19.4221C304.668 19.2862 304.829 19.1787 305.007 19.1057C305.185 19.0328 305.376 18.9958 305.568 18.9971H393.204C393.396 18.9959 393.587 19.0327 393.766 19.1056C393.944 19.1784 394.106 19.2858 394.243 19.4216C394.379 19.5573 394.488 19.7187 394.562 19.8966C394.636 20.0744 394.674 20.2651 394.674 20.4577C394.674 20.8476 394.519 21.2215 394.243 21.4972C393.968 21.7729 393.594 21.9277 393.204 21.9277Z" fill="#EBEBEB"/>
<path d="M393.204 144.034H305.568C305.375 144.034 305.184 143.996 305.007 143.922C304.829 143.848 304.667 143.74 304.532 143.603C304.396 143.466 304.288 143.304 304.216 143.126C304.143 142.948 304.106 142.757 304.107 142.564C304.106 142.372 304.143 142.181 304.216 142.004C304.289 141.826 304.396 141.664 304.532 141.529C304.668 141.393 304.829 141.285 305.007 141.212C305.185 141.139 305.376 141.102 305.568 141.104H393.204C393.396 141.102 393.587 141.139 393.766 141.212C393.944 141.285 394.106 141.392 394.243 141.528C394.379 141.664 394.488 141.825 394.562 142.003C394.636 142.181 394.674 142.372 394.674 142.564C394.674 142.954 394.519 143.328 394.243 143.604C393.968 143.879 393.594 144.034 393.204 144.034Z" fill="#EBEBEB"/>
<path d="M359.177 159.884H319.703V183.753H359.177V159.884Z" fill="#F5F5F5"/>
<path d="M285.138 183.753H281.369V141.527C281.369 139.658 281.001 137.806 280.285 136.079C279.569 134.351 278.521 132.781 277.198 131.459C275.876 130.137 274.307 129.088 272.579 128.373C270.852 127.657 269 127.289 267.13 127.289C265.26 127.289 263.409 127.657 261.681 128.373C259.954 129.088 258.384 130.137 257.062 131.459C255.74 132.781 254.691 134.351 253.976 136.079C253.26 137.806 252.892 139.658 252.892 141.527H249.122C249.122 136.751 251.02 132.171 254.397 128.794C257.774 125.417 262.354 123.52 267.13 123.52C271.906 123.52 276.487 125.417 279.864 128.794C283.241 132.171 285.138 136.751 285.138 141.527V183.753Z" fill="#EBEBEB"/>
<path d="M292.158 177.571H288.389V183.753H292.158V177.571Z" fill="#EBEBEB"/>
<path d="M172.285 181.558H168.516V183.753H172.285V181.558Z" fill="#EBEBEB"/>
<path d="M165.604 181.558H161.835V183.753H165.604V181.558Z" fill="#EBEBEB"/>
<path d="M129.862 239.604H80.7949V308.517H129.862V239.604Z" fill="#F5F5F5"/>
<path d="M127.949 237.881H82.6985V239.615H127.949V237.881Z" fill="#E6E6E6"/>
<path d="M96.3339 222.332H114.313C118.437 222.332 122.392 223.97 125.308 226.886C128.224 229.802 129.862 233.757 129.862 237.88H80.7949C80.7937 235.839 81.1947 233.817 81.9751 231.931C82.7554 230.045 83.8998 228.331 85.3428 226.887C86.7859 225.443 88.4993 224.297 90.3852 223.516C92.2711 222.734 94.2925 222.332 96.3339 222.332Z" fill="#F5F5F5"/>
<path d="M87.3158 300.96H82.1236C80.1242 300.96 78.2067 301.754 76.793 303.168C75.3792 304.582 74.585 306.499 74.585 308.499H94.9015C94.9015 307.505 94.705 306.521 94.3232 305.603C93.9414 304.685 93.3819 303.852 92.6768 303.151C91.9718 302.451 91.1352 301.896 90.2151 301.52C89.2951 301.144 88.3097 300.954 87.3158 300.96Z" fill="#E6E6E6"/>
<path d="M235.581 351.073C336.488 351.073 418.289 346.297 418.289 340.405C418.289 334.514 336.488 329.738 235.581 329.738C134.675 329.738 52.8739 334.514 52.8739 340.405C52.8739 346.297 134.675 351.073 235.581 351.073Z" fill="#F5F5F5"/>
<path d="M180.653 85.8741L176.375 80.6348L170.401 84.4041C170.401 84.4041 173.133 87.3253 176.45 91.4055L180.653 85.8741Z" fill="#B55B52"/>
<path d="M233.998 86.2986C233.753 86.8263 233.583 87.1467 233.376 87.5519L232.782 88.6827C232.377 89.4271 231.981 90.1621 231.557 90.8877C230.728 92.3326 229.858 93.7524 228.947 95.147C227.116 98.0026 225.095 100.732 222.897 103.317C220.569 106.076 217.946 108.572 215.076 110.761C213.488 111.935 211.798 112.963 210.025 113.833L208.602 114.465L207.104 115.021C206.605 115.2 206.068 115.332 205.54 115.482L205.144 115.595L204.579 115.718C204.164 115.803 203.759 115.859 203.363 115.906C201.921 116.048 200.466 115.972 199.047 115.68C197.884 115.452 196.745 115.114 195.645 114.672C193.811 113.921 192.056 112.99 190.406 111.892C187.55 109.966 184.862 107.804 182.368 105.428C179.946 103.176 177.704 100.848 175.555 98.4734C174.481 97.2767 173.416 96.0893 172.379 94.8643C171.343 93.6393 170.353 92.4614 169.279 91.095L179.701 83.0099C180.512 84.037 181.482 85.2149 182.415 86.2986C183.348 87.3823 184.3 88.4942 185.299 89.559C187.278 91.6793 189.304 93.7241 191.386 95.5993C193.348 97.4008 195.464 99.0278 197.709 100.462C198.602 101.033 199.549 101.516 200.536 101.903C201.346 102.214 201.95 102.205 201.771 102.158H201.676L201.837 102.111C202.044 102.026 202.242 101.979 202.458 101.894L203.09 101.621L203.749 101.291C204.691 100.769 205.587 100.167 206.426 99.4911C208.352 97.8888 210.087 96.0707 211.599 94.0728C213.252 91.921 214.754 89.6571 216.094 87.2975C216.785 86.0913 217.435 84.8663 218.044 83.6224C218.355 83.0099 218.657 82.3879 218.987 81.7377L219.401 80.7954C219.524 80.5127 219.684 80.1452 219.75 79.9756L233.998 86.2986Z" fill="#407BFF"/>
<path opacity="0.8" d="M233.998 86.2986C233.753 86.8263 233.583 87.1467 233.376 87.5519L232.782 88.6827C232.377 89.4271 231.981 90.1621 231.557 90.8877C230.728 92.3326 229.858 93.7524 228.947 95.147C227.116 98.0026 225.095 100.732 222.897 103.317C220.569 106.076 217.946 108.572 215.076 110.761C213.488 111.935 211.798 112.963 210.025 113.833L208.602 114.465L207.104 115.021C206.605 115.2 206.068 115.332 205.54 115.482L205.144 115.595L204.579 115.718C204.164 115.803 203.759 115.859 203.363 115.906C201.921 116.048 200.466 115.972 199.047 115.68C197.884 115.452 196.745 115.114 195.645 114.672C193.811 113.921 192.056 112.99 190.406 111.892C187.55 109.966 184.862 107.804 182.368 105.428C179.946 103.176 177.704 100.848 175.555 98.4734C174.481 97.2767 173.416 96.0893 172.379 94.8643C171.343 93.6393 170.353 92.4614 169.279 91.095L179.701 83.0099C180.512 84.037 181.482 85.2149 182.415 86.2986C183.348 87.3823 184.3 88.4942 185.299 89.559C187.278 91.6793 189.304 93.7241 191.386 95.5993C193.348 97.4008 195.464 99.0278 197.709 100.462C198.602 101.033 199.549 101.516 200.536 101.903C201.346 102.214 201.95 102.205 201.771 102.158H201.676L201.837 102.111C202.044 102.026 202.242 101.979 202.458 101.894L203.09 101.621L203.749 101.291C204.691 100.769 205.587 100.167 206.426 99.4911C208.352 97.8888 210.087 96.0707 211.599 94.0728C213.252 91.921 214.754 89.6571 216.094 87.2975C216.785 86.0913 217.435 84.8663 218.044 83.6224C218.355 83.0099 218.657 82.3879 218.987 81.7377L219.401 80.7954C219.524 80.5127 219.684 80.1452 219.75 79.9756L233.998 86.2986Z" fill="white"/>
<path d="M231.906 236.9H262.324L250.79 179.249H235.892L231.906 236.9Z" fill="#407BFF"/>
<path opacity="0.6" d="M231.906 236.9H262.324L250.79 179.249H235.892L231.906 236.9Z" fill="white"/>
<path d="M238.427 331.793H230.672L230.342 313.842H238.097L238.427 331.793Z" fill="#B55B52"/>
<path d="M281.369 331.793H273.613L270.155 313.842H277.91L281.369 331.793Z" fill="#B55B52"/>
<path d="M273.086 330.898H281.755C281.908 330.897 282.056 330.949 282.175 331.045C282.293 331.141 282.375 331.276 282.405 331.425L283.762 338.314C283.793 338.484 283.786 338.658 283.741 338.825C283.696 338.991 283.615 339.146 283.503 339.278C283.391 339.409 283.252 339.514 283.095 339.586C282.937 339.657 282.766 339.692 282.594 339.69C279.559 339.642 278.089 339.463 274.254 339.463C271.898 339.463 267.036 339.708 263.785 339.708C260.534 339.708 260.185 336.495 261.523 336.203C267.526 334.893 269.825 333.093 271.776 331.369C272.141 331.059 272.607 330.892 273.086 330.898Z" fill="#263238"/>
<path d="M230.747 330.897H239.228C239.38 330.897 239.527 330.949 239.644 331.046C239.761 331.142 239.84 331.276 239.869 331.425L241.235 338.295C241.267 338.464 241.261 338.638 241.218 338.804C241.175 338.971 241.096 339.125 240.986 339.258C240.876 339.39 240.739 339.496 240.583 339.569C240.427 339.642 240.257 339.68 240.086 339.68C237.032 339.623 232.622 339.444 228.778 339.444C224.292 339.444 223.925 339.689 218.666 339.689C215.481 339.689 214.68 336.476 216.019 336.184C222.115 334.855 223.557 334.714 228.872 331.472C229.433 331.113 230.081 330.915 230.747 330.897Z" fill="#263238"/>
<path d="M173.482 78.8449L168.469 78.7695L167.526 85.2339C170.718 85.8172 174.01 85.4907 177.025 84.2916L176.94 82.1902C176.902 81.2958 176.522 80.4504 175.878 79.828C175.235 79.2056 174.377 78.8537 173.482 78.8449Z" fill="#B55B52"/>
<path d="M160.629 79.0711L161.599 83.1514L167.508 85.2339L168.469 78.7695L160.629 79.0711Z" fill="#B55B52"/>
<path opacity="0.2" d="M230.342 313.852L230.511 323.105H238.267L238.097 313.852H230.342Z" fill="black"/>
<path opacity="0.2" d="M277.91 313.852H270.155L271.946 323.105H279.701L277.91 313.852Z" fill="black"/>
<path d="M221.192 81.4835C219.043 89.7005 215.189 110.432 219.401 143.404H260.864C261.269 137.627 258.63 111.497 263.295 84.2916C263.491 83.184 263.459 82.048 263.199 80.9535C262.94 79.859 262.459 78.8293 261.786 77.9278C261.113 77.0263 260.263 76.2723 259.287 75.712C258.312 75.1518 257.232 74.7973 256.114 74.6705C254.503 74.4914 252.797 74.3406 251.111 74.2558C245.316 74.0947 239.516 74.2835 233.744 74.8212C231.282 75.0563 228.844 75.504 226.459 76.1593C225.19 76.5039 224.035 77.1778 223.109 78.1128C222.184 79.0478 221.523 80.2106 221.192 81.4835Z" fill="white"/>
<path d="M249.207 57.7744C247.954 63.4284 247.228 70.4675 251.092 74.2557C251.092 74.2557 248.67 80.0039 238.135 80.0039C228.504 80.0039 233.423 74.2557 233.423 74.2557C239.784 72.748 239.652 64.9267 238.653 60.5166L249.207 57.7744Z" fill="#B55B52"/>
<path d="M237.654 79.2212L235.374 81.7372C235.293 81.8243 235.237 81.9315 235.213 82.0476C235.188 82.1637 235.195 82.2843 235.233 82.3968L235.958 84.6207C235.999 84.7454 236.076 84.8548 236.181 84.934C236.285 85.0132 236.411 85.0584 236.542 85.0636L239.002 85.1861C239.118 85.1911 239.234 85.166 239.338 85.1132C239.442 85.0604 239.531 84.9816 239.596 84.8846L241.066 82.7266C241.154 82.6102 241.202 82.4678 241.202 82.3214C241.202 82.1751 241.154 82.0327 241.066 81.9162L238.691 79.2118C238.628 79.1339 238.549 79.0712 238.459 79.0285C238.369 78.9857 238.27 78.964 238.17 78.9649C238.071 78.9658 237.972 78.9893 237.883 79.0337C237.793 79.0781 237.715 79.1422 237.654 79.2212Z" fill="#407BFF"/>
<path d="M237.079 85.0449C237.079 85.0449 233.31 112.787 233.225 117.621C233.275 122.186 233.992 126.72 235.355 131.077C235.355 131.077 237.946 126.177 238.389 117.414C238.832 108.65 238.295 89.9639 238.493 85.0449H237.079Z" fill="#407BFF"/>
<path opacity="0.2" d="M238.71 60.526C239.303 63.108 239.586 66.8584 238.436 69.8362C239.19 70.166 242.3 68.9692 243.591 68.1494C246.465 66.3213 247.577 64.5309 248.632 60.7145C248.802 59.7062 248.99 58.7262 249.207 57.7744L238.71 60.526Z" fill="black"/>
<path d="M228.872 55.0133C229.219 55.8949 229.739 56.6983 230.401 57.3763C231.062 58.0544 231.853 58.5933 232.726 58.9617C235.072 59.904 236.589 57.8497 236.213 55.4468C235.883 53.2889 234.252 50.1792 231.765 50.2452C231.217 50.2762 230.684 50.4401 230.214 50.7228C229.743 51.0056 229.348 51.3986 229.063 51.8679C228.779 52.3373 228.612 52.869 228.579 53.417C228.546 53.965 228.646 54.5128 228.872 55.0133Z" fill="#B55B52"/>
<path opacity="0.2" d="M228.872 55.0133C229.219 55.8949 229.739 56.6983 230.401 57.3763C231.062 58.0544 231.853 58.5933 232.726 58.9617C235.072 59.904 236.589 57.8497 236.213 55.4468C235.883 53.2889 234.252 50.1792 231.765 50.2452C231.217 50.2762 230.684 50.4401 230.214 50.7228C229.743 51.0056 229.348 51.3986 229.063 51.8679C228.779 52.3373 228.612 52.869 228.579 53.417C228.546 53.965 228.646 54.5128 228.872 55.0133Z" fill="black"/>
<path d="M238.408 46.5227C237.965 49.8397 235.892 52.3086 233.781 52.0259C231.671 51.7432 230.323 48.822 230.775 45.4956C231.228 42.1692 233.291 39.7003 235.402 39.983C237.513 40.2657 238.879 43.1963 238.408 46.5227Z" fill="#263238"/>
<path d="M252.92 50.4241C251.035 57.9627 250.3 62.4482 245.768 65.7087C238.964 70.6182 230.342 65.5673 229.984 57.6706C229.654 50.5655 232.811 39.4461 240.726 37.6556C242.462 37.2541 244.272 37.3114 245.979 37.8217C247.686 38.332 249.23 39.2779 250.461 40.5662C251.691 41.8546 252.565 43.441 252.996 45.1695C253.427 46.8979 253.401 48.7089 252.92 50.4241Z" fill="#B55B52"/>
<path d="M240.406 35.0266C235.892 35.9689 230.898 39.6534 235.204 42.339C239.511 45.0247 249.207 45.4393 249.207 45.4393C249.207 45.4393 246.003 52.9779 250.385 56.8697C251.846 56.1441 248.727 62.7215 248.727 62.7215C250.332 62.1688 251.674 61.0407 252.496 59.5553C255.116 58.8863 262.862 46.3628 257.698 42.8196C256.718 35.5166 246.465 33.7168 240.406 35.0266Z" fill="#263238"/>
<path d="M251.299 54.9662H251.196L244.411 51.8565C244.377 51.8469 244.346 51.8301 244.319 51.8073C244.292 51.7845 244.271 51.7563 244.256 51.7245C244.241 51.6927 244.233 51.658 244.233 51.6229C244.233 51.5878 244.24 51.5531 244.254 51.521C244.269 51.489 244.29 51.4604 244.316 51.4372C244.342 51.414 244.373 51.3967 244.407 51.3865C244.441 51.3763 244.476 51.3735 244.511 51.3782C244.546 51.3829 244.579 51.395 244.609 51.4137L251.403 54.5233C251.461 54.5501 251.507 54.5986 251.53 54.6585C251.552 54.7184 251.551 54.7849 251.525 54.8437C251.503 54.8831 251.47 54.9154 251.43 54.937C251.39 54.9587 251.345 54.9688 251.299 54.9662Z" fill="white"/>
<path d="M254.739 59.3665C253.435 60.8097 251.619 61.6857 249.678 61.8071C247.125 61.939 246.465 59.4984 247.69 57.3688C248.793 55.4841 251.459 53.0718 253.759 53.9481C256.058 54.8245 256.312 57.5855 254.739 59.3665Z" fill="#B55B52"/>
<path d="M219.401 143.403C219.401 143.403 216.914 201.356 217.178 224.999C217.451 249.584 227.675 321.305 227.675 321.305H240.802C240.802 321.305 239.624 251.017 240.802 226.874C242.083 200.546 246.663 143.403 246.663 143.403H219.401Z" fill="#407BFF"/>
<path d="M241.414 315.509C241.48 315.509 241.659 321.578 241.659 321.578H226.525L225.659 314.981L241.414 315.509Z" fill="#263238"/>
<path opacity="0.2" d="M237.164 158.744C236.712 187.504 238.012 204.975 241.226 219.053C242.017 205.333 243.308 187.193 244.448 172.125L237.164 158.744Z" fill="black"/>
<path d="M234.111 143.403C234.111 143.403 241.461 202.638 245.739 224.83C250.451 249.132 268.355 321.305 268.355 321.305H282.556C282.556 321.305 271.352 251.102 268.921 227.072C266.292 200.961 260.845 143.441 260.845 143.441L234.111 143.403Z" fill="#407BFF"/>
<path d="M282.217 315.83C282.283 315.83 283.272 321.579 283.272 321.579H267.667L265.952 315.246L282.217 315.83Z" fill="#263238"/>
<path d="M241.131 50.6224C241.009 51.2444 240.594 51.6873 240.189 51.6213C239.784 51.5553 239.558 50.9994 239.671 50.3774C239.784 49.7555 240.208 49.3126 240.613 49.3786C241.018 49.4445 241.235 50.0005 241.131 50.6224Z" fill="#263238"/>
<path d="M233.527 48.8314C233.414 49.4534 232.99 49.8963 232.585 49.8303C232.179 49.7643 231.953 49.2084 232.066 48.5864C232.179 47.9645 232.603 47.5216 233.009 47.5876C233.414 47.6535 233.64 48.2095 233.527 48.8314Z" fill="#263238"/>
<path d="M236.693 50.3867C235.403 52.0152 233.901 53.4635 232.227 54.6931C232.543 55.1058 232.948 55.4431 233.41 55.681C233.873 55.9189 234.383 56.0514 234.903 56.0689L236.693 50.3867Z" fill="#A02724"/>
<path d="M236.712 58.0009C236.665 57.9897 236.625 57.961 236.598 57.9207C236.572 57.8804 236.562 57.8315 236.571 57.7842C236.58 57.7357 236.608 57.6927 236.648 57.6645C236.689 57.6363 236.739 57.6252 236.787 57.6334C237.552 57.7737 238.34 57.7344 239.087 57.5186C239.834 57.3027 240.521 56.9162 241.094 56.3896C241.126 56.3546 241.171 56.3339 241.219 56.3322C241.267 56.3304 241.313 56.3476 241.348 56.3801C241.383 56.4126 241.404 56.4577 241.406 56.5054C241.407 56.5531 241.39 56.5996 241.358 56.6346C240.747 57.2146 240.008 57.6411 239.2 57.8787C238.392 58.1163 237.539 58.1582 236.712 58.0009Z" fill="#263238"/>
<path d="M244.816 48.6059C244.761 48.5926 244.709 48.5658 244.666 48.5281C244.624 48.4903 244.591 48.4426 244.571 48.3892C244.422 47.9635 244.173 47.5797 243.845 47.2698C243.517 46.96 243.12 46.7331 242.686 46.6082C242.592 46.5878 242.509 46.5308 242.456 46.4496C242.403 46.3685 242.384 46.2696 242.404 46.1747C242.424 46.0794 242.481 45.9958 242.561 45.9413C242.642 45.8868 242.741 45.8658 242.837 45.8826C243.399 46.0207 243.918 46.2963 244.347 46.6844C244.777 47.0725 245.103 47.5612 245.297 48.1065C245.328 48.1991 245.323 48.3003 245.283 48.3895C245.243 48.4787 245.17 48.5493 245.08 48.5871C244.997 48.625 244.903 48.6317 244.816 48.6059Z" fill="#263238"/>
<path d="M231.576 45.8629C231.523 45.8515 231.474 45.8254 231.435 45.7876C231.369 45.7176 231.332 45.6248 231.332 45.5284C231.332 45.432 231.369 45.3393 231.435 45.2693C231.8 44.8103 232.266 44.4427 232.798 44.1957C233.33 43.9487 233.912 43.8291 234.497 43.8464C234.545 43.8522 234.59 43.8673 234.632 43.8909C234.673 43.9145 234.709 43.9461 234.738 43.9838C234.767 44.0215 234.788 44.0646 234.8 44.1106C234.812 44.1566 234.815 44.2045 234.808 44.2516C234.804 44.2999 234.79 44.3469 234.767 44.3897C234.744 44.4325 234.712 44.4703 234.675 44.501C234.637 44.5317 234.594 44.5546 234.547 44.5684C234.5 44.5822 234.452 44.5866 234.403 44.5814C233.94 44.5714 233.48 44.6712 233.063 44.8727C232.645 45.0741 232.281 45.3715 232 45.7404C231.951 45.8017 231.883 45.8463 231.808 45.8682C231.732 45.8901 231.651 45.8883 231.576 45.8629Z" fill="#263238"/>
<path d="M240.99 55.0325C240.804 55.0306 240.618 55.0148 240.434 54.9854C239.993 54.9014 239.572 54.7308 239.197 54.4833C238.822 54.2359 238.499 53.9165 238.248 53.5437C237.927 53.0642 237.703 52.5262 237.59 51.9602C237.477 51.3943 237.476 50.8116 237.588 50.2455C237.716 49.2146 238.242 48.2746 239.054 47.6266C239.866 46.9785 240.899 46.6739 241.932 46.7778C242.823 46.9503 243.609 47.4687 244.119 48.2195C244.764 49.1894 245.001 50.3743 244.778 51.5177C244.65 52.4507 244.202 53.3106 243.512 53.9512C242.821 54.5919 241.93 54.9739 240.99 55.0325ZM241.367 47.2207C240.543 47.279 239.764 47.6204 239.163 48.1872C238.562 48.7539 238.176 49.5111 238.069 50.3303C237.867 51.3478 238.073 52.4039 238.644 53.2704C238.861 53.5903 239.139 53.8641 239.463 54.0759C239.786 54.2878 240.148 54.4336 240.528 54.5048C241.433 54.5869 242.335 54.3114 243.039 53.7373C243.744 53.1631 244.195 52.3359 244.298 51.4328C244.497 50.4141 244.287 49.3579 243.713 48.4928C243.497 48.1722 243.219 47.8979 242.895 47.6859C242.572 47.474 242.209 47.3286 241.829 47.2583C241.676 47.2328 241.522 47.2202 241.367 47.2207Z" fill="white"/>
<path d="M237.824 50.5274C237.785 50.527 237.747 50.5174 237.712 50.4994C237.678 50.4814 237.648 50.4555 237.626 50.4237C237.473 50.1147 237.212 49.8723 236.893 49.7421C236.574 49.6119 236.218 49.603 235.892 49.717C235.832 49.7395 235.765 49.7385 235.706 49.714C235.647 49.6895 235.599 49.6434 235.572 49.5851C235.546 49.5262 235.545 49.4597 235.568 49.3998C235.591 49.3399 235.636 49.2914 235.694 49.2647C236.126 49.1115 236.597 49.1165 237.025 49.2787C237.453 49.4409 237.81 49.7499 238.031 50.1504C238.049 50.1776 238.061 50.208 238.066 50.2398C238.072 50.2716 238.071 50.3042 238.064 50.3357C238.057 50.3673 238.044 50.3971 238.025 50.4235C238.007 50.4499 237.983 50.4724 237.956 50.4897C237.917 50.5162 237.871 50.5294 237.824 50.5274Z" fill="white"/>
<path d="M232.255 53.0436C232.065 53.0422 231.876 53.0264 231.689 52.9965C231.248 52.9126 230.827 52.7419 230.452 52.4944C230.077 52.247 229.754 51.9276 229.503 51.5548C228.858 50.5849 228.621 49.4 228.844 48.2566C228.971 47.2264 229.498 46.2873 230.31 45.6408C231.122 44.9942 232.155 44.6918 233.188 44.7983C233.629 44.8786 234.05 45.0468 234.426 45.2928C234.802 45.5388 235.124 45.8577 235.374 46.2306C236.019 47.2038 236.256 48.3918 236.033 49.5382C235.905 50.4688 235.458 51.3262 234.77 51.9651C234.081 52.604 233.192 52.9851 232.255 53.0436ZM232.622 45.2318C231.798 45.2901 231.02 45.6315 230.419 46.1983C229.817 46.765 229.431 47.5222 229.324 48.3414C229.223 48.8458 229.223 49.3652 229.323 49.8697C229.424 50.3742 229.622 50.8539 229.908 51.2815C230.125 51.6021 230.403 51.8764 230.726 52.0884C231.05 52.3003 231.413 52.4457 231.793 52.5159C232.698 52.5981 233.599 52.3225 234.304 51.7484C235.008 51.1742 235.46 50.347 235.562 49.444C235.765 48.4252 235.555 47.3678 234.978 46.5039C234.538 45.8592 233.86 45.4153 233.093 45.2695C232.938 45.2434 232.78 45.2308 232.622 45.2318Z" fill="white"/>
<path d="M270.447 332.246C269.925 332.287 269.403 332.151 268.968 331.859C268.837 331.742 268.737 331.595 268.675 331.431C268.612 331.268 268.59 331.091 268.61 330.917C268.614 330.808 268.647 330.702 268.705 330.61C268.763 330.517 268.844 330.441 268.939 330.389C269.797 329.956 272.266 331.492 272.549 331.661C272.58 331.68 272.604 331.709 272.618 331.743C272.631 331.777 272.633 331.815 272.624 331.85C272.619 331.887 272.603 331.921 272.577 331.948C272.552 331.975 272.519 331.993 272.483 332.001C271.816 332.159 271.133 332.241 270.447 332.246ZM269.335 330.644C269.254 330.643 269.174 330.659 269.1 330.691C269.061 330.712 269.029 330.743 269.007 330.782C268.986 330.82 268.975 330.864 268.977 330.908C268.958 331.03 268.969 331.155 269.01 331.272C269.051 331.389 269.121 331.493 269.213 331.577C269.627 331.935 270.636 331.982 271.964 331.718C271.178 331.195 270.298 330.831 269.373 330.644H269.335Z" fill="#407BFF"/>
<path d="M272.483 331.982C272.455 331.991 272.425 331.991 272.398 331.982C271.606 331.548 270.089 329.852 270.278 328.985C270.309 328.85 270.384 328.73 270.492 328.643C270.599 328.556 270.733 328.507 270.871 328.504C271.011 328.486 271.153 328.498 271.287 328.539C271.422 328.579 271.547 328.648 271.653 328.74C272.53 329.475 272.662 331.708 272.671 331.812C272.666 331.861 272.644 331.907 272.61 331.943C272.576 331.978 272.531 332.002 272.483 332.01V331.982ZM270.994 328.872H270.909C270.673 328.872 270.645 329.004 270.636 329.051C270.532 329.56 271.484 330.851 272.266 331.454C272.233 330.575 271.934 329.728 271.408 329.023C271.293 328.924 271.146 328.871 270.994 328.872Z" fill="#407BFF"/>
<path d="M227.496 332.255C226.831 332.318 226.165 332.148 225.611 331.775C225.487 331.664 225.393 331.524 225.337 331.368C225.281 331.211 225.265 331.043 225.291 330.879C225.297 330.779 225.329 330.682 225.384 330.598C225.438 330.514 225.513 330.445 225.602 330.399C226.544 329.862 229.635 331.445 229.984 331.633C230.019 331.65 230.047 331.678 230.065 331.712C230.083 331.746 230.089 331.786 230.083 331.824C230.077 331.862 230.058 331.897 230.03 331.924C230.002 331.951 229.966 331.968 229.927 331.972C229.127 332.142 228.313 332.236 227.496 332.255ZM226.158 330.644C226.038 330.642 225.92 330.664 225.809 330.71C225.775 330.73 225.746 330.759 225.726 330.793C225.706 330.828 225.696 330.868 225.696 330.908C225.677 331.016 225.686 331.128 225.722 331.232C225.758 331.336 225.821 331.428 225.904 331.501C226.365 331.925 227.637 332.001 229.362 331.709C228.362 331.174 227.279 330.814 226.158 330.644Z" fill="#407BFF"/>
<path d="M229.927 331.982H229.852C228.91 331.557 227.119 329.89 227.279 329.004C227.279 328.806 227.468 328.542 227.977 328.495C228.157 328.473 228.34 328.489 228.514 328.543C228.688 328.596 228.848 328.686 228.985 328.806C229.927 329.616 230.106 331.708 230.116 331.793C230.116 331.825 230.11 331.857 230.097 331.886C230.084 331.916 230.065 331.942 230.04 331.963C230.004 331.977 229.966 331.984 229.927 331.982ZM228.09 328.872H227.977C227.647 328.872 227.619 329.032 227.609 329.079C227.515 329.597 228.74 330.917 229.682 331.492C229.624 330.615 229.294 329.779 228.74 329.098C228.559 328.943 228.327 328.863 228.09 328.872Z" fill="#407BFF"/>
<path d="M251.601 73.7373L260.553 74.8116C262.037 74.9878 263.402 75.7152 264.375 76.8495C265.349 77.9839 265.862 79.4425 265.811 80.9367C265.359 94.8925 263.512 114.069 264.991 143.403C265.736 158.198 276.073 238.531 276.073 238.531L255.709 242.103C245.985 211.232 239.171 179.52 235.355 147.38C233.875 133.412 233.824 119.33 235.204 105.352L251.601 73.7373Z" fill="#407BFF"/>
<path opacity="0.8" d="M251.601 73.7373L260.553 74.8116C262.037 74.9878 263.402 75.7152 264.375 76.8495C265.349 77.9839 265.862 79.4425 265.811 80.9367C265.359 94.8925 263.512 114.069 264.991 143.403C265.736 158.198 276.073 238.531 276.073 238.531L255.709 242.103C245.985 211.232 239.171 179.52 235.355 147.38C233.875 133.412 233.824 119.33 235.204 105.352L251.601 73.7373Z" fill="white"/>
<path opacity="0.2" d="M258.913 91.5469C258.913 93.6388 260.515 104.287 264.482 111.637C264.595 106.624 264.774 102.044 264.982 97.8416L258.913 91.5469Z" fill="#407BFF"/>
<path opacity="0.2" d="M220.381 89.6816C219.232 91.8773 215.915 101.187 214.228 111.355C215.001 110.818 215.736 110.262 216.443 109.697C219.048 107.534 221.44 105.126 223.585 102.507L224 101.998L220.381 89.6816Z" fill="#407BFF"/>
<path d="M232.688 74.6514L227.402 75.2921C224.868 75.6039 222.528 76.8079 220.801 78.6884C219.074 80.5688 218.074 83.0028 217.979 85.5541C217.375 101.215 216.15 132.501 215.481 143.403C214.539 158.188 215.208 238.531 215.208 238.531L227.901 240.755C227.901 240.755 231.124 196.522 235.393 147.38C236.488 132.794 236.749 118.158 236.175 103.543L232.688 74.6514Z" fill="#407BFF"/>
<path opacity="0.8" d="M232.688 74.6514L227.402 75.2921C224.868 75.6039 222.528 76.8079 220.801 78.6884C219.074 80.5688 218.074 83.0028 217.979 85.5541C217.375 101.215 216.15 132.501 215.481 143.403C214.539 158.188 215.208 238.531 215.208 238.531L227.901 240.755C227.901 240.755 231.124 196.522 235.393 147.38C236.488 132.794 236.749 118.158 236.175 103.543L232.688 74.6514Z" fill="white"/>
<path d="M238.154 78.9956C239.335 80.8915 240.284 82.9227 240.981 85.0453C240.981 85.0453 253.353 80.7954 252.911 73.9824C252.911 73.9824 251.026 72.8705 249.895 71.9658C249.886 71.9658 249.33 76.2628 238.154 78.9956Z" fill="#F5F5F5"/>
<path d="M238.154 78.9958C236.744 80.6252 235.561 82.4384 234.639 84.3859C233.117 83.2419 231.996 81.6462 231.436 79.8268C230.876 78.0075 230.905 76.0576 231.52 74.2559C232.624 73.8103 233.762 73.4511 234.922 73.1816C234.922 73.1816 234.026 77.5352 238.154 78.9958Z" fill="#F5F5F5"/>
<path opacity="0.2" d="M251.007 147.521L265.189 159.706L255.502 154.966L251.007 147.521Z" fill="#407BFF"/>
<path d="M265.246 78.3828C265.849 79.2215 266.301 79.8811 266.81 80.6256L268.252 82.8023C269.194 84.2598 270.108 85.733 270.994 87.2218C272.775 90.209 274.452 93.2621 275.998 96.4566C277.594 99.7243 278.951 103.104 280.059 106.568C280.648 108.419 281.114 110.308 281.454 112.222C281.812 114.294 281.973 116.395 281.934 118.498C281.759 122.465 280.993 126.384 279.663 130.126C278.459 133.569 276.971 136.907 275.215 140.105C273.544 143.198 271.704 146.196 269.703 149.085C268.723 150.524 267.711 151.938 266.668 153.326C266.15 154.023 265.613 154.721 265.067 155.408C264.52 156.096 264.002 156.737 263.323 157.529L253.363 148.888C253.74 148.435 254.305 147.794 254.72 147.21L256.114 145.401C257.057 144.176 257.924 142.932 258.781 141.632C260.473 139.119 262.024 136.514 263.427 133.829C264.772 131.262 265.898 128.586 266.791 125.829C267.615 123.398 268.064 120.856 268.12 118.29C268.007 115.791 267.495 113.325 266.603 110.987C265.613 108.253 264.413 105.601 263.012 103.053C261.58 100.414 259.987 97.7947 258.301 95.241C257.443 93.9689 256.557 92.7062 255.653 91.4717L254.277 89.6342C253.825 89.0499 253.335 88.3903 252.929 87.9286L265.246 78.3828Z" fill="#407BFF"/>
<path opacity="0.8" d="M265.246 78.3828C265.849 79.2215 266.301 79.8811 266.81 80.6256L268.252 82.8023C269.194 84.2598 270.108 85.733 270.994 87.2218C272.775 90.209 274.452 93.2621 275.998 96.4566C277.594 99.7243 278.951 103.104 280.059 106.568C280.648 108.419 281.114 110.308 281.454 112.222C281.812 114.294 281.973 116.395 281.934 118.498C281.759 122.465 280.993 126.384 279.663 130.126C278.459 133.569 276.971 136.907 275.215 140.105C273.544 143.198 271.704 146.196 269.703 149.085C268.723 150.524 267.711 151.938 266.668 153.326C266.15 154.023 265.613 154.721 265.067 155.408C264.52 156.096 264.002 156.737 263.323 157.529L253.363 148.888C253.74 148.435 254.305 147.794 254.72 147.21L256.114 145.401C257.057 144.176 257.924 142.932 258.781 141.632C260.473 139.119 262.024 136.514 263.427 133.829C264.772 131.262 265.898 128.586 266.791 125.829C267.615 123.398 268.064 120.856 268.12 118.29C268.007 115.791 267.495 113.325 266.603 110.987C265.613 108.253 264.413 105.601 263.012 103.053C261.58 100.414 259.987 97.7947 258.301 95.241C257.443 93.9689 256.557 92.7062 255.653 91.4717L254.277 89.6342C253.825 89.0499 253.335 88.3903 252.929 87.9286L265.246 78.3828Z" fill="white"/>
<path d="M252.543 94.7227C252.239 95.4342 251.696 96.0173 251.008 96.3716C250.32 96.726 249.53 96.8293 248.774 96.6639C248.429 96.5887 248.106 96.4373 247.827 96.2209C247.549 96.0045 247.322 95.7286 247.164 95.4133C247.006 95.098 246.92 94.7513 246.913 94.3987C246.907 94.046 246.979 93.6963 247.125 93.3752C247.429 92.6643 247.973 92.0821 248.661 91.7294C249.349 91.3766 250.139 91.2755 250.894 91.4434C251.238 91.5174 251.562 91.6677 251.84 91.8831C252.119 92.0985 252.345 92.3736 252.504 92.6882C252.662 93.0029 252.747 93.3489 252.754 93.701C252.761 94.0531 252.689 94.4022 252.543 94.7227Z" fill="#263238"/>
<path opacity="0.2" d="M252.543 94.7227C252.239 95.4342 251.696 96.0173 251.008 96.3716C250.32 96.726 249.53 96.8293 248.774 96.6639C248.429 96.5887 248.106 96.4373 247.827 96.2209C247.549 96.0045 247.322 95.7286 247.164 95.4133C247.006 95.098 246.92 94.7513 246.913 94.3987C246.907 94.046 246.979 93.6963 247.125 93.3752C247.429 92.6643 247.973 92.0821 248.661 91.7294C249.349 91.3766 250.139 91.2755 250.894 91.4434C251.238 91.5174 251.562 91.6677 251.84 91.8831C252.119 92.0985 252.345 92.3736 252.504 92.6882C252.662 93.0029 252.747 93.3489 252.754 93.701C252.761 94.0531 252.689 94.4022 252.543 94.7227Z" fill="white"/>
<path d="M249.443 93.2908C249.365 93.2921 249.29 93.269 249.226 93.2248C249.148 93.1681 249.095 93.083 249.079 92.9877C249.063 92.8925 249.086 92.7949 249.141 92.7159C256.152 82.9629 254.192 74.2935 254.173 74.2087C254.153 74.1597 254.144 74.1069 254.147 74.0541C254.149 74.0013 254.163 73.9496 254.187 73.9025C254.211 73.8555 254.245 73.8142 254.287 73.7816C254.328 73.7489 254.377 73.7256 254.428 73.7133C254.479 73.7009 254.533 73.6998 254.585 73.7101C254.637 73.7203 254.686 73.7416 254.729 73.7725C254.772 73.8034 254.807 73.8433 254.833 73.8893C254.86 73.9353 254.875 73.9864 254.88 74.0391C254.88 74.1239 256.953 83.1042 249.735 93.14C249.703 93.1878 249.659 93.2267 249.608 93.2531C249.557 93.2795 249.5 93.2924 249.443 93.2908Z" fill="#263238"/>
<path d="M224.999 88.343C224.907 88.3411 224.818 88.3056 224.751 88.2431C224.683 88.1806 224.641 88.0954 224.631 88.0037C223.868 78.4297 228.938 74.896 229.155 74.7546C229.235 74.7024 229.333 74.6831 229.428 74.7006C229.522 74.7182 229.607 74.7712 229.663 74.8489C229.717 74.9301 229.736 75.0293 229.717 75.1247C229.697 75.2201 229.641 75.3039 229.56 75.3577C229.513 75.3577 224.631 78.8255 225.366 87.9472C225.372 88.0432 225.339 88.1373 225.276 88.2096C225.212 88.2818 225.123 88.3263 225.027 88.3336L224.999 88.343Z" fill="#263238"/>
<path d="M251.516 94.4689C251.21 95.1792 250.667 95.7612 249.979 96.1153C249.292 96.4694 248.502 96.5736 247.747 96.41C247.401 96.3364 247.076 96.186 246.797 95.9699C246.517 95.7539 246.29 95.4778 246.132 95.162C245.973 94.8462 245.888 94.4988 245.882 94.1456C245.876 93.7923 245.95 93.4423 246.097 93.1213C246.41 92.4191 246.957 91.8473 247.644 91.5035C248.332 91.1598 249.117 91.0654 249.867 91.2367C250.204 91.3138 250.52 91.464 250.793 91.6767C251.066 91.8893 251.289 92.1593 251.446 92.4675C251.604 92.7757 251.691 93.1147 251.703 93.4605C251.715 93.8063 251.651 94.1505 251.516 94.4689Z" fill="#263238"/>
<path opacity="0.4" d="M251.516 94.4689C251.21 95.1792 250.667 95.7612 249.979 96.1153C249.292 96.4694 248.502 96.5736 247.747 96.41C247.401 96.3364 247.076 96.186 246.797 95.9699C246.517 95.7539 246.29 95.4778 246.132 95.162C245.973 94.8462 245.888 94.4988 245.882 94.1456C245.876 93.7923 245.95 93.4423 246.097 93.1213C246.41 92.4191 246.957 91.8473 247.644 91.5035C248.332 91.1598 249.117 91.0654 249.867 91.2367C250.204 91.3138 250.52 91.464 250.793 91.6767C251.066 91.8893 251.289 92.1593 251.446 92.4675C251.604 92.7757 251.691 93.1147 251.703 93.4605C251.715 93.8063 251.651 94.1505 251.516 94.4689Z" fill="white"/>
<path opacity="0.4" d="M249.933 93.9597C249.771 94.3341 249.485 94.6406 249.122 94.8263C248.759 95.0121 248.342 95.0655 247.944 94.9774C247.764 94.9376 247.595 94.8581 247.449 94.7446C247.303 94.6312 247.184 94.4866 247.101 94.3214C247.018 94.1562 246.973 93.9746 246.969 93.7898C246.965 93.605 247.002 93.4216 247.078 93.253C247.24 92.8797 247.527 92.5744 247.89 92.3888C248.252 92.2033 248.668 92.1491 249.066 92.2353C249.246 92.2751 249.416 92.3546 249.562 92.4681C249.708 92.5815 249.826 92.7261 249.909 92.8913C249.993 93.0565 250.038 93.238 250.042 93.4229C250.046 93.6077 250.009 93.7911 249.933 93.9597Z" fill="white"/>
<path d="M227.864 110.62C227.768 110.618 227.677 110.578 227.61 110.509C227.543 110.441 227.505 110.349 227.505 110.253C227.504 110.205 227.513 110.157 227.53 110.113C227.547 110.068 227.574 110.028 227.607 109.994C227.64 109.959 227.68 109.932 227.724 109.913C227.768 109.895 227.816 109.885 227.864 109.885C228.555 109.865 229.215 109.592 229.718 109.118C230.222 108.644 230.534 108.002 230.596 107.313L231.294 95.0626C231.352 94.2032 231.232 93.341 230.942 92.5301C230.651 91.7193 230.196 90.9773 229.605 90.3507C229.014 89.7242 228.299 89.2267 227.507 88.8894C226.714 88.5522 225.86 88.3824 224.999 88.3909C223.187 88.4128 221.45 89.1163 220.133 90.3614C218.816 91.6065 218.017 93.3017 217.894 95.1097L217.187 107.36C217.162 107.687 217.206 108.016 217.315 108.326C217.425 108.635 217.598 108.918 217.823 109.157C218.048 109.395 218.321 109.584 218.624 109.711C218.926 109.839 219.252 109.901 219.581 109.895C219.678 109.895 219.771 109.933 219.84 110.002C219.909 110.071 219.948 110.165 219.948 110.262C219.946 110.359 219.906 110.451 219.838 110.519C219.769 110.588 219.677 110.627 219.581 110.63C219.154 110.633 218.731 110.549 218.338 110.381C217.946 110.214 217.592 109.967 217.299 109.657C217.006 109.346 216.781 108.979 216.637 108.577C216.493 108.175 216.433 107.748 216.461 107.322L217.168 95.072C217.303 93.079 218.184 91.21 219.635 89.8374C221.086 88.4647 223.001 87.6892 224.999 87.6653C225.96 87.6565 226.913 87.8467 227.798 88.2239C228.683 88.6012 229.479 89.1572 230.139 89.8573C230.798 90.5573 231.305 91.3861 231.629 92.2916C231.953 93.1971 232.086 94.1598 232.019 95.1191L231.322 107.369C231.258 108.246 230.867 109.067 230.227 109.669C229.586 110.271 228.743 110.611 227.864 110.62Z" fill="#263238"/>
<path d="M220.184 110.252C220.184 110.836 219.854 111.317 219.524 111.317C219.194 111.317 218.94 110.836 218.977 110.252C219.015 109.668 219.307 109.178 219.646 109.178C219.986 109.178 220.221 109.658 220.184 110.252Z" fill="#263238"/>
<path d="M228.476 110.252C228.476 110.836 228.146 111.317 227.807 111.317C227.468 111.317 227.223 110.836 227.26 110.252C227.298 109.668 227.59 109.178 227.93 109.178C228.269 109.178 228.504 109.658 228.476 110.252Z" fill="#263238"/>
<path d="M152.6 35.8083L151.931 35.3277C153.9 32.6311 156.669 30.6234 159.844 29.5898C163.019 28.5563 166.439 28.5494 169.619 29.5701L169.364 30.3616C166.352 29.3961 163.112 29.4025 160.103 30.38C157.095 31.3575 154.47 33.2565 152.6 35.8083Z" fill="#407BFF"/>
<path d="M149.754 44.2893H148.925C148.968 42.7842 149.225 41.2929 149.688 39.8604L150.48 40.1148C150.04 41.4646 149.796 42.8703 149.754 44.2893Z" fill="#407BFF"/>
<path d="M194.053 44.9489C193.329 43.3496 192.287 41.9141 190.992 40.7293C189.697 39.5445 188.174 38.6351 186.517 38.0562C184.859 37.4773 183.102 37.241 181.35 37.3616C179.599 37.4822 177.89 37.9572 176.328 38.7578C175.542 37.2242 174.458 35.8627 173.14 34.7527C171.822 33.6428 170.295 32.8068 168.65 32.2935C167.005 31.7803 165.275 31.6001 163.559 31.7635C161.844 31.9269 160.178 32.4306 158.659 33.2452C152.374 36.6187 150.178 44.6096 153.448 50.9703L161.929 67.527C162.341 68.3329 162.908 69.0495 163.597 69.636C164.286 70.2225 165.084 70.6672 165.945 70.9447C166.807 71.2222 167.714 71.327 168.616 71.2531C169.518 71.1793 170.397 70.9281 171.202 70.5142L187.824 62.0332C190.856 60.5282 193.193 57.9155 194.352 54.7357C195.512 51.5558 195.404 48.052 194.053 44.9489Z" fill="#407BFF"/>
</g>
</svg>
