<svg width="32" height="35" viewBox="0 0 32 35" fill="none" xmlns="http://www.w3.org/2000/svg">
<path d="M10 19.6875H18V21.875H10V19.6875ZM10 14.2188H22V16.4062H10V14.2188ZM10 25.1562H15V27.3438H10V25.1562Z" fill="black"/>
<path d="M25 5.46875H22V4.375C22 3.79484 21.7893 3.23844 21.4142 2.8282C21.0391 2.41797 20.5304 2.1875 20 2.1875H12C11.4696 2.1875 10.9609 2.41797 10.5858 2.8282C10.2107 3.23844 10 3.79484 10 4.375V5.46875H7C6.46957 5.46875 5.96086 5.69922 5.58579 6.10945C5.21071 6.51969 5 7.07609 5 7.65625V30.625C5 31.2052 5.21071 31.7616 5.58579 32.1718C5.96086 32.582 6.46957 32.8125 7 32.8125H25C25.5304 32.8125 26.0391 32.582 26.4142 32.1718C26.7893 31.7616 27 31.2052 27 30.625V7.65625C27 7.07609 26.7893 6.51969 26.4142 6.10945C26.0391 5.69922 25.5304 5.46875 25 5.46875ZM12 4.375H20V8.75H12V4.375ZM25 30.625H7V7.65625H10V10.9375H22V7.65625H25V30.625Z" fill="black"/>
</svg>
