<svg width="32" height="32" viewBox="0 0 32 32" fill="none" xmlns="http://www.w3.org/2000/svg">
<path d="M3.99996 6.66667V4H20V6.66667H3.99996ZM9.99996 23.3333H14V20H17.3333V16H14V12.6667H9.99996V16H6.66663V20H9.99996V23.3333ZM5.33329 28C4.59996 28 3.9724 27.7391 3.45063 27.2173C2.92885 26.6956 2.66751 26.0676 2.66663 25.3333V10.6667C2.66663 9.93333 2.92796 9.30578 3.45063 8.784C3.97329 8.26222 4.60085 8.00089 5.33329 8H18.6666C19.4 8 20.028 8.26133 20.5506 8.784C21.0733 9.30667 21.3342 9.93422 21.3333 10.6667V25.3333C21.3333 26.0667 21.0724 26.6947 20.5506 27.2173C20.0288 27.74 19.4008 28.0009 18.6666 28H5.33329ZM5.33329 25.3333H18.6666V10.6667H5.33329V25.3333ZM25.3333 18.3333C24.5555 17.9556 23.9168 17.328 23.4173 16.4507C22.9177 15.5733 22.6675 14.5342 22.6666 13.3333C22.6666 11.8222 23.0502 10.5556 23.8173 9.53333C24.5844 8.51111 25.5342 8 26.6666 8C27.8 8 28.7502 8.51111 29.5173 9.53333C30.2844 10.5556 30.6675 11.8222 30.6666 13.3333C30.6666 14.5333 30.4168 15.5724 29.9173 16.4507C29.4177 17.3289 28.7786 17.9564 28 18.3333V26.6667C28 27.0444 27.872 27.3613 27.616 27.6173C27.36 27.8733 27.0435 28.0009 26.6666 28C26.2888 28 25.9724 27.872 25.7173 27.616C25.4622 27.36 25.3342 27.0436 25.3333 26.6667V18.3333ZM26.6666 16C26.9333 16 27.2222 15.7613 27.5333 15.284C27.8444 14.8067 28 14.1564 28 13.3333C28 12.5111 27.8444 11.8609 27.5333 11.3827C27.2222 10.9044 26.9333 10.6658 26.6666 10.6667C26.4 10.6667 26.1111 10.9058 25.8 11.384C25.4888 11.8622 25.3333 12.512 25.3333 13.3333C25.3333 14.1556 25.4888 14.8058 25.8 15.284C26.1111 15.7622 26.4 16.0009 26.6666 16Z" fill="black"/>
</svg>
