<svg width="19" height="19" viewBox="0 0 19 19" fill="none" xmlns="http://www.w3.org/2000/svg">
<path d="M5.0288 5.06433C6.06786 4.0165 7.50682 3.3663 9.08876 3.36784C10.5472 3.36926 11.8779 3.91684 12.8872 4.81731C13.0318 4.94632 13.2639 4.93784 13.4009 4.80081L15.2525 2.9492C15.4033 2.79842 15.3991 2.55204 15.2425 2.40742C13.5921 0.884077 11.3759 -0.0351591 8.94468 0.00103049C6.48664 0.0376119 4.26319 1.05865 2.64798 2.68351C2.46789 2.86467 2.67855 5.05788 2.67855 5.05788C2.67855 5.05788 4.01496 6.08675 5.0288 5.06433Z" fill="url(#paint0_linear_42_423)"/>
<path d="M5.02857 5.06436C6.06763 4.01653 7.5066 3.36633 9.08853 3.36786C10.547 3.36929 11.8777 3.91687 12.8869 4.81733C13.0316 4.94635 13.2637 4.93787 13.4007 4.80084L14.4633 3.73827C14.3707 3.66675 14.2795 3.59166 14.1904 3.5128C12.8051 2.28595 11.0028 1.50528 9.00205 1.52629C6.92706 1.54809 5.06334 2.39442 3.71574 3.75145C3.56838 3.89984 3.5105 5.06026 3.5105 5.06026C3.5105 5.06026 3.6834 5.04462 5.02857 5.06436Z" fill="url(#paint1_linear_42_423)"/>
<path d="M3.3682 9.03137C3.35396 10.6392 4.00366 12.0954 5.05942 13.1422L4.24908 14.891L2.67825 15.5234C1.02692 13.881 0.00357133 11.6081 9.36584e-06 9.0962C-0.0035526 6.60175 1.00911 4.33171 2.64797 2.68359L5.02879 5.06441C4.01506 6.08669 3.38174 7.48762 3.3682 9.03137Z" fill="url(#paint2_linear_42_423)"/>
<path d="M3.36817 9.03137C3.35392 10.6392 4.00362 12.0954 5.05939 13.1422L3.75749 14.4445C2.40608 13.1023 1.5594 11.2526 1.52699 9.2052C1.49315 7.0755 2.3327 5.14456 3.71617 3.75183L5.02875 5.06441C4.01502 6.0867 3.3817 7.48762 3.36817 9.03137Z" fill="url(#paint3_linear_42_423)"/>
<path d="M13.1113 13.1469C12.0699 14.1788 10.6321 14.8081 9.04608 14.7981C7.4915 14.7883 6.08452 14.1575 5.05988 13.1418L2.6785 15.5232C4.31454 17.1503 6.56677 18.1584 9.05456 18.166C11.5474 18.1737 13.8146 17.1486 15.464 15.4996L14.7833 14.0443L13.1113 13.1469Z" fill="url(#paint4_linear_42_423)"/>
<path d="M13.1112 13.1468C12.0696 14.1787 10.632 14.8082 9.04599 14.7982C7.49144 14.7884 6.08447 14.1576 5.05983 13.1418L3.75751 14.4442C5.12363 15.8013 7.00534 16.6401 9.083 16.6401C11.1607 16.6401 13.0424 15.8013 14.4085 14.4442L13.1112 13.1468Z" fill="url(#paint5_linear_42_423)"/>
<path d="M18.166 8.15017C18.166 7.97111 18.0208 7.82593 17.8417 7.82593H9.38706C9.22667 7.82593 9.09662 7.95598 9.09662 8.11637V10.9118C9.09662 11.0722 9.22667 11.2023 9.38706 11.2023H13.5161C13.9414 11.2023 14.2055 11.6664 13.9868 12.0311C13.7426 12.4382 13.4489 12.8112 13.1146 13.143C13.1133 13.1443 13.1125 13.1455 13.1112 13.1468L15.4642 15.4999C15.5753 15.3888 15.6881 15.2776 15.8017 15.1661C17.2719 13.5357 18.166 11.3725 18.166 9.01267V8.15017Z" fill="url(#paint6_linear_42_423)"/>
<path d="M16.2582 11.4617C16.5905 10.4572 15.846 9.42139 14.7881 9.42139H9.09662V10.9119C9.09662 11.0723 9.22667 11.2023 9.38706 11.2023H13.5161C13.9414 11.2023 14.2055 11.6664 13.9868 12.0311C13.7434 12.4369 13.4508 12.8087 13.1178 13.1398C13.1155 13.1421 13.1136 13.1444 13.1112 13.1468L14.4085 14.4441C15.0981 13.7599 15.6559 12.9431 16.0416 12.0355C16.121 11.8478 16.1933 11.6565 16.2582 11.4617Z" fill="url(#paint7_linear_42_423)"/>
<defs>
<linearGradient id="paint0_linear_42_423" x1="2.57518" y1="2.75853" x2="15.3628" y2="2.75853" gradientUnits="userSpaceOnUse">
<stop stop-color="#FF637B"/>
<stop offset="1" stop-color="#F90217"/>
</linearGradient>
<linearGradient id="paint1_linear_42_423" x1="12.2591" y1="7.67161" x2="4.22499" y2="-0.362582" gradientUnits="userSpaceOnUse">
<stop stop-color="#FF637B"/>
<stop offset="1" stop-color="#F90217"/>
</linearGradient>
<linearGradient id="paint2_linear_42_423" x1="0.216007" y1="6.65643" x2="5.15531" y2="11.5957" gradientUnits="userSpaceOnUse">
<stop stop-color="#FFD833"/>
<stop offset="1" stop-color="#F2B631"/>
</linearGradient>
<linearGradient id="paint3_linear_42_423" x1="6.27765" y1="11.639" x2="1.00007" y2="6.36143" gradientUnits="userSpaceOnUse">
<stop stop-color="#FFD833"/>
<stop offset="1" stop-color="#F2B631"/>
</linearGradient>
<linearGradient id="paint4_linear_42_423" x1="8.30067" y1="14.3535" x2="11.0566" y2="17.1094" gradientUnits="userSpaceOnUse">
<stop stop-color="#28A265"/>
<stop offset="1" stop-color="#28895E"/>
</linearGradient>
<linearGradient id="paint5_linear_42_423" x1="12.6037" y1="17.9649" x2="4.63186" y2="9.99303" gradientUnits="userSpaceOnUse">
<stop stop-color="#28A265"/>
<stop offset="1" stop-color="#28895E"/>
</linearGradient>
<linearGradient id="paint6_linear_42_423" x1="12.9649" y1="8.85762" x2="17.1921" y2="13.0848" gradientUnits="userSpaceOnUse">
<stop stop-color="#7FAEF4"/>
<stop offset="1" stop-color="#4C8DF1"/>
</linearGradient>
<linearGradient id="paint7_linear_42_423" x1="16.5051" y1="14.4686" x2="11.0173" y2="8.98084" gradientUnits="userSpaceOnUse">
<stop stop-color="#7FAEF4"/>
<stop offset="1" stop-color="#4C8DF1"/>
</linearGradient>
</defs>
</svg>
