<svg width="22" height="21" viewBox="0 0 22 21" fill="none" xmlns="http://www.w3.org/2000/svg">
<path d="M9.00002 19H13C13 19.5304 12.7893 20.0391 12.4142 20.4142C12.0392 20.7893 11.5305 21 11 21C10.4696 21 9.96088 20.7893 9.58581 20.4142C9.21073 20.0391 9.00002 19.5304 9.00002 19ZM20 17V18H2.00002V17L4.00002 15V9C4.00002 5.9 6.03002 3.17 9.00002 2.29V2C9.00002 1.46957 9.21073 0.960859 9.58581 0.585786C9.96088 0.210714 10.4696 0 11 0C11.5305 0 12.0392 0.210714 12.4142 0.585786C12.7893 0.960859 13 1.46957 13 2V2.29C15.97 3.17 18 5.9 18 9V15L20 17ZM16 9C16 7.67392 15.4732 6.40215 14.5356 5.46447C13.5979 4.52678 12.3261 4 11 4C9.67394 4 8.40217 4.52678 7.46449 5.46447C6.5268 6.40215 6.00002 7.67392 6.00002 9V16H16V9ZM18.75 1.19L17.33 2.61C18.1758 3.44542 18.8473 4.44042 19.3056 5.53732C19.764 6.63422 20 7.8112 20 9H22C22 6.07 20.84 3.25 18.75 1.19ZM1.89962e-05 9H2.00002C2.00002 6.6 2.96002 4.3 4.67002 2.61L3.25002 1.19C2.2179 2.21157 1.39909 3.42807 0.841161 4.76881C0.283234 6.10955 -0.00268464 7.54781 1.89962e-05 9Z" fill="black"/>
</svg>
