<svg width="32" height="32" viewBox="0 0 32 32" fill="none" xmlns="http://www.w3.org/2000/svg">
<path d="M8.00004 2.66675H20C20.7073 2.66675 21.3856 2.9477 21.8857 3.4478C22.3858 3.94789 22.6667 4.62617 22.6667 5.33341V8.00008H20V5.33341H8.00004V26.6667H20V24.0001H22.6667V26.6667C22.6667 27.374 22.3858 28.0523 21.8857 28.5524C21.3856 29.0525 20.7073 29.3334 20 29.3334H8.00004C7.2928 29.3334 6.61452 29.0525 6.11442 28.5524C5.61433 28.0523 5.33337 27.374 5.33337 26.6667V5.33341C5.33337 4.62617 5.61433 3.94789 6.11442 3.4478C6.61452 2.9477 7.2928 2.66675 8.00004 2.66675Z" fill="black"/>
<path d="M21.4533 20.7866L23.3333 22.6666L30 15.9999L23.3333 9.33325L21.4533 11.2133L24.8933 14.6666H12V17.3333H24.8933L21.4533 20.7866Z" fill="black"/>
</svg>
