<svg width="20" height="20" viewBox="0 0 20 20" fill="none" xmlns="http://www.w3.org/2000/svg">
<path d="M7.5 8.33329L10.215 10.37C10.3832 10.4961 10.5929 10.554 10.802 10.5321C11.0111 10.5101 11.2042 10.4099 11.3425 10.2516L16.6667 4.16663" stroke="#699BF7" stroke-width="2" stroke-linecap="round"/>
<path d="M17.5 9.99999C17.5 11.5671 17.0092 13.0948 16.0964 14.3687C15.1836 15.6425 13.8947 16.5984 12.4108 17.1021C10.9268 17.6058 9.32237 17.6321 7.82275 17.1771C6.32314 16.7222 5.00369 15.809 4.04973 14.5657C3.09577 13.3224 2.55522 11.8115 2.50401 10.2452C2.45279 8.67896 2.89348 7.13599 3.76419 5.83304C4.63489 4.53008 5.89186 3.53259 7.35855 2.98067C8.82525 2.42874 10.428 2.35011 11.9417 2.75582" stroke="#699BF7" stroke-width="2" stroke-linecap="round"/>
</svg>
