<svg width="350" height="330" viewBox="0 0 350 330" fill="none" xmlns="http://www.w3.org/2000/svg">
<path d="M314.93 303.845H291.746V304.066H314.93V303.845Z" fill="#EBEBEB"/>
<path d="M231.854 306.25H225.771V306.471H231.854V306.25Z" fill="#EBEBEB"/>
<path d="M291.046 295.636H277.613V295.857H291.046V295.636Z" fill="#EBEBEB"/>
<path d="M66.955 297.121H36.722V297.342H66.955V297.121Z" fill="#EBEBEB"/>
<path d="M77.623 297.121H73.192V297.342H77.623V297.121Z" fill="#EBEBEB"/>
<path d="M157.605 300.854H92.0289V301.076H157.605V300.854Z" fill="#EBEBEB"/>
<path d="M165.9 250.159H30.737C29.6781 250.157 28.6633 249.624 27.9152 248.677C27.1671 247.73 26.747 246.446 26.747 245.108V5.00672C26.7562 3.67634 27.1804 2.40427 27.9275 1.46683C28.6746 0.529384 29.6842 0.00227902 30.737 0H165.9C166.96 0 167.977 0.532152 168.726 1.47939C169.476 2.42663 169.897 3.71135 169.897 5.05095V245.108C169.897 246.448 169.476 247.733 168.726 248.68C167.977 249.627 166.96 250.159 165.9 250.159ZM30.737 0.176917C29.7245 0.17926 28.7542 0.689145 28.0389 1.59466C27.3237 2.50017 26.922 3.72731 26.922 5.00672V245.108C26.922 246.388 27.3237 247.615 28.0389 248.52C28.7542 249.426 29.7245 249.936 30.737 249.938H165.9C166.913 249.936 167.884 249.426 168.601 248.521C169.317 247.616 169.72 246.388 169.722 245.108V5.00672C169.72 3.7265 169.317 2.49937 168.601 1.59412C167.884 0.688858 166.913 0.179255 165.9 0.176917H30.737Z" fill="#EBEBEB"/>
<path d="M317.317 250.159H182.147C181.088 250.157 180.072 249.624 179.323 248.677C178.574 247.73 178.152 246.447 178.15 245.108V5.00672C178.161 3.67553 178.587 2.40347 179.335 1.46627C180.083 0.529075 181.094 0.00225417 182.147 0H317.317C318.369 0.00460379 319.376 0.532737 320.122 1.46993C320.868 2.40712 321.291 3.67786 321.3 5.00672V245.108C321.3 246.445 320.881 247.727 320.134 248.674C319.388 249.62 318.375 250.154 317.317 250.159ZM182.147 0.176917C181.134 0.179255 180.163 0.688858 179.446 1.59412C178.73 2.49937 178.327 3.7265 178.325 5.00672V245.108C178.327 246.388 178.73 247.616 179.446 248.521C180.163 249.426 181.134 249.936 182.147 249.938H317.317C318.33 249.936 319.301 249.426 320.018 248.521C320.734 247.616 321.137 246.388 321.139 245.108V5.00672C321.137 3.7265 320.734 2.49937 320.018 1.59412C319.301 0.688858 318.33 0.179255 317.317 0.176917H182.147Z" fill="#EBEBEB"/>
<path d="M350 289.611H0V289.832H350V289.611Z" fill="#EBEBEB"/>
<path d="M35.462 231.53L57.862 231.424C58.7345 231.424 59.5714 231.862 60.1884 232.642C60.8053 233.422 61.152 234.479 61.152 235.582V245.569C61.152 246.674 61.4993 247.733 62.1176 248.515C62.7359 249.296 63.5746 249.735 64.449 249.735H97.349C98.2228 249.735 99.0611 249.298 99.6803 248.518C100.3 247.739 100.649 246.682 100.653 245.577V208.903C100.654 208.357 100.74 207.817 100.906 207.314C101.072 206.81 101.316 206.353 101.622 205.969C101.928 205.584 102.291 205.28 102.691 205.073C103.09 204.866 103.518 204.761 103.95 204.763H110.95C111.824 204.763 112.663 204.324 113.281 203.543C113.9 202.761 114.247 201.702 114.247 200.597V180.587C114.247 179.485 114.594 178.427 115.211 177.648C115.828 176.868 116.664 176.43 117.537 176.43H129.01C129.882 176.432 130.718 176.871 131.334 177.65C131.951 178.429 132.298 179.485 132.3 180.587V186.479C132.3 187.584 132.647 188.643 133.266 189.425C133.884 190.206 134.723 190.645 135.597 190.645H136.668C137.541 190.645 138.377 190.207 138.994 189.427C139.611 188.648 139.958 187.59 139.958 186.488V164.709C139.958 163.604 140.305 162.544 140.924 161.763C141.542 160.982 142.381 160.543 143.255 160.543H154.616C155.49 160.545 156.327 160.985 156.945 161.766C157.563 162.547 157.911 163.605 157.913 164.709V186.523C157.913 187.626 158.26 188.683 158.877 189.463C159.494 190.242 160.33 190.68 161.203 190.68H164.745C165.618 190.68 166.454 190.242 167.071 189.463C167.688 188.683 168.035 187.626 168.035 186.523V142.559V120.533H168.735V134.103C168.796 133.982 168.864 133.867 168.938 133.758L195.083 114.783C195.636 114.023 195.951 114.783 195.951 113.766V86.6096L197.75 84.982L230.412 55.4105V43.6367H231.112V54.7736L231.245 54.6497V186.532C231.245 187.637 231.592 188.696 232.211 189.478C232.829 190.259 233.668 190.698 234.542 190.698H238.833C239.266 190.699 239.694 190.593 240.094 190.384C240.494 190.176 240.858 189.87 241.164 189.484C241.47 189.097 241.713 188.639 241.879 188.134C242.045 187.629 242.13 187.087 242.13 186.541L243.159 137.305C243.167 136.83 243.255 136.362 243.418 135.934L249.802 119.127H250.278V100.055C250.278 99.1629 250.558 98.307 251.057 97.6752C251.555 97.0434 252.232 96.6873 252.938 96.685H254.226V83.204H254.926V96.685H255.626C256.333 96.6873 257.01 97.0431 257.51 97.6747C258.01 98.3062 258.291 99.1621 258.293 100.055V100.94H261.282V100.055C261.282 99.1629 261.562 98.307 262.061 97.6752C262.559 97.0434 263.236 96.6873 263.942 96.685H265.076V83.204H265.776V96.685H266.602C267.309 96.6873 267.986 97.0431 268.486 97.6747C268.986 98.3062 269.267 99.1621 269.269 100.055V119.091H269.745L276.136 135.898C276.296 136.328 276.384 136.795 276.395 137.269L277.445 186.452C277.445 187.557 277.792 188.617 278.411 189.398C279.029 190.18 279.868 190.618 280.742 190.618H286.769C287.641 190.621 288.477 191.06 289.093 191.839C289.71 192.618 290.057 193.674 290.059 194.776V200.508C290.058 201.054 290.143 201.596 290.308 202.101C290.473 202.605 290.715 203.064 291.021 203.451C291.326 203.837 291.689 204.143 292.089 204.352C292.488 204.56 292.917 204.667 293.349 204.666H297.654C298.43 204.66 299.183 205.003 299.778 205.633C300.373 206.263 300.771 207.14 300.902 208.107L312.368 284.251C312.41 284.51 312.431 284.774 312.431 285.039C312.427 286.143 312.078 287.2 311.458 287.979C310.839 288.759 310.001 289.196 309.127 289.196H35.497C34.804 289.258 35.462 231.53 35.462 231.53Z" fill="#F5F5F5"/>
<path d="M306.306 40.1779H260.183C254.275 40.1779 252.847 29.7221 258.426 27.2719L258.643 27.1834C252.469 20.6817 266 6.97958 280.7 25.9538C279.552 19.6291 292.6 21.9113 296.625 30.5448C298.074 24.8746 310.548 34.72 306.306 40.1779Z" fill="#F5F5F5"/>
<path d="M74.27 120.241H48.209C48.209 120.241 42.098 117.33 42.889 109.626C43.68 101.921 52.906 108.343 52.906 108.343C52.906 108.343 50.106 97.5953 59.045 100.647C61.5638 101.46 63.8371 103.193 65.5802 105.63C67.3234 108.068 68.459 111.1 68.845 114.349C68.845 114.349 80.591 111.766 74.27 120.241Z" fill="#F5F5F5"/>
<path d="M259.903 204.931H253.309V234.803H259.903V204.931Z" fill="#E0E0E0"/>
<path d="M272.853 224.126H266.259V234.803H272.853V224.126Z" fill="#EBEBEB"/>
<path d="M285.796 218.836H279.202V234.794H285.796V218.836Z" fill="#EBEBEB"/>
<path d="M298.746 228.682H292.152V234.803H298.746V228.682Z" fill="#EBEBEB"/>
<path d="M311.696 212.804H305.102V234.794H311.696V212.804Z" fill="#E6E6E6"/>
<path d="M86.261 207.169H38.297V214.591H86.261V207.169Z" fill="#EBEBEB"/>
<path d="M103.404 217.704H38.297V225.126H103.404V217.704Z" fill="#E0E0E0"/>
<path d="M57.288 228.142H38.297V235.563H57.288V228.142Z" fill="#EBEBEB"/>
<path d="M210.693 74.5225V73.1929L213.8 70.3165C214.064 70.0608 214.286 69.8307 214.465 69.6262C214.646 69.4216 214.784 69.2213 214.878 69.0253C214.972 68.8264 215.019 68.6119 215.019 68.3818C215.019 68.1262 214.96 67.906 214.844 67.7213C214.727 67.5338 214.568 67.3904 214.367 67.2909C214.165 67.1887 213.936 67.1375 213.681 67.1375C213.414 67.1375 213.181 67.1915 212.982 67.2994C212.783 67.4074 212.629 67.5622 212.521 67.7639C212.414 67.9656 212.36 68.2057 212.36 68.4841H210.608C210.608 67.9131 210.737 67.4173 210.996 66.9969C211.254 66.5764 211.617 66.2512 212.083 66.021C212.548 65.7909 213.085 65.6759 213.693 65.6759C214.318 65.6759 214.862 65.7867 215.325 66.0083C215.791 66.227 216.154 66.531 216.412 66.9202C216.671 67.3094 216.8 67.7554 216.8 68.2583C216.8 68.5878 216.735 68.9131 216.604 69.2341C216.476 69.5551 216.247 69.9117 215.918 70.3037C215.588 70.6929 215.124 71.1602 214.524 71.7057L213.25 72.9543V73.0139H216.915V74.5225H210.693ZM221.478 74.6418C220.841 74.6418 220.275 74.5324 219.778 74.3137C219.283 74.0921 218.893 73.7881 218.606 73.4017C218.322 73.0125 218.175 72.5637 218.167 72.0551H220.025C220.036 72.2682 220.106 72.4557 220.233 72.6176C220.364 72.7767 220.537 72.9003 220.753 72.9884C220.969 73.0764 221.212 73.1205 221.482 73.1205C221.763 73.1205 222.012 73.0708 222.228 72.9713C222.444 72.8719 222.613 72.7341 222.735 72.558C222.857 72.3818 222.918 72.1787 222.918 71.9486C222.918 71.7156 222.853 71.5097 222.722 71.3307C222.594 71.1489 222.41 71.0068 222.168 70.9046C221.929 70.8023 221.645 70.7512 221.316 70.7512H220.502V69.396H221.316C221.594 69.396 221.84 69.3477 222.053 69.2512C222.269 69.1546 222.437 69.021 222.556 68.8506C222.675 68.6773 222.735 68.4756 222.735 68.2455C222.735 68.0267 222.682 67.835 222.577 67.6702C222.475 67.5026 222.33 67.3719 222.143 67.2781C221.958 67.1844 221.742 67.1375 221.495 67.1375C221.245 67.1375 221.016 67.183 220.809 67.2739C220.601 67.3619 220.435 67.4884 220.31 67.6531C220.185 67.8179 220.118 68.0111 220.11 68.2327H218.341C218.35 67.7298 218.493 67.2867 218.772 66.9031C219.05 66.5196 219.425 66.2199 219.897 66.004C220.371 65.7852 220.907 65.6759 221.503 65.6759C222.106 65.6759 222.633 65.7852 223.084 66.004C223.536 66.2227 223.887 66.5182 224.137 66.8904C224.39 67.2597 224.515 67.6744 224.512 68.1347C224.515 68.6233 224.363 69.031 224.056 69.3577C223.752 69.6844 223.356 69.8918 222.867 69.9798V70.048C223.509 70.1304 223.998 70.3534 224.333 70.7171C224.671 71.0779 224.839 71.5296 224.836 72.0722C224.839 72.5693 224.695 73.0111 224.405 73.3975C224.118 73.7838 223.722 74.0878 223.216 74.3094C222.711 74.531 222.131 74.6418 221.478 74.6418ZM210.744 80.7952H213.02L215.423 86.6588H215.526L217.929 80.7952H220.205V89.5225H218.415V83.8421H218.342L216.084 89.4798H214.865L212.607 83.8208H212.534V89.5225H210.744V80.7952ZM223.57 80.7952V89.5225H221.725V80.7952H223.57ZM225.088 89.5225V80.7952H226.933V88.0012H230.675V89.5225H225.088ZM231.897 89.5225V80.7952H237.778V82.3165H233.742V84.396H237.475V85.9173H233.742V88.0012H237.795V89.5225H231.897ZM243.979 83.3051C243.945 82.9614 243.798 82.6943 243.54 82.504C243.281 82.3137 242.931 82.2185 242.487 82.2185C242.186 82.2185 241.932 82.2611 241.725 82.3463C241.517 82.4287 241.358 82.5438 241.247 82.6915C241.139 82.8392 241.085 83.0068 241.085 83.1943C241.08 83.3506 241.112 83.4869 241.183 83.6034C241.257 83.7199 241.358 83.8208 241.486 83.906C241.614 83.9884 241.762 84.0608 241.929 84.1233C242.097 84.183 242.276 84.2341 242.466 84.2767L243.25 84.4642C243.631 84.5494 243.98 84.6631 244.298 84.8051C244.617 84.9472 244.892 85.1219 245.125 85.3293C245.358 85.5367 245.539 85.781 245.666 86.0622C245.797 86.3435 245.864 86.6659 245.867 87.0296C245.864 87.5637 245.727 88.0267 245.458 88.4188C245.191 88.808 244.804 89.1105 244.298 89.3264C243.796 89.5395 243.189 89.646 242.479 89.646C241.774 89.646 241.161 89.5381 240.638 89.3222C240.118 89.1063 239.712 88.7867 239.419 88.3634C239.129 87.9372 238.977 87.4102 238.963 86.7824H240.749C240.769 87.075 240.852 87.3193 241 87.5154C241.151 87.7085 241.351 87.8548 241.601 87.9543C241.854 88.0509 242.139 88.0992 242.458 88.0992C242.77 88.0992 243.041 88.0537 243.271 87.9628C243.504 87.8719 243.685 87.7455 243.813 87.5835C243.941 87.4216 244.004 87.2355 244.004 87.0253C244.004 86.8293 243.946 86.6645 243.83 86.531C243.716 86.3975 243.548 86.2838 243.327 86.1901C243.108 86.0963 242.84 86.0111 242.521 85.9344L241.571 85.6958C240.835 85.5168 240.254 85.2369 239.828 84.8563C239.402 84.4756 239.191 83.9628 239.193 83.3179C239.191 82.7895 239.331 82.3279 239.615 81.933C239.902 81.5381 240.296 81.2298 240.796 81.0083C241.296 80.7867 241.864 80.6759 242.5 80.6759C243.148 80.6759 243.713 80.7867 244.196 81.0083C244.682 81.2298 245.06 81.5381 245.33 81.933C245.6 82.3279 245.739 82.7852 245.747 83.3051H243.979Z" fill="#E0E0E0"/>
<path d="M175 329.073C249.958 329.073 310.723 324.59 310.723 319.059C310.723 313.529 249.958 309.046 175 309.046C100.042 309.046 39.277 313.529 39.277 319.059C39.277 324.59 100.042 329.073 175 329.073Z" fill="#F5F5F5"/>
<path d="M239.792 97.8083H221.27L202.755 121.205L167.93 143.214H131.446L95.515 188.619H69.622V196.465H98.084L134.015 151.06H169.393L206.43 127.654L223.846 105.655H241.255L267.183 89.2721V80.4971L239.792 97.8083Z" fill="#407BFF"/>
<path d="M69.405 154.979C68.5747 154.973 67.7517 155.174 66.9834 155.572C66.215 155.969 65.5163 156.555 64.9276 157.295C64.3389 158.035 63.8717 158.914 63.5529 159.883C63.2341 160.852 63.07 161.891 63.07 162.94C63.07 165.753 65.639 171.494 67.501 175.324C68.565 177.491 69.405 179.03 69.405 179.03C69.405 179.03 70.245 177.491 71.295 175.324C73.164 171.529 75.726 165.788 75.726 162.94C75.726 161.892 75.5624 160.855 75.2444 159.887C74.9265 158.919 74.4606 158.041 73.8734 157.301C73.2861 156.561 72.5891 155.976 71.8224 155.577C71.0556 155.178 70.2341 154.975 69.405 154.979ZM69.405 166.912C68.834 166.913 68.2755 166.701 67.8001 166.301C67.3248 165.901 66.954 165.332 66.7349 164.666C66.5157 164 66.458 163.266 66.5691 162.558C66.6802 161.851 66.955 161.2 67.3587 160.69C67.7625 160.18 68.277 159.833 68.8371 159.692C69.3972 159.552 69.9776 159.625 70.5049 159.902C71.0322 160.179 71.4825 160.647 71.7989 161.248C72.1153 161.849 72.2834 162.554 72.282 163.276C72.282 164.24 71.9789 165.165 71.4394 165.847C70.8998 166.529 70.168 166.912 69.405 166.912Z" fill="#407BFF"/>
<g opacity="0.5">
<path d="M239.792 97.8083H221.27L202.755 121.205L167.93 143.214H131.446L95.515 188.619H69.622V196.465H98.084L134.015 151.06H169.393L206.43 127.654L223.846 105.655H241.255L267.183 89.2721V80.4971L239.792 97.8083Z" fill="white"/>
<path d="M69.405 154.979C68.5747 154.973 67.7517 155.174 66.9834 155.572C66.215 155.969 65.5163 156.555 64.9276 157.295C64.3389 158.035 63.8717 158.914 63.5529 159.883C63.2341 160.852 63.07 161.891 63.07 162.94C63.07 165.753 65.639 171.494 67.501 175.324C68.565 177.491 69.405 179.03 69.405 179.03C69.405 179.03 70.245 177.491 71.295 175.324C73.164 171.529 75.726 165.788 75.726 162.94C75.726 161.892 75.5624 160.855 75.2444 159.887C74.9265 158.919 74.4606 158.041 73.8734 157.301C73.2861 156.561 72.5891 155.976 71.8224 155.577C71.0556 155.178 70.2341 154.975 69.405 154.979ZM69.405 166.912C68.834 166.913 68.2755 166.701 67.8001 166.301C67.3248 165.901 66.954 165.332 66.7349 164.666C66.5157 164 66.458 163.266 66.5691 162.558C66.6802 161.851 66.955 161.2 67.3587 160.69C67.7625 160.18 68.277 159.833 68.8371 159.692C69.3972 159.552 69.9776 159.625 70.5049 159.902C71.0322 160.179 71.4825 160.647 71.7989 161.248C72.1153 161.849 72.2834 162.554 72.282 163.276C72.282 164.24 71.9789 165.165 71.4394 165.847C70.8998 166.529 70.168 166.912 69.405 166.912Z" fill="white"/>
</g>
<path d="M267.183 42.9111C266.126 42.91 265.079 43.1719 264.102 43.6821C263.125 44.1922 262.237 44.9406 261.489 45.8844C260.741 46.8282 260.147 47.949 259.741 49.1827C259.336 50.4165 259.127 51.7391 259.126 53.075C259.126 56.6133 262.388 63.9641 264.768 68.7939C266.119 71.5627 267.183 73.5176 267.183 73.5176C267.183 73.5176 268.254 71.5627 269.598 68.7939C271.971 63.9641 275.233 56.6487 275.233 53.075C275.231 50.3785 274.382 47.7933 272.873 45.8875C271.363 43.9817 269.317 42.9111 267.183 42.9111ZM267.183 58.0994C266.457 58.0994 265.748 57.8275 265.145 57.3182C264.542 56.8089 264.072 56.085 263.794 55.238C263.517 54.391 263.444 53.459 263.585 52.5599C263.727 51.6607 264.076 50.8348 264.589 50.1866C265.102 49.5384 265.756 49.0969 266.467 48.918C267.179 48.7392 267.916 48.831 268.587 49.1818C269.257 49.5326 269.83 50.1267 270.233 50.889C270.636 51.6512 270.851 52.5474 270.851 53.4642C270.852 54.0732 270.758 54.6765 270.574 55.2394C270.39 55.8023 270.119 56.3137 269.779 56.7444C269.438 57.175 269.033 57.5164 268.588 57.7489C268.142 57.9814 267.665 58.1005 267.183 58.0994Z" fill="#407BFF"/>
<g opacity="0.5">
<path d="M267.183 42.9111C266.126 42.91 265.079 43.1719 264.102 43.6821C263.125 44.1922 262.237 44.9406 261.489 45.8844C260.741 46.8282 260.147 47.949 259.741 49.1827C259.336 50.4165 259.127 51.7391 259.126 53.075C259.126 56.6133 262.388 63.9641 264.768 68.7939C266.119 71.5627 267.183 73.5176 267.183 73.5176C267.183 73.5176 268.254 71.5627 269.598 68.7939C271.971 63.9641 275.233 56.6487 275.233 53.075C275.231 50.3785 274.382 47.7933 272.873 45.8875C271.363 43.9817 269.317 42.9111 267.183 42.9111ZM267.183 58.0994C266.457 58.0994 265.748 57.8275 265.145 57.3182C264.542 56.8089 264.072 56.085 263.794 55.238C263.517 54.391 263.444 53.459 263.585 52.5599C263.727 51.6607 264.076 50.8348 264.589 50.1866C265.102 49.5384 265.756 49.0969 266.467 48.918C267.179 48.7392 267.916 48.831 268.587 49.1818C269.257 49.5326 269.83 50.1267 270.233 50.889C270.636 51.6512 270.851 52.5474 270.851 53.4642C270.852 54.0732 270.758 54.6765 270.574 55.2394C270.39 55.8023 270.119 56.3137 269.779 56.7444C269.438 57.175 269.033 57.5164 268.588 57.7489C268.142 57.9814 267.665 58.1005 267.183 58.0994Z" fill="white"/>
</g>
<path d="M116.536 43.9731C116.269 43.7473 115.946 43.6541 115.628 43.7112C115.31 43.7684 115.02 43.9719 114.814 44.2827L113.085 47.5468L104.769 41.1778C104.503 40.9878 104.194 40.9209 103.893 40.9887C103.593 41.0565 103.321 41.2548 103.124 41.5493L100.261 46.1934C100.158 46.3343 100.079 46.5013 100.03 46.6834C99.9815 46.8655 99.9638 47.0585 99.9784 47.2499C99.9929 47.4412 100.039 47.6265 100.115 47.7935C100.19 47.9605 100.292 48.1056 100.415 48.2191C100.682 48.4448 101.005 48.5381 101.323 48.4809C101.641 48.4238 101.931 48.2203 102.137 47.9095L104.279 44.3711L106.085 45.7511L102.235 52.0316L95.522 62.9119C95.4238 63.0583 95.3513 63.2294 95.3095 63.4138C95.2676 63.5983 95.2572 63.7919 95.2791 63.9818C95.3009 64.1717 95.3545 64.3535 95.4362 64.5153C95.5179 64.677 95.6259 64.8149 95.753 64.9199C95.9477 65.0838 96.177 65.1701 96.411 65.1676C96.6128 65.1697 96.8124 65.1134 96.9944 65.003C97.1764 64.8926 97.336 64.7311 97.461 64.5307L103.271 55.1276L103.439 54.8534C103.607 54.5273 103.868 54.2957 104.168 54.2067C104.468 54.1178 104.784 54.1783 105.049 54.3757L106.701 55.7291L102.263 58.9048C102.125 58.9933 102.003 59.1158 101.904 59.265C101.804 59.4143 101.729 59.5872 101.684 59.7736C101.638 59.9599 101.622 60.156 101.638 60.3502C101.653 60.5443 101.699 60.7326 101.773 60.9039C101.95 61.2349 102.221 61.4673 102.53 61.5529C102.839 61.6385 103.162 61.5709 103.432 61.3639L109.536 56.9941C109.712 56.8729 109.862 56.6992 109.973 56.488C110.084 56.2768 110.153 56.0345 110.173 55.7822C110.187 55.5413 110.15 55.3 110.065 55.0837C109.98 54.8673 109.85 54.6839 109.69 54.5526L108.192 53.3319L110.6 49.1832L112.595 50.7136C112.785 50.8524 112.999 50.9284 113.218 50.9347C113.411 50.9306 113.602 50.8758 113.778 50.7737C113.954 50.6717 114.111 50.5247 114.24 50.3421L116.69 45.9988C116.793 45.8578 116.872 45.6908 116.921 45.5087C116.969 45.3266 116.987 45.1336 116.973 44.9423C116.958 44.7509 116.912 44.5657 116.836 44.3986C116.761 44.2316 116.659 44.0866 116.536 43.9731Z" fill="#407BFF"/>
<path d="M111.09 44.6536C111.717 44.6673 112.326 44.3847 112.797 43.8612C113.269 43.3377 113.568 42.6109 113.638 41.8229C113.652 41.4453 113.603 41.0683 113.496 40.7155C113.388 40.3628 113.224 40.042 113.014 39.7735C112.803 39.505 112.551 39.2946 112.273 39.1555C111.995 39.0165 111.697 38.9518 111.398 38.9657C110.771 38.952 110.162 39.2345 109.691 39.758C109.219 40.2815 108.92 41.0084 108.85 41.7964C108.835 42.1743 108.883 42.5519 108.99 42.9053C109.097 43.2586 109.261 43.58 109.472 43.8488C109.682 44.1175 109.935 44.3279 110.214 44.4665C110.492 44.605 110.791 44.6688 111.09 44.6536Z" fill="#407BFF"/>
<path d="M103.04 74.6051V76.0115H98.602V74.897L100.87 72.1902C101.388 71.5621 101.479 71.1817 101.479 70.8191C101.479 70.2352 101.164 69.9345 100.541 69.9345C100.305 69.9238 100.071 69.9859 99.8592 70.1154C99.6469 70.2449 99.4629 70.4378 99.323 70.6775L98.336 69.8726C98.6039 69.4169 98.9571 69.0523 99.3639 68.8115C99.7707 68.5706 100.218 68.4611 100.667 68.4926C101.976 68.4926 102.851 69.3772 102.851 70.6864C102.843 71.1473 102.749 71.5994 102.578 72.0065C102.406 72.4135 102.162 72.7642 101.864 73.0305L100.513 74.6404L103.04 74.6051Z" fill="#407BFF"/>
<path d="M103.6 72.2971C103.6 69.8468 104.671 68.458 106.12 68.458C107.569 68.458 108.633 69.8468 108.633 72.2971C108.633 74.7474 107.569 76.1362 106.12 76.1362C104.671 76.1362 103.6 74.7474 103.6 72.2971ZM107.268 72.2971C107.268 70.6075 106.799 69.9087 106.12 69.9087C105.441 69.9087 104.972 70.6075 104.972 72.2971C104.972 73.9866 105.448 74.6854 106.12 74.6854C106.792 74.6854 107.261 73.9866 107.261 72.2971H107.268Z" fill="#407BFF"/>
<path d="M214.053 35.799C214.053 33.3488 215.131 31.96 216.573 31.96C218.015 31.96 219.093 33.3488 219.093 35.799C219.093 38.2493 218.029 39.6381 216.573 39.6381C215.117 39.6381 214.053 38.2493 214.053 35.799ZM217.721 35.799C217.721 34.1095 217.252 33.4107 216.573 33.4107C215.894 33.4107 215.432 34.1095 215.432 35.799C215.432 37.4886 215.901 38.1874 216.573 38.1874C217.245 38.1874 217.7 37.4886 217.7 35.799H217.721Z" fill="#407BFF"/>
<path d="M224.609 37.1525C224.602 37.5038 224.537 37.8495 224.419 38.1678C224.301 38.4861 224.132 38.77 223.923 39.0018C223.714 39.2336 223.469 39.4082 223.204 39.5147C222.939 39.6212 222.66 39.6572 222.383 39.6204C220.766 39.6204 219.758 38.3378 219.758 35.9406C219.758 33.3753 220.983 31.9423 222.754 31.9423C223.327 31.9201 223.894 32.0976 224.392 32.4553L223.888 33.7114C223.559 33.4525 223.176 33.3232 222.789 33.3399C222.564 33.322 222.338 33.3661 222.127 33.4692C221.916 33.5723 221.726 33.732 221.569 33.9372C221.412 34.1424 221.292 34.3883 221.217 34.6578C221.143 34.9274 221.115 35.2141 221.137 35.4983C221.334 35.2724 221.565 35.0988 221.817 34.9879C222.068 34.8769 222.334 34.8309 222.6 34.8526C222.853 34.8285 223.107 34.8697 223.347 34.9736C223.587 35.0776 223.807 35.2422 223.995 35.4573C224.183 35.6725 224.335 35.9337 224.44 36.2252C224.546 36.5166 224.603 36.8321 224.609 37.1525ZM223.293 37.2321C223.293 37.0729 223.266 36.9155 223.214 36.7705C223.162 36.6256 223.086 36.4963 222.992 36.3916C222.897 36.2868 222.785 36.2089 222.665 36.1632C222.544 36.1174 222.417 36.1049 222.292 36.1263C222.167 36.1093 222.041 36.1248 221.921 36.172C221.801 36.2192 221.69 36.297 221.595 36.4007C221.499 36.5044 221.422 36.6317 221.367 36.7747C221.313 36.9177 221.282 37.0734 221.277 37.2321C221.277 37.869 221.655 38.3378 222.313 38.3378C222.436 38.3564 222.56 38.3423 222.678 38.2963C222.796 38.2504 222.905 38.1736 222.998 38.0711C223.091 37.9685 223.166 37.8424 223.218 37.7009C223.27 37.5595 223.298 37.4058 223.3 37.2498L223.293 37.2321Z" fill="#407BFF"/>
<path d="M225.148 38.5585C225.167 38.3017 225.261 38.063 225.412 37.8892C225.563 37.7155 225.759 37.6191 225.963 37.6191C226.168 37.6191 226.364 37.7155 226.515 37.8892C226.666 38.063 226.76 38.3017 226.779 38.5585C226.789 38.7019 226.776 38.8464 226.74 38.9829C226.704 39.1195 226.645 39.2449 226.569 39.3513C226.492 39.4577 226.398 39.5427 226.294 39.6009C226.19 39.659 226.077 39.6891 225.963 39.6891C225.849 39.6891 225.737 39.659 225.633 39.6009C225.528 39.5427 225.435 39.4577 225.358 39.3513C225.281 39.2449 225.223 39.1195 225.187 38.9829C225.151 38.8464 225.137 38.7019 225.148 38.5585Z" fill="#407BFF"/>
<path d="M231.868 38.1166V39.5142H227.43V38.3996L229.691 35.6928C230.216 35.0648 230.307 34.6844 230.307 34.3217C230.307 33.7379 229.985 33.4371 229.369 33.4371C229.133 33.4265 228.899 33.4886 228.687 33.6181C228.475 33.7475 228.291 33.9405 228.151 34.1802L227.157 33.3752C227.427 32.92 227.781 32.5559 228.189 32.3152C228.597 32.0745 229.046 31.9646 229.495 31.9953C230.804 31.9953 231.672 32.8798 231.672 34.189C231.666 34.6495 231.573 35.1016 231.403 35.5088C231.233 35.916 230.989 36.2669 230.692 36.5332L229.341 38.1519L231.868 38.1166Z" fill="#407BFF"/>
<path d="M236.775 37.2411C236.775 38.4972 236.012 39.6383 234.339 39.6383C233.546 39.6585 232.767 39.3814 232.099 38.8422L232.624 37.533C233.115 37.971 233.703 38.2031 234.304 38.1964C235.004 38.1964 235.403 37.8514 235.403 37.2411C235.403 36.6307 235.081 36.3565 234.304 36.3565H233.688V35.1977L234.892 33.4285H232.4V32.084H236.516V33.1986L235.2 35.1093C235.629 35.141 236.032 35.3801 236.325 35.777C236.618 36.1739 236.779 36.6981 236.775 37.2411Z" fill="#407BFF"/>
<path d="M237.363 38.5585C237.382 38.3017 237.476 38.063 237.627 37.8892C237.778 37.7155 237.974 37.6191 238.179 37.6191C238.383 37.6191 238.579 37.7155 238.73 37.8892C238.881 38.063 238.975 38.3017 238.994 38.5585C239.005 38.7019 238.991 38.8464 238.955 38.9829C238.919 39.1195 238.861 39.2449 238.784 39.3513C238.707 39.4577 238.614 39.5427 238.509 39.6009C238.405 39.659 238.292 39.6891 238.179 39.6891C238.065 39.6891 237.952 39.659 237.848 39.6009C237.743 39.5427 237.65 39.4577 237.573 39.3513C237.496 39.2449 237.438 39.1195 237.402 38.9829C237.366 38.8464 237.352 38.7019 237.363 38.5585Z" fill="#407BFF"/>
<path d="M241.738 32.084V39.5145H240.38V33.4639H239.204V32.084H241.738Z" fill="#407BFF"/>
<path d="M247.688 37.356C247.688 38.7625 246.694 39.6382 245.203 39.6382C243.712 39.6382 242.732 38.7537 242.732 37.356C242.727 36.9835 242.808 36.6173 242.966 36.3027C243.124 35.9882 243.352 35.7393 243.621 35.5869C243.407 35.4367 243.228 35.216 243.105 34.9481C242.982 34.6803 242.918 34.3752 242.921 34.0654C242.921 32.7562 243.845 31.9424 245.182 31.9424C246.519 31.9424 247.457 32.7562 247.457 34.0654C247.461 34.3754 247.397 34.6808 247.274 34.9489C247.151 35.2169 246.972 35.4375 246.757 35.5869C247.034 35.7302 247.272 35.9754 247.437 36.2908C247.603 36.6062 247.691 36.9773 247.688 37.356ZM246.288 37.3029C246.288 36.6483 245.861 36.2414 245.182 36.2414C244.503 36.2414 244.09 36.6483 244.09 37.3029C244.09 37.9575 244.51 38.3821 245.182 38.3821C245.854 38.3821 246.309 37.9664 246.309 37.3029H246.288ZM244.3 34.1538C244.3 34.72 244.657 35.0384 245.21 35.0384C245.763 35.0384 246.134 34.6934 246.134 34.1538C246.134 33.6142 245.763 33.2693 245.21 33.2693C244.657 33.2693 244.3 33.6142 244.3 34.1538Z" fill="#407BFF"/>
<path d="M202.678 42.1061C202.595 42.1049 202.513 42.0824 202.437 42.0398C202.361 41.9972 202.293 41.9355 202.237 41.8584L198.037 35.9405C197.941 35.7925 197.894 35.6034 197.906 35.4125C197.917 35.2217 197.987 35.0439 198.099 34.9162C198.212 34.7885 198.36 34.7207 198.511 34.727C198.662 34.7332 198.806 34.8131 198.912 34.9498L203.112 40.8677C203.215 41.0136 203.269 41.205 203.261 41.4005C203.253 41.5959 203.184 41.7795 203.07 41.9115C202.964 42.0375 202.824 42.1072 202.678 42.1061Z" fill="#407BFF"/>
<path d="M199.367 24.255V23.3174H196.973V24.3258C194.559 24.7481 192.363 26.3156 190.831 28.7098C189.299 31.1041 188.546 34.1456 188.724 37.2164C188.902 40.2873 189.999 43.1573 191.791 45.2435C193.583 47.3296 195.936 48.4755 198.373 48.4483C200.839 48.4662 203.216 47.2836 205.011 45.1459C206.805 43.0082 207.88 40.0795 208.011 36.9674C208.143 33.8553 207.321 30.7987 205.717 28.4317C204.112 26.0647 201.849 24.5691 199.395 24.255H199.367ZM198.345 46.9622C196.684 46.9622 195.06 46.3396 193.678 45.1733C192.297 44.0069 191.22 42.349 190.584 40.4094C189.949 38.4698 189.782 36.3355 190.106 34.2764C190.43 32.2173 191.231 30.3259 192.405 28.8413C193.58 27.3568 195.077 26.3458 196.706 25.9363C198.336 25.5267 200.025 25.7369 201.56 26.5403C203.094 27.3437 204.406 28.7043 205.329 30.4499C206.252 32.1955 206.745 34.2478 206.745 36.3472C206.736 39.1589 205.848 41.8521 204.274 43.8403C202.701 45.8285 200.57 46.9506 198.345 46.9622Z" fill="#407BFF"/>
<path d="M199.766 20.8672H196.574V22.9194H199.766V20.8672Z" fill="#407BFF"/>
<g opacity="0.6">
<path d="M202.678 42.1061C202.595 42.1049 202.513 42.0824 202.437 42.0398C202.361 41.9972 202.293 41.9355 202.237 41.8584L198.037 35.9405C197.941 35.7925 197.894 35.6034 197.906 35.4125C197.917 35.2217 197.987 35.0439 198.099 34.9162C198.212 34.7885 198.36 34.7207 198.511 34.727C198.662 34.7332 198.806 34.8131 198.912 34.9498L203.112 40.8677C203.215 41.0136 203.269 41.205 203.261 41.4005C203.253 41.5959 203.184 41.7795 203.07 41.9115C202.964 42.0375 202.824 42.1072 202.678 42.1061Z" fill="#407BFF"/>
<path d="M199.367 24.255V23.3174H196.973V24.3258C194.559 24.7481 192.363 26.3156 190.831 28.7098C189.299 31.1041 188.546 34.1456 188.724 37.2164C188.902 40.2873 189.999 43.1573 191.791 45.2435C193.583 47.3296 195.936 48.4755 198.373 48.4483C200.839 48.4662 203.216 47.2836 205.011 45.1459C206.805 43.0082 207.88 40.0795 208.011 36.9674C208.143 33.8553 207.321 30.7987 205.717 28.4317C204.112 26.0647 201.849 24.5691 199.395 24.255H199.367ZM198.345 46.9622C196.684 46.9622 195.06 46.3396 193.678 45.1733C192.297 44.0069 191.22 42.349 190.584 40.4094C189.949 38.4698 189.782 36.3355 190.106 34.2764C190.43 32.2173 191.231 30.3259 192.405 28.8413C193.58 27.3568 195.077 26.3458 196.706 25.9363C198.336 25.5267 200.025 25.7369 201.56 26.5403C203.094 27.3437 204.406 28.7043 205.329 30.4499C206.252 32.1955 206.745 34.2478 206.745 36.3472C206.736 39.1589 205.848 41.8521 204.274 43.8403C202.701 45.8285 200.57 46.9506 198.345 46.9622Z" fill="#407BFF"/>
<path d="M199.766 20.8672H196.574V22.9194H199.766V20.8672Z" fill="#407BFF"/>
</g>
<path d="M245.042 170.272H248.584C245.567 174.244 241.22 178.162 237.09 182.125L234.29 184.726L234.227 184.779L231.497 181.895C227.997 178.083 224.336 174.102 221.739 170.148H226.996L229.299 160.161L232.736 179.303L235.9 169.502L237.895 174.969L240.275 165.416L242.9 174.739L245.042 170.272Z" fill="#407BFF"/>
<path d="M249.333 168.184H244.58L243.089 171.289L240.226 161.072L237.776 171.05L235.886 165.867L232.953 174.845L229.383 155.004L226.38 168.069H221.074C217.819 162.762 216.727 157.525 220.934 152.881C226.198 147.061 232.295 152.483 235.382 156.004C238.637 152.74 245.784 146.061 251.265 154.748C254.023 159.1 252.364 163.85 249.333 168.184Z" fill="#407BFF"/>
<path d="M230.3 138.437V145.867H228.942V139.816H227.766V138.437H230.3Z" fill="#407BFF"/>
<path d="M235.711 144.46V145.867H231.266V144.752L233.534 142.045C234.052 141.417 234.15 141.037 234.15 140.674C234.15 140.09 233.828 139.79 233.205 139.79C232.969 139.773 232.733 139.833 232.52 139.963C232.307 140.093 232.124 140.289 231.987 140.533L231 139.728C231.268 139.273 231.622 138.909 232.028 138.668C232.435 138.427 232.883 138.317 233.331 138.348C234.64 138.348 235.515 139.232 235.515 140.542C235.506 141.002 235.413 141.453 235.243 141.859C235.073 142.266 234.831 142.617 234.535 142.886L233.184 144.496L235.711 144.46Z" fill="#407BFF"/>
<path d="M240.716 143.532C240.716 144.841 239.953 145.991 238.273 145.991C237.481 146.01 236.701 145.733 236.033 145.195L236.565 143.877C237.053 144.318 237.638 144.553 238.238 144.549C238.938 144.549 239.337 144.186 239.337 143.585C239.337 142.983 239.036 142.621 237.937 142.621H236.432L236.733 138.437H240.317V139.816H237.867L237.776 141.223H238.252C240.03 141.223 240.716 142.214 240.716 143.532Z" fill="#407BFF"/>
<path d="M128.415 119.241H123.347V119.905H128.415V119.241Z" fill="#407BFF"/>
<path d="M145.348 119.241H132.279V119.905H145.348V119.241Z" fill="#407BFF"/>
<path d="M130.263 243.516H125.069V242.853C133.749 242.853 142.632 242.853 151.473 242.676V243.339C144.403 243.454 137.284 243.516 130.263 243.516Z" fill="#407BFF"/>
<path d="M120.799 243.472C117.068 243.472 113.253 243.401 109.466 243.33V242.667C113.253 242.738 117.061 242.782 120.792 242.809L120.799 243.472Z" fill="#407BFF"/>
<path d="M105.658 242.667H101.416V243.33H105.658V242.667Z" fill="#407BFF"/>
<path d="M154.651 97.4805H137.83V98.1439H154.651V97.4805Z" fill="#407BFF"/>
<path d="M134.96 97.4805H132.79V98.1439H134.96V97.4805Z" fill="#407BFF"/>
<path d="M216.041 253.335H203.938V253.998H216.041V253.335Z" fill="#407BFF"/>
<path d="M200.851 253.335H194.033V253.998H200.851V253.335Z" fill="#407BFF"/>
<path d="M179.298 113.748C169.498 114.845 156.023 120.303 156.338 123.089L142.24 145.265L137.823 147.335C137.823 147.335 147.07 118.418 149.471 113.668C151.151 110.351 167.363 103.531 175.84 99.6918C179.501 98.0288 182.84 101.187 183.904 103.858C183.904 103.858 187.418 112.846 179.298 113.748Z" fill="#E29471"/>
<path d="M142.24 145.266L141.918 150.095C141.819 151.589 141.264 152.975 140.371 153.961L136.948 157.756C136.747 157.974 136.492 158.094 136.227 158.094C135.963 158.094 135.707 157.974 135.506 157.756L133.182 155.261C132.975 155.042 132.839 154.734 132.801 154.397C132.762 154.059 132.823 153.715 132.972 153.43L135.583 148.432L138.733 143.125C138.733 143.125 142.359 143.408 142.24 145.266Z" fill="#E29471"/>
<path d="M126.448 273.273L106.911 282.95C106.344 282.331 103.019 274.025 103.019 274.025L120.344 263.914L126.448 273.273Z" fill="#E29471"/>
<path d="M107.548 285.241C107.539 285.189 107.541 285.134 107.556 285.084C107.571 285.033 107.598 284.99 107.632 284.958C107.668 284.928 107.711 284.912 107.755 284.912C107.798 284.912 107.841 284.928 107.877 284.958C107.996 285.064 110.936 287.559 111.223 289.452C111.257 289.625 111.263 289.806 111.241 289.982C111.218 290.159 111.166 290.327 111.09 290.478C111.016 290.664 110.898 290.815 110.752 290.91C110.606 291.006 110.44 291.04 110.278 291.009C109.676 290.911 109.053 289.761 108.556 288.47C108.137 287.438 107.8 286.356 107.548 285.241ZM110.705 289.089C110.028 287.815 109.163 286.719 108.157 285.86C108.675 287.833 109.683 290.354 110.376 290.504C110.467 290.504 110.6 290.504 110.768 290.186C110.816 290.096 110.848 289.994 110.862 289.888C110.877 289.781 110.873 289.672 110.852 289.567C110.819 289.399 110.772 289.236 110.712 289.08L110.705 289.089Z" fill="#407BFF"/>
<path d="M107.583 285.073C107.593 285.027 107.614 284.986 107.643 284.954C107.671 284.923 107.707 284.903 107.744 284.896C107.842 284.896 110.061 283.79 111.398 284.542C111.584 284.659 111.749 284.821 111.884 285.021C112.018 285.22 112.12 285.451 112.182 285.701C112.267 285.898 112.296 286.127 112.262 286.348C112.229 286.569 112.136 286.769 112 286.913C111.181 287.665 108.542 286.347 107.639 285.409L107.583 285.321V285.073ZM111.202 285.073C110.224 284.755 109.193 284.826 108.248 285.276C109.326 286.161 111.335 286.975 111.79 286.479C111.832 286.435 111.951 286.329 111.825 285.896L111.741 285.763C111.639 285.447 111.446 285.192 111.202 285.046V285.073Z" fill="#407BFF"/>
<path d="M108.409 282.792L107.191 281.456C106.521 280.72 105.982 279.813 105.61 278.794C105.238 277.776 105.042 276.669 105.035 275.547V272.893C104.965 272.692 104.841 272.528 104.685 272.429C104.529 272.331 104.351 272.304 104.181 272.353L97.027 273.946C96.327 274.176 96.103 276.166 96.138 276.263C97.741 282.57 101.983 295.724 103.516 299.961C105.049 304.198 108.591 302.854 108.262 300.934C106.799 292.345 107.604 288.32 108.479 284.808C108.658 284.149 108.633 283.429 108.409 282.792Z" fill="#407BFF"/>
<g opacity="0.2">
<path d="M114.282 267.452L120.344 263.914L126.448 273.273L117.509 277.696L116.067 275.476C115.199 274.143 114.665 272.514 114.534 270.796L114.282 267.452Z" fill="black"/>
</g>
<path d="M149.422 178.004C148.802 179.799 148.353 181.682 148.085 183.612C146.517 193.758 144.333 228.177 142.912 241.26C142.739 242.561 142.305 243.785 141.652 244.815C140.999 245.844 140.148 246.646 139.181 247.142C133.532 250.504 129.864 251.565 117.124 264.745C118.657 268.868 120.12 271.769 121.513 276.608C121.513 276.608 146.069 264.684 151.683 258.845C159.95 250.247 170.016 205.063 172.942 193.386C174.601 186.77 176.519 178.853 173.46 173.138C171.738 169.936 154.952 160.188 149.422 178.004Z" fill="#263238"/>
<path d="M181.3 101.567C183.155 104.221 184.023 105.99 183.463 113.739C182.364 128.777 183.092 152.714 182.672 156.402C182 162.028 157.15 162.762 152.6 157.579L143.577 111.581C143.284 110.089 143.241 108.537 143.451 107.023C143.661 105.51 144.119 104.069 144.796 102.792C145.473 101.516 146.354 100.433 147.382 99.6122C148.41 98.7919 149.563 98.2525 150.766 98.0288C152.831 97.6307 175.658 93.5794 181.3 101.567Z" fill="#407BFF"/>
<path d="M182.7 156.402C183.398 161.489 183.562 166.67 183.19 171.812C182.584 180.701 184.665 189.551 189.014 196.58C189.014 196.58 156.555 190.609 148.869 179.976L152.6 157.579C162.632 158.815 172.748 158.42 182.7 156.402Z" fill="#263238"/>
<path d="M160.146 86.4319L159.614 85.8834C158.06 83.3978 157.458 80.576 156.814 76.1531C156.639 75.012 156.464 73.7824 156.268 72.4201C155.982 70.6144 156.029 68.7495 156.408 66.9711C156.612 66.0483 156.898 65.158 157.262 64.3174C158.095 68.2449 158.214 72.3228 158.501 76.3477C158.654 79.7929 159.209 83.1908 160.146 86.4319Z" fill="#263238"/>
<path d="M160.839 81.6904C161.231 86.2195 161.504 92.5619 159.572 96.1533C159.231 96.7526 159.04 97.4675 159.023 98.2056C159.007 98.9436 159.167 99.6708 159.481 100.293C160.622 102.478 163.24 105.76 169.281 109.537C171.052 106.777 171.696 104.53 171.815 102.823C171.87 101.851 171.687 100.88 171.292 100.043C170.896 99.2066 170.307 98.5434 169.603 98.1436C166.705 96.4275 167.02 94.2338 167.916 90.8104L160.839 81.6904Z" fill="#E29471"/>
<path opacity="0.2" d="M163.702 85.3701L167.839 90.8103C167.589 91.711 167.402 92.6374 167.279 93.579C165.606 93.0925 163.079 90.9253 162.855 88.5546C162.931 87.4226 163.221 86.3303 163.702 85.3701Z" fill="black"/>
<path d="M176.022 81.6019C175.843 84.2133 174.901 86.6468 173.379 88.4278C171.857 90.2088 169.864 91.2096 167.79 91.235H167.734C166.124 91.2443 164.541 90.7197 163.142 89.7135C162.633 89.3493 162.151 88.929 161.7 88.4574C161.504 88.2628 161.322 88.0593 161.147 87.8736C160.601 87.2687 160.1 86.6025 159.649 85.8833C158.095 83.3976 157.493 80.5758 156.849 76.1529C156.674 75.0118 156.499 73.7822 156.303 72.4199C156.017 70.6143 156.065 68.7493 156.443 66.9709C156.647 66.0482 156.933 65.1578 157.297 64.3172C157.458 63.9399 157.638 63.5765 157.836 63.2292C158.91 61.2664 160.44 59.7742 162.215 58.9596C163.99 58.1449 165.921 58.048 167.741 58.6824C170.863 59.7351 173.012 62.9373 174.37 66.8648C174.503 67.254 174.629 67.6521 174.748 68.0501C175.954 72.3948 176.388 77.0212 176.022 81.6019Z" fill="#E29471"/>
<path d="M167.097 72.9334C167.167 73.6322 167.51 74.163 167.86 74.1099C168.21 74.0568 168.455 73.4288 168.392 72.73C168.329 72.0311 167.972 71.5092 167.622 71.5623C167.272 71.6154 167.062 72.27 167.097 72.9334Z" fill="#263238"/>
<path d="M173.236 71.96C173.313 72.6765 173.656 73.1896 174.006 73.1365C174.356 73.0834 174.601 72.4554 174.531 71.7566C174.461 71.0577 174.118 70.5358 173.768 70.5978C173.418 70.6597 173.173 71.2612 173.236 71.96Z" fill="#263238"/>
<path d="M171.5 73.5352C172.142 75.0544 172.945 76.4561 173.887 77.7015C173.633 77.9977 173.331 78.2206 173.003 78.355C172.674 78.4894 172.326 78.5321 171.983 78.48L171.5 73.5352Z" fill="#EA573F"/>
<path d="M164.5 71.7484C164.569 71.7513 164.637 71.7262 164.693 71.6768C164.75 71.6275 164.793 71.5565 164.815 71.4742C165.05 70.8759 165.382 70.346 165.788 69.9181C166.194 69.4902 166.666 69.1737 167.174 68.9885C167.257 68.9557 167.326 68.8846 167.369 68.7894C167.412 68.6942 167.425 68.5821 167.405 68.4755C167.395 68.4241 167.377 68.3758 167.353 68.3333C167.328 68.2907 167.297 68.2548 167.261 68.2276C167.225 68.2005 167.185 68.1826 167.144 68.175C167.103 68.1674 167.06 68.1704 167.02 68.1836C166.409 68.3983 165.842 68.7785 165.358 69.2978C164.875 69.8172 164.486 70.4632 164.22 71.1911C164.206 71.2416 164.199 71.2953 164.201 71.3489C164.203 71.4026 164.214 71.4551 164.232 71.5037C164.25 71.5522 164.276 71.5957 164.307 71.6316C164.339 71.6675 164.376 71.6952 164.416 71.713C164.442 71.7318 164.47 71.7438 164.5 71.7484Z" fill="#263238"/>
<path d="M174.727 68.0147C174.785 68.0155 174.842 67.9981 174.894 67.9642C174.945 67.9302 174.989 67.8807 175.021 67.82C175.066 67.7257 175.08 67.613 175.061 67.5057C175.041 67.3985 174.989 67.305 174.916 67.2451C174.49 66.8702 173.997 66.6359 173.481 66.5633C172.965 66.4906 172.443 66.5821 171.962 66.8293C171.886 66.872 171.827 66.9507 171.797 67.0484C171.767 67.1462 171.768 67.255 171.801 67.3512C171.818 67.3998 171.842 67.4436 171.872 67.4802C171.902 67.5168 171.938 67.5454 171.977 67.5644C172.016 67.5833 172.058 67.5922 172.1 67.5906C172.142 67.5889 172.183 67.5767 172.221 67.5547C172.601 67.3752 173.009 67.3145 173.411 67.3776C173.814 67.4408 174.198 67.626 174.531 67.9173C174.587 67.9744 174.655 68.0084 174.727 68.0147Z" fill="#263238"/>
<path opacity="0.2" d="M160.146 78.4976C159.859 78.9753 158.935 76.4277 158.466 76.3039C157.911 76.1594 157.345 76.103 156.779 76.1358C156.604 74.9947 156.429 73.7651 156.233 72.4029C155.947 70.5972 155.995 68.7323 156.373 66.9539C156.577 66.0311 156.863 65.1407 157.227 64.3001C157.185 64.0819 157.136 63.8608 157.08 63.6367C157.303 63.4692 157.537 63.3271 157.78 63.2121C158.321 62.9456 158.909 62.8691 159.481 62.9909C159.906 63.1173 160.3 63.3704 160.631 63.729C160.963 64.0875 161.221 64.5412 161.385 65.052C159.019 70.5983 161.035 77.0292 160.146 78.4976Z" fill="black"/>
<path d="M159.6 85.866C157.003 83.0884 154.7 79.674 153.664 75.5518C153.147 73.2295 153.131 70.7748 153.617 68.4419C154.103 66.109 155.074 63.9827 156.429 62.2831C156.639 62.0266 156.989 62.1416 157.255 62.2831C157.521 62.4247 156.87 62.7077 156.947 62.9908C157.024 63.2739 157.038 63.3889 157.08 63.5746C157.122 63.7604 157.185 64.0169 157.227 64.238C156.863 65.0786 156.577 65.969 156.373 66.8918C155.994 68.6702 155.947 70.5351 156.233 72.3408C156.429 73.703 156.604 74.9326 156.779 76.0737C157.444 80.5409 158.046 83.3804 159.6 85.866Z" fill="#263238"/>
<path d="M155.057 79.3115C155.626 80.782 156.633 81.9079 157.857 82.4429C159.474 83.1152 160.363 81.2842 159.957 79.2585C159.593 77.4362 158.333 74.8975 156.681 75.0655C156.314 75.1259 155.964 75.3011 155.664 75.5752C155.364 75.8492 155.123 76.2136 154.962 76.6351C154.802 77.0567 154.727 77.5223 154.745 77.9896C154.763 78.4569 154.872 78.9113 155.064 79.3115H155.057Z" fill="#E29471"/>
<path d="M231.182 285.648L232.799 312.089C232.162 312.593 225.183 316.706 224.903 314.185C224.063 306.48 222.32 290.301 222.32 290.301L231.182 285.648Z" fill="#E29471"/>
<path d="M234.717 311.991C234.675 311.987 234.634 311.967 234.6 311.934C234.567 311.901 234.542 311.856 234.528 311.805C234.515 311.754 234.514 311.698 234.527 311.646C234.539 311.593 234.564 311.547 234.598 311.514C234.71 311.39 237.461 308.577 238.973 308.771C239.116 308.781 239.255 308.827 239.383 308.908C239.511 308.989 239.624 309.102 239.715 309.24C239.834 309.383 239.913 309.569 239.942 309.773C239.971 309.977 239.948 310.187 239.876 310.372C239.631 311.08 238.581 311.496 237.454 311.717C236.551 311.919 235.634 312.011 234.717 311.991ZM238.553 309.338C237.39 309.781 236.306 310.505 235.361 311.469C237.006 311.416 239.211 310.947 239.526 310.151C239.561 310.036 239.589 309.877 239.4 309.576C239.345 309.495 239.278 309.428 239.202 309.379C239.126 309.331 239.044 309.301 238.959 309.293C238.822 309.276 238.683 309.276 238.546 309.293L238.553 309.338Z" fill="#407BFF"/>
<path d="M234.598 311.894C234.567 311.869 234.543 311.833 234.528 311.79C234.513 311.748 234.508 311.701 234.514 311.655C234.514 311.523 234.353 308.524 235.312 307.135C235.454 306.944 235.626 306.792 235.816 306.687C236.006 306.582 236.211 306.527 236.418 306.525C236.593 306.478 236.775 306.51 236.934 306.615C237.092 306.72 237.217 306.891 237.286 307.1C237.615 308.303 235.844 311.116 234.871 311.929L234.787 311.974L234.598 311.894ZM235.634 307.524C235.112 308.611 234.868 309.874 234.934 311.142C235.9 310.098 237.125 307.905 236.88 307.224C236.88 307.162 236.817 306.985 236.446 307.002L236.327 307.073C236.059 307.106 235.811 307.267 235.634 307.524Z" fill="#407BFF"/>
<path d="M233.1 310.24L224.616 311.434C224.441 311.459 224.277 311.561 224.156 311.723C224.034 311.885 223.962 312.096 223.951 312.319L223.076 321.43C223.034 322.315 224.476 323.199 224.56 323.199C229.803 323.102 240.982 321.819 244.657 321.2C248.332 320.581 248.325 315.893 246.757 315.751C239.827 315.008 237.013 312.867 234.612 310.78C234.182 310.359 233.64 310.166 233.1 310.24Z" fill="#407BFF"/>
<g opacity="0.2">
<path d="M223.188 298.298L222.32 290.292L231.182 285.648L231.742 296.476L223.188 298.298Z" fill="black"/>
</g>
<path d="M168.742 186.956C173.194 196.89 194.838 220.066 205.282 239.872C208.131 245.285 215.012 282.57 221.627 293.132L232.127 291.911C235.928 282.57 226.954 234.272 226.954 234.272C223.797 213.042 205.072 189.424 184.429 165.496C180.964 161.489 175.812 160.277 170.625 164.178C169.659 164.886 164.43 177.314 168.742 186.956Z" fill="#263238"/>
<path d="M173.425 171.422C172.599 171.661 171.738 171.006 171.108 169.653C170.451 168.24 170.077 166.646 170.016 165.009L167.727 168.759C167.559 169.143 167.316 169.464 167.02 169.692C166.724 169.92 166.386 170.047 166.04 170.06C165.869 170.035 165.703 169.965 165.555 169.854C165.406 169.743 165.278 169.593 165.179 169.414C165.013 169.087 164.9 168.722 164.847 168.339C164.794 167.956 164.802 167.564 164.871 167.185C165.143 165.773 165.832 164.545 166.795 163.751C167.759 162.957 168.926 162.657 170.058 162.912L169.974 162.532L170.674 162.293L170.716 162.506L170.87 162.258V162.629C171.397 162.506 171.94 162.562 172.444 162.79C172.948 163.019 173.395 163.412 173.74 163.93C174.456 165.102 174.851 166.536 174.867 168.016C174.937 169.37 174.615 171.077 173.502 171.413L173.425 171.422ZM170.737 163.567V163.744C170.605 165.652 170.945 167.565 171.71 169.219C172.074 169.998 172.648 170.759 173.292 170.573C174.041 170.343 174.174 168.892 174.132 168.07C174.121 166.791 173.785 165.55 173.173 164.531C172.932 164.176 172.631 163.895 172.291 163.709C171.951 163.524 171.583 163.439 171.213 163.461L170.765 163.602L170.737 163.567ZM168.441 163.788C167.992 163.916 167.565 164.147 167.181 164.469C166.771 164.791 166.414 165.212 166.133 165.709C165.852 166.205 165.652 166.767 165.543 167.362C165.448 167.887 165.516 168.437 165.732 168.901C165.776 168.982 165.833 169.051 165.899 169.103C165.966 169.155 166.04 169.188 166.117 169.202C166.509 169.255 166.873 168.742 167.188 168.229L169.869 163.806H169.743L169.708 163.647C169.282 163.592 168.852 163.64 168.441 163.788Z" fill="#407BFF"/>
<path d="M165.298 183.391L164.717 182.931C167.584 177.123 169.227 170.485 169.491 163.647H170.191C169.922 170.649 168.237 177.446 165.298 183.391Z" fill="#407BFF"/>
<path d="M178.892 183.223L178.192 183.329C177.457 175.948 174.587 169.17 170.135 164.302L170.583 163.647C175.17 168.653 178.129 175.626 178.892 183.223Z" fill="#407BFF"/>
<path d="M118.3 267.797L117.985 267.028C125.685 261.942 145.733 247.567 145.733 242.18C145.733 231.132 154.287 158.508 154.371 157.782L155.071 157.906C154.987 158.64 146.447 231.202 146.447 242.18C146.447 249.168 119.469 267.046 118.3 267.797Z" fill="white"/>
<path d="M145.299 104.08C146.223 100.541 152.012 99.869 153.839 102.664C161.714 114.739 170.457 125.973 170.457 125.973L192.402 120.232L195.965 124.133C195.965 124.133 173.306 138.472 168.84 138.481C164.052 138.481 152.516 124.425 146.44 115.995C142.499 110.466 145.299 104.08 145.299 104.08Z" fill="#E29471"/>
<path d="M192.402 120.232L195.902 118.268C196.984 117.659 198.212 117.605 199.325 118.118L203.602 120.091C203.85 120.205 204.056 120.427 204.185 120.718C204.313 121.009 204.355 121.348 204.302 121.674L203.686 125.451C203.635 125.787 203.487 126.087 203.271 126.293C203.055 126.499 202.787 126.596 202.517 126.566L197.792 126.079L192.605 125.133C192.605 125.133 191.058 120.984 192.402 120.232Z" fill="#E29471"/>
<path d="M194.53 126.459L192.983 127.866L190.267 120.586L191.968 119.577L194.53 126.459Z" fill="#263238"/>
<path d="M189.534 120.244L192.067 118.736C192.235 118.636 192.428 118.624 192.602 118.704C192.777 118.783 192.92 118.947 192.999 119.159L193.223 119.759L189.423 122.021L189.2 121.421C189.12 121.209 189.111 120.966 189.174 120.745C189.237 120.524 189.366 120.344 189.534 120.244Z" fill="#263238"/>
<path d="M154.539 71.6507C155.337 68.2893 157.857 65.9982 160.461 64.7952C163.065 63.5922 165.872 63.1941 168.518 62.1414C170.275 61.4338 172.207 60.0361 172.382 57.7186C172.397 56.9998 172.279 56.2866 172.035 55.6365C171.792 54.9865 171.431 54.4179 170.982 53.9768C170.078 53.1055 169.072 52.419 168 51.9422C167.227 51.4388 166.362 51.2067 165.494 51.27C165.064 51.326 164.668 51.5904 164.388 52.0076C164.109 52.4249 163.968 52.9626 163.996 53.5079C161.756 51.7388 158.396 52.2076 156.296 54.2422C154.896 55.6133 153.965 58.2935 155.022 60.1069C153.804 59.3285 151.816 60.2131 151.13 61.6992C150.805 62.4575 150.71 63.34 150.863 64.1805C151.017 65.0211 151.408 65.7619 151.963 66.2636C150.108 66.1663 148.393 68.7316 149.093 70.8988C149.793 73.066 154 73.8887 154.539 71.6507Z" fill="#263238"/>
<path d="M172.074 80.965C171.694 82.3599 171.394 83.7878 171.178 85.2376H170.555C167.755 85.1049 166.509 83.8842 165.956 82.5838C165.695 81.9315 165.563 81.2092 165.571 80.4785C165.565 80.0665 165.605 79.6555 165.69 79.2578C167.132 80.4431 169.729 80.8147 171.122 80.9385C171.703 80.965 172.074 80.965 172.074 80.965Z" fill="#263238"/>
<path d="M171.122 80.9034L170.828 82.1595C168.203 82.0268 166.369 81.4872 165.571 80.4434C165.565 80.0314 165.605 79.6204 165.69 79.2227C167.132 80.408 169.729 80.7795 171.122 80.9034Z" fill="white"/>
<path d="M170.555 85.2201C167.755 85.0875 166.509 83.8667 165.956 82.5664C167.014 82.6302 168.054 82.9297 169.029 83.451C169.672 83.8235 170.206 84.4425 170.555 85.2201Z" fill="#DE5753"/>
</svg>
