<svg width="32" height="32" viewBox="0 0 32 32" fill="none" xmlns="http://www.w3.org/2000/svg">
<path d="M0.000213173 1.33332C0.000213173 0.979705 0.140688 0.640568 0.390735 0.390522C0.640782 0.140475 0.979918 0 1.33354 0C1.68716 0 2.02629 0.140475 2.27634 0.390522C2.52639 0.640568 2.66686 0.979705 2.66686 1.33332V12.4586L9.15571 9.04172C9.35683 8.93604 9.58162 8.88351 9.80875 8.88911C10.0359 8.89471 10.2578 8.95826 10.4535 9.07372L17.2445 13.0666L27.2 5.59996C27.3981 5.45139 27.6337 5.36092 27.8803 5.33869C28.1269 5.31645 28.3748 5.36332 28.5963 5.47406C28.8178 5.5848 29.004 5.75502 29.1342 5.96565C29.2644 6.17629 29.3334 6.41901 29.3334 6.66662V29.3331H30.6667C31.0203 29.3331 31.3594 29.4736 31.6095 29.7237C31.8595 29.9737 32 30.3128 32 30.6665C32 31.0201 31.8595 31.3592 31.6095 31.6093C31.3594 31.8593 31.0203 31.9998 30.6667 31.9998H1.33354C0.979918 31.9998 0.640782 31.8593 0.390735 31.6093C0.140688 31.3592 0.000213173 31.0201 0.000213173 30.6665V14.6915C-7.10578e-05 14.6755 -7.10578e-05 14.6595 0.000213173 14.6435V1.33332ZM2.66686 15.4719V29.3331H26.6667V9.33327L18.1334 15.7332C17.9229 15.8908 17.6706 15.9827 17.408 15.9972C17.1455 16.0118 16.8845 15.9484 16.6579 15.815L9.74237 11.7493L2.66686 15.4719Z" fill="black"/>
</svg>
