<svg width="352" height="352" viewBox="0 0 352 352" fill="none" xmlns="http://www.w3.org/2000/svg">
<path d="M224.283 81.0477H124.264C116.795 81.0477 110.74 87.1029 110.74 94.5724V227.834C110.74 235.303 116.795 241.358 124.264 241.358H224.283C231.753 241.358 237.808 235.303 237.808 227.834V94.5724C237.808 87.1029 231.753 81.0477 224.283 81.0477Z" fill="#BFBFBF" stroke="#263238" stroke-miterlimit="10"/>
<path d="M215.342 87.4076H125.647C120.7 87.4076 116.689 91.4181 116.689 96.3654V214.208C116.689 219.155 120.7 223.166 125.647 223.166H215.342C220.29 223.166 224.3 219.155 224.3 214.208V96.3654C224.3 91.4181 220.29 87.4076 215.342 87.4076Z" fill="#263238"/>
<path opacity="0.1" d="M215.342 87.4076H125.647C120.7 87.4076 116.689 91.4181 116.689 96.3654V214.208C116.689 219.155 120.7 223.166 125.647 223.166H215.342C220.29 223.166 224.3 219.155 224.3 214.208V96.3654C224.3 91.4181 220.29 87.4076 215.342 87.4076Z" fill="white"/>
<path d="M144.174 107.493C143.961 107.437 143.734 107.467 143.542 107.577C143.351 107.686 143.211 107.867 143.152 108.08L142.725 110.15L136.222 109.111C136.017 109.083 135.809 109.129 135.635 109.239C135.46 109.349 135.33 109.517 135.267 109.714L134.429 112.756C134.393 112.852 134.377 112.956 134.384 113.058C134.391 113.161 134.419 113.262 134.468 113.353C134.516 113.444 134.583 113.524 134.664 113.587C134.746 113.65 134.84 113.695 134.94 113.72C135.153 113.773 135.379 113.741 135.569 113.63C135.758 113.518 135.897 113.337 135.954 113.125L136.582 110.812L137.99 111.03L136.85 115.136L134.839 122.258C134.808 122.356 134.797 122.46 134.809 122.562C134.82 122.664 134.853 122.763 134.905 122.852C134.957 122.94 135.028 123.017 135.112 123.076C135.196 123.136 135.291 123.177 135.392 123.197C135.548 123.227 135.708 123.209 135.853 123.147C135.981 123.097 136.095 123.018 136.187 122.916C136.278 122.814 136.345 122.692 136.381 122.56L138.124 116.409L138.174 116.233C138.219 116.031 138.337 115.852 138.505 115.731C138.674 115.61 138.882 115.556 139.088 115.58L140.403 115.831L138.241 118.529C138.172 118.608 138.12 118.7 138.087 118.799C138.055 118.899 138.043 119.004 138.052 119.108C138.061 119.213 138.092 119.314 138.142 119.406C138.192 119.498 138.26 119.579 138.342 119.644C138.52 119.762 138.736 119.807 138.946 119.772C139.156 119.736 139.345 119.621 139.473 119.451L142.423 115.722C142.508 115.617 142.566 115.492 142.592 115.36C142.618 115.227 142.612 115.09 142.574 114.96C142.535 114.836 142.463 114.724 142.366 114.639C142.268 114.553 142.149 114.496 142.021 114.474L140.839 114.247L141.493 111.599L143.051 111.843C143.198 111.868 143.35 111.851 143.487 111.792C143.611 111.747 143.723 111.674 143.813 111.578C143.903 111.482 143.97 111.366 144.007 111.239L144.669 108.457C144.705 108.362 144.721 108.26 144.715 108.158C144.709 108.056 144.682 107.956 144.636 107.865C144.589 107.774 144.524 107.694 144.444 107.63C144.365 107.566 144.273 107.52 144.174 107.493Z" fill="#92E3A9"/>
<path d="M140.889 109.22C141.29 109.073 141.62 108.779 141.812 108.398C142.003 108.016 142.042 107.576 141.92 107.167C141.852 106.975 141.746 106.8 141.607 106.653C141.467 106.505 141.299 106.388 141.112 106.309C140.925 106.23 140.724 106.191 140.521 106.195C140.318 106.198 140.118 106.244 139.934 106.329C139.535 106.477 139.207 106.772 139.017 107.153C138.827 107.534 138.789 107.974 138.912 108.382C138.978 108.573 139.084 108.748 139.223 108.895C139.361 109.043 139.529 109.16 139.715 109.239C139.901 109.318 140.102 109.357 140.304 109.354C140.506 109.35 140.706 109.305 140.889 109.22Z" fill="#92E3A9"/>
<path d="M139.071 127.169C146.124 127.169 151.842 121.451 151.842 114.398C151.842 107.345 146.124 101.628 139.071 101.628C132.018 101.628 126.301 107.345 126.301 114.398C126.301 121.451 132.018 127.169 139.071 127.169Z" stroke="#999999" stroke-width="2" stroke-miterlimit="10"/>
<path d="M139.079 127.177C136.552 127.179 134.08 126.431 131.977 125.028C129.875 123.625 128.236 121.629 127.267 119.295C126.299 116.96 126.044 114.39 126.537 111.911C127.029 109.431 128.245 107.153 130.032 105.365C131.819 103.577 134.096 102.359 136.575 101.866C139.054 101.372 141.624 101.624 143.959 102.591C146.295 103.558 148.291 105.196 149.696 107.298C151.1 109.4 151.85 111.871 151.85 114.398" stroke="#92E3A9" stroke-width="2" stroke-linecap="round" stroke-linejoin="round"/>
<path d="M193.765 145.244C193.722 145.244 193.68 145.235 193.641 145.218C193.602 145.2 193.567 145.175 193.539 145.143L191.352 142.705C191.325 142.675 191.304 142.64 191.29 142.602C191.277 142.565 191.271 142.525 191.273 142.484C191.275 142.444 191.284 142.405 191.302 142.369C191.319 142.333 191.343 142.3 191.373 142.273C191.402 142.246 191.437 142.225 191.475 142.212C191.513 142.198 191.553 142.192 191.593 142.194C191.633 142.196 191.672 142.206 191.708 142.223C191.745 142.24 191.777 142.264 191.804 142.294L193.991 144.732C194.019 144.76 194.042 144.794 194.057 144.83C194.072 144.867 194.08 144.906 194.08 144.946C194.08 144.986 194.072 145.025 194.057 145.062C194.042 145.098 194.019 145.132 193.991 145.16C193.962 145.19 193.927 145.213 193.888 145.228C193.849 145.242 193.807 145.248 193.765 145.244Z" fill="#92E3A9"/>
<path d="M192.039 137.886V137.501H190.79V137.945C189.593 138.189 188.525 138.86 187.787 139.834C187.049 140.807 186.69 142.016 186.779 143.235C186.867 144.454 187.396 145.599 188.267 146.456C189.138 147.313 190.291 147.823 191.511 147.892C192.739 147.812 193.896 147.284 194.761 146.408C195.626 145.532 196.14 144.37 196.205 143.14C196.27 141.911 195.882 140.701 195.114 139.738C194.346 138.776 193.252 138.129 192.039 137.92V137.886ZM191.511 147.246C190.642 147.248 189.792 146.992 189.069 146.51C188.346 146.029 187.782 145.344 187.448 144.542C187.115 143.739 187.027 142.856 187.195 142.004C187.364 141.152 187.781 140.369 188.395 139.754C189.009 139.139 189.791 138.72 190.643 138.55C191.495 138.379 192.378 138.466 193.181 138.798C193.984 139.13 194.67 139.693 195.153 140.415C195.636 141.137 195.894 141.987 195.894 142.855C195.891 144.018 195.429 145.132 194.608 145.955C193.787 146.778 192.673 147.242 191.511 147.246Z" fill="#92E3A9"/>
<path d="M192.248 136.487H190.589V137.333H192.248V136.487Z" fill="#92E3A9"/>
<g opacity="0.6">
<path d="M193.765 145.244C193.723 145.244 193.68 145.235 193.641 145.217C193.602 145.2 193.567 145.175 193.539 145.143L191.352 142.704C191.325 142.675 191.304 142.64 191.291 142.602C191.277 142.564 191.271 142.524 191.273 142.484C191.275 142.444 191.285 142.405 191.302 142.369C191.319 142.332 191.343 142.3 191.373 142.273C191.403 142.246 191.437 142.225 191.475 142.212C191.513 142.198 191.553 142.192 191.593 142.194C191.633 142.196 191.672 142.206 191.709 142.223C191.745 142.24 191.777 142.264 191.804 142.294L193.991 144.732C194.02 144.76 194.042 144.794 194.057 144.83C194.072 144.867 194.08 144.906 194.08 144.946C194.08 144.986 194.072 145.025 194.057 145.062C194.042 145.098 194.02 145.132 193.991 145.16C193.963 145.19 193.927 145.213 193.888 145.228C193.849 145.242 193.807 145.248 193.765 145.244Z" fill="#92E3A9"/>
<path d="M192.039 137.886V137.501H190.79V137.945C189.593 138.189 188.525 138.86 187.787 139.834C187.049 140.807 186.69 142.016 186.779 143.235C186.867 144.454 187.396 145.599 188.267 146.455C189.138 147.312 190.291 147.823 191.511 147.892C192.739 147.812 193.896 147.284 194.761 146.408C195.626 145.532 196.14 144.369 196.205 143.14C196.27 141.911 195.882 140.7 195.114 139.738C194.346 138.776 193.252 138.129 192.039 137.92V137.886ZM191.511 147.246C190.642 147.248 189.792 146.992 189.069 146.51C188.346 146.029 187.782 145.344 187.448 144.542C187.115 143.739 187.027 142.856 187.195 142.004C187.364 141.152 187.781 140.368 188.395 139.753C189.009 139.139 189.791 138.72 190.643 138.549C191.495 138.379 192.378 138.466 193.181 138.798C193.984 139.13 194.67 139.693 195.153 140.415C195.636 141.137 195.894 141.987 195.894 142.855C195.891 144.018 195.429 145.132 194.608 145.955C193.787 146.778 192.673 147.242 191.511 147.246Z" fill="#92E3A9"/>
<path d="M192.248 136.487H190.589V137.333H192.248V136.487Z" fill="#92E3A9"/>
</g>
<path d="M129.074 196.117C128.303 196.117 127.817 196.536 127.817 197.642V199.318H125.538V197.826C125.538 195.362 126.77 193.955 129.141 193.955C131.513 193.955 132.744 195.362 132.744 197.826C132.744 202.661 127.935 204.471 127.935 206.993C127.926 207.105 127.926 207.217 127.935 207.329H132.51V209.524H125.521V207.639C125.521 203.105 130.314 202.359 130.314 197.91C130.331 196.494 129.862 196.117 129.074 196.117Z" fill="white"/>
<path d="M133.666 204.496L138.066 194.088H140.705V204.487H141.853V206.691H140.705V209.482H138.334V206.691H133.666V204.496ZM138.334 204.496V198.714L135.887 204.496H138.334Z" fill="white"/>
<path d="M145.129 204.521V205.954C145.129 207.052 145.607 207.445 146.378 207.445C147.149 207.445 147.635 207.052 147.635 205.954V202.56C147.635 201.462 147.149 201.043 146.378 201.043C145.607 201.043 145.129 201.462 145.129 202.56V203.029H142.842L143.269 194.088H149.646V196.284H145.456L145.255 199.963C145.471 199.601 145.782 199.305 146.155 199.107C146.527 198.909 146.946 198.817 147.367 198.84C149.152 198.84 150.048 200.088 150.048 202.359V205.82C150.048 208.283 148.816 209.691 146.445 209.691C144.074 209.691 142.842 208.283 142.842 205.82V204.546L145.129 204.521Z" fill="white"/>
<path d="M155.47 200.792H154.406L154.222 199.577H152.923L152.747 200.792H151.775L152.847 194.088H154.389L155.47 200.792ZM153.057 198.664H154.079L153.568 195.27L153.057 198.664Z" fill="#92E3A9"/>
<path d="M159.015 198.321V199.209C159.015 200.281 158.478 200.885 157.439 200.885C156.4 200.885 155.872 200.265 155.872 199.209V195.715C155.872 194.642 156.408 194.039 157.439 194.039C157.66 194.02 157.882 194.051 158.088 194.13C158.295 194.209 158.481 194.334 158.632 194.495C158.784 194.657 158.897 194.85 158.963 195.061C159.029 195.272 159.047 195.496 159.015 195.715V196.368H158.017V195.647C158.017 195.17 157.808 194.994 157.473 194.994C157.138 194.994 156.92 195.17 156.92 195.647V199.276C156.92 199.753 157.138 199.929 157.473 199.929C157.808 199.929 158.017 199.753 158.017 199.276V198.321H159.015Z" fill="#92E3A9"/>
<path d="M159.35 194.088H162.61V195.052H161.503V200.792H160.448V195.044H159.35V194.088Z" fill="#92E3A9"/>
<path d="M163.062 194.088H164.118V200.792H163.062V194.088Z" fill="#92E3A9"/>
<path d="M166.481 199.586L167.319 194.105H168.282L167.252 200.809H165.643L164.612 194.105H165.676L166.481 199.586Z" fill="#92E3A9"/>
<path d="M169.791 196.937H171.24V197.893H169.791V199.862H171.617V200.792H168.743V194.088H171.617V195.052H169.791V196.937Z" fill="#92E3A9"/>
<path d="M155.11 207.102V207.99C155.11 209.071 154.574 209.666 153.543 209.666C152.512 209.666 151.967 209.054 151.967 207.99V204.504C151.935 204.285 151.953 204.062 152.019 203.851C152.085 203.64 152.198 203.446 152.35 203.285C152.501 203.124 152.687 202.999 152.894 202.92C153.101 202.841 153.322 202.809 153.543 202.828C154.574 202.828 155.11 203.44 155.11 204.504V205.158H154.113V204.437C154.113 203.96 153.903 203.775 153.568 203.775C153.233 203.775 153.023 203.96 153.023 204.437V208.057C153.023 208.543 153.233 208.711 153.568 208.711C153.903 208.711 154.113 208.543 154.113 208.057V207.102H155.11Z" fill="#92E3A9"/>
<path d="M159.19 209.608H158.101L157.917 208.384H156.626L156.442 209.608H155.478L156.551 202.904H158.093L159.19 209.608ZM156.76 207.496H157.774L157.272 204.102L156.76 207.496Z" fill="#92E3A9"/>
<path d="M159.651 202.896H160.707V208.644H162.442V209.608H159.651V202.896Z" fill="#92E3A9"/>
<path d="M183.215 162.464L184.229 162.405C183.112 163.485 181.913 164.477 180.642 165.372L179.712 165.975L178.807 165.313C177.792 164.464 176.852 163.527 176 162.514L177.307 162.59L178.078 160.688L179.218 164.71L180.282 162.439L180.952 163.704L181.732 161.492L182.402 163.654L183.215 162.464Z" fill="#92E3A9"/>
<path d="M184.723 161.467H183.14L182.645 162.187L181.69 159.816L180.852 162.129L180.224 160.93L179.386 162.564L178.07 158.416L177.081 161.408H175.313C174.232 160.176 173.863 158.961 175.263 157.888C177.023 156.539 179.05 157.796 180.081 158.609C181.162 157.855 183.542 156.305 185.369 158.316C186.282 159.363 185.729 160.461 184.723 161.467Z" fill="#92E3A9"/>
<path d="M125.278 154.168C127.147 154.168 127.566 153.38 127.943 152.492H129.569V166.025H127.147V155.676H125.278V154.168Z" fill="white"/>
<path d="M136.029 154.243C135.267 154.243 134.781 154.612 134.781 155.584V157.034H132.493V155.718C132.493 153.548 133.725 152.316 136.096 152.316C138.468 152.316 139.708 153.548 139.708 155.718C139.708 159.967 134.89 161.584 134.89 163.779C134.877 163.874 134.877 163.97 134.89 164.064H139.456V166H132.468V164.324C132.468 160.335 137.261 159.682 137.261 155.777C137.286 154.579 136.8 154.243 136.029 154.243Z" fill="white"/>
<path d="M144.736 154.243C143.973 154.243 143.487 154.612 143.487 155.584V157.034H141.2V155.718C141.2 153.548 142.432 152.316 144.803 152.316C147.174 152.316 148.415 153.548 148.415 155.718C148.415 159.967 143.596 161.584 143.596 163.779C143.584 163.874 143.584 163.97 143.596 164.064H148.172V166H141.175V164.324C141.175 160.335 145.968 159.682 145.968 155.777C145.993 154.579 145.507 154.243 144.736 154.243Z" fill="white"/>
<path d="M156.593 157.646V158.056C156.649 158.508 156.557 158.965 156.33 159.36C156.104 159.755 155.754 160.065 155.336 160.243C155.808 160.404 156.21 160.722 156.475 161.145C156.739 161.568 156.849 162.07 156.785 162.564V163.402C156.785 165.078 155.78 165.983 153.836 165.983H150.811V155.09H153.744C155.73 155.157 156.593 155.978 156.593 157.646ZM152.73 156.707V159.573H153.484C154.213 159.573 154.649 159.296 154.649 158.425V157.822C154.649 157.042 154.347 156.707 153.66 156.707H152.73ZM152.73 161.123V164.475H153.836C154.489 164.475 154.841 164.207 154.841 163.402V162.455C154.841 161.45 154.473 161.14 153.593 161.14L152.73 161.123Z" fill="#92E3A9"/>
<path d="M163.699 157.838V159.246C163.699 160.981 162.743 161.928 160.799 161.928H159.886V166.008H157.95V155.115H160.799C162.743 155.157 163.699 156.104 163.699 157.838ZM159.886 156.707V160.377H160.799C161.419 160.377 161.755 160.126 161.755 159.355V157.729C161.755 156.95 161.419 156.707 160.799 156.707H159.886Z" fill="#92E3A9"/>
<path d="M168.794 162.858L170.109 155.157H172.807V166.05H170.972V158.224L169.632 166.008H167.805L166.355 158.333V166.008H164.679V155.115H167.377L168.794 162.858Z" fill="#92E3A9"/>
<path d="M129.862 177.078C129.862 175.687 129.384 175.318 128.613 175.318C127.842 175.318 127.356 175.737 127.356 176.835V177.824H125.069V176.986C125.069 174.522 126.301 173.114 128.68 173.114C131.06 173.114 132.284 174.522 132.284 176.986V177.388C132.284 179.064 131.756 180.07 130.608 180.547C131.814 181.075 132.284 182.223 132.284 183.782V184.997C132.284 187.46 131.052 188.868 128.68 188.868C126.309 188.868 125.069 187.46 125.069 184.997V183.715H127.348V185.148C127.348 186.245 127.834 186.664 128.605 186.664C129.376 186.664 129.854 186.296 129.854 184.93V183.715C129.854 182.29 129.376 181.762 128.27 181.762H127.432V179.558H128.379C129.284 179.558 129.828 179.165 129.828 177.933L129.862 177.078Z" fill="white"/>
<path d="M135.434 175.226C136.041 175.305 136.654 175.148 137.148 174.788C137.643 174.428 137.98 173.892 138.091 173.29H139.716V188.692H137.303V176.961H135.434V175.226Z" fill="white"/>
<path d="M144.107 175.226C144.714 175.305 145.327 175.148 145.822 174.788C146.316 174.428 146.653 173.892 146.764 173.29H148.389V188.692H145.976V176.961H144.107V175.226Z" fill="white"/>
<path d="M151.548 173.14H154.808V174.095H153.71V179.852H152.654V174.095H151.548V173.14Z" fill="#92E3A9"/>
<path d="M155.185 174.815C155.185 174.391 155.354 173.984 155.654 173.684C155.954 173.383 156.361 173.215 156.786 173.215C157.21 173.215 157.617 173.383 157.917 173.684C158.217 173.984 158.386 174.391 158.386 174.815V178.31C158.386 178.734 158.217 179.141 157.917 179.441C157.617 179.742 157.21 179.91 156.786 179.91C156.361 179.91 155.954 179.742 155.654 179.441C155.354 179.141 155.185 178.734 155.185 178.31V174.815ZM156.233 178.377C156.233 178.854 156.45 179.039 156.786 179.039C157.121 179.039 157.33 178.854 157.33 178.377V174.748C157.33 174.271 157.121 174.086 156.786 174.086C156.45 174.086 156.233 174.271 156.233 174.748V178.377Z" fill="#92E3A9"/>
<path d="M158.755 173.14H162.015V174.095H160.917V179.852H159.861V174.095H158.755V173.14Z" fill="#92E3A9"/>
<path d="M165.526 179.885H164.461L164.277 178.67H162.987L162.802 179.885H161.83L162.903 173.182H164.453L165.526 179.885ZM163.121 177.757H164.135L163.623 174.405L163.121 177.757Z" fill="#92E3A9"/>
<path d="M166.012 173.14H167.067V178.896H168.802V179.852H166.012V173.14Z" fill="#92E3A9"/>
<path d="M154.917 186.17V187.058C154.917 188.131 154.381 188.734 153.341 188.734C152.302 188.734 151.766 188.114 151.766 187.058V183.572C151.766 182.5 152.302 181.896 153.341 181.896C154.381 181.896 154.917 182.517 154.917 183.572V184.218H153.92V183.505C153.92 183.019 153.71 182.843 153.367 182.843C153.023 182.843 152.822 183.019 152.822 183.505V187.125C152.822 187.603 153.031 187.779 153.367 187.779C153.702 187.779 153.92 187.603 153.92 187.125V186.17H154.917Z" fill="#92E3A9"/>
<path d="M158.964 188.675H157.9L157.724 187.452H156.425L156.241 188.675H155.277L156.35 181.972H157.892L158.964 188.675ZM156.559 186.547H157.582L157.071 183.153L156.559 186.547Z" fill="#92E3A9"/>
<path d="M159.459 181.955H160.515V187.711H162.249V188.675H159.459V181.955Z" fill="#92E3A9"/>
<path d="M124.951 136.06C124.951 133.596 126.25 132.189 128.622 132.189C130.993 132.189 132.3 133.596 132.3 136.06V144.062C132.3 146.526 131.002 147.934 128.622 147.934C126.242 147.934 124.951 146.526 124.951 144.062V136.06ZM127.373 144.222C127.373 145.319 127.851 145.738 128.622 145.738C129.393 145.738 129.879 145.319 129.879 144.222V135.909C129.879 134.803 129.393 134.392 128.622 134.392C127.851 134.392 127.373 134.803 127.373 135.909V144.222Z" fill="white"/>
<path d="M133.7 136.194C133.7 133.596 134.89 132.189 137.395 132.189C139.775 132.189 141.007 133.596 141.007 136.06V136.454H138.719V135.909C138.719 134.803 138.233 134.392 137.462 134.392C136.691 134.392 136.121 134.803 136.121 136.278V139.093C136.312 138.664 136.629 138.303 137.03 138.059C137.432 137.815 137.898 137.699 138.367 137.727C140.144 137.727 141.049 138.984 141.049 141.247V144.062C141.049 146.526 139.75 147.934 137.378 147.934C135.007 147.934 133.7 146.526 133.7 144.062V136.194ZM136.121 141.448V144.222C136.121 145.319 136.607 145.713 137.378 145.713C138.149 145.713 138.627 145.319 138.627 144.222V141.448C138.627 140.35 138.141 139.931 137.378 139.931C136.616 139.931 136.121 140.35 136.121 141.448Z" fill="white"/>
<path d="M144.895 145.428V147.758H142.565V145.428H144.895Z" fill="white"/>
<path d="M146.454 136.06C146.454 133.596 147.752 132.189 150.124 132.189C152.495 132.189 153.803 133.596 153.803 136.06V144.062C153.803 146.526 152.504 147.934 150.124 147.934C147.744 147.934 146.454 146.526 146.454 144.062V136.06ZM148.875 144.222C148.875 145.319 149.361 145.738 150.124 145.738C150.886 145.738 151.381 145.319 151.381 144.222V135.909C151.381 134.803 150.895 134.392 150.124 134.392C149.353 134.392 148.875 134.803 148.875 135.909V144.222Z" fill="white"/>
<path d="M162.467 132.365V134.476L158.897 147.758H156.484L160.028 134.594H155.219V132.39L162.467 132.365Z" fill="white"/>
<path d="M166.397 145.428V147.758H164.067V145.428H166.397Z" fill="white"/>
<path d="M169.648 134.3C170.256 134.379 170.87 134.223 171.366 133.863C171.861 133.503 172.2 132.967 172.313 132.365H173.939V147.758H171.525V136.026H169.648V134.3Z" fill="white"/>
<path d="M180.341 147.934C177.894 147.934 176.553 146.526 176.553 144.062V142.856C176.553 141.381 176.997 140.241 178.053 139.646C177.039 139.093 176.553 138.063 176.553 136.546V136.06C176.553 133.596 177.894 132.189 180.341 132.189C182.788 132.189 184.12 133.596 184.12 136.06V136.546C184.12 138.063 183.617 139.06 182.628 139.646C183.684 140.241 184.12 141.381 184.12 142.856V144.062C184.12 146.526 182.779 147.934 180.341 147.934ZM178.975 137.04C178.975 138.272 179.545 138.666 180.341 138.666C181.137 138.666 181.707 138.272 181.707 137.04V136.202C181.707 134.82 181.112 134.451 180.341 134.451C179.57 134.451 178.975 134.82 178.975 136.202V137.04ZM180.341 145.772C181.112 145.772 181.682 145.395 181.707 144.029V142.604C181.707 141.398 181.196 140.87 180.341 140.87C179.486 140.87 178.975 141.398 178.975 142.604V144.029C178.975 145.361 179.57 145.738 180.341 145.738V145.772Z" fill="white"/>
<path d="M202.664 109.907C202.364 109.937 202.061 109.899 201.778 109.796C201.494 109.693 201.238 109.527 201.027 109.312C200.816 109.096 200.656 108.836 200.56 108.55C200.463 108.264 200.432 107.961 200.469 107.661V106.941C200.424 106.582 200.478 106.218 200.626 105.889C200.773 105.559 201.009 105.277 201.307 105.072C201.009 104.884 200.771 104.614 200.623 104.294C200.474 103.975 200.421 103.619 200.469 103.27V102.994C200.469 102.412 200.7 101.853 201.112 101.441C201.523 101.03 202.082 100.798 202.664 100.798C203.246 100.798 203.805 101.03 204.217 101.441C204.628 101.853 204.86 102.412 204.86 102.994V103.27C204.902 103.619 204.847 103.973 204.699 104.291C204.55 104.61 204.316 104.88 204.022 105.072C204.319 105.277 204.554 105.56 204.701 105.889C204.849 106.219 204.904 106.582 204.86 106.941V107.644C204.899 107.945 204.87 108.251 204.775 108.539C204.679 108.826 204.52 109.089 204.309 109.307C204.098 109.524 203.84 109.691 203.555 109.795C203.27 109.899 202.966 109.937 202.664 109.907ZM201.876 103.555C201.876 104.276 202.203 104.502 202.664 104.502C203.125 104.502 203.46 104.276 203.46 103.555V103.061C203.46 102.223 203.117 102.039 202.664 102.039C202.212 102.039 201.876 102.256 201.876 103.061V103.555ZM202.664 108.633C203.117 108.633 203.443 108.415 203.46 107.619V106.781C203.46 106.078 203.167 105.776 202.664 105.776C202.161 105.776 201.876 106.078 201.876 106.781V107.619C201.876 108.415 202.22 108.617 202.664 108.617V108.633Z" fill="white"/>
<path d="M207.064 103.589V104.946H205.706V103.589H207.064ZM207.064 108.457V109.815H205.706V108.449L207.064 108.457Z" fill="white"/>
<path d="M210.139 102.039C209.694 102.039 209.41 102.282 209.41 102.877V103.84H208.086V103.002C208.086 101.569 208.798 100.756 210.18 100.756C211.563 100.756 212.275 101.594 212.275 103.002C212.275 105.809 209.477 106.857 209.477 108.332C209.472 108.393 209.472 108.455 209.477 108.516H212.141V109.798H208.077V108.7C208.077 106.069 210.859 105.633 210.859 103.052C210.868 102.256 210.591 102.039 210.139 102.039Z" fill="white"/>
<path d="M215.854 103.061C215.854 102.223 215.569 102.039 215.125 102.039C214.68 102.039 214.396 102.282 214.396 102.877V103.455H213.072V102.969C213.072 101.536 213.784 100.723 215.166 100.723C216.549 100.723 217.261 101.561 217.261 102.969V103.195C217.318 103.568 217.253 103.949 217.074 104.282C216.896 104.614 216.615 104.88 216.273 105.039C216.618 105.21 216.899 105.487 217.077 105.829C217.255 106.17 217.319 106.56 217.261 106.941V107.645C217.261 109.069 216.541 109.89 215.166 109.89C213.792 109.89 213.072 109.052 213.072 107.645V106.941H214.396V107.779C214.396 108.424 214.68 108.667 215.125 108.667C215.569 108.667 215.854 108.449 215.854 107.653V106.941C215.854 106.103 215.569 105.81 214.932 105.81H214.496V104.527H215.041C215.569 104.527 215.879 104.301 215.879 103.581L215.854 103.061Z" fill="white"/>
<path d="M202.538 112.211C203.904 112.211 204.608 112.798 204.608 113.837V114.038H203.276V113.77C203.276 113.309 203.024 113.133 202.572 113.133C202.119 113.133 201.876 113.309 201.876 113.77C201.876 115.111 204.617 115.354 204.617 117.206C204.617 118.245 203.904 118.84 202.522 118.84C201.139 118.84 200.427 118.245 200.427 117.206V116.812H201.759V117.273C201.759 117.734 202.036 117.901 202.488 117.901C202.941 117.901 203.217 117.734 203.217 117.273C203.217 115.94 200.469 115.689 200.469 113.837C200.469 112.806 201.173 112.211 202.538 112.211Z" fill="#92E3A9"/>
<path d="M206.77 112.287V117.314C206.77 117.775 207.047 117.943 207.499 117.943C207.952 117.943 208.22 117.775 208.22 117.314V112.287H209.552V117.214C209.552 118.253 208.84 118.89 207.457 118.89C206.075 118.89 205.362 118.295 205.362 117.214V112.287H206.77Z" fill="#92E3A9"/>
<path d="M211.764 114.071V118.764H210.499V112.287H212.259L213.708 116.158V112.287H214.957V118.764H213.516L211.764 114.071Z" fill="#92E3A9"/>
<path d="M167.654 217.308C167.656 217.576 167.578 217.837 167.431 218.06C167.284 218.283 167.074 218.457 166.827 218.561C166.581 218.664 166.309 218.692 166.047 218.641C165.785 218.59 165.544 218.462 165.354 218.274C165.165 218.085 165.035 217.845 164.982 217.583C164.93 217.321 164.956 217.049 165.058 216.802C165.16 216.555 165.333 216.344 165.555 216.196C165.777 216.047 166.038 215.968 166.305 215.968C166.661 215.968 167.003 216.109 167.256 216.36C167.509 216.611 167.652 216.952 167.654 217.308Z" fill="white"/>
<path d="M175.615 217.308C175.615 217.574 175.536 217.833 175.389 218.053C175.241 218.274 175.032 218.446 174.787 218.547C174.542 218.649 174.272 218.675 174.012 218.623C173.752 218.572 173.513 218.444 173.326 218.256C173.138 218.069 173.011 217.83 172.959 217.57C172.907 217.31 172.934 217.04 173.035 216.795C173.137 216.55 173.309 216.341 173.529 216.194C173.75 216.046 174.009 215.968 174.274 215.968C174.45 215.968 174.624 216.002 174.787 216.07C174.95 216.137 175.098 216.236 175.222 216.36C175.347 216.485 175.445 216.633 175.513 216.795C175.58 216.958 175.615 217.132 175.615 217.308Z" fill="white"/>
<path d="M183.584 217.308C183.585 217.576 183.508 217.837 183.36 218.06C183.213 218.283 183.003 218.457 182.757 218.561C182.51 218.664 182.239 218.692 181.977 218.641C181.714 218.59 181.473 218.462 181.284 218.274C181.094 218.085 180.965 217.845 180.912 217.583C180.859 217.321 180.886 217.049 180.987 216.802C181.089 216.555 181.262 216.344 181.484 216.196C181.706 216.047 181.967 215.968 182.235 215.968C182.591 215.968 182.933 216.109 183.186 216.36C183.438 216.611 183.581 216.952 183.584 217.308Z" fill="white"/>
<path d="M251.173 78.7348H300.177C300.572 78.7379 300.958 78.6234 301.288 78.4059C301.617 78.1884 301.874 77.8778 302.026 77.5137C302.178 77.1496 302.218 76.7485 302.141 76.3615C302.064 75.9746 301.873 75.6193 301.594 75.3411C300.752 74.6208 299.729 74.1455 298.636 73.9668C298.255 73.8799 297.908 73.6811 297.641 73.3959C297.374 73.1107 297.198 72.7522 297.136 72.3663C296.566 69.0144 294.312 60.5427 285.865 60.3667C283.286 60.2389 280.725 60.863 278.493 62.1631C276.262 63.4632 274.456 65.3835 273.296 67.6905C273.074 68.1208 272.704 68.4564 272.254 68.6351C271.805 68.8138 271.305 68.8235 270.849 68.6625C269.265 68.0927 266.827 67.967 264.841 71.1764C264.612 71.5559 264.265 71.8496 263.853 72.0117C263.441 72.1738 262.987 72.1954 262.561 72.073C261.341 71.6298 260.012 71.5866 258.766 71.9497C257.52 72.3129 256.422 73.0634 255.631 74.0925C255.431 74.3615 255.165 74.5734 254.857 74.7072C254.55 74.841 254.213 74.8919 253.88 74.8551C252.947 74.7336 252.005 74.6916 251.064 74.7294C248.475 74.8634 248.609 78.7348 251.173 78.7348Z" stroke="#263238" stroke-linecap="round" stroke-linejoin="round"/>
<path d="M37.5016 74.1593H113.103C115.834 74.1593 117.292 70.8075 115.298 68.9304C113.995 67.8294 112.421 67.0974 110.74 66.8104C110.151 66.679 109.615 66.374 109.201 65.9348C108.787 65.4956 108.515 64.9425 108.418 64.3468C107.58 59.1011 104.061 46.1043 91.0307 45.8362C79.3662 45.6016 73.8189 52.9253 71.6067 57.1319C71.2645 57.7965 70.6931 58.3147 69.9983 58.5904C69.3035 58.8662 68.5323 58.8809 67.8275 58.6319C65.389 57.7939 61.6266 57.5677 58.5596 62.5368C58.2068 63.1199 57.6717 63.5705 57.037 63.8189C56.4023 64.0674 55.7035 64.0997 55.0486 63.911C52.3168 63.0731 47.7248 62.6792 44.3562 67.0283C44.0481 67.4451 43.6359 67.7736 43.1609 67.981C42.6858 68.1883 42.1647 68.2672 41.6496 68.2098C40.2135 68.0236 38.7642 67.9591 37.3173 68.017C33.3286 68.2014 33.5381 74.1593 37.5016 74.1593Z" stroke="#263238" stroke-linecap="round" stroke-linejoin="round"/>
<path d="M303.89 328.531C284.893 346.128 185.335 351.072 172.757 351.072C159.45 351.072 70.2408 348.081 44.4483 328.489L44.3142 328.372L133.138 303.233H214.303L303.89 328.531Z" fill="#BFBFBF"/>
<path d="M260.24 332.336L197.921 303.258" stroke="#263238" stroke-linecap="round" stroke-linejoin="round"/>
<path d="M278.24 340.732L263.182 333.71" stroke="#263238" stroke-linecap="round" stroke-linejoin="round"/>
<path d="M189.969 314.194L182.159 303.267" stroke="#263238" stroke-linecap="round" stroke-linejoin="round"/>
<path d="M208.932 340.732L191.787 316.733" stroke="#263238" stroke-linecap="round" stroke-linejoin="round"/>
<path d="M146.672 330.861L166.389 303.267" stroke="#263238" stroke-linecap="round" stroke-linejoin="round"/>
<path d="M139.616 340.732L144.141 334.405" stroke="#263238" stroke-linecap="round" stroke-linejoin="round"/>
<path d="M125.647 314.914L150.618 303.267" stroke="#263238" stroke-linecap="round" stroke-linejoin="round"/>
<path d="M70.3079 340.732L120.979 317.093" stroke="#263238" stroke-linecap="round" stroke-linejoin="round"/>
<path d="M2.07263 340.313L44.3143 328.372L133.155 303.267" stroke="#263238" stroke-linecap="round" stroke-linejoin="round"/>
<path d="M347.548 303.267H324.252H323.917H289.033H284.868H214.32H214.194H213.7H197.938H182.159H166.389H150.618H134.856H133.155H24.7395H24.6557H1" stroke="#263238" stroke-linecap="round" stroke-linejoin="round"/>
<path d="M214.32 303.267L303.89 328.531L351 341.813" stroke="#263238" stroke-linecap="round" stroke-linejoin="round"/>
<path d="M318.068 287.396C318.068 287.396 332.85 286.332 340.224 272.313C348.184 257.154 328.769 221.197 318.847 218.532C307.954 215.599 290.759 244.325 294.278 266.656C296.692 281.874 311.239 287.002 318.068 287.396Z" fill="#92E3A9"/>
<path opacity="0.3" d="M318.068 287.396C318.068 287.396 332.85 286.332 340.224 272.313C348.184 257.154 328.769 221.197 318.847 218.532C307.954 215.599 290.759 244.325 294.278 266.656C296.692 281.874 311.239 287.002 318.068 287.396Z" fill="white"/>
<path d="M328.392 261.612L318.931 271.969C318.931 272.33 318.931 272.682 318.931 273.042C318.998 277.667 319.09 282.452 319.166 287.287C319.166 287.597 319.166 287.916 319.166 288.226C319.216 291.988 319.392 300.016 319.451 303.845C319.455 304.124 319.404 304.4 319.301 304.659C319.198 304.917 319.044 305.153 318.85 305.351C318.655 305.55 318.422 305.708 318.166 305.817C317.91 305.925 317.634 305.981 317.356 305.982C317.072 305.986 316.791 305.932 316.529 305.824C316.267 305.716 316.03 305.557 315.831 305.355C315.632 305.153 315.476 304.913 315.373 304.649C315.269 304.385 315.219 304.104 315.227 303.82L315.596 288.201V287.136L315.646 285.393L315.705 282.787L303.58 269.598C304.552 269.598 302.809 267.771 302.633 267.595L315.889 277.936L316.417 255.361L308.465 246.705C309.152 246.705 307.912 245.414 307.786 245.28L316.493 252.135V251.707L316.97 232.082L318.278 233.515C318.278 233.515 318.537 248.867 318.864 268.098L329.154 259.911C329.012 260.07 327.621 261.62 328.392 261.612Z" fill="white" stroke="#263238" stroke-linecap="round" stroke-linejoin="round"/>
<path d="M39.9064 287.304C40.7456 287.369 41.5897 287.333 42.4202 287.195C46.7106 286.466 59.0789 282.787 72.5115 264.067C87.0752 243.764 59.4309 180.908 43.937 166.453C28.443 151.998 -1.69846 230.959 1.7707 250.962C6.68116 278.782 27.2364 286.265 39.9064 287.304Z" fill="#92E3A9"/>
<path opacity="0.3" d="M39.9064 287.304C40.7456 287.369 41.5897 287.333 42.4202 287.195C46.7106 286.466 59.0789 282.787 72.5115 264.067C87.0752 243.764 59.4309 180.908 43.937 166.453C28.443 151.998 -1.69846 230.959 1.7707 250.962C6.68116 278.782 27.2364 286.265 39.9064 287.304Z" fill="white"/>
<path d="M68.548 245.925L45.4119 268.927L47.5906 323.63C47.6109 324.133 47.5293 324.636 47.3507 325.107C47.1721 325.579 46.9001 326.009 46.5512 326.373C46.2022 326.737 45.7834 327.027 45.3198 327.225C44.8562 327.423 44.3574 327.525 43.8533 327.526C43.3614 327.527 42.8743 327.431 42.4198 327.243C41.9653 327.055 41.5525 326.779 41.2051 326.431C40.8578 326.083 40.5827 325.669 40.3958 325.214C40.2088 324.76 40.1137 324.272 40.1159 323.78C40.1159 312.703 40.3673 278.463 40.5768 239.666L22.8372 222.655C24.1863 222.655 21.773 220.359 21.5383 220.141L40.6187 233.406C40.7696 203.985 40.912 180.288 40.912 180.288L42.6466 178.168L43.6102 209.633L59.9673 197.86C59.7243 198.086 57.3109 200.374 58.66 200.374L43.7778 215.147L45.1689 260.481L70.4083 242.305C70.0731 242.632 66.6123 245.925 68.548 245.925Z" fill="white" stroke="#263238" stroke-linecap="round" stroke-linejoin="round"/>
<path d="M174.274 291.837C107.614 291.837 53.3809 237.604 53.3809 170.944C53.3809 104.284 107.614 50.0432 174.274 50.0432C240.934 50.0432 295.166 104.276 295.166 170.944C295.166 237.613 240.934 291.837 174.274 291.837ZM174.274 57.5849C111.77 57.5849 60.9225 108.441 60.9225 170.944C60.9225 233.448 111.77 284.296 174.274 284.296C236.777 284.296 287.625 233.473 287.625 170.944C287.625 108.416 236.777 57.5849 174.274 57.5849Z" fill="white"/>
<path d="M174.274 291.837C107.614 291.837 53.3809 237.604 53.3809 170.944C53.3809 104.284 107.614 50.0432 174.274 50.0432C240.934 50.0432 295.166 104.276 295.166 170.944C295.166 171.944 294.769 172.904 294.062 173.611C293.355 174.318 292.396 174.715 291.396 174.715C290.395 174.715 289.436 174.318 288.729 173.611C288.022 172.904 287.625 171.944 287.625 170.944C287.625 108.441 236.777 57.5849 174.274 57.5849C111.77 57.5849 60.9225 108.441 60.9225 170.944C60.9225 233.448 111.77 284.296 174.274 284.296C175.274 284.296 176.233 284.693 176.94 285.4C177.647 286.107 178.044 287.066 178.044 288.066C178.044 289.066 177.647 290.026 176.94 290.733C176.233 291.44 175.274 291.837 174.274 291.837Z" fill="#92E3A9"/>
<path d="M170.922 11.0442C168.363 11.0442 165.909 12.0601 164.099 13.8686C162.289 15.6772 161.271 18.1304 161.269 20.6891C161.269 24.041 165.182 31.0044 168.023 35.5797C169.615 38.2277 170.922 40.0544 170.922 40.0544C170.922 40.0544 172.196 38.1942 173.805 35.5797C176.654 31.0044 180.559 24.0745 180.559 20.6891C180.556 18.1333 179.541 15.6826 177.734 13.8745C175.928 12.0665 173.478 11.0486 170.922 11.0442ZM170.922 25.4404C170.054 25.4404 169.205 25.1829 168.483 24.7004C167.76 24.2179 167.198 23.5321 166.865 22.7298C166.533 21.9275 166.446 21.0446 166.615 20.1928C166.785 19.3411 167.203 18.5587 167.817 17.9446C168.431 17.3305 169.214 16.9123 170.065 16.7429C170.917 16.5735 171.8 16.6604 172.602 16.9928C173.405 17.3251 174.09 17.8879 174.573 18.61C175.055 19.3321 175.313 20.181 175.313 21.0495C175.314 21.6264 175.201 22.1979 174.981 22.7311C174.761 23.2643 174.437 23.7488 174.029 24.1568C173.621 24.5647 173.137 24.8881 172.604 25.1084C172.07 25.3287 171.499 25.4415 170.922 25.4404Z" fill="#92E3A9"/>
<path d="M153.274 17.2789C151.274 17.2789 149.356 18.0734 147.942 19.4878C146.527 20.9021 145.733 22.8203 145.733 24.8205C145.733 27.4852 148.8 32.9236 151.037 36.552C152.311 38.6134 153.308 40.0714 153.308 40.0714C153.308 40.0714 154.313 38.6134 155.579 36.552C157.808 32.9571 160.883 27.5188 160.883 24.8205C160.883 23.8245 160.686 22.8383 160.303 21.9189C159.919 20.9995 159.358 20.1651 158.65 19.4639C157.943 18.7627 157.104 18.2086 156.181 17.8336C155.258 17.4585 154.27 17.27 153.274 17.2789ZM153.274 28.583C152.592 28.583 151.924 28.3805 151.356 28.0011C150.789 27.6218 150.346 27.0826 150.085 26.4517C149.823 25.8209 149.755 25.1267 149.888 24.457C150.021 23.7873 150.35 23.1722 150.833 22.6893C151.316 22.2065 151.931 21.8777 152.601 21.7445C153.27 21.6113 153.965 21.6797 154.596 21.941C155.226 22.2023 155.766 22.6448 156.145 23.2125C156.524 23.7803 156.727 24.4477 156.727 25.1306C156.731 25.5864 156.645 26.0385 156.473 26.4608C156.302 26.8831 156.048 27.2671 155.727 27.5905C155.406 27.914 155.024 28.1705 154.603 28.3452C154.182 28.5199 153.73 28.6092 153.274 28.6081V28.583Z" fill="#263238"/>
<path d="M170.855 40.7417H166.933C166.801 40.7352 166.677 40.677 166.588 40.5798C166.498 40.4826 166.451 40.3541 166.455 40.2221C166.464 40.0937 166.518 39.9723 166.606 39.879C166.695 39.7857 166.814 39.7263 166.942 39.711H170.863C170.989 39.727 171.104 39.7882 171.187 39.883C171.271 39.9779 171.317 40.0999 171.317 40.2263C171.317 40.3527 171.271 40.4748 171.187 40.5696C171.104 40.6645 170.989 40.7257 170.863 40.7417H170.855ZM163.992 40.6914H160.07C160.005 40.6892 159.941 40.6743 159.882 40.6474C159.823 40.6206 159.77 40.5823 159.725 40.5348C159.681 40.4873 159.647 40.4316 159.624 40.3708C159.601 40.3099 159.59 40.2452 159.593 40.1802C159.589 40.1146 159.599 40.049 159.621 39.9872C159.644 39.9254 159.678 39.8686 159.722 39.8202C159.767 39.7719 159.82 39.7328 159.88 39.7055C159.94 39.6781 160.005 39.6628 160.07 39.6607H163.992C164.124 39.6672 164.248 39.7254 164.337 39.8226C164.427 39.9198 164.474 40.0483 164.47 40.1802C164.463 40.3041 164.411 40.4211 164.322 40.508C164.234 40.595 164.116 40.6455 163.992 40.6495V40.6914Z" fill="#263238"/>
<path d="M157.213 40.6495H153.325C153.259 40.6485 153.194 40.6343 153.134 40.6079C153.074 40.5815 153.02 40.5435 152.974 40.4959C152.929 40.4483 152.894 40.3922 152.871 40.3308C152.847 40.2694 152.836 40.204 152.839 40.1384C152.836 40.0723 152.847 40.0065 152.87 39.9446C152.894 39.8828 152.929 39.8261 152.974 39.7779C153.019 39.7296 153.073 39.6907 153.134 39.6634C153.194 39.6362 153.259 39.621 153.325 39.6188H157.246C157.378 39.6254 157.502 39.6835 157.592 39.7807C157.681 39.8779 157.729 40.0064 157.724 40.1384C157.726 40.2061 157.715 40.2736 157.69 40.3367C157.665 40.3998 157.627 40.4571 157.579 40.505C157.532 40.553 157.474 40.5905 157.411 40.6154C157.348 40.6402 157.281 40.6519 157.213 40.6495Z" fill="#263238"/>
<path d="M188.242 13.8598C187.404 13.8598 186.835 14.329 186.835 15.5357V17.396H184.262V15.7201C184.262 12.9548 185.645 11.371 188.318 11.371C190.991 11.371 192.365 12.9548 192.365 15.7201C192.365 21.1584 186.952 23.1863 186.952 26.027C186.939 26.1496 186.939 26.2731 186.952 26.3957H192.097V28.8677H184.237V26.7644C184.237 21.6696 189.625 20.8316 189.625 15.8709C189.65 14.2788 189.105 13.8598 188.242 13.8598Z" fill="#263238"/>
<path d="M199.287 15.8373C199.287 14.2787 198.742 13.8597 197.879 13.8597C197.016 13.8597 196.471 14.3289 196.471 15.5356V16.6501H193.899V15.7367C193.899 12.9714 195.281 11.3877 197.954 11.3877C200.628 11.3877 202.01 12.9714 202.01 15.7367V16.1808C202.01 18.0327 201.415 19.1975 200.108 19.7422C201.465 20.3371 202.01 21.6192 202.01 23.3705V24.7364C202.01 27.5017 200.619 29.0855 197.954 29.0855C195.29 29.0855 193.899 27.5017 193.899 24.7364V23.3035H196.471V24.904C196.471 26.1442 197.016 26.5799 197.879 26.5799C198.742 26.5799 199.287 26.161 199.287 24.6275V23.3035C199.287 21.6946 198.742 21.0997 197.51 21.0997H196.597V18.5858H197.661C198.667 18.5858 199.287 18.1417 199.287 16.759V15.8373Z" fill="#263238"/>
<path d="M186.483 37.6998L187.229 32.7474H188.754V39.7277H187.723V34.6999L186.96 39.7277H185.921L185.083 34.7921V39.7277H184.128V32.7474H185.653L186.483 37.6998Z" fill="#263238"/>
<path d="M189.558 32.7474H190.656V39.7277H189.558V32.7474Z" fill="#263238"/>
<path d="M191.452 32.7474H192.55V38.7305H194.385V39.7277H191.452V32.7474Z" fill="#263238"/>
<path d="M195.935 35.7138H197.435V36.711H195.935V38.7305H197.829V39.7277H194.837V32.7474H197.829V33.7446H195.935V35.7138Z" fill="#263238"/>
<path d="M199.982 32.6637C201.047 32.6637 201.6 33.3089 201.6 34.4234V34.6413H200.561V34.348C200.561 33.8536 200.359 33.6609 200.016 33.6609C199.672 33.6609 199.463 33.8536 199.463 34.348C199.463 35.7893 201.608 36.0239 201.608 38.0518C201.643 38.2797 201.626 38.5125 201.558 38.7328C201.49 38.9531 201.373 39.1551 201.216 39.3237C201.058 39.4923 200.865 39.623 200.65 39.706C200.435 39.7891 200.204 39.8223 199.974 39.8031C198.893 39.8031 198.34 39.1663 198.34 38.0518V37.6244H199.413V38.1188C199.413 38.6216 199.63 38.7976 199.974 38.7976C200.318 38.7976 200.544 38.6216 200.544 38.1188C200.544 36.6859 198.399 36.4429 198.399 34.4234C198.365 33.3089 198.918 32.6637 199.982 32.6637Z" fill="#263238"/>
<path d="M183.047 318.618C182.144 318.938 181.378 319.557 180.877 320.373C180.375 321.189 180.168 322.151 180.29 323.101C180.5 326.688 176.611 336.551 180.525 338.729C184.966 341.201 192.558 341.017 193.144 338.888C193.731 336.76 191.334 333.408 191.552 330.777C191.77 328.146 193.765 319.506 190.572 318.719C187.379 317.931 183.047 318.618 183.047 318.618Z" fill="white" stroke="#263238" stroke-linecap="round" stroke-linejoin="round"/>
<path d="M182.234 320.839C182.707 321.278 183.004 321.873 183.072 322.515C183.324 324.492 183.91 319.825 187.262 320.303C190.614 320.78 189.416 323.37 189.977 323.587C190.279 323.705 190.346 322.749 190.547 321.794C190.614 317.177 190.857 308.387 191.72 304.641C192.91 299.387 194.351 289.994 193.639 286.784C193.639 286.784 199.58 280.231 200.217 257.497L183.273 257.288L182.988 280.248C182.988 280.248 178.204 286.214 179.938 298.097C181.17 306.644 181.916 316.188 182.234 320.839Z" fill="#999999" stroke="#263238" stroke-linecap="round" stroke-linejoin="round"/>
<path d="M193.019 336.693C193.019 336.693 189.751 333.743 186.676 333.844" stroke="#263238" stroke-linecap="round" stroke-linejoin="round"/>
<path d="M205.68 291.234C204.045 294.434 203.744 298.152 204.842 301.574C206.652 307.624 203.745 314.554 207.666 317.051C211.588 319.549 222.331 318.359 219.247 309.284C216.163 300.208 217.32 294.393 213.7 292.273C210.08 290.153 205.68 291.234 205.68 291.234Z" fill="white" stroke="#263238" stroke-linecap="round" stroke-linejoin="round"/>
<path d="M224.367 235.744L211.144 236.724L203.2 242.816C203.2 242.816 202.656 253.626 206.141 260.782L208.119 267.729C207.098 270.432 206.699 273.33 206.954 276.209C207.264 281.295 208.538 285.267 206.954 289.574C206.35 291.242 206.099 293.017 206.217 294.786C206.432 295.083 206.594 295.415 206.695 295.767C207.373 297.962 208.555 293.521 211.446 293.848C214.337 294.175 212.921 296.42 213.574 296.454C215.25 291.468 223.219 267.293 219.926 260.983C219.926 260.983 225.289 255.159 226.713 248.045C227.56 243.795 226.719 239.383 224.367 235.744Z" fill="#999999" stroke="#263238" stroke-linecap="round" stroke-linejoin="round"/>
<path d="M219.306 148.001C219.306 148.001 224.241 142.001 219.859 138.297C219.859 138.297 217.345 127.11 209.619 129.75C201.893 132.39 202.815 134.334 202.815 134.334C202.815 134.334 194.167 134.627 194.879 139.303C195.591 143.979 197.217 143.593 197.217 143.593C197.217 143.593 194.871 144.674 195.734 148.235C196.597 151.797 200.46 151.504 200.46 151.504L219.306 148.001Z" fill="#263238"/>
<path d="M232.604 179.374C234.74 180.591 236.8 181.937 238.772 183.405C238.772 183.405 238.453 186.22 243.045 191.223C247.637 196.226 249.749 205.703 249.749 205.703C247.411 209.809 247.889 210.295 247.704 213.395C247.52 216.496 246.623 218.373 247.26 220.501C247.897 222.63 249.975 221.381 249.975 221.381C252.799 221.381 254.475 216.085 254.475 216.085C254.475 216.085 255.933 208.041 253.528 197.139C252.123 190.678 249.925 184.416 246.984 178.494C246.984 178.494 242.04 172.629 240.163 170.852C237.892 168.749 230.325 163.31 230.325 163.31L228.171 178.167C229.673 178.478 231.153 178.881 232.604 179.374Z" fill="#999999" stroke="#263238" stroke-linecap="round" stroke-linejoin="round"/>
<path d="M231.255 179.843L231.029 181.058C232.302 178.691 233.292 176.182 233.978 173.584C234.742 170.705 234.551 167.655 233.434 164.894C232.914 163.738 231.448 162.003 230.384 163.436C231.285 167.016 231.719 170.697 231.674 174.388C231.647 176.213 231.507 178.035 231.255 179.843Z" fill="white" stroke="#263238" stroke-linecap="round" stroke-linejoin="round"/>
<path d="M230.66 181.729L231.02 181.025L231.255 179.843C231.507 178.035 231.647 176.214 231.674 174.388C231.733 170.685 231.311 166.989 230.417 163.394C230.416 163.411 230.416 163.428 230.417 163.444C229.713 164.458 230.978 167.5 231.129 168.556C231.403 170.78 231.47 173.024 231.33 175.26C231.171 176.969 231.448 180.187 230.66 181.729Z" fill="white" stroke="#263238" stroke-linecap="round" stroke-linejoin="round"/>
<path d="M240.741 183.421C240.741 183.421 243.841 184.352 245.299 180.464" stroke="#263238" stroke-linecap="round" stroke-linejoin="round"/>
<path d="M251.5 210.136C250.936 211.291 250.541 212.521 250.327 213.789C250.017 215.758 249.447 217.828 247.62 216.303" stroke="#263238" stroke-linecap="round" stroke-linejoin="round"/>
<path d="M185.829 231.872C185.829 231.872 181.581 240.252 181.531 259.299C181.531 259.299 187.899 262.014 193.949 259.458C199.999 256.902 202.044 259.751 202.044 259.751L203.066 253.358C203.066 253.358 202.488 239.23 214.714 240.327C226.94 241.425 225.289 252.511 225.289 252.511C225.289 252.511 231.155 236.959 226.697 230.314C222.239 223.669 185.829 231.872 185.829 231.872Z" fill="#263238" stroke="#263238" stroke-linecap="round" stroke-linejoin="round"/>
<path d="M202.48 240.403C201.642 242.598 201.089 245.975 201.591 251.078" stroke="#7F7F7F" stroke-linecap="round" stroke-linejoin="round"/>
<path d="M205.085 236.649C204.606 236.961 204.191 237.362 203.862 237.83" stroke="#7F7F7F" stroke-linecap="round" stroke-linejoin="round"/>
<path d="M230.417 163.394C230.414 163.377 230.414 163.36 230.417 163.344C209.51 154.738 191.929 165.187 186.282 169.209C188.603 169.695 190.957 171.723 192.348 174.882C195.265 181.527 193.421 185.7 191.753 190.804C192.33 186.047 191.208 181.239 188.586 177.229C187.681 175.871 186.391 174.514 184.857 174.246L187.471 194.591L183.6 233.515C183.6 233.515 185.209 239.933 203.921 233.766C222.632 227.599 228.389 234.076 228.389 234.076L226.353 215.968C225.928 212.212 226.058 208.415 226.738 204.697L231.071 181L231.255 179.843C231.507 178.035 231.647 176.213 231.674 174.388C231.733 170.684 231.311 166.989 230.417 163.394Z" fill="white" stroke="#263238" stroke-linecap="round" stroke-linejoin="round"/>
<path opacity="0.7" d="M204.566 229.216C205.647 226.275 208.303 224.138 211.203 222.948C214.174 221.898 217.276 221.261 220.42 221.054C216.148 219.096 211.484 218.144 206.787 218.272C205.622 218.272 204.273 218.347 203.477 217.518C203.109 217.057 202.897 216.492 202.871 215.903C202.846 215.314 203.008 214.732 203.334 214.241C204.007 213.279 204.861 212.456 205.848 211.82C212.928 206.458 218.48 199.337 221.954 191.164C217.3 198.358 211.012 204.35 203.602 208.652C205.183 204.636 206.77 200.616 208.362 196.594L195.466 208.451C195.339 208.603 195.182 208.726 195.004 208.813C194.827 208.9 194.633 208.948 194.435 208.954C193.815 208.87 193.597 208.066 193.597 207.437C193.463 201.807 194.419 196.204 196.413 190.938C196.838 190.049 197.05 189.074 197.033 188.089C197.01 187.597 196.804 187.131 196.455 186.784C196.106 186.436 195.639 186.232 195.147 186.212C196.299 184.329 196.929 182.175 196.974 179.969L194.251 181.854C194.251 184.628 193.413 187.091 192.499 189.756C192.365 190.153 192.231 190.555 192.097 190.963C192.064 191.061 191.997 191.143 191.907 191.194C191.817 191.245 191.712 191.261 191.611 191.239C191.567 191.228 191.525 191.211 191.485 191.189C191.485 191.407 191.443 191.625 191.418 191.843C190.865 196.183 189.533 200.373 188.385 204.596C187.307 208.591 186.393 212.624 185.645 216.697L183.969 233.339C184.035 233.539 184.113 233.735 184.204 233.925C184.254 234.009 184.312 234.068 184.363 234.151C184.706 234.531 185.115 234.846 185.569 235.082C187.84 236.288 192.826 236.984 203.72 233.406C210.13 231.286 215.04 230.64 218.736 230.707L219.004 230.649C214.275 229.543 209.421 229.061 204.566 229.216Z" fill="#92E3A9"/>
<path d="M222.314 190.586C219.2 197.872 214.532 204.389 208.637 209.682C202.742 214.975 195.761 218.917 188.184 221.231" stroke="#263238" stroke-linecap="round" stroke-linejoin="round"/>
<path d="M220.63 220.3C210.053 217.615 198.86 218.897 189.164 223.903" stroke="#263238" stroke-linecap="round" stroke-linejoin="round"/>
<path d="M197.552 175.654C197.82 178.104 197.554 180.584 196.771 182.922C195.989 185.259 194.708 187.4 193.019 189.195" stroke="#263238" stroke-linecap="round" stroke-linejoin="round"/>
<path d="M224.116 169.972C226.807 173.914 228.177 178.609 228.029 183.379" stroke="#263238" stroke-linecap="round" stroke-linejoin="round"/>
<path d="M202.044 158.609C202.044 158.609 201.382 169.503 208.169 169.595C216.825 169.704 216.465 159.816 216.465 159.816L202.044 158.609Z" fill="#999999" stroke="#263238" stroke-linecap="round" stroke-linejoin="round"/>
<path d="M201.13 147.339C201.13 147.339 200.678 156.975 202.194 159.514C203.711 162.054 207.951 165.749 211.278 165.791C214.605 165.833 218.82 161.283 219.054 159.464C219.289 157.646 219.23 145.571 219.23 145.571C219.23 145.571 218.861 136.102 211.689 136.01C204.516 135.917 201.139 141.607 201.13 147.339Z" fill="#999999" stroke="#263238" stroke-linecap="round" stroke-linejoin="round"/>
<path d="M219.247 148.294C219.459 148.153 219.7 148.06 219.952 148.023C220.204 147.985 220.461 148.003 220.705 148.076C221.82 148.453 222.272 150.079 221.711 151.696C221.565 152.285 221.248 152.818 220.801 153.228C220.354 153.637 219.796 153.906 219.197 154.001C219.247 152.031 219.247 149.911 219.247 148.294Z" fill="#999999" stroke="#263238" stroke-linecap="round" stroke-linejoin="round"/>
<path d="M207.909 148.269C207.909 148.847 207.599 149.316 207.222 149.308C206.845 149.3 206.56 148.83 206.569 148.252C206.577 147.674 206.879 147.196 207.256 147.205C207.633 147.213 207.918 147.682 207.909 148.269Z" fill="#263238"/>
<path d="M213.943 157.487C213.996 158.633 213.909 159.781 213.683 160.906C213.683 160.973 213.683 161.04 213.633 161.115C213.531 161.46 213.363 161.781 213.138 162.062C212.926 162.344 212.64 162.564 212.313 162.696C211.985 162.829 211.627 162.871 211.278 162.816C210.972 162.732 210.69 162.576 210.456 162.362C210.221 162.148 210.041 161.882 209.929 161.584C209.742 161.171 209.629 160.729 209.594 160.277C209.586 160.182 209.586 160.087 209.594 159.992C209.544 159.253 209.659 158.512 209.929 157.822L213.943 157.487Z" fill="#263238" stroke="#263238" stroke-linecap="round" stroke-linejoin="round"/>
<path d="M209.862 157.822L213.44 157.931C213.44 157.931 213.901 157.78 213.867 157.394C213.853 157.305 213.822 157.22 213.775 157.143V157.093C213.557 156.81 213.268 156.59 212.937 156.456C212.46 156.34 211.969 156.295 211.479 156.322C211.358 156.352 211.24 156.394 211.127 156.447C210.545 156.726 210.092 157.218 209.862 157.822Z" fill="white" stroke="#263238" stroke-linecap="round" stroke-linejoin="round"/>
<path d="M209.552 160.185C209.552 160.185 209.552 160.017 209.669 160.059C209.787 160.101 211.102 161.282 211.781 161.333C213.666 161.333 213.457 160.243 213.457 160.268C213.602 160.423 213.682 160.627 213.683 160.838C213.675 161.06 213.622 161.278 213.528 161.48C213.435 161.681 213.302 161.862 213.138 162.011C212.927 162.225 212.673 162.391 212.393 162.497C212.077 162.591 211.744 162.61 211.42 162.554C211.096 162.497 210.789 162.366 210.524 162.171C210.283 161.99 210.078 161.765 209.921 161.509C209.779 161.336 209.673 161.136 209.61 160.922C209.547 160.707 209.527 160.482 209.552 160.26V160.185Z" fill="white" stroke="#263238" stroke-linecap="round" stroke-linejoin="round"/>
<path d="M215.518 148.193C215.518 148.78 215.2 149.249 214.831 149.241C214.462 149.232 214.169 148.763 214.169 148.176C214.169 147.59 214.487 147.129 214.856 147.129C215.225 147.129 215.526 147.615 215.518 148.193Z" fill="#263238"/>
<path d="M213.096 145.973C213.096 145.973 215.334 144.046 217.052 144.984" stroke="#263238" stroke-linecap="round" stroke-linejoin="round"/>
<path d="M209.393 145.931C209.393 145.931 207.214 143.936 205.463 144.833" stroke="#263238" stroke-linecap="round" stroke-linejoin="round"/>
<path d="M192.994 185.508C191.477 191.432 189.709 200.29 189.709 200.29L196.555 194.424C196.555 194.424 199.279 187.134 201.709 184.972C202.639 184.134 203.519 179.408 204.784 179.986C206.049 180.564 205.228 183.505 205.228 183.505C206.117 183.696 206.985 183.977 207.817 184.343C208.655 184.771 210.7 192.664 209.703 193.36C208.706 194.055 207.608 191.357 207.005 194.457C206.401 197.558 200.996 200.323 200.996 200.323C200.996 200.323 191.779 212.893 187.824 214.979C183.868 217.066 179.595 218.121 178.464 207.094C177.85 199.957 178.371 192.767 180.005 185.793C180.005 185.793 177.642 173.718 184.338 170.71C191.033 167.701 194.661 179.005 192.994 185.508Z" fill="#999999" stroke="#263238" stroke-linecap="round" stroke-linejoin="round"/>
<path d="M185.418 204.194L190.128 199.82" stroke="#263238" stroke-linecap="round" stroke-linejoin="round"/>
<path d="M201.39 185.432L205.429 183.53" stroke="#263238" stroke-linecap="round" stroke-linejoin="round"/>
<path d="M182.436 186.715C182.436 186.715 183.91 189.161 186.34 189.497" stroke="#263238" stroke-linecap="round" stroke-linejoin="round"/>
<path d="M200.586 200.667C200.929 200.893 200.77 201.404 200.535 201.731C200.104 202.343 199.64 202.93 199.144 203.491C198.617 204.077 198.348 204.329 197.854 204.27C197.36 204.212 196.002 203.315 193.957 200.382C193.304 199.444 192.65 196.796 193.606 195.815C194.561 194.835 197.418 193 196.672 193.779C195.223 195.312 196.061 197.776 200.586 200.667Z" fill="#263238" stroke="#263238" stroke-linecap="round" stroke-linejoin="round"/>
<path d="M194.276 200.859C193.428 199.948 192.737 198.903 192.231 197.767C191.753 196.929 192.281 196.418 192.809 195.873L193.89 194.893C194.728 194.197 195.248 194.172 195.516 194.893L195.717 195.345C196.134 196.207 196.702 196.987 197.393 197.65L197.72 198.002C197.805 198.105 197.868 198.224 197.906 198.352C197.943 198.481 197.954 198.615 197.937 198.748C197.921 198.88 197.877 199.008 197.81 199.124C197.742 199.239 197.652 199.339 197.544 199.418L195.65 201.22C195.538 201.292 195.411 201.34 195.28 201.361C195.148 201.382 195.013 201.376 194.884 201.342C194.754 201.308 194.634 201.247 194.529 201.164C194.424 201.081 194.338 200.977 194.276 200.859Z" fill="white" stroke="#263238" stroke-linecap="round" stroke-linejoin="round"/>
<path d="M193.463 199.954L192.902 200.181L192.181 199.108L192.642 198.656C192.642 198.656 193.052 199.309 193.463 199.954Z" fill="white" stroke="#263238" stroke-linecap="round" stroke-linejoin="round"/>
<path d="M212.82 146.098C212.82 146.098 212.694 150.799 213.767 152.702C214.379 153.774 213.046 154.637 212.435 154.813C211.823 154.989 209.535 154.084 209.761 152.911" stroke="#263238" stroke-width="0.75" stroke-linecap="round" stroke-linejoin="round"/>
<path d="M219.23 145.571L216.247 139.37L212.82 139.931L206.703 138.842L204.071 141.448L202.714 142.077L201.097 148.177L199.446 143.451L200.158 138.255L206.761 134.275L212.367 132.624L217.931 136.747L219.825 141.339L220.638 143.476L219.23 145.571Z" fill="#263238"/>
<path d="M201.507 155.4C201.765 153.98 202.505 152.692 203.602 151.755C202.903 150.863 202.565 149.742 202.655 148.612C202.751 147.496 202.736 146.374 202.614 145.261C202.585 144.988 202.464 144.733 202.27 144.54C201.826 144.171 201.105 144.54 200.904 145.076C200.544 146.048 201.021 148.353 201.005 149.434C200.971 151.434 201.14 153.433 201.507 155.4Z" fill="#263238"/>
<path d="M204.533 153.758C204.642 155.366 204.968 155.685 206.343 156.523C207.037 156.938 207.819 157.182 208.626 157.238C209.432 157.293 210.241 157.157 210.985 156.841C211.391 156.607 211.842 156.464 212.309 156.422C212.838 156.54 213.35 156.723 213.834 156.967C214.378 157.077 214.943 157.009 215.445 156.774C215.947 156.538 216.361 156.148 216.625 155.66C217.129 154.92 217.393 154.042 217.379 153.146C216.784 154.545 214.764 154.361 213.574 153.414C214.136 153.858 211.739 154.528 211.513 154.512C210.675 154.453 210.172 154.042 209.276 154.076C207.214 154.168 206.008 155.635 204.533 153.758Z" fill="#263238"/>
<path d="M199.069 147.473C199.44 147.389 199.827 147.411 200.185 147.537C200.544 147.663 200.86 147.888 201.097 148.185C201.097 149.258 201.038 151.244 201.097 153.288C201.04 153.327 200.978 153.358 200.912 153.381C199.79 153.733 198.466 152.702 197.954 151.068C197.443 149.434 197.954 147.825 199.069 147.473Z" fill="#999999" stroke="#263238" stroke-linecap="round" stroke-linejoin="round"/>
<path d="M202.195 159.515C203.703 162.028 207.951 165.749 211.278 165.791C212.803 165.791 214.504 164.861 215.937 163.654C215.499 165.374 214.535 166.915 213.18 168.062C212.568 168.324 211.911 168.466 211.245 168.481C207.96 168.439 203.787 164.836 202.228 162.305C202.085 161.261 202.018 160.208 202.027 159.154C202.076 159.277 202.132 159.398 202.195 159.515Z" fill="#263238"/>
<path d="M164.704 317.52C163.212 317.638 162.266 319.381 162.492 320.872C162.846 322.344 163.688 323.652 164.88 324.584C165.55 325.284 166.399 325.785 167.335 326.034C167.806 326.14 168.299 326.079 168.729 325.862C169.16 325.645 169.503 325.285 169.698 324.844C170.169 325.227 170.747 325.454 171.353 325.491C171.958 325.529 172.56 325.377 173.075 325.055C173.589 324.734 173.99 324.26 174.222 323.699C174.453 323.138 174.504 322.519 174.366 321.928C174.849 321.719 175.276 321.399 175.613 320.993C175.949 320.588 176.186 320.109 176.303 319.596C176.419 319.082 176.414 318.548 176.286 318.037C176.157 317.526 175.911 317.053 175.566 316.655C175.22 316.257 174.786 315.946 174.298 315.748C173.81 315.549 173.282 315.468 172.757 315.512C172.233 315.555 171.725 315.722 171.277 315.998C170.828 316.274 170.451 316.652 170.176 317.101C171.911 314.286 164.084 313.574 164.704 317.52Z" stroke="#263238" stroke-linecap="round" stroke-linejoin="round"/>
<path d="M236.04 145.898C234.867 144.741 232.395 144.968 231.012 145.856C230.326 146.319 229.81 146.994 229.543 147.778C229.277 148.562 229.275 149.411 229.537 150.196C229.235 150.148 228.924 150.198 228.653 150.34C228.381 150.482 228.162 150.708 228.029 150.984C227.903 151.272 227.877 151.594 227.956 151.898C228.035 152.202 228.214 152.47 228.465 152.66C227.97 152.791 227.523 153.06 227.175 153.436C226.828 153.812 226.594 154.278 226.502 154.782C226.41 155.285 226.463 155.804 226.654 156.279C226.846 156.753 227.169 157.164 227.585 157.462L225.465 158.207C225.787 158.531 226.201 158.748 226.65 158.83C227.099 158.913 227.562 158.856 227.979 158.668C227.978 158.916 228.053 159.159 228.192 159.364C228.332 159.569 228.53 159.727 228.761 159.817C228.992 159.908 229.244 159.927 229.486 159.871C229.728 159.816 229.947 159.688 230.115 159.506C230.261 159.65 230.443 159.75 230.642 159.796C230.842 159.841 231.05 159.831 231.243 159.764C231.436 159.698 231.607 159.579 231.737 159.421C231.866 159.263 231.949 159.072 231.976 158.869C232.413 159.533 233.077 160.015 233.843 160.226C234.609 160.438 235.426 160.364 236.142 160.02C236.858 159.675 237.425 159.082 237.737 158.351C238.05 157.621 238.087 156.801 237.841 156.045C239.107 155.45 239.794 154.914 239.693 153.012C239.593 151.11 237.221 150.054 237.255 149.979C237.808 148.722 237.163 146.987 236.04 145.898Z" fill="white" stroke="#263238" stroke-linecap="round" stroke-linejoin="round"/>
<path d="M203.711 186.681C205.153 185.541 206.921 184.921 208.831 186.681" stroke="#263238" stroke-linecap="round" stroke-linejoin="round"/>
<path d="M204.44 189.111C205.731 187.997 207.516 187.435 209.309 189.203" stroke="#263238" stroke-linecap="round" stroke-linejoin="round"/>
<path d="M205.228 191.491C206.41 190.527 208.815 190 209.812 191.592" stroke="#263238" stroke-linecap="round" stroke-linejoin="round"/>
<path d="M251.307 212.976L250.218 213.873" stroke="#263238" stroke-linecap="round" stroke-linejoin="round"/>
<path d="M247.327 219.345C248.92 219.261 250.78 218.691 251.517 217.275C251.927 216.655 252.262 215.988 252.514 215.289" stroke="#263238" stroke-linecap="round" stroke-linejoin="round"/>
<path d="M247.436 220.845C250.042 220.509 252.296 219.336 253.218 216.881" stroke="#263238" stroke-linecap="round" stroke-linejoin="round"/>
<path d="M208.035 255.872C208.472 256.213 208.834 256.641 209.1 257.128C209.365 257.615 209.527 258.151 209.577 258.704C209.666 259.811 209.868 260.906 210.18 261.972C210.347 262.501 210.67 262.968 211.106 263.311C211.543 263.653 212.073 263.855 212.627 263.891" stroke="#263238" stroke-linecap="round" stroke-linejoin="round"/>
<path d="M185.058 280.725C184.674 281.24 184.427 281.844 184.342 282.48C184.257 283.117 184.335 283.764 184.57 284.362C184.805 284.959 185.189 285.487 185.685 285.895C186.181 286.302 186.773 286.577 187.404 286.692" stroke="#263238" stroke-linecap="round" stroke-linejoin="round"/>
<path d="M184.857 287.681C184.714 288.126 184.685 288.6 184.771 289.059C184.858 289.518 185.057 289.949 185.351 290.312" stroke="#263238" stroke-linecap="round" stroke-linejoin="round"/>
<path d="M219.976 260.204C219.976 260.204 218.577 263.765 216.423 264.302" stroke="#263238" stroke-linecap="round" stroke-linejoin="round"/>
<path d="M193.094 283.164C193.094 283.164 192.449 289.558 188.854 291.024" stroke="#263238" stroke-linecap="round" stroke-linejoin="round"/>
</svg>
