<svg width="32" height="32" viewBox="0 0 32 32" fill="none" xmlns="http://www.w3.org/2000/svg">
<path d="M28 9.33333C28 12.28 22.6267 14.6667 16 14.6667C9.37333 14.6667 4 12.28 4 9.33333C4 6.38667 9.37333 4 16 4C22.6267 4 28 6.38667 28 9.33333Z" fill="black"/>
<path d="M28 9.33333C28 12.28 22.6267 14.6667 16 14.6667C9.37333 14.6667 4 12.28 4 9.33333M28 9.33333C28 6.38667 22.6267 4 16 4C9.37333 4 4 6.38667 4 9.33333M28 9.33333V16M4 9.33333V16M4 16C4 18.9467 9.37333 21.3333 16 21.3333M4 16V22.6667C4 25.6133 9.37333 28 16 28M24 20V24M24 24V28M24 24H28M24 24H20" stroke="black" stroke-width="2" stroke-linecap="round" stroke-linejoin="round"/>
</svg>
