<svg width="27" height="33" viewBox="0 0 27 33" fill="none" xmlns="http://www.w3.org/2000/svg">
<path d="M4.5 0C3.30653 0 2.16193 0.434597 1.31802 1.20818C0.474106 1.98177 0 3.03098 0 4.125V28.875C0 29.969 0.474106 31.0182 1.31802 31.7918C2.16193 32.5654 3.30653 33 4.5 33H22.5C23.6935 33 24.8381 32.5654 25.682 31.7918C26.5259 31.0182 27 29.969 27 28.875V4.125C27 3.03098 26.5259 1.98177 25.682 1.20818C24.8381 0.434597 23.6935 0 22.5 0L4.5 0ZM4.5 2.0625H22.5C23.0967 2.0625 23.669 2.2798 24.091 2.66659C24.5129 3.05339 24.75 3.57799 24.75 4.125V28.875C24.75 29.422 24.5129 29.9466 24.091 30.3334C23.669 30.7202 23.0967 30.9375 22.5 30.9375H4.5C3.90326 30.9375 3.33097 30.7202 2.90901 30.3334C2.48705 29.9466 2.25 29.422 2.25 28.875V4.125C2.25 3.57799 2.48705 3.05339 2.90901 2.66659C3.33097 2.2798 3.90326 2.0625 4.5 2.0625Z" fill="#DC1E1E"/>
<path d="M5.85651 24.9295C5.41665 24.7706 5.06266 24.4595 4.87101 24.0633C4.43226 23.263 4.57851 22.4628 5.05101 21.7904C5.49651 21.1572 6.23451 20.6189 7.06926 20.1672C8.12677 19.6178 9.24443 19.1719 10.4038 18.8369C11.3026 17.3524 12.1006 15.8184 12.7933 14.2437C12.3805 13.3831 12.0566 12.4888 11.8258 11.5728C11.6323 10.7478 11.558 9.93104 11.7223 9.22979C11.891 8.49966 12.3388 7.84379 13.1848 7.53235C13.6168 7.37354 14.0848 7.28485 14.5393 7.37354C14.7679 7.41815 14.9828 7.50885 15.1684 7.63906C15.3541 7.76927 15.5058 7.93573 15.6125 8.12635C15.8105 8.4646 15.8825 8.8606 15.8983 9.23598C15.914 9.62166 15.8713 10.0507 15.7925 10.5023C15.6035 11.5542 15.185 12.8412 14.6225 14.2025C15.2438 15.4192 15.9817 16.5828 16.8275 17.6798C17.829 17.6082 18.8362 17.6428 19.829 17.783C20.648 17.917 21.4805 18.1852 21.989 18.742C22.259 19.039 22.4233 19.402 22.439 19.8104C22.4548 20.2064 22.3333 20.5983 22.1285 20.9716C21.9512 21.3175 21.6762 21.6138 21.332 21.8296C20.9916 22.0325 20.5901 22.1321 20.1845 22.1142C19.4398 22.0853 18.713 21.71 18.0853 21.2542C17.3218 20.6758 16.6339 20.0183 16.0355 19.2948C14.5139 19.4525 13.0103 19.7327 11.5423 20.1322C10.8693 21.2253 10.101 22.2668 9.24501 23.2465C8.59251 23.9684 7.87701 24.5975 7.16151 24.8697C6.75004 25.0388 6.28433 25.0601 5.85651 24.9295ZM8.95926 21.0087C8.58426 21.1668 8.24001 21.3305 7.92651 21.4996C7.18851 21.8997 6.70926 22.2895 6.47076 22.6278C6.25926 22.9268 6.25476 23.1434 6.38076 23.3723C6.40476 23.4163 6.42426 23.4466 6.43926 23.4631L6.51801 23.4383C6.82626 23.3228 7.31676 22.9537 7.94676 22.2586C8.30553 21.8568 8.6434 21.4397 8.95926 21.0087ZM12.6493 18.2656C13.4007 18.1055 14.1588 17.9727 14.9218 17.8675C14.5127 17.2925 14.1298 16.7021 13.7743 16.0979C13.4211 16.8292 13.046 17.5513 12.6493 18.2635V18.2656ZM18.1528 19.1937C18.4918 19.5292 18.818 19.8111 19.1315 20.0393C19.6715 20.4312 20.0473 20.5612 20.252 20.5673C20.3069 20.5752 20.363 20.5642 20.4095 20.5364C20.5036 20.4691 20.5766 20.3802 20.621 20.2786C20.7007 20.1528 20.7462 20.0114 20.7538 19.8661C20.7515 19.8178 20.7308 19.7719 20.6953 19.7362C20.5783 19.6083 20.2453 19.4227 19.5298 19.3051C19.0745 19.2364 18.6141 19.1998 18.1528 19.1958V19.1937ZM13.6753 11.9626C13.8629 11.4023 14.0132 10.8319 14.1253 10.2548C14.1943 9.8671 14.2228 9.54741 14.2108 9.29579C14.2119 9.15692 14.1876 9.01887 14.1388 8.88741C14.0261 8.89967 13.9161 8.92749 13.8125 8.96991C13.6168 9.0421 13.457 9.18854 13.3715 9.5536C13.2815 9.9496 13.304 10.5209 13.475 11.249C13.529 11.4786 13.5965 11.7165 13.6775 11.9626H13.6753Z" fill="#DC1E1E"/>
</svg>
