<svg width="230" height="260" viewBox="0 0 230 260" fill="none" xmlns="http://www.w3.org/2000/svg">
<path opacity="0.8" d="M112.06 0C96.2053 0.267329 81.885 9.73193 75.4067 24.3668L152.975 47.8178C156.385 27.461 144.167 7.72411 124.505 1.7348C120.982 0.665479 117.288 0.07963 113.594 0H112.06ZM72.4518 34.1727C68.9853 54.5864 81.2031 74.3801 100.922 80.3524C120.698 86.3246 141.78 76.5415 150.077 57.601L72.4518 34.1727ZM223.326 59.3642C208.949 59.4211 193.663 66.3603 182.127 82.6844L111.208 183.303C92.1706 210.263 100.467 238.475 119.22 251.784C138.03 265.151 167.295 263.615 186.332 236.655L257.195 136.093C276.232 109.076 267.935 80.9212 249.183 67.5547C242.136 62.5494 233.669 59.6486 224.747 59.3642H223.326ZM222.304 69.2042C223.042 69.2042 223.781 69.2042 224.463 69.2611C231.339 69.5455 237.817 71.9912 243.273 75.9159C257.877 86.2678 265.208 106.915 248.785 130.178L212.132 182.222C191.788 176.762 165.647 158.162 153.771 140.701L190.537 88.5998C200.141 75.0058 211.563 69.4317 222.304 69.2042ZM40.3731 112.546C34.9064 112.603 29.5136 113.74 24.5015 115.958C5.68617 124.206 -4.10505 145.251 1.63444 165.045L75.9182 132.567C68.4739 119.997 54.9492 112.375 40.3731 112.546ZM79.9529 141.895L5.68049 174.43C16.165 192.289 38.2421 199.456 57.1654 191.209C76.0318 182.905 85.806 161.746 79.9529 141.895Z" fill="#3369FF" fill-opacity="0.7"/>
</svg>
